<svg viewBox="0 0 330 200" xmlns="http://www.w3.org/2000/svg"><g><g><g><g><g><line x1="50" y1="177" x2="45" y2="177" style="visibility: inherit;" fill="rgb(0, 0, 0)" stroke="rgb(200, 195, 188)" stroke-width="1px"></line><line x1="50" y1="157.33333333333286" x2="45" y2="157.33333333333286" style="visibility: inherit;" fill="rgb(0, 0, 0)" stroke="rgb(200, 195, 188)" stroke-width="1px"></line><line x1="50" y1="137.66666666666657" x2="45" y2="137.66666666666657" style="visibility: inherit;" fill="rgb(0, 0, 0)" stroke="rgb(200, 195, 188)" stroke-width="1px"></line><line x1="50" y1="117.99999999999942" x2="45" y2="117.99999999999942" style="visibility: inherit;" fill="rgb(0, 0, 0)" stroke="rgb(200, 195, 188)" stroke-width="1px"></line><line x1="50" y1="98.33333333333314" x2="45" y2="98.33333333333314" style="visibility: inherit;" fill="rgb(0, 0, 0)" stroke="rgb(200, 195, 188)" stroke-width="1px"></line><line x1="50" y1="78.66666666666686" x2="45" y2="78.66666666666686" style="visibility: inherit;" fill="rgb(0, 0, 0)" stroke="rgb(200, 195, 188)" stroke-width="1px"></line><line x1="50" y1="58.99999999999971" x2="45" y2="58.99999999999971" style="visibility: inherit;" fill="rgb(0, 0, 0)" stroke="rgb(200, 195, 188)" stroke-width="1px"></line><line x1="50" y1="39.33333333333343" x2="45" y2="39.33333333333343" style="visibility: inherit;" fill="rgb(0, 0, 0)" stroke="rgb(200, 195, 188)" stroke-width="1px"></line><line x1="50" y1="19.66666666666628" x2="45" y2="19.66666666666628" style="visibility: inherit;" fill="rgb(0, 0, 0)" stroke="rgb(200, 195, 188)" stroke-width="1px"></line></g><g transform="translate(40, 0)"><text x="0" y="177" dx="0em" dy="0.3em" style="text-anchor: end; visibility: hidden; font-family: Roboto, sans-serif; font-size: 12px; font-weight: 200;" fill="rgb(232, 230, 227)" stroke="none" stroke-width="1px">2.21</text><text x="0" y="157.33333333333286" dx="0em" dy="0.3em" style="text-anchor: end; visibility: inherit; font-family: Roboto, sans-serif; font-size: 12px; font-weight: 200;" fill="rgb(232, 230, 227)" stroke="none" stroke-width="1px">2.22</text><text x="0" y="137.66666666666657" dx="0em" dy="0.3em" style="text-anchor: end; visibility: hidden; font-family: Roboto, sans-serif; font-size: 12px; font-weight: 200;" fill="rgb(232, 230, 227)" stroke="none" stroke-width="1px">2.23</text><text x="0" y="117.99999999999942" dx="0em" dy="0.3em" style="text-anchor: end; visibility: inherit; font-family: Roboto, sans-serif; font-size: 12px; font-weight: 200;" fill="rgb(232, 230, 227)" stroke="none" stroke-width="1px">2.24</text><text x="0" y="98.33333333333314" dx="0em" dy="0.3em" style="text-anchor: end; visibility: hidden; font-family: Roboto, sans-serif; font-size: 12px; font-weight: 200;" fill="rgb(232, 230, 227)" stroke="none" stroke-width="1px">2.25</text><text x="0" y="78.66666666666686" dx="0em" dy="0.3em" style="text-anchor: end; visibility: inherit; font-family: Roboto, sans-serif; font-size: 12px; font-weight: 200;" fill="rgb(232, 230, 227)" stroke="none" stroke-width="1px">2.26</text><text x="0" y="58.99999999999971" dx="0em" dy="0.3em" style="text-anchor: end; visibility: hidden; font-family: Roboto, sans-serif; font-size: 12px; font-weight: 200;" fill="rgb(232, 230, 227)" stroke="none" stroke-width="1px">2.27</text><text x="0" y="39.33333333333343" dx="0em" dy="0.3em" style="text-anchor: end; visibility: inherit; font-family: Roboto, sans-serif; font-size: 12px; font-weight: 200;" fill="rgb(232, 230, 227)" stroke="none" stroke-width="1px">2.28</text><text x="0" y="19.66666666666628" dx="0em" dy="0.3em" style="text-anchor: end; visibility: hidden; font-family: Roboto, sans-serif; font-size: 12px; font-weight: 200;" fill="rgb(232, 230, 227)" stroke="none" stroke-width="1px">2.29</text></g><line x1="50" y1="0" x2="50" y2="177" fill="rgb(0, 0, 0)" stroke="rgb(200, 195, 188)" stroke-width="1px"></line></g></g><g transform="translate(50, 0)" clip-path="url(#clip_0)"><clipPath id="clip_0"><rect width="280" height="176"></rect></clipPath><g><g><g><line x1="0" y1="0" x2="0" y2="177" fill="rgb(0, 0, 0)" stroke="rgb(194, 189, 181)" stroke-width="1px" opacity="0.25"></line><line x1="23.333333333333332" y1="0" x2="23.333333333333332" y2="177" fill="rgb(0, 0, 0)" stroke="rgb(194, 189, 181)" stroke-width="1px" opacity="0.25"></line><line x1="46.666666666666664" y1="0" x2="46.666666666666664" y2="177" fill="rgb(0, 0, 0)" stroke="rgb(194, 189, 181)" stroke-width="1px" opacity="0.25"></line><line x1="70" y1="0" x2="70" y2="177" fill="rgb(0, 0, 0)" stroke="rgb(194, 189, 181)" stroke-width="1px" opacity="0.25"></line><line x1="93.33333333333333" y1="0" x2="93.33333333333333" y2="177" fill="rgb(0, 0, 0)" stroke="rgb(194, 189, 181)" stroke-width="1px" opacity="0.25"></line><line x1="116.66666666666667" y1="0" x2="116.66666666666667" y2="177" fill="rgb(0, 0, 0)" stroke="rgb(194, 189, 181)" stroke-width="1px" opacity="0.25"></line><line x1="140" y1="0" x2="140" y2="177" fill="rgb(0, 0, 0)" stroke="rgb(194, 189, 181)" stroke-width="1px" opacity="0.25"></line><line x1="163.33333333333334" y1="0" x2="163.33333333333334" y2="177" fill="rgb(0, 0, 0)" stroke="rgb(194, 189, 181)" stroke-width="1px" opacity="0.25"></line><line x1="186.66666666666666" y1="0" x2="186.66666666666666" y2="177" fill="rgb(0, 0, 0)" stroke="rgb(194, 189, 181)" stroke-width="1px" opacity="0.25"></line><line x1="210" y1="0" x2="210" y2="177" fill="rgb(0, 0, 0)" stroke="rgb(194, 189, 181)" stroke-width="1px" opacity="0.25"></line><line x1="233.33333333333334" y1="0" x2="233.33333333333334" y2="177" fill="rgb(0, 0, 0)" stroke="rgb(194, 189, 181)" stroke-width="1px" opacity="0.25"></line><line x1="256.66666666666663" y1="0" x2="256.66666666666663" y2="177" fill="rgb(0, 0, 0)" stroke="rgb(194, 189, 181)" stroke-width="1px" opacity="0.25"></line><line x1="280" y1="0" x2="280" y2="177" fill="rgb(0, 0, 0)" stroke="rgb(194, 189, 181)" stroke-width="1px" opacity="0.25"></line></g><g><line x1="0" y1="177" x2="280" y2="177" fill="rgb(0, 0, 0)" stroke="rgb(194, 189, 181)" stroke-width="1px" opacity="0.25"></line><line x1="0" y1="157.33333333333286" x2="280" y2="157.33333333333286" fill="rgb(0, 0, 0)" stroke="rgb(194, 189, 181)" stroke-width="1px" opacity="0.25"></line><line x1="0" y1="137.66666666666657" x2="280" y2="137.66666666666657" fill="rgb(0, 0, 0)" stroke="rgb(194, 189, 181)" stroke-width="1px" opacity="0.25"></line><line x1="0" y1="117.99999999999942" x2="280" y2="117.99999999999942" fill="rgb(0, 0, 0)" stroke="rgb(194, 189, 181)" stroke-width="1px" opacity="0.25"></line><line x1="0" y1="98.33333333333314" x2="280" y2="98.33333333333314" fill="rgb(0, 0, 0)" stroke="rgb(194, 189, 181)" stroke-width="1px" opacity="0.25"></line><line x1="0" y1="78.66666666666686" x2="280" y2="78.66666666666686" fill="rgb(0, 0, 0)" stroke="rgb(194, 189, 181)" stroke-width="1px" opacity="0.25"></line><line x1="0" y1="58.99999999999971" x2="280" y2="58.99999999999971" fill="rgb(0, 0, 0)" stroke="rgb(194, 189, 181)" stroke-width="1px" opacity="0.25"></line><line x1="0" y1="39.33333333333343" x2="280" y2="39.33333333333343" fill="rgb(0, 0, 0)" stroke="rgb(194, 189, 181)" stroke-width="1px" opacity="0.25"></line><line x1="0" y1="19.66666666666628" x2="280" y2="19.66666666666628" fill="rgb(0, 0, 0)" stroke="rgb(194, 189, 181)" stroke-width="1px" opacity="0.25"></line></g></g></g><g><g><line x1="0" y1="4523.33333333334" x2="280" y2="4523.33333333334" fill="rgb(0, 0, 0)" stroke="rgb(168, 160, 149)" stroke-width="1.5px"></line></g></g><g><g><line x1="23.333333333333332" y1="0" x2="23.333333333333332" y2="177" fill="rgb(0, 0, 0)" stroke="rgb(168, 160, 149)" stroke-width="1.5px"></line></g></g><g><g><g><g><g><path stroke="rgb(0, 119, 187)" stroke-width="2px" d="M25.701666666666664,177.65665106206262L25.794999999999998,159.23183842182868L25.841666666666665,124.13587700685422L25.9,102.43173941309185L26.448333333333334,97.94887942610463L26.495,86.07276164531288L26.646666666666665,90.5888566471105L27.661666666666665,81.36164435637623L27.988333333333333,115.15422094616456L28.046666666666667,121.3016136041202L28.186666666666667,140.6317192019573L28.21,176.78889873947125L28.291666666666668,189.81259014036448L29.48166666666667,197.34368966238304L29.62166666666667,162.09146397924107L29.82,132.21774940429083L29.925,121.70694614196626L30.496666666666666,127.47258840770425L30.578333333333333,144.96669942401675L30.765,146.62433904367654L31.301666666666666,133.7745962464791L31.55833333333333,122.894107071892L31.71,123.0318181569142L32.13,122.51193545544173L32.49166666666667,135.43626085589997L32.526666666666664,152.04890713834442L32.550000000000004,154.47719231020432L32.958333333333336,149.27882004868636L32.98166666666667,144.71271417403042L33.098333333333336,158.91829002830207L33.6,165.66894102171102L33.681666666666665,163.82916049709024L34.3,155.08795003876577L34.346666666666664,147.8813671322984L34.38166666666667,138.3375183915751L34.498333333333335,142.19785848242964L34.51,146.0434010326583L34.73166666666666,154.15705905394438L35.18666666666667,155.7945877649674L35.19833333333334,159.44308136879226L35.233333333333334,165.23384945252732L35.67666666666667,165.34402359647305L36.656666666666666,145.46749194313207L36.983333333333334,141.00265793564424L37.31,133.9566531719481L37.42666666666666,133.67619029045534L37.70666666666666,143.98718869566133L38.220000000000006,148.1047979565649L38.52333333333333,162.34950391174405L38.82666666666667,163.51372437922726L39.2,162.65985141382384L39.31666666666666,151.90891332343696L39.38666666666666,145.69837818935088L39.76,140.9588546854532L40.79833333333333,149.47148504588705L41.265,148.62942562903018L41.276666666666664,149.1887986895658L41.59166666666666,151.2405671026241L41.825,148.45356697040884L41.87166666666666,147.7447973002774L42.02333333333334,147.57099776935786L42.28,170.1735470393174L42.42,185.1260602777417L46.165,179.3446383920534L46.32833333333334,169.77125118536472L46.64333333333333,162.2520090715727L47.39,169.20095882360087L47.413333333333334,171.32248763475394L48.195,176.782333727043L49.093333333333334,160.242325685755L49.12833333333333,149.99793165751285L49.22166666666667,143.57764274545113L49.349999999999994,147.09101265354042L49.875,147.99083200614746L49.98,152.1372549592042L50.05,152.03893376124998L50.365,146.35177304451446L50.77333333333334,140.42647502018872L51.36833333333333,133.3797464046251L51.63666666666667,131.4720727315054L51.77666666666667,133.112837600867L52.09166666666667,143.5706959870199L52.24333333333333,149.61076255155197L52.721666666666664,159.4706456527465L53.025,165.2776419566064L53.141666666666666,167.4028728941312L53.864999999999995,168.13063283137095L54.355,166.23615128156572L54.37833333333334,166.96556645682963L54.46,169.9337656954776L55.195,173.36381725799694L55.52166666666667,176.57846240538873L55.685,177.36666723893072L56.035,174.69792475690778L56.28,171.68818624596395L56.60666666666666,174.13159569993877L56.61833333333333,177.18252268374178L57.07333333333334,172.3283436446116L57.096666666666664,170.4697657932882L57.31833333333333,171.78619726194552L57.33,173.52385454196258L57.715,173.2051420023913L58.25166666666667,166.47266898143155L58.415,160.78441829665647L58.625,159.76163639136817L58.66,157.32013531430002L58.68333333333334,155.9560490117705L58.718333333333334,156.09123000618257L58.74166666666666,158.60268023854383L58.986666666666665,158.00033464754006L59.325,157.04833394654958L59.36,158.3556152740453L60.11833333333333,158.82907398012267L60.38666666666667,156.68310494420936L60.45666666666667,157.7816301567933L60.795,160.82971356427265L61.06333333333333,160.0704523977382L61.343333333333334,160.36588451615583L61.65833333333333,160.9265542023845L61.821666666666665,165.34871817078553L61.83333333333333,167.7135462831397L62.04333333333333,167.7921722286208L62.125,167.3870796302931L62.195,165.4973319882898L62.474999999999994,164.71537037743934L62.766666666666666,160.94901473366903L62.906666666666666,156.45127560015993L63.04666666666666,150.1089156728257L63.28,148.2292147248484L63.33833333333334,148.93272869919946L63.583333333333336,150.31911339115632L63.75833333333334,155.87827712691077L63.781666666666666,158.71107619547539L63.805,163.0313646435087L63.85166666666667,165.54094535178177L64.00333333333333,165.52010132692305L64.015,164.65164537931028L64.26,161.40415218782553L64.47,160.45732180236277L64.80833333333334,159.8031588329733L64.87833333333333,159.13785965661242L65.38000000000001,151.99343573401214L65.42666666666666,149.72562922312645L65.81166666666667,147.537704852648L65.84666666666666,149.80306171554113L65.88166666666667,147.23591231736904L65.95166666666667,145.09671144768356L66.03333333333333,143.14899106190208L66.10333333333334,143.57211577051825L66.20833333333333,147.39467103120822L66.23166666666667,150.25116074524598L66.42999999999999,151.76633983670976L66.51166666666667,153.86343045440447L67.025,152.13316390267275L67.62,147.16315117723298L67.64333333333333,143.57922851765878L67.66666666666667,141.56686555364243L67.78333333333333,143.31561526679505L67.97,142.98277863627754L68.34333333333333,141.67640006726782L68.36666666666667,139.2639146316009L68.40166666666667,137.33615383534868L68.425,137.83129338249577L68.50666666666667,137.88959001825333L69.24166666666666,121.64364711560333L69.39333333333333,114.19723431949232L69.60333333333332,105.95550540478786L69.65,101.95283423248253L69.685,100.34666459617007L69.70833333333333,96.3870531904751L69.79,94.09385222695865L70.02333333333333,92.40241585642458L70.21,92.70022136980106L70.22166666666668,92.77444675832095L70.28,94.83503784942971L70.32666666666667,94.9503007307762L70.51333333333334,92.99508242710506L70.525,92.56686570859664L70.53666666666668,91.85659140730905L70.54833333333333,92.2102454437598L70.595,93.40221777705062L70.85166666666666,93.82028162823036L71.34166666666667,91.95097159681515L71.42333333333333,92.33828714795594L71.435,92.98059487076769L71.48166666666665,92.22306751925066L72.08833333333334,87.90048141192648L72.10000000000001,84.47477958798748L72.20500000000001,84.68786955009894L72.36833333333334,84.06954754419455L72.71833333333333,84.02404720425677L72.8,84.74970316040304L72.88166666666666,71.96692245191247L73.045,65.94918332666896L73.535,60.02282743449763L73.605,57.579880130937504L74.935,58.33912440254536L75.145,59.6912594553904L75.16833333333334,61.7316632141047L75.215,60.358517026906455L75.23833333333333,60.36006089010509L75.39,61.461745024549565L75.44833333333334,61.8559609088358L75.62333333333333,62.41271413602368L76.27666666666666,57.27396263778489L76.66166666666666,53.01856694268684L76.72,52.788786860613314L76.91833333333334,54.07237271802264L77.01166666666667,56.105343608587646L77.02333333333334,55.86048714139426L77.04666666666667,55.980513952917086L77.16333333333334,55.44971849148579L77.18666666666667,57.61224829168452L77.51333333333334,57.87197138257667L77.57166666666667,57.45650498002104L77.74666666666667,57.90380863503309L77.79333333333334,58.14830706429513L78.4,56.25313517887156L78.59833333333333,54.17630319718033L78.785,54.41707338224519L79.19333333333333,54.81314642846526L79.24,56.64630127172326L79.52,55.88354112547072L79.54333333333334,55.55961867319013L79.56666666666666,56.17315740858752L79.59,57.11245306708693L79.78833333333333,58.339280795916146L79.92833333333333,57.6520374448076L80.41833333333334,56.85875715950365L80.96666666666667,53.03622213144585L81.03666666666666,51.7587266483873L81.25833333333334,48.50106619528451L81.27,47.15751117630773L81.33999999999999,46.32062462973892L81.375,46.46495162960122L81.55,48.45629416814787L81.60833333333333,48.572196289463925L82.02833333333334,46.953430260047945L82.03999999999999,46.16468181173101L82.65833333333333,48.05607244610285L83.02,51.69558822605083L83.055,52.90635747293073L83.13666666666667,53.99197387740789L83.3,55.650415537113844L83.91833333333334,58.14701219828942L83.97666666666666,60.3663958853688L84.01166666666666,61.41030989741717L84.30333333333333,63.38822572236172L84.65333333333334,67.56079119489287L84.71166666666666,72.33728148710219L84.77000000000001,70.45309743702573L84.78166666666667,70.15733000606222L84.88666666666666,70.32342669370371L84.94500000000001,70.28870737929485L85.57499999999999,63.49005015113922L86.22833333333334,54.56264186212728L86.26333333333334,51.19972309222794L86.64833333333334,50.40275823817605L86.67166666666667,50.08335897244455L86.695,51.14495684051097L86.73,53.01847768945083L87.10333333333332,53.36345554972707L87.48833333333333,51.57963477705634L87.605,48.70275090944072L88.305,43.943921002516674L88.41,41.86727668504249L88.56166666666667,39.80016984929037L89.01666666666667,39.287552528898544L89.23833333333333,40.32526475505736L89.33166666666666,41.267238536187016L89.36666666666666,42.07112937018877L89.39,41.23349331564309L89.55333333333334,39.98029985836884L89.89166666666667,39.86051140098967L90.11333333333334,39.40470690712055L90.52166666666666,36.87885731145699L90.545,34.60455853241716L90.95333333333332,32.728000076095086L90.98833333333334,32.56262586555913L92.21333333333332,31.088692008511227L92.38833333333334,31.05666144763845L92.42333333333333,31.06344154809634L92.51666666666668,30.178192655901814L92.575,30.457177744646664L92.72666666666666,30.652532829223386L93.81166666666667,33.72746922079379L93.85833333333333,38.1904466910846L93.88166666666666,41.13068614615315L93.98666666666666,45.24869401281726L93.99833333333333,47.748645020119554L94.14999999999999,49.626109080425906L94.18499999999999,50.75474379056002L94.27833333333334,50.46458648644837L95.02499999999999,48.07993814388477L95.18833333333333,46.33397776474882L95.27,45.025457747731586L95.32833333333332,40.97227156926019L96.09833333333333,38.119381499639864L96.69333333333333,41.36146243833348L97.24166666666666,42.19430525264471L97.25333333333333,43.24655108818364L97.33500000000001,44.39311175792219L97.65,44.91225675497339L98.05833333333334,45.33223296460993L98.17500000000001,45.65543244145619L98.60666666666667,47.61634361653753L98.63,49.50501000763278L98.69999999999999,51.23758897029328L98.71166666666666,52.94098422178965L98.95666666666666,55.208651220581174L99.03833333333334,54.687004999550425L99.07333333333334,54.08321089798573L99.41166666666666,54.72426172503557L100.03,55.101844630977126L100.39166666666667,52.66048451765709L100.50833333333333,49.77673576334332L100.52,47.71817917500297L100.53166666666667,47.28538511996911L100.54333333333332,46.620157207110935L100.98666666666668,46.60432702378527L101.08,47.910149145157405L101.64,49.54937798568333L101.82666666666667,49.26666780981798L101.93166666666666,47.97534385603725L102.00166666666667,46.56324385435384L102.07166666666666,44.459659084072605L102.71333333333334,42.834237930910604L102.87666666666667,42.5796387963662L103.02833333333334,41.82780053891842L103.32,40.96827580245897L103.34333333333333,41.31312349764742L103.36666666666666,42.623624829597695L103.40166666666667,42.61266955859208L103.565,44.86989169489445L103.79833333333333,45.2926826464534L104.90666666666667,40.24823696072097L105.02333333333333,35.91666383183802L105.175,34.6632848842472L105.25666666666667,34.634097515052204L105.61833333333333,34.01543982131511L105.63,33.31324328098516L105.77,34.371325995172214L105.78166666666668,34.26777207253507L106.09666666666666,32.726713716056146L106.19,30.86676180136207L106.50500000000001,29.87838748934641L107.765,24.58806338365028L107.905,22.625627860445945L107.91666666666667,21.69623840783063L108.02166666666666,21.394683838606564L108.16166666666666,23.121066015611756L108.20833333333334,23.711953952837373L108.22,24.413093906037766L108.23166666666667,24.477007340228564L108.37166666666667,23.45431647174516L108.65166666666667,22.10213087198263L108.92,22.572488237711607L109.15333333333332,20.676049399510912L109.38666666666667,18.423098236105478L109.88833333333334,18.28279555243968L109.9,18.88976379719364L110.285,20.903101123037846L110.44833333333334,22.681986268883026L111.42833333333334,26.165457741750828L112.07,30.945753948922224L112.12833333333334,33.49853600012883L112.32666666666667,35.47926729662236L112.47833333333334,37.52966174793165L112.49,38.741485667093386L112.79333333333334,41.52284704826043L112.81666666666666,42.252190089577226L112.82833333333332,41.887144501056326L112.88666666666667,42.378594892713835L112.945,43.40052488743458L113.10833333333332,45.059730162777214L113.715,44.863855714983906L114.28666666666668,42.30115556552843L114.29833333333333,40.83717266093812L114.35666666666665,40.705203989314214L114.61333333333333,43.2593648708777L115.45333333333333,38.848757480932576L115.99000000000001,35.459393928816695L116.03666666666666,34.142486034801166L116.24666666666667,33.57338284332645L116.31666666666666,32.75081381130011L116.725,33.82792263441196L117.19166666666666,33.40258203641032L117.20333333333332,33.48863316799629L117.54166666666667,32.954958557663765L117.6,32.60043587973002L117.67,33.78754501500441L117.86833333333333,35.015730966615635L118.965,32.06200286733752L119.23333333333333,28.88139853799019L119.245,27.211018558151995L119.39666666666666,27.26578820395965L119.91000000000001,28.83236090824355L119.99166666666666,30.213205365434337L120.80833333333334,31.31992720894009L120.85499999999999,32.46463620416882L121.13499999999999,33.62203418104611L121.52,32.35720416097598L121.70666666666666,33.13885457333908L121.82333333333332,34.01461427933655L122.13833333333332,35.10897287925738L122.20833333333333,38.00975478340269L122.26666666666667,38.853804005360885L122.55833333333332,39.97698375111088L123.34,40.451524044890824L123.55,39.941837015461054L123.66666666666666,39.53515377886378L124.14500000000001,39.05949843610412L124.16833333333334,38.6092355183765L124.41333333333334,38.58745041833823L124.60000000000001,39.04637030283649L125.02,38.82193655810041L125.10166666666666,39.856006743860526L125.11333333333334,40.934659846792044L125.13666666666667,41.88081408321795L125.18333333333334,41.87696645276678L125.24166666666666,43.07637465023054L125.76666666666667,42.29231704652168L126.18666666666667,40.855189829481006L126.29166666666667,39.79610648798778L126.875,39.524510582512285L126.98,38.83389529152253L127.06166666666667,38.68948059353821L127.47,42.28070892588105L127.65666666666668,44.073959898309226L127.70333333333333,44.601685551838834L127.715,44.42788596440402L127.76166666666666,43.573330331657104L127.855,44.026012926946045L128.03,43.447209399104125L128.15833333333333,43.5676371822716L128.43833333333333,43.06803956526088L128.57833333333332,43.160359282268736L128.96333333333334,42.35029737845297L129.02166666666668,40.629081943406185L129.41833333333332,38.467335011611034L129.86166666666665,37.77367412419088L130.67833333333334,37.579155447847036L130.935,38.089664648514365L131.20333333333335,37.849134162920585L131.72833333333332,38.47659554850147L132.09,40.7632125397555L132.34666666666666,41.3116344785429L132.35833333333335,41.86515688474322L132.39333333333335,42.338352437235294L132.67333333333335,42.95393165211277L132.88333333333333,42.92054283497628L133.525,42.83205439338312L134.00333333333333,39.79404489855239L134.01500000000001,38.56794808168613L134.06166666666667,37.61163735393436L134.435,34.4240397057719L134.785,32.16441233184715L135.905,27.83633674067742L135.95166666666665,24.352210485434917L135.96333333333334,22.69103358216809L136.34833333333333,19.995230750980458L136.35999999999999,18.870739123429086L136.41833333333335,18.131866809466118L136.57,18.78598016834594L136.75666666666666,20.49426279227796L137.2,20.865058117161205L137.53833333333333,22.145599239973055L137.95833333333334,21.518779362190237L138.48333333333332,20.052633945925145L138.50666666666666,19.10396951287785L138.64666666666665,17.921548417159304L138.985,18.710235542562547L139.125,18.715918366774268L139.46333333333334,19.227012804147872L139.52166666666668,19.486297137789236L139.88333333333333,18.71533954895303L140.14,18.48519221668444L140.58333333333334,19.051905204481102L141.00333333333336,19.01687083584888L141.1316666666667,19.21193141721295L141.20166666666668,20.298459264408475L141.26,21.457855398102673L141.56333333333336,22.355498763568818L141.61,23.809079054217662L141.7733333333333,26.376300700640744L141.82,26.791622890573695L142.11166666666668,27.317978392362935L142.17000000000002,27.2143453755624L142.52,26.62533100137153L143.38333333333333,24.874625056426957L143.48833333333334,24.974245976818125L144.03666666666666,25.735070938096797L144.06,26.267876625450437L144.15333333333334,25.80773572941788L144.21166666666664,26.092385961825677L144.39833333333334,26.82571629236772L144.655,26.415548911581485L144.81833333333336,25.43334746014796L145.565,22.418164569506843L145.6,20.515145822963596L145.705,20.033317868118093L145.90333333333334,19.119107901455163L146.06666666666666,20.418923770002934L146.10166666666666,21.254977038651823L146.18333333333334,20.746524491201427L146.25333333333333,21.421540765524874L146.32333333333332,21.552240556995383L147.36166666666668,20.23413482462455L147.63,17.940500128882334L147.74666666666664,16.36164165654667L147.75833333333333,15.72808305501096L147.79333333333335,15.778436722364939L147.84,16.124718459319908L147.8983333333333,16.21907513672317L147.95666666666665,16.48975793486598L148.12,16.63321862219176L148.42333333333335,18.34564593209371L148.435,19.396516047334288L148.65666666666667,20.721483652473683L149.20499999999998,22.246358411198496L149.35666666666665,23.78921390908637L150.1616666666667,25.1633368536582L150.20833333333334,25.761620700641092L150.2433333333333,25.59423568203615L150.45333333333332,25.88625349531838L150.66333333333333,25.67516009386469L150.87333333333333,27.14860436313662L150.95499999999998,29.767054580594703L151.025,30.889159363064742L151.21166666666667,30.980763683794745L151.23499999999999,31.458086646934955L151.55,32.908690497629976L151.585,34.359135195047635L152.08666666666667,34.4109955947768L152.23833333333334,33.39418713190917L152.43666666666667,31.983725240077096L152.48333333333332,30.906444608834008L152.635,29.84021916956598L152.68166666666664,29.830888743549608L152.74,29.373978036413096L152.83333333333331,28.606569256080387L153.06666666666666,28.02320822680567L153.38166666666666,27.5950639486978L153.685,28.298825247178467L153.74333333333334,29.480016753145062L154.20999999999998,29.254701801423668L154.39666666666668,29.162589485941517L154.47833333333335,29.735990177597976L154.7,29.955517575400226L155.60999999999999,28.597614053470355L155.76166666666666,27.436598512094058L155.91333333333333,27.011658404167456L155.925,27.45865018417638L156.0066666666667,28.71135942441836L156.31,28.776435560023092L156.345,28.682271626097656L156.35666666666665,29.231829738083132L156.52,30.389819403755766L156.77666666666664,30.831662530280788L157.20833333333331,31.283232168050848L157.79166666666669,29.355943553235164L157.92,28.023724368839783L157.99,27.787888249533584L158.24666666666667,26.624115297793978L158.41,25.557641618504128L158.43333333333334,25.547044194727448L158.53833333333333,26.0568348794504L158.57333333333335,26.65863708395423L158.725,26.537041433350947L158.73666666666665,26.997982726689084L158.795,26.927267906292986L158.97,26.85696629740145L159.04,26.258422250961097L159.51833333333335,25.67549099378069L159.67000000000002,25.28197757069332L159.85666666666665,25.410138364188796L159.97333333333333,24.239077777976156L160.37,24.232148564473302L160.86,25.954097927431L161.0233333333333,28.198942711651977L161.08166666666665,28.325507736344736L161.47833333333335,28.955477863764692L161.875,29.14711183207391L162.39999999999998,28.289653086971235L162.42333333333332,27.320692344204247L162.45833333333334,26.933852195639613L162.70333333333332,26.002608503290276L162.76166666666666,25.241833213775436L162.77333333333334,25.236368483580463L162.82,25.12167029760916L163.33333333333334,25.554937262295624L163.42666666666668,26.11717839422345L163.56666666666666,26.815671554829397L163.695,27.93536207462919L164.03333333333333,27.582953695775714L164.52333333333334,26.521285622418805L164.54666666666668,26.16131082220615L164.59333333333333,26.329726396127846L164.61666666666667,26.591304208155048L165.18833333333333,27.506929481796444L165.51500000000001,29.815872687710318L165.73666666666665,31.613161295858163L166.04,31.16353200011079L166.06333333333333,30.69633836698646L166.32,30.232650090735415L167.1016666666667,28.64640128993344L167.32333333333335,28.126402505685864L167.44,28.32126473977516L167.545,28.148650996043763L167.59166666666667,27.69030539660406L167.6616666666667,27.381794005561378L168.0233333333333,27.895922321342933L168.21,28.22102836325493L168.33833333333334,28.30951410392055L168.92166666666668,28.436804866190077L169.63333333333333,26.753933291507902L170.04166666666666,25.51247875262215L170.0533333333333,25.32830903162106L170.275,27.415829251448677L170.40333333333334,28.939562229736477L170.67166666666665,30.996612852066757L171.045,31.94728880828454L171.13833333333335,32.90673731713322L171.22,33.44546994626253L171.37166666666667,33.6319099679062L171.42999999999998,33.51284884836604L171.92,32.460599234513225L172.66666666666669,29.37500163622456L172.73666666666668,27.68509097277868L173.32,26.288022063506002L173.33166666666668,25.762487647968737L174.21833333333333,25.32373140473323L174.3,25.294643667664097L174.38166666666666,25.43260037148569L174.44,25.019264101701033L174.45166666666668,24.65618026313631L174.89499999999998,25.606906635339477L175.04666666666665,26.65958417346696L175.07,27.890226754206143L175.08166666666668,28.997224195705158L175.10500000000002,29.437696291096806L175.18666666666667,29.879218119270586L175.28,30.465527852608506L175.64166666666668,30.239119868716354L175.74666666666667,31.098530371385426L175.96833333333333,31.915814397344466L176.295,31.933689343185158L176.79666666666665,30.07015529792215L176.89000000000001,29.516786646938932L177.21666666666667,28.88985080204212L177.24,29.14004153826316L177.28666666666666,30.01221357608523L177.39166666666668,30.53776148553603L178.13833333333335,28.9561363475351L178.17333333333332,27.730489481115907L178.465,26.102846259507896L178.90833333333333,24.586470178009726L179.10666666666668,23.040690824923715L179.24666666666667,22.856879918224443L179.725,21.772260435682156L179.81833333333336,21.70334176628377L179.85333333333332,21.52777107630184L179.99333333333334,21.965982569913184L180.005,22.071586026729406L180.01666666666668,21.691298132167308L180.05166666666665,21.414932584706445L180.145,22.2641607721989L180.7866666666667,23.147309797264242L180.96166666666667,23.535163057555838L181.20666666666668,23.835014924101582L181.57999999999998,23.12114204316531L181.82500000000002,23.34784002730701L182.04666666666668,23.1309736519809L182.38500000000002,23.630451896327344L182.42,24.179098606118202L182.47833333333332,24.009671788219638L183.02666666666664,23.729115878078385L183.07333333333335,24.132506928672463L183.1783333333333,24.715396956266222L183.64499999999998,24.597753275403495L184.135,23.895117236703452L184.27499999999998,23.952122989767833L184.28666666666666,24.075766464695914L184.53166666666667,24.529222708504484L184.89333333333335,25.602722420336598L185.17333333333335,24.284514070528218L185.44166666666666,24.471533511899025L185.5,24.556951122301875L186.24666666666667,23.89807238018915L186.795,22.176402086335763L186.98166666666665,21.360739220579234L187.18,20.99504041988778L187.30833333333334,21.755965546329946L187.78666666666666,22.106290455776072L187.86833333333334,22.924650677844795L188.895,23.080034955705358L189.40833333333336,23.11090817177669L189.42,23.51668050253346L189.7,23.673062851102337L189.88666666666668,23.780333274659704L189.99166666666667,25.205259825056L190.19,27.44555719425895L190.21333333333334,28.78575507773472L190.23666666666668,29.687001395249197L190.26,29.838045747721814L190.28333333333333,29.852787532990252L190.32999999999998,29.919841615351228L190.37666666666667,30.20953354893912L191.0883333333333,28.606034327711583L192.38333333333335,25.549746446918608L192.39499999999998,23.698065727411727L192.44166666666666,22.914705510757173L192.89666666666665,22.382166486990414L193.84166666666667,21.63923552476792L193.9,21.09192778322617L194.01666666666665,21.408342097618647L194.47166666666666,21.529504808238553L194.5533333333333,21.813054385542888L194.58833333333334,22.910655624487465L194.68166666666667,24.110837075138335L194.69333333333333,25.19853140812552L194.75166666666667,25.130707100563104L195.88333333333333,23.4612587384615L196.01166666666666,23.017448989174138L196.11666666666667,22.651007327950595L196.22166666666666,22.90018683166044L197.07333333333332,22.85712685766096L197.09666666666666,22.8714549074895L197.80833333333334,23.09598962054514L198.0066666666667,23.13392110056778L198.07666666666668,23.45444799261207L198.60166666666666,25.224388901488183L198.835,25.542332927530666L198.84666666666666,26.041196220393125L199.255,26.744941331052043L199.41833333333332,27.594786301604202L199.44166666666666,28.60016840884166L199.59333333333333,29.75454438914027L199.60500000000002,30.8057055231259L199.76833333333332,32.33568726153699L199.90833333333333,33.3098713888741L200.025,33.69529450850538L200.04833333333332,34.173467099340755L200.07166666666666,33.90287064809722L201.23833333333332,31.16822542881759L201.54166666666669,29.42581043976306L201.88,29.827988457060385L203.11666666666667,27.665662509648048L203.47833333333332,26.636719705678797L203.51333333333332,26.00848721607293L203.53666666666666,25.385457127013883L203.73499999999999,24.436269542218515L204.17833333333334,25.49318888335369L204.30666666666667,25.144749114654402L204.58666666666667,25.57773803719596L205.14666666666668,25.337469092757367L205.47333333333333,24.491133979400505L205.58999999999997,24.41434584240096L205.61333333333332,23.812695600991486L205.765,22.999831520735547L205.98666666666668,22.110762555176922L206.02166666666665,21.921996429373543L206.14999999999998,21.513002266459072L206.17333333333332,21.237377569561527L206.185,21.538022482970685L206.59333333333333,22.28322016719296L206.64,22.285691378781657L206.675,22.672307469675708L206.69833333333335,23.104605630248454L207.025,23.037398677843367L207.34,21.681603293412067L207.41,21.42134346148049L207.42166666666665,20.93162060138092L207.445,20.287492868336823L207.9466666666667,18.892665142689893L208.12166666666667,18.062467094188353L208.15666666666664,17.570343600100024L208.6,17.602242721520177L208.65833333333333,17.322166368174994L208.705,17.67635384725624L208.76333333333335,17.839492131838597L208.79833333333332,17.820571114578588L208.82166666666666,17.694170907018687L209.125,18.31215899261541L209.59166666666667,17.865493745718613L209.73166666666668,17.470010820898505L210.16333333333336,17.02517929096037L210.30333333333334,16.184221040440764L210.385,16.13161737586433L210.65333333333334,15.490213323839557L210.79333333333335,15.636346078964822L211.225,15.492465175831963L211.48166666666668,15.281098463444406L211.75,14.746091599116426L212.345,13.859922629110814L212.46166666666667,13.059420734979529L212.53166666666664,12.594182968610287L212.87,13.588339903119726L212.8816666666667,14.11825064712394L212.905,14.103951128336675L212.975,14.290071701421711L213.05666666666667,15.335315627418481L213.115,14.423934807337789L213.20833333333334,14.133003958103679L213.26666666666668,14.173517820170701L213.33666666666667,14.862487506491021L214.11833333333334,15.182207973096356L214.66666666666669,13.51757557726356L214.84166666666667,13.401882437563987L215.30833333333334,12.402181311921291L215.33166666666665,11.941203204215064L215.51833333333335,12.58000513344397L215.54166666666666,12.651300145990927L215.82166666666666,12.868199240462582L215.83333333333334,12.597074052618433L216.13666666666668,12.3558531324424L216.25333333333333,12.387052184925533L217.79333333333335,13.860384154105736L217.82833333333332,14.429219631037295L217.85166666666666,14.643210181780672L218.07333333333335,15.102769977969404L218.56333333333333,15.673284374297756L218.59833333333333,16.044463897454563L218.83166666666668,15.444277033546946L218.99499999999998,14.803303368235241L219.35666666666665,14.464955565627077L219.38,13.68397120194613L219.42666666666665,13.65832014707998L219.95166666666668,13.386263281978703L220.11499999999998,13.2792408421354L220.17333333333335,13.618920295786817L220.745,13.528262658682268L220.96666666666667,13.363166784699985L221.20000000000002,12.721595497950027L221.39833333333334,12.724989115257827L221.9,12.026456725951792L222.16833333333335,12.115879858365698L222.44833333333335,12.237043906134764L222.79833333333335,14.21898737256285L222.81,15.668400417547865L222.83333333333331,16.843637064955555L222.915,17.1972680565043L223.24166666666665,17.994539556982772L223.79,17.581460702513695L223.9766666666667,16.84410155022249L224.01166666666666,16.190502970069165L224.02333333333334,15.752234965290855L224.245,14.700898478427757L224.36166666666665,14.693751842478013L224.81666666666666,15.798261235652975L224.8983333333333,16.98307939791243L225.24833333333333,18.186616100169022L225.30666666666667,18.515142116755843L225.69166666666666,18.457719174721575L225.85500000000002,17.730661639647487L226.0066666666667,17.5280923055259L226.555,17.08967100670155L226.82333333333335,16.867284905318147L226.85833333333332,16.826583843570212L227.04500000000002,16.36494265356312L227.19666666666666,16.64996113725863L227.25500000000002,17.27022415144279L227.29,17.840619388340638L227.45333333333335,18.467419559759367L227.53500000000003,19.034794242095643L227.59333333333333,19.433528653431015L227.89666666666665,21.162770657565964L228.58499999999998,21.474835558113114L228.74833333333333,21.51309298083735L228.95833333333334,20.925000061543603L229.12166666666667,21.165531599397575L229.50666666666666,21.30853465047627L229.54166666666669,21.768523509258785L229.57666666666665,22.04164653961563L229.72833333333332,21.911765530423047L229.90333333333334,21.89833072352754L230.56833333333333,21.492178635493445L230.94166666666666,21.35497093230668L230.95333333333332,21.416161089098143L231.07000000000002,21.829540510657022L231.105,21.992111708677506L231.47833333333335,22.92726265039166L231.49,23.497259381772388L231.525,23.81507667379388L231.735,23.666466387639996L231.83999999999997,24.36988769594881L232.26,25.311629945166487L232.645,25.71205332587355L232.87833333333336,24.872811071882552L233.21666666666667,24.826786441469725L233.2866666666667,24.676428235722508L233.35666666666668,24.53510970367591L233.38,24.17306377126488L233.79999999999998,23.96213318991346L233.82333333333332,24.082506870915754L233.905,24.773101181491032L234.115,25.246564505638L234.12666666666667,25.33975141931083L234.4766666666667,24.747077469546703L234.88500000000002,24.96246630994709L235.43333333333334,25.051527528512608L235.80666666666664,25.284850628171114L235.95833333333331,25.864413625330336L235.97,26.453312376155537L236.05166666666668,27.57478089119372L236.09833333333333,28.45019489493433L236.29666666666665,28.948012593216873L236.36666666666665,29.084253639233676L236.51833333333332,29.237685791800114L236.54166666666669,29.100747105643116L236.74,28.667574900133143L237.28833333333333,27.65782521581577L237.79,26.083043623942025L237.94166666666666,26.114029088233558L237.98833333333334,26.02558635799944L238.09333333333336,25.930904611430744L238.37333333333333,26.148174711410167L238.49,25.37727045187172L238.525,24.858653845834343L239.085,23.445390345512052L239.10833333333335,22.66724403786124L239.33,21.70167748956785L240.275,19.983709041695096L240.50833333333335,18.91677371381899L240.66000000000003,18.66005596700961L240.695,19.104640654249774L240.77666666666667,19.81922624286319L240.96333333333334,20.2774475460946L241.1966666666667,20.083874356059717L241.66333333333333,20.163719672493517L241.85,20.159411950037324L242.66666666666669,18.900436945046884L242.70166666666665,18.096542023682954L242.9466666666667,18.19721051177947L243.44833333333332,17.967293843969763L245.09333333333333,18.76474043693841L245.10500000000002,18.891600432166047L245.32666666666665,18.71479740217724L245.49,18.723276533130388L245.51333333333335,19.280928606794124L246.14333333333335,18.898048928571686L246.61,18.841851028832174L247.07666666666665,18.793139706789056L247.08833333333334,18.677405657051693L247.14666666666668,18.813667686007918L247.22833333333332,18.75290297457475L247.31,18.345895004831863L247.415,18.6722120314608L247.56666666666666,18.796641692346668L247.85833333333335,18.737770960450398L248.02166666666665,20.332754972675936L248.115,21.37111413327167L248.31333333333333,22.071183490688554L248.64000000000001,22.124747778096204L249.03666666666666,22.584569088410003L249.57333333333332,22.43762227807543L249.865,23.13323915479398L250.02833333333334,23.44065252428856L250.05166666666665,24.285950517570697L250.06333333333333,24.82001745496243L250.39,25.712767597339028L250.44833333333335,25.825490724582213L250.5066666666667,25.69178293006711L250.565,25.38309898045233L250.81,25.253604131521485L251.59166666666667,24.29853779581801L251.65,23.302878440707623L251.66166666666666,22.99278375512565L251.85999999999999,22.431413923712547L251.965,22.14469287418878L252.07,21.908216987872862L252.65333333333334,21.56220611156989L252.75833333333333,21.37410189964475L252.81666666666666,20.89503289278981L254.19333333333336,19.4567486433436L254.50833333333333,18.94238857082055L254.59,18.41754010729837L255.02166666666668,18.203826594612476L255.22,18.686467091645646L255.37166666666667,19.234435016044266L255.605,19.775874273997555L256.1066666666667,20.496717940677346L256.5966666666667,19.951379944649222L256.65500000000003,19.705486166854275" style="fill: none;" fill="none"></path></g></g></g></g><g opacity="0.2"><g><g><g><path stroke="rgb(0, 119, 187)" stroke-width="2px" d="M24.803333333333335,246.86404705047613L25.375,90.0714937845864L25.701666666666664,84.77444489796935L25.794999999999998,140.10485649108873L25.841666666666665,87.3697503407794L25.9,79.58899180094379L26.448333333333334,93.21962038675925L26.495,73.5285902023313L26.646666666666665,95.36197821299216L27.661666666666665,71.60614172617571L27.988333333333333,150.8874479929605L28.046666666666667,127.80259291330957L28.186666666666667,161.07454935709626L28.21,215.02830028533933L29.283333333333335,219.98493512471515L29.48166666666667,145.5186589558918L29.62166666666667,124.8082621892292L29.82,100.62292257944723L29.925,110.59058348337791L30.496666666666666,133.57040723164863L30.578333333333333,163.46870104471833L30.765,148.37748050689686L31.301666666666666,120.18453915913885L31.55833333333333,111.38675848642968L31.71,123.17746321360254L32.13,121.96210066477441L32.49166666666667,149.10519758860258L32.526666666666664,169.6186606089273L32.550000000000004,157.04537868499744L32.958333333333336,143.78095308939604L32.98166666666667,139.88354047139472L33.098333333333336,173.94229412078852L33.6,172.80851840972892L33.681666666666665,161.8833843866983L34.3,145.8431307474771L34.346666666666664,140.25959014892567L34.38166666666667,128.2438182830809L34.498333333333335,146.28060499827055L34.51,150.1104974746703L34.73166666666666,162.7381706237792L35.18666666666667,157.52645969390858L35.19833333333334,163.30177625020337L35.233333333333334,171.35824203491202L35.67666666666667,165.46054522196442L36.656666666666666,124.44581031799302L36.983333333333334,136.2805906931558L37.31,126.50470574696845L37.42666666666666,133.37956905364976L37.70666666666666,154.8922363917032L38.220000000000006,152.459635734558L38.52333333333333,177.41489251454666L38.82666666666667,164.74501927693677L39.2,161.75678412119538L39.31666666666666,140.53857962290434L39.38666666666666,139.13003444671617L39.76,135.9462722142536L40.79833333333333,158.47455501556388L41.265,147.7388525009154L41.276666666666664,149.7803990046182L41.59166666666666,153.41054439544666L41.825,145.5059989293415L41.87166666666666,146.99519316355375L42.02333333333334,147.3871850967406L42.28,194.0783007939656L43.56333333333333,194.79523340861L44.00666666666667,168.33155790964753L44.74166666666667,186.17281754811597L45.44166666666667,185.396335919698L46.165,172.90042082468662L46.32833333333334,159.64631080627433L46.64333333333333,154.29955959320057L47.39,176.55025959014887L47.413333333333334,173.56624444325757L48.195,182.5567388534545L49.093333333333334,142.74939537048328L49.12833333333333,139.16332562764472L49.22166666666667,136.78746064503974L49.349999999999994,150.8067989349364L49.875,148.9424928029377L49.98,156.52256647745756L50.05,151.93494796752918L50.365,140.3369569778441L50.77333333333334,134.1598018010456L51.36833333333333,125.9270334243773L51.63666666666667,129.45449193318672L51.77666666666667,134.84813213348374L52.09166666666667,154.63106473286936L52.24333333333333,155.99881649017323L52.721666666666664,169.8985878626505L53.025,171.41919771830234L53.141666666666666,169.65054512023917L53.864999999999995,168.90032132466627L54.355,164.232522646586L54.37833333333334,167.737005551656L54.46,173.07297229766837L55.195,176.99148495992017L55.52166666666667,179.97831344604484L55.685,178.20028305053705L56.035,171.8754275639851L56.28,168.50504716237378L56.60666666666666,176.71577771504712L56.61833333333333,180.40922323862702L57.07333333333334,167.19449996948234L57.096666666666664,168.5041093826293L57.31833333333333,173.1784725189208L57.33,175.361623764038L57.715,172.8680674235025L58.25166666666667,159.3523168563842L58.415,154.76844946543366L58.625,158.67992877960197L58.66,154.7379716237385L58.68333333333334,154.51337337493885L58.718333333333334,156.23419920603425L58.74166666666666,161.25882307688386L58.986666666666665,157.3632860183715L59.325,156.04148546854643L59.36,159.738213221232L60.11833333333333,159.329810142517L60.38666666666667,154.41349983215324L60.45666666666667,158.94344488779694L60.795,164.05340671539298L61.06333333333333,159.26744778951002L61.343333333333334,160.6783374150593L61.65833333333333,161.51952584584544L61.821666666666665,170.02565701802564L61.83333333333333,170.21461963653556L62.04333333333333,167.87532806396476L62.125,166.9586483637491L62.195,163.49870999654124L62.474999999999994,163.88835748036695L62.766666666666666,156.9656674067178L62.906666666666666,151.69440746307362L63.04666666666666,143.40115229288725L63.28,146.24121824900297L63.33833333333334,149.67677434285469L63.583333333333336,151.78537209828684L63.75833333333334,161.75772190093986L63.781666666666666,161.70708179473868L63.805,167.60055859883616L63.85166666666667,168.1951109568277L64.00333333333333,165.49805641174308L64.015,163.73315493265778L64.26,157.96956062316883L64.47,159.45594151814768L64.80833333333334,159.1113074620564L64.87833333333333,158.4342304865518L65.38000000000001,144.43739891052235L65.42666666666666,147.32716719309477L65.81166666666667,145.22372722625718L65.84666666666666,152.1989329655964L65.88166666666667,144.52086130777982L65.95166666666667,142.83426443735746L66.03333333333333,141.08905633290595L66.10333333333334,144.01961803436268L66.20833333333333,151.43745581308988L66.23166666666667,153.27222188313792L66.42999999999999,153.36881319681794L66.51166666666667,156.08134110768626L67.025,150.3032112121581L67.62,141.90680027008042L67.64333333333333,139.78882471720365L67.66666666666667,139.43856398264555L67.78333333333333,145.16511599222807L67.97,142.63076623280833L68.34333333333333,140.29475688934312L68.36666666666667,136.71243826548246L68.40166666666667,135.29732863108302L68.425,138.35495948791493L68.50666666666667,137.95124530792222L69.24166666666666,104.46172396341942L69.39333333333333,106.32181008656801L69.60333333333332,97.23894437154114L69.65,97.71955649058005L69.685,98.64795843760153L69.70833333333333,92.19931602478006L69.79,91.66853268941222L70.02333333333333,90.6135304768878L70.21,93.01518440246562L70.22166666666668,92.85294850667297L70.28,97.01434612274149L70.32666666666667,95.07220427195212L70.51333333333334,90.92721780141176L70.525,92.11397806803366L70.53666666666668,91.10539595286032L70.54833333333333,92.58427460988342L70.595,94.66286341349264L70.85166666666666,94.26243146260559L71.34166666666667,89.97396469116191L71.42333333333333,92.74791717529276L71.435,93.65990797678609L71.48166666666665,91.42189661661764L72.08833333333334,83.32885742187479L72.10000000000001,80.85171222686745L72.20500000000001,84.91323630015034L72.36833333333334,83.4156020482379L72.71833333333333,83.97592544555641L72.8,85.51716645558653L72.88166666666666,58.44768524169897L73.045,59.58474318186418L73.535,53.755035400390355L73.605,54.99618689219132L74.935,59.142111142476146L75.145,61.12129529317195L75.16833333333334,63.88962109883601L75.215,58.90625953674291L75.23833333333333,60.36169370015437L75.39,62.626900672912356L75.44833333333334,62.272888819376384L75.62333333333333,63.00154368082657L76.27666666666666,51.83915138244602L76.66166666666666,48.518004417419164L76.72,52.545768419901265L76.91833333333334,55.429910024006894L77.01166666666667,58.255440394083394L77.02333333333334,55.6015237172442L77.04666666666667,56.10745588938369L77.16333333333334,54.888342221577695L77.18666666666667,59.899368286132564L77.51333333333334,58.14665794372533L77.57166666666667,57.01710224151584L77.74666666666667,58.376882870991764L77.79333333333334,58.40689182281468L78.4,54.24877643585178L78.59833333333333,51.97981834411595L78.785,54.67171510060602L79.19333333333333,55.232038497924535L79.24,58.585069974263256L79.52,55.0768359502154L79.54333333333334,55.21703402201308L79.56666666666666,56.8220440546669L79.59,58.10586452484106L79.78833333333333,59.63678995768203L79.92833333333333,56.92519982655817L80.41833333333334,56.01977348327611L80.96666666666667,48.99345874786349L81.03666666666666,50.40763060251844L81.25833333333334,45.055721600850156L81.27,45.73654969533256L81.33999999999999,45.435522397358945L81.375,46.61759376525851L81.55,50.562364260355366L81.60833333333333,48.694775899251034L82.02833333333334,45.24140199025445L82.03999999999999,45.33049106597873L82.65833333333333,50.05643208821588L83.02,55.54478804270401L83.055,54.18688297271702L83.13666666666667,55.14013608296686L83.3,57.40440527598037L83.91833333333334,60.78744570414201L83.97666666666666,62.71364529927547L84.01166666666666,62.514367103576404L84.30333333333333,65.4800955454506L84.65333333333334,71.97375138600644L84.71166666666666,77.38896052042621L84.77000000000001,68.46035957336402L84.78166666666667,69.84452247619605L84.88666666666666,70.49909273783342L84.94500000000001,70.2519877751666L85.57499999999999,56.29970073699924L86.22833333333334,45.12089729309055L86.26333333333334,47.64305591583224L86.64833333333334,49.559877713521054L86.67166666666667,49.74555810292535L86.695,52.26771672566705L86.73,54.999938011169164L87.10333333333332,53.728308677673084L87.48833333333333,49.69304243723525L87.605,45.660120646158575L88.305,38.910919825235716L88.41,39.670990308125525L88.56166666666667,37.61397043863903L89.01666666666667,38.74540170033743L89.23833333333333,41.4227628707883L89.33166666666666,42.26348241170219L89.36666666666666,42.921334902445196L89.39,40.347598393757856L89.55333333333334,38.654905954996465L89.89166666666667,39.73382155100476L90.11333333333334,38.92264207204153L90.52166666666666,34.207485516865745L90.545,32.19923019409149L90.95333333333332,30.743327140807796L90.98833333333334,32.3877239227292L92.21333333333332,29.52984015146861L92.38833333333334,31.02278550465872L92.42333333333333,31.07061227162648L92.51666666666668,29.24194176991751L92.575,30.75223604838024L92.72666666666666,30.85914293924937L93.81166666666667,36.979562441507674L93.85833333333333,42.91055043538384L93.88166666666666,44.240322113036825L93.98666666666666,49.60395336151097L93.99833333333333,50.392626126606984L94.14999999999999,51.611739794412976L94.18499999999999,51.94840272267633L94.27833333333334,50.15771230061822L95.02499999999999,45.55790265401178L95.18833333333333,44.48742707570366L95.27,43.64154974619519L95.32833333333332,36.685568491617545L96.09833333333333,35.10212739308645L96.69333333333333,44.79032993316623L97.24166666666666,43.07513078053765L97.25333333333333,44.35942014058404L97.33500000000001,45.605729420979536L97.65,45.461311340331754L98.05833333333334,45.77640533447237L98.17500000000001,45.99725246429416L98.60666666666667,49.690229098001836L98.63,51.50248845418267L98.69999999999999,53.06998729705783L98.71166666666666,54.74251747131321L98.95666666666666,57.60696570078506L99.03833333333334,54.135305086771375L99.07333333333334,53.444630304972065L99.41166666666666,55.40224552154515L100.03,55.50118128458633L100.39166666666667,50.07846991221082L100.50833333333333,46.72684510548883L100.52,45.541022618611386L100.53166666666667,46.82765642801894L100.54333333333332,45.91660340627008L100.98666666666668,46.587584813435605L101.08,49.291203816731496L101.64,51.28304799397759L101.82666666666667,48.96766980489068L101.93166666666666,46.60962263743055L102.00166666666667,45.06978829701713L102.07166666666666,42.234880129495984L102.71333333333334,41.1151711146034L102.87666666666667,42.31037139892549L103.02833333333334,41.03264649709038L103.32,40.05923112233451L103.34333333333333,41.67783896128307L103.36666666666666,44.00962829589816L103.40166666666667,42.601083119710005L103.565,47.257159550984426L103.79833333333333,45.7398319244382L104.90666666666667,34.91316477457653L105.02333333333333,31.335535049438175L105.175,33.3376948038734L105.25666666666667,34.60322856903047L105.61833333333333,33.36113929748505L105.63,32.5705909729001L105.77,35.490368207295454L105.78166666666668,34.15825208028128L106.09666666666666,31.09687010447154L106.19,28.89965216318735L106.50500000000001,28.833069801330264L107.765,18.992946942646988L107.905,20.550130208333023L107.91666666666667,20.713303883870125L108.02166666666666,21.075755755106297L108.16166666666666,24.946910540262554L108.20833333333334,24.336884816487327L108.22,25.154628753661797L108.23166666666667,24.54460302988657L108.37166666666667,22.372705141702983L108.65166666666667,20.672041575113607L108.92,23.069944381713555L109.15333333333332,18.670350710550633L109.38666666666667,16.040347417195314L109.88833333333334,18.13440958658823L109.9,19.53170140584278L110.285,23.032433191934903L110.44833333333334,24.563358624775894L111.42833333333334,29.849623044331572L112.07,36.001458168029494L112.12833333333334,36.198391914367384L112.32666666666667,37.57411479949922L112.47833333333334,39.69818592071504L112.49,40.02312660217256L112.79333333333334,44.46445147196423L112.81666666666666,43.023552894591994L112.82833333333332,41.50106747945122L112.88666666666667,42.89835929870577L112.945,44.48133150736462L113.10833333333332,46.814527511596395L113.715,44.65669631957979L114.28666666666668,39.59081013997367L114.29833333333333,39.28884506225557L114.35666666666665,40.56563218434623L114.61333333333333,45.960679054259984L115.45333333333333,34.184041023254096L115.99000000000001,31.874758402506217L116.03666666666666,32.74970690409312L116.24666666666667,32.97149181365938L116.31666666666666,31.88085397084525L116.725,34.96708710988332L117.19166666666666,32.952736218770056L117.20333333333332,33.57964197794567L117.54166666666667,32.39053726196259L117.6,32.22548802693655L117.67,35.04304726918508L117.86833333333333,36.31467660268118L118.965,28.93810113271048L119.23333333333333,25.517549514770195L119.245,25.444402694701846L119.39666666666666,27.323713302611992L119.91000000000001,30.48918883005748L119.99166666666666,31.673604647318218L120.80833333333334,32.49041080474823L120.85499999999999,33.67529551188121L121.13499999999999,34.8461135228472L121.52,31.01950327555308L121.70666666666666,33.965538342793494L121.82333333333332,34.94082927703828L122.13833333333332,36.26638094584117L122.20833333333333,41.07765992482475L122.26666666666667,39.74648157755505L122.55833333333332,41.164873441060095L123.34,40.95340410868298L123.55,39.402785301208205L123.66666666666666,39.10504023234021L124.14500000000001,38.55643908182751L124.16833333333334,38.13303152720104L124.41333333333334,38.56441020965548L124.60000000000001,39.5317300160723L125.02,38.58457247416149L125.10166666666666,40.949652989705115L125.11333333333334,42.07545757293673L125.13666666666667,42.88147926330538L125.18333333333334,41.87289714813204L125.24166666666666,44.34488455454481L125.76666666666667,41.463087399800344L126.18666666666667,39.33526515960664L126.29166666666667,38.676005999246954L126.875,39.23726717630994L126.98,38.10349146525036L127.06166666666667,38.53674570719373L127.47,46.07883930206272L127.65666666666668,45.970525741576864L127.70333333333333,45.15981515248589L127.715,44.2440732320147L127.76166666666666,42.66954104105604L127.855,44.50477600097627L128.03,42.835059165954306L128.15833333333333,43.69500319162977L128.43833333333333,42.53965854644747L128.57833333333332,43.25799783070853L128.96333333333334,41.49356524149548L129.02166666666668,38.8087018330889L129.41833333333332,36.18104298909476L129.86166666666665,37.04004923502575L130.67833333333334,37.37342993418346L130.935,38.62958590189588L131.20333333333335,37.59474595387748L131.72833333333332,39.140206972757696L132.09,43.181568781534544L132.34666666666666,41.89165274302137L132.35833333333335,42.450569470723195L132.39333333333335,42.83881028493218L132.67333333333335,43.604976336161016L132.88333333333333,42.885230382283254L133.525,42.73846785227429L134.00333333333333,36.581006050109565L134.01500000000001,37.271211942036665L134.06166666666667,36.60023053487114L134.435,31.05279445648163L134.785,29.774600664774272L135.905,23.25890700022349L135.95166666666665,20.667352676391282L135.96333333333334,20.93415101369191L136.34833333333333,17.144114176431966L136.35999999999999,17.681461970011075L136.41833333333335,17.350425720214524L136.57,19.47777907053597L136.75666666666666,22.300964991251323L137.2,21.257216135660496L137.53833333333333,23.499916394551285L137.95833333333334,20.855846405028988L138.48333333333332,18.502019246418953L138.50666666666666,18.10064951578745L138.64666666666665,16.6710042953488L138.985,19.544361432393075L139.125,18.721928596496262L139.46333333333334,19.767553011576023L139.52166666666668,19.760519663492513L139.88333333333333,17.899964650471677L140.14,18.241785367329587L140.58333333333334,19.651268323262222L141.00333333333336,18.979818026224446L141.1316666666667,19.418230056762376L141.20166666666668,21.447585423787118L141.26,22.68404801686573L141.56333333333336,23.304858207702317L141.61,25.346404711405125L141.7733333333333,29.09142812093068L141.82,27.230873107909844L142.11166666666668,27.87465890248587L142.17000000000002,27.10474173227916L142.52,26.002381642659195L143.38333333333333,23.02305539449025L143.48833333333334,25.079606374104515L144.03666666666666,26.539729436238304L144.06,26.83137893676727L144.15333333333334,25.32108465830454L144.21166666666664,26.39343579610157L144.39833333333334,27.60129610697398L144.655,25.981750488280937L144.81833333333336,24.394558270771988L145.565,19.229267438252457L145.6,18.502488136291184L145.705,19.523730278014817L145.90333333333334,18.15222740173308L146.06666666666666,21.793626149495125L146.10166666666666,22.139197985330906L146.18333333333334,20.208778381347344L146.25333333333333,22.135446866353035L146.32333333333332,21.690470377603848L147.36166666666668,18.840088844298997L147.63,15.514721870422042L147.74666666666664,14.691820144652999L147.75833333333333,15.058023134867017L147.79333333333335,15.831691424051595L147.84,16.49095058441131L147.8983333333333,16.31886800130176L147.95666666666665,16.776035626729012L148.12,16.784944534301438L148.42333333333335,20.156731605529465L148.435,20.507930119832047L148.65666666666667,22.122786839802743L149.20499999999998,23.859086036681816L149.35666666666665,25.420958201090176L150.1616666666667,26.61662737528452L150.20833333333334,26.39437357584605L150.2433333333333,25.417207082112327L150.45333333333332,26.19509538014698L150.66333333333333,25.451904932657566L150.87333333333333,28.706938425699565L150.95499999999998,32.53636201222707L151.025,32.0759121576942L151.21166666666667,31.07764561970999L151.23499999999999,31.96290969848602L151.55,34.44286823272676L151.585,35.89314460754365L152.08666666666667,34.46584383646618L152.23833333333334,32.31879711151093L152.43666666666667,30.492002169290874L152.48333333333332,29.767098426818553L152.635,28.712565104166366L152.68166666666664,29.821020762125347L152.74,28.890743255614925L152.83333333333331,27.79494762420624L153.06666666666666,27.40623792012503L153.38166666666666,27.142252922057793L153.685,29.04313246409067L153.74333333333334,30.72926044464082L154.20999999999998,29.016405741373397L154.39666666666668,29.065170288085636L154.47833333333335,30.34242630004852L154.7,30.187692642211612L155.60999999999999,27.161477406819365L155.76166666666666,26.208693186441753L155.91333333333333,26.562236150105477L155.925,27.931394577026055L156.0066666666667,30.036241213480327L156.31,28.84526093800833L156.345,28.582682609557796L156.35666666666665,29.81304963429738L156.52,31.61452452341685L156.77666666666664,31.298961639404002L157.20833333333331,31.76081816355358L157.79166666666669,27.31761773427298L157.92,26.614751815795586L157.99,27.538464864094742L158.24666666666667,25.393293698628426L158.41,24.429725011189475L158.43333333333334,25.53583621978729L158.53833333333333,26.595996220906258L158.57333333333335,27.295111020405784L158.725,26.408440272013046L158.73666666666665,27.485480308532406L158.795,26.852478981017757L158.97,26.782614390055034L159.04,25.625394185383797L159.51833333333335,25.058975219726253L159.67000000000002,24.86579259236622L159.85666666666665,25.54568290710419L159.97333333333333,23.000548680623055L160.37,24.224820137023624L160.86,27.77525424957244L161.0233333333333,30.573120117187205L161.08166666666665,28.459364573160506L161.47833333333335,29.6217425664263L161.875,29.349786440531112L162.39999999999998,27.38279342651336L162.42333333333332,26.295906702677097L162.45833333333334,26.524724960326846L162.70333333333332,25.017712910969735L162.76166666666666,24.437227249145195L162.77333333333334,25.230588912963555L162.82,25.000363985697117L163.33333333333334,26.013166109720554L163.42666666666668,26.711812019347832L163.56666666666666,27.554407119750675L163.695,29.119561513264678L164.03333333333333,27.2102419535316L164.52333333333334,25.398451487223003L164.54666666666668,25.780596733092953L164.59333333333333,26.507844924926456L164.61666666666667,26.867952346801445L165.18833333333333,28.47530682881642L165.51500000000001,32.25784142812063L165.73666666666665,33.513997395833044L166.04,30.6879981358843L166.06333333333333,30.20222822825084L166.32,29.742247263590194L167.1016666666667,26.968763669331558L167.32333333333335,27.57644494374562L167.44,28.5273536046343L167.545,27.96609242757131L167.59166666666667,27.205553054809258L167.6616666666667,27.055508295694676L168.0233333333333,28.439671198526707L168.21,28.564864794412948L168.33833333333334,28.403097788492534L168.92166666666668,28.57142925262421L169.63333333333333,24.974106152852073L170.04166666666666,24.199500083923038L170.0533333333333,25.13352870941131L170.275,29.623618125915232L170.40333333333334,30.55108229319224L170.67166666666665,33.172176678975134L171.045,32.952736218770056L171.13833333333335,33.92146269480358L171.22,34.01524066925019L171.37166666666667,33.82909138997366L171.42999999999998,33.38692824045786L171.92,31.34772618611624L172.66666666666669,26.111632982889507L172.73666666666668,25.89781920115123L173.32,24.810463587442722L173.33166666666668,25.20667552947967L174.21833333333333,24.859697024027188L174.3,25.263880093892105L174.38166666666666,25.578505198160496L174.44,24.58211421966522L174.45166666666668,24.272178014119156L174.89499999999998,26.61240736643442L175.04666666666665,27.772909800211277L175.07,29.191770553588565L175.08166666666668,30.16799926757783L175.10500000000002,29.903545379638363L175.18666666666667,30.34617741902639L175.28,31.085616747537955L175.64166666666668,29.99966780344615L175.74666666666667,32.00745423634818L175.96833333333333,32.78018474578828L176.295,31.95259412129691L176.79666666666665,28.099257151285503L176.89000000000001,28.931536674499217L177.21666666666667,28.22679519653289L177.24,29.40464655558238L177.28666666666666,30.934634208678897L177.39166666666668,31.093587875365902L178.13833333333335,27.28338877359995L178.17333333333332,26.434229214985862L178.465,24.381429354349468L178.90833333333333,22.982730865478207L179.10666666666668,21.40585422515837L179.24666666666667,22.662479082743015L179.725,20.625152587890305L179.81833333333336,21.630452473958023L179.85333333333332,21.342085202534676L179.99333333333334,22.429440816243165L180.005,22.183273633320816L180.01666666666668,21.289100646972344L180.05166666666665,21.122644742329598L180.145,23.162315686543472L180.7866666666667,24.081339836120286L180.96166666666667,23.945361773172703L181.20666666666668,24.152142206827488L181.57999999999998,22.3661406834917L181.82500000000002,23.58759880065886L182.04666666666668,22.901612917581875L182.38500000000002,24.15870666503875L182.42,24.75935459136932L182.47833333333332,23.83048375447561L183.02666666666664,23.432396252949722L183.07333333333335,24.559138615925797L183.1783333333333,25.3318691253659L183.64499999999998,24.473331769307137L184.135,23.152000109354343L184.27499999999998,24.012413024902035L184.28666666666666,24.206533432006527L184.53166666666667,25.008804003397312L184.89333333333335,26.738069852192893L185.17333333333335,22.89035956064829L185.44166666666666,24.669327735900566L185.5,24.64728991190562L186.24666666666667,23.20123354593881L186.795,20.355540911356282L186.98166666666665,20.498083432515145L187.18,20.608272552489915L187.30833333333334,22.56072998046844L187.78666666666666,22.47679869333872L187.86833333333334,23.790159225463547L188.895,23.24437141418426L189.40833333333336,23.143560091654148L189.42,23.94583066304493L189.7,23.838454882303555L189.88666666666668,23.893783887227073L189.99166666666667,26.712280909220077L190.19,29.814925193786312L190.21333333333334,30.203166007995296L190.23666666666668,30.64017136891652L190.26,29.997792243957218L190.28333333333333,29.868378639220897L190.32999999999998,29.99075889587373L190.37666666666667,30.51591555277477L191.0883333333333,26.91015243530242L192.38333333333335,22.317376136779465L192.39499999999998,21.739703814188335L192.44166666666666,22.08621342976857L192.89666666666665,21.81894620259571L193.84166666666667,20.853501955667806L193.9,20.513087908426602L194.01666666666665,21.742986043293953L194.47166666666666,21.657648086547542L194.5533333333333,22.11294015248584L194.58833333333334,24.071493148803402L194.68166666666667,25.380164782205906L194.69333333333333,26.348891258239433L194.75166666666667,25.058975219726253L195.88333333333333,21.69562816619842L196.01166666666666,22.548069953918148L196.11666666666667,22.26345380147267L196.22166666666666,23.16372235616018L197.07333333333332,22.81158606211314L197.09666666666666,22.88660844167042L197.80833333333334,23.333460489908543L198.0066666666667,23.17403793334929L198.07666666666668,23.793441454569187L198.60166666666666,27.096301714578964L198.835,25.878594716389657L198.84666666666666,26.568800608316756L199.255,27.489231427510276L199.41833333333332,28.49359353383352L199.44166666666666,29.663473765055027L199.59333333333333,30.975427627563167L199.60500000000002,31.917427380879424L199.76833333333332,33.953816095987655L199.90833333333333,34.34018135070771L200.025,34.10292307535778L200.04833333333332,34.67918872833223L200.07166666666666,33.61668427785207L201.23833333333332,28.276028633117374L201.54166666666669,27.583009401956883L201.88,30.25333722432424L203.11666666666667,25.3787581125892L203.47833333333332,25.54849624633758L203.51333333333332,25.34406026204396L203.53666666666666,24.726532300312996L203.73499999999999,23.432396252949722L204.17833333333334,26.611000696817733L204.30666666666667,24.77623462676971L204.58666666666667,26.03567282358775L205.14666666666668,25.083357493082364L205.47333333333333,23.596038818359055L205.58999999999997,24.333133697509457L205.61333333333332,23.17638238271047L205.765,22.140135765075364L205.98666666666668,21.17047150929738L206.02166666666665,21.722354888915696L206.14999999999998,21.08044465382862L206.17333333333332,20.945873260497727L206.185,21.855988502502132L206.59333333333333,23.071351051330257L206.64,22.28830496470103L206.675,23.08119773864714L206.69833333333335,23.561809857686043L207.025,22.966319719950047L207.34,20.247696240742677L207.41,21.14608923594125L207.42166666666665,20.41368325551319L207.445,19.606254895527833L207.9466666666667,17.417476971943856L208.12166666666667,17.18443870544401L208.15666666666664,17.04986731211311L208.6,17.63597965240446L208.65833333333333,17.02595392862923L208.705,18.050947189330735L208.76333333333335,18.012029329935398L208.79833333333332,17.800559997558267L208.82166666666666,17.56048838297495L209.125,18.96575133005747L209.59166666666667,17.393094698587728L209.73166666666668,17.05174287160205L210.16333333333336,16.554719607035L210.30333333333334,15.294812520344735L210.385,16.075983047485032L210.65333333333334,14.811855951944668L210.79333333333335,15.790898005167325L211.225,15.340294837951333L211.48166666666668,15.05755424499479L211.75,14.180261294046705L212.345,12.922698656717603L212.46166666666667,12.212799390156741L212.53166666666664,12.102141380309725L212.87,14.639773368835122L212.8816666666667,14.678691228230477L212.905,14.088827768961263L212.975,14.486915270487149L213.05666666666667,16.440779368082364L213.115,13.460046450296712L213.20833333333334,13.825311660766275L213.26666666666668,14.21636581420865L213.33666666666667,15.591150919596029L214.11833333333334,15.520348548888826L214.66666666666669,11.757038434346194L214.84166666666667,13.27952384948697L215.30833333333334,11.344884236653309L215.33166666666665,11.453666687011392L215.51833333333335,13.255610466003091L215.54166666666666,12.726702690124178L215.82166666666666,13.097594579060543L215.83333333333334,12.310328483581216L216.13666666666668,12.100734710693038L216.25333333333333,12.420048713683755L217.79333333333335,15.418599446614254L217.82833333333332,15.030827522277498L217.85166666666666,14.86952940622933L218.07333333333335,15.588806470234866L218.56333333333333,16.276667912800782L218.59833333333333,16.437028249104493L218.83166666666668,14.809511502583504L218.99499999999998,14.125401178995435L219.35666666666665,14.10711447397836L219.38,12.857991854349434L219.42666666666665,13.631191253661783L219.95166666666668,13.098532358805L220.11499999999998,13.166052500406582L220.17333333333335,13.978169759114246L220.745,13.432381947834964L220.96666666666667,13.188559214273756L221.20000000000002,12.043061256408357L221.39833333333334,12.728578249613111L221.9,11.287679672240877L222.16833333333335,12.210454940795577L222.44833333333335,12.365188598632486L222.79833333333335,16.315116882323892L222.81,17.2013187408444L222.83333333333331,18.08658281962045L222.915,17.57127285003631L223.24166666666665,18.837744394937832L223.79,17.144583066304197L223.9766666666667,16.064260800679197L224.01166666666666,15.499248504638338L224.02333333333334,15.288716952005704L224.245,13.588991165160806L224.36166666666665,14.686193466186197L224.81666666666666,16.966404914855637L224.8983333333333,18.2361586888628L225.24833333333333,19.459492365518894L225.30666666666667,18.86259555816619L225.69166666666666,18.396987915038743L225.85500000000002,16.96171601613331L226.0066666666667,17.31385231018035L226.555,16.625990867614433L226.82333333333335,16.632086435953443L226.85833333333332,16.78353786468473L227.04500000000002,15.876704851785963L227.19666666666666,16.95140043894418L227.25500000000002,17.92622248331674L227.29,18.443876902262044L227.45333333333335,19.130331675211277L227.53500000000003,19.634857177734062L227.59333333333333,19.855235417683595L227.89666666666665,22.991639773050633L228.58499999999998,21.804879506428712L228.74833333333333,21.55355453491179L228.95833333333334,20.303025245666195L229.12166666666667,21.41992092132537L229.50666666666666,21.459776560465183L229.54166666666669,22.255013783772476L229.57666666666665,22.330505053202007L229.72833333333332,21.774401664733574L229.90333333333334,21.884121894836113L230.56833333333333,21.062626838683773L230.94166666666666,21.209858258564942L230.95333333333332,21.48087660471567L231.07000000000002,22.266736030578294L231.105,22.16404914855926L231.47833333333335,23.916290601094246L231.49,24.10009543100961L231.525,24.15120442708303L231.735,23.509294191995938L231.83999999999997,25.113835334777523L232.26,26.307628949482933L232.645,26.135546366373386L232.87833333333336,23.985217412312515L233.21666666666667,24.778110186258647L233.2866666666667,24.51740741729705L233.35666666666668,24.385649363199565L233.38,23.790159225463547L233.79999999999998,23.739050229390145L233.82333333333332,24.20981566111215L233.905,25.503482818603214L234.115,25.747305552164402L234.12666666666667,25.438307126362815L234.4766666666667,24.12025769551564L234.88500000000002,25.19026438395151L235.43333333333334,25.14571984608937L235.80666666666664,25.53161621093719L235.95833333333331,26.477367083231297L235.97,27.076139450072933L236.05166666666668,28.760860761006377L236.09833333333333,29.376044273376156L236.29666666666665,29.474511146545108L236.36666666666665,29.228343963622738L236.51833333333332,29.399957656860057L236.54166666666669,28.955918947855327L236.74,28.20944627126027L237.28833333333333,26.589900652567245L237.79,24.41753387451141L237.94166666666666,26.14679972330699L237.98833333333334,25.93204816182424L238.09333333333336,25.830767949421897L238.37333333333333,26.377962430317886L238.49,24.561951955159188L238.525,24.310158093770035L239.085,21.950704256693218L239.10833333333335,21.844266255696297L239.33,20.680481592813802L240.275,18.166762987772305L240.50833333333335,17.788368860880222L240.66000000000003,18.388547897338547L240.695,19.574839274088216L240.77666666666667,20.57498137156136L240.96333333333334,20.762068430582364L241.1966666666667,19.879148801167496L241.66333333333333,20.248165130614925L241.85,20.15485604604053L242.66666666666669,17.568928400675144L242.70166666666665,17.24633216857879L242.9466666666667,18.303678830464364L243.44833333333332,17.72413094838428L245.09333333333333,19.60813045501677L245.10500000000002,19.025769233703294L245.32666666666665,18.52780818939177L245.49,18.73224417368539L245.51333333333335,19.8707087834673L246.14333333333335,18.49311033884653L246.61,18.782415390014336L247.07666666666665,18.741621971130044L247.08833333333334,18.55500380198129L247.14666666666668,18.9577802022295L247.22833333333332,18.688637415567708L247.31,17.91543801625538L247.415,19.0173292160031L247.56666666666666,18.928240140278817L247.85833333333335,18.675508499145188L248.02166666666665,22.019631067911465L248.115,22.46929645538298L248.31333333333333,22.81158606211314L248.64000000000001,22.181398073831883L249.03666666666666,23.07088216145803L249.57333333333332,22.282209396361996L249.865,23.868932723998714L250.02833333333334,23.765776952107437L250.05166666666665,25.179948806762383L250.06333333333333,25.38485368092823L250.39,26.656951904296562L250.44833333333335,25.944708188374534L250.5066666666667,25.55037180582652L250.565,25.056630770365093L250.81,25.116648674010918L251.59166666666667,23.288447062174175L251.65,22.249855995177903L251.66166666666666,22.66482353210418L251.85999999999999,21.83770179748504L251.965,21.841452916462906L252.07,21.658116976419773L252.65333333333334,21.196260452270195L252.75833333333333,21.175160408019707L252.81666666666666,20.388363202412606L254.19333333333336,17.935600280761392L254.50833333333333,18.39839458465545L254.59,17.862453460693047L255.02166666666668,17.97780036926237L255.22,19.19691403706836L255.37166666666667,19.813973108927097L255.605,20.348507563272793L256.1066666666667,21.25909169514943L256.5966666666667,19.374623298644693L256.65500000000003,19.445425669351895" style="fill: none;" fill="none"></path></g></g></g></g></g></g><g transform="translate(50, 177)" clip-path="url(#clip_1)"><clipPath id="clip_1"><rect width="280" height="22"></rect></clipPath><g><g><line x1="0" y1="0" x2="0" y2="5" style="visibility: inherit;" fill="rgb(0, 0, 0)" stroke="rgb(200, 195, 188)" stroke-width="1px"></line><line x1="23.333333333333332" y1="0" x2="23.333333333333332" y2="5" style="visibility: inherit;" fill="rgb(0, 0, 0)" stroke="rgb(200, 195, 188)" stroke-width="1px"></line><line x1="46.666666666666664" y1="0" x2="46.666666666666664" y2="5" style="visibility: inherit;" fill="rgb(0, 0, 0)" stroke="rgb(200, 195, 188)" stroke-width="1px"></line><line x1="70" y1="0" x2="70" y2="5" style="visibility: inherit;" fill="rgb(0, 0, 0)" stroke="rgb(200, 195, 188)" stroke-width="1px"></line><line x1="93.33333333333333" y1="0" x2="93.33333333333333" y2="5" style="visibility: inherit;" fill="rgb(0, 0, 0)" stroke="rgb(200, 195, 188)" stroke-width="1px"></line><line x1="116.66666666666667" y1="0" x2="116.66666666666667" y2="5" style="visibility: inherit;" fill="rgb(0, 0, 0)" stroke="rgb(200, 195, 188)" stroke-width="1px"></line><line x1="140" y1="0" x2="140" y2="5" style="visibility: inherit;" fill="rgb(0, 0, 0)" stroke="rgb(200, 195, 188)" stroke-width="1px"></line><line x1="163.33333333333334" y1="0" x2="163.33333333333334" y2="5" style="visibility: inherit;" fill="rgb(0, 0, 0)" stroke="rgb(200, 195, 188)" stroke-width="1px"></line><line x1="186.66666666666666" y1="0" x2="186.66666666666666" y2="5" style="visibility: inherit;" fill="rgb(0, 0, 0)" stroke="rgb(200, 195, 188)" stroke-width="1px"></line><line x1="210" y1="0" x2="210" y2="5" style="visibility: inherit;" fill="rgb(0, 0, 0)" stroke="rgb(200, 195, 188)" stroke-width="1px"></line><line x1="233.33333333333334" y1="0" x2="233.33333333333334" y2="5" style="visibility: inherit;" fill="rgb(0, 0, 0)" stroke="rgb(200, 195, 188)" stroke-width="1px"></line><line x1="256.66666666666663" y1="0" x2="256.66666666666663" y2="5" style="visibility: inherit;" fill="rgb(0, 0, 0)" stroke="rgb(200, 195, 188)" stroke-width="1px"></line><line x1="280" y1="0" x2="280" y2="5" style="visibility: inherit;" fill="rgb(0, 0, 0)" stroke="rgb(200, 195, 188)" stroke-width="1px"></line></g><g transform="translate(0, 8)"><text x="0" y="0" dx="0em" dy="0.95em" style="text-anchor: middle; visibility: hidden; font-family: Roboto, sans-serif; font-size: 12px; font-weight: 200;" fill="rgb(232, 230, 227)" stroke="none" stroke-width="1px">-2k</text><text x="23.333333333333332" y="0" dx="0em" dy="0.95em" style="text-anchor: middle; visibility: inherit; font-family: Roboto, sans-serif; font-size: 12px; font-weight: 200;" fill="rgb(232, 230, 227)" stroke="none" stroke-width="1px">0</text><text x="46.666666666666664" y="0" dx="0em" dy="0.95em" style="text-anchor: middle; visibility: hidden; font-family: Roboto, sans-serif; font-size: 12px; font-weight: 200;" fill="rgb(232, 230, 227)" stroke="none" stroke-width="1px">2k</text><text x="70" y="0" dx="0em" dy="0.95em" style="text-anchor: middle; visibility: inherit; font-family: Roboto, sans-serif; font-size: 12px; font-weight: 200;" fill="rgb(232, 230, 227)" stroke="none" stroke-width="1px">4k</text><text x="93.33333333333333" y="0" dx="0em" dy="0.95em" style="text-anchor: middle; visibility: hidden; font-family: Roboto, sans-serif; font-size: 12px; font-weight: 200;" fill="rgb(232, 230, 227)" stroke="none" stroke-width="1px">6k</text><text x="116.66666666666667" y="0" dx="0em" dy="0.95em" style="text-anchor: middle; visibility: inherit; font-family: Roboto, sans-serif; font-size: 12px; font-weight: 200;" fill="rgb(232, 230, 227)" stroke="none" stroke-width="1px">8k</text><text x="140" y="0" dx="0em" dy="0.95em" style="text-anchor: middle; visibility: hidden; font-family: Roboto, sans-serif; font-size: 12px; font-weight: 200;" fill="rgb(232, 230, 227)" stroke="none" stroke-width="1px">10k</text><text x="163.33333333333334" y="0" dx="0em" dy="0.95em" style="text-anchor: middle; visibility: inherit; font-family: Roboto, sans-serif; font-size: 12px; font-weight: 200;" fill="rgb(232, 230, 227)" stroke="none" stroke-width="1px">12k</text><text x="186.66666666666666" y="0" dx="0em" dy="0.95em" style="text-anchor: middle; visibility: hidden; font-family: Roboto, sans-serif; font-size: 12px; font-weight: 200;" fill="rgb(232, 230, 227)" stroke="none" stroke-width="1px">14k</text><text x="210" y="0" dx="0em" dy="0.95em" style="text-anchor: middle; visibility: inherit; font-family: Roboto, sans-serif; font-size: 12px; font-weight: 200;" fill="rgb(232, 230, 227)" stroke="none" stroke-width="1px">16k</text><text x="233.33333333333334" y="0" dx="0em" dy="0.95em" style="text-anchor: middle; visibility: hidden; font-family: Roboto, sans-serif; font-size: 12px; font-weight: 200;" fill="rgb(232, 230, 227)" stroke="none" stroke-width="1px">18k</text><text x="256.66666666666663" y="0" dx="0em" dy="0.95em" style="text-anchor: middle; visibility: inherit; font-family: Roboto, sans-serif; font-size: 12px; font-weight: 200;" fill="rgb(232, 230, 227)" stroke="none" stroke-width="1px">20k</text><text x="280" y="0" dx="0em" dy="0.95em" style="text-anchor: middle; visibility: hidden; font-family: Roboto, sans-serif; font-size: 12px; font-weight: 200;" fill="rgb(232, 230, 227)" stroke="none" stroke-width="1px">22k</text></g><line x1="0" y1="0" x2="280" y2="0" fill="rgb(0, 0, 0)" stroke="rgb(200, 195, 188)" stroke-width="1px"></line></g></g></g></g></svg>