<svg viewBox="0 0 330 200" xmlns="http://www.w3.org/2000/svg"><g><g><g><g><g><line x1="61.953125" y1="177" x2="56.953125" y2="177" style="visibility: inherit;" fill="rgb(0, 0, 0)" stroke="rgb(200, 195, 188)" stroke-width="1px"></line><line x1="61.953125" y1="151.71428571428572" x2="56.953125" y2="151.71428571428572" style="visibility: inherit;" fill="rgb(0, 0, 0)" stroke="rgb(200, 195, 188)" stroke-width="1px"></line><line x1="61.953125" y1="126.42857142857143" x2="56.953125" y2="126.42857142857143" style="visibility: inherit;" fill="rgb(0, 0, 0)" stroke="rgb(200, 195, 188)" stroke-width="1px"></line><line x1="61.953125" y1="101.14285714285714" x2="56.953125" y2="101.14285714285714" style="visibility: inherit;" fill="rgb(0, 0, 0)" stroke="rgb(200, 195, 188)" stroke-width="1px"></line><line x1="61.953125" y1="75.85714285714286" x2="56.953125" y2="75.85714285714286" style="visibility: inherit;" fill="rgb(0, 0, 0)" stroke="rgb(200, 195, 188)" stroke-width="1px"></line><line x1="61.953125" y1="50.57142857142857" x2="56.953125" y2="50.57142857142857" style="visibility: inherit;" fill="rgb(0, 0, 0)" stroke="rgb(200, 195, 188)" stroke-width="1px"></line><line x1="61.953125" y1="25.285714285714295" x2="56.953125" y2="25.285714285714295" style="visibility: inherit;" fill="rgb(0, 0, 0)" stroke="rgb(200, 195, 188)" stroke-width="1px"></line><line x1="61.953125" y1="0" x2="56.953125" y2="0" style="visibility: inherit;" fill="rgb(0, 0, 0)" stroke="rgb(200, 195, 188)" stroke-width="1px"></line></g><g transform="translate(51.953125, 0)"><text x="0" y="177" dx="0em" dy="0.3em" style="text-anchor: end; visibility: hidden; font-family: Roboto, sans-serif; font-size: 12px; font-weight: 200;" fill="rgb(232, 230, 227)" stroke="none" stroke-width="1px">0.35</text><text x="0" y="151.71428571428572" dx="0em" dy="0.3em" style="text-anchor: end; visibility: inherit; font-family: Roboto, sans-serif; font-size: 12px; font-weight: 200;" fill="rgb(232, 230, 227)" stroke="none" stroke-width="1px">0.355</text><text x="0" y="126.42857142857143" dx="0em" dy="0.3em" style="text-anchor: end; visibility: inherit; font-family: Roboto, sans-serif; font-size: 12px; font-weight: 200;" fill="rgb(232, 230, 227)" stroke="none" stroke-width="1px">0.36</text><text x="0" y="101.14285714285714" dx="0em" dy="0.3em" style="text-anchor: end; visibility: inherit; font-family: Roboto, sans-serif; font-size: 12px; font-weight: 200;" fill="rgb(232, 230, 227)" stroke="none" stroke-width="1px">0.365</text><text x="0" y="75.85714285714286" dx="0em" dy="0.3em" style="text-anchor: end; visibility: inherit; font-family: Roboto, sans-serif; font-size: 12px; font-weight: 200;" fill="rgb(232, 230, 227)" stroke="none" stroke-width="1px">0.37</text><text x="0" y="50.57142857142857" dx="0em" dy="0.3em" style="text-anchor: end; visibility: inherit; font-family: Roboto, sans-serif; font-size: 12px; font-weight: 200;" fill="rgb(232, 230, 227)" stroke="none" stroke-width="1px">0.375</text><text x="0" y="25.285714285714295" dx="0em" dy="0.3em" style="text-anchor: end; visibility: inherit; font-family: Roboto, sans-serif; font-size: 12px; font-weight: 200;" fill="rgb(232, 230, 227)" stroke="none" stroke-width="1px">0.38</text><text x="0" y="0" dx="0em" dy="0.3em" style="text-anchor: end; visibility: hidden; font-family: Roboto, sans-serif; font-size: 12px; font-weight: 200;" fill="rgb(232, 230, 227)" stroke="none" stroke-width="1px">0.385</text></g><line x1="61.953125" y1="0" x2="61.953125" y2="177" fill="rgb(0, 0, 0)" stroke="rgb(200, 195, 188)" stroke-width="1px"></line></g></g><g transform="translate(61, 0)" clip-path="url(#clip_0)"><clipPath id="clip_0"><rect width="268" height="176"></rect></clipPath><g><g><g><line x1="0" y1="0" x2="0" y2="177" fill="rgb(0, 0, 0)" stroke="rgb(194, 189, 181)" stroke-width="1px" opacity="0.25"></line><line x1="22.337239583333332" y1="0" x2="22.337239583333332" y2="177" fill="rgb(0, 0, 0)" stroke="rgb(194, 189, 181)" stroke-width="1px" opacity="0.25"></line><line x1="44.674479166666664" y1="0" x2="44.674479166666664" y2="177" fill="rgb(0, 0, 0)" stroke="rgb(194, 189, 181)" stroke-width="1px" opacity="0.25"></line><line x1="67.01171875" y1="0" x2="67.01171875" y2="177" fill="rgb(0, 0, 0)" stroke="rgb(194, 189, 181)" stroke-width="1px" opacity="0.25"></line><line x1="89.34895833333333" y1="0" x2="89.34895833333333" y2="177" fill="rgb(0, 0, 0)" stroke="rgb(194, 189, 181)" stroke-width="1px" opacity="0.25"></line><line x1="111.68619791666667" y1="0" x2="111.68619791666667" y2="177" fill="rgb(0, 0, 0)" stroke="rgb(194, 189, 181)" stroke-width="1px" opacity="0.25"></line><line x1="134.0234375" y1="0" x2="134.0234375" y2="177" fill="rgb(0, 0, 0)" stroke="rgb(194, 189, 181)" stroke-width="1px" opacity="0.25"></line><line x1="156.36067708333334" y1="0" x2="156.36067708333334" y2="177" fill="rgb(0, 0, 0)" stroke="rgb(194, 189, 181)" stroke-width="1px" opacity="0.25"></line><line x1="178.69791666666666" y1="0" x2="178.69791666666666" y2="177" fill="rgb(0, 0, 0)" stroke="rgb(194, 189, 181)" stroke-width="1px" opacity="0.25"></line><line x1="201.03515625" y1="0" x2="201.03515625" y2="177" fill="rgb(0, 0, 0)" stroke="rgb(194, 189, 181)" stroke-width="1px" opacity="0.25"></line><line x1="223.37239583333334" y1="0" x2="223.37239583333334" y2="177" fill="rgb(0, 0, 0)" stroke="rgb(194, 189, 181)" stroke-width="1px" opacity="0.25"></line><line x1="245.70963541666666" y1="0" x2="245.70963541666666" y2="177" fill="rgb(0, 0, 0)" stroke="rgb(194, 189, 181)" stroke-width="1px" opacity="0.25"></line><line x1="268.046875" y1="0" x2="268.046875" y2="177" fill="rgb(0, 0, 0)" stroke="rgb(194, 189, 181)" stroke-width="1px" opacity="0.25"></line></g><g><line x1="0" y1="177" x2="268.046875" y2="177" fill="rgb(0, 0, 0)" stroke="rgb(194, 189, 181)" stroke-width="1px" opacity="0.25"></line><line x1="0" y1="151.71428571428572" x2="268.046875" y2="151.71428571428572" fill="rgb(0, 0, 0)" stroke="rgb(194, 189, 181)" stroke-width="1px" opacity="0.25"></line><line x1="0" y1="126.42857142857143" x2="268.046875" y2="126.42857142857143" fill="rgb(0, 0, 0)" stroke="rgb(194, 189, 181)" stroke-width="1px" opacity="0.25"></line><line x1="0" y1="101.14285714285714" x2="268.046875" y2="101.14285714285714" fill="rgb(0, 0, 0)" stroke="rgb(194, 189, 181)" stroke-width="1px" opacity="0.25"></line><line x1="0" y1="75.85714285714286" x2="268.046875" y2="75.85714285714286" fill="rgb(0, 0, 0)" stroke="rgb(194, 189, 181)" stroke-width="1px" opacity="0.25"></line><line x1="0" y1="50.57142857142857" x2="268.046875" y2="50.57142857142857" fill="rgb(0, 0, 0)" stroke="rgb(194, 189, 181)" stroke-width="1px" opacity="0.25"></line><line x1="0" y1="25.285714285714295" x2="268.046875" y2="25.285714285714295" fill="rgb(0, 0, 0)" stroke="rgb(194, 189, 181)" stroke-width="1px" opacity="0.25"></line><line x1="0" y1="0" x2="268.046875" y2="0" fill="rgb(0, 0, 0)" stroke="rgb(194, 189, 181)" stroke-width="1px" opacity="0.25"></line></g></g></g><g><g><line x1="0" y1="1946.9999999999984" x2="268.046875" y2="1946.9999999999984" fill="rgb(0, 0, 0)" stroke="rgb(168, 160, 149)" stroke-width="1.5px"></line></g></g><g><g><line x1="22.337239583333332" y1="0" x2="22.337239583333332" y2="177" fill="rgb(0, 0, 0)" stroke="rgb(168, 160, 149)" stroke-width="1.5px"></line></g></g><g><g><g><g><g><path stroke="rgb(0, 119, 187)" stroke-width="2px" d="M26.79351888020833,202.09589205070978L26.849361979166666,113.38335125987275L26.983385416666668,53.00602493575526L27.00572265625,8.395409705786111L27.083902994791668,-16.609301464260618L27.251432291666667,18.871289469352703L27.43013020833333,61.94174060873581L28.033235677083333,101.38012042730767L28.22310221354167,127.67923859622348L28.357125651041667,142.3350936134801L28.5469921875,149.0549358394092L28.647509765625,149.84405087319226L29.194772135416667,140.45817681673347L29.272952473958334,131.7939214322898L29.451650390625,126.3376655207415L29.965406901041668,105.1181936273933L30.21111653645833,88.55559513003213L30.35630859375,77.76259742326371L30.75837890625,42.562147069621204L31.10460611979167,1.7194575272648658L31.138111979166666,-29.44180133892393L31.57368815104167,-8.454134375117787L31.685374348958334,1.4119823675265395L32.165625,12.464467355609358L32.24380533854167,18.659494166065375L32.8357421875,24.93719101843022L32.88041666666666,27.887858140144967L32.91392252604167,29.287378613650315L33.025608723958335,28.88919813479517L33.036777343749996,28.235747183194825L33.248981119791665,26.5943135817989L33.68455729166667,16.013047870722502L33.69572591145833,9.745264393787386L33.72923177083333,5.964307330800878L34.15363932291667,1.0740834161593302L35.09180338541666,-14.946659381433765L42.83165690104167,-2.501903436993822L43.501774088541666,2.3897409039549595L44.194228515625,3.654813453914864L44.350589192708334,3.6296474238481764L44.652141927083335,2.7697535953166548L45.366933593750005,-2.800128563789106L45.389270833333335,-4.199640257404351L46.137568359375,8.532290750339078L46.99755208333333,21.05670556127913L47.03105794270833,27.552559622092197L47.12040690104167,31.011187939077928L47.24326171875,32.27348166875246L47.745849609375,31.049733511561048L47.8463671875,30.15029794019881L47.913378906249996,29.61686493164684L48.214931640625004,28.322785009208914L48.60583333333334,26.336905926433396L49.17543294270833,22.615023525979083L49.43231119791667,18.54352463978088L49.566334635416666,15.857910594650383L49.86788736979167,15.354568103379735L50.01307942708333,16.255574507869166L50.47099283854167,28.456937295504762L50.761376953124994,35.7330976867256L50.87306315104166,40.489643355514005L51.565517578125,45.83099892086349L52.034599609375,49.010812149517676L52.05693684895834,50.41992746510541L52.1351171875,50.70970977465998L52.838740234374995,50.884001446349636L53.151461588541665,49.53530345212213L53.307822265625,48.49260983163302L53.642880859375,47.27092412115347L53.877421875,43.49107325158573L54.190143229166665,37.88051802850801L54.20131184895833,34.00646244287415L54.63688802083333,40.31272486322569L54.65922526041667,44.41787586725537L54.87142903645833,48.14559002585657L54.88259765625,50.46559394340705L55.251162109375,54.55046520001792L55.76491861979167,58.38802762924889L55.921279296875,60.62942554321332L56.122314453125,63.20191564412855L56.1558203125,64.71227461333274L56.178157552083334,65.61194757075872L56.21166341145833,66.10807322725152L56.23400065104166,65.94037166676296L56.46854166666667,65.7792410803834L56.792431640625004,64.80485386635704L56.825937499999995,63.87662086344761L57.55189778645833,60.752864536618006L57.80877604166667,55.78996395094572L57.87578776041667,52.15526605134664L58.199677734375,47.385119939421884L58.45655598958333,41.204244974627635L58.72460286458333,36.1224792980325L59.02615559895833,36.345268608227286L59.18251627604167,39.9205705772609L59.19368489583333,42.119604702828376L59.39472005208333,44.111296449852034L59.472900390625,45.66226004781006L59.539912109374995,47.0256569388702L59.807958984375,48.1991077449932L60.08717447916666,49.30818053605543L60.22119791666666,51.05232486577207L60.355221354166666,53.51982306592527L60.57859375,55.058399664776736L60.63443684895834,55.294453013126024L60.868977864583336,54.607720259525145L61.03650716145834,53.553177018589004L61.05884440104167,52.616851595852374L61.081181640625,51.44104946344158L61.12585611979167,50.70044719594902L61.27104817708333,49.86491191938191L61.282216796875,49.429220767026635L61.5167578125,48.7489448577106L61.717792968750004,48.23066776384921L62.04168294270833,47.507356702227355L62.10869466145833,47.025996861035345L62.5889453125,44.97325178657768L62.63361979166667,42.70208920231864L63.00218424479167,39.92825192783955L63.03569010416667,37.62272629086133L63.06919596354167,38.3180907084207L63.13620768229167,40.268929706445206L63.21438802083333,43.99492218687107L63.281399739583335,47.91969514774857L63.38191731770833,51.35370441065736L63.40425455729167,53.54933278044043L63.59412109375,55.1072614144134L63.67230143229167,56.48522542845546L64.163720703125,59.97535800429056L64.7333203125,63.89484944451937L64.75565755208333,66.67006797133719L64.77799479166667,68.5531539403126L64.88968098958334,70.60365517018585L65.06837890625,72.36613390109063L65.42577473958333,74.24228165781146L65.44811197916667,75.59600423279812L65.48161783854167,76.53236175794726L65.503955078125,77.32875939528584L65.58213541666667,78.01908441013515L66.28575846354167,81.2609536581152L66.43095052083333,83.20436897412122L66.63198567708334,84.86910237145659L66.67666015625,85.86050257804509L66.710166015625,86.63472476637602L66.73250325520833,87.32229478141852L66.81068359375,87.72478145778497L67.03405598958334,87.42039348007997L67.21275390624999,86.41785853801997L67.22392252604168,85.60451232846636L67.279765625,86.81752317453973L67.32444010416665,88.81498353659731L67.50313802083333,91.64590556933304L67.51430664062501,93.50049024910423L67.52547526041667,94.88531984530506L67.53664388020833,96.07410865236193L67.58131835937499,97.65940838953092L67.82702799479166,99.44031104757262L68.29611002604167,100.92614495871058L68.37429036458333,102.22207844518356L68.38545898437499,103.23376900197415L68.43013346354167,104.05958541092481L69.01090169270833,105.49669891881682L69.0220703125,106.43929573524471L69.122587890625,107.70226276576699L69.27894856770834,109.17809680741077L69.61400716145833,110.36575816753432L69.6921875,111.1850441488725L69.77036783854166,111.58857779212764L69.926728515625,111.91707186582505L70.395810546875,112.65885817269024L70.46282226562501,112.94799123546028L71.736044921875,111.2999959419187L71.93708007812499,111.6298639207112L71.95941731770834,112.37836269310597L72.004091796875,114.48747891560315L72.02642903645832,116.2425098896277L72.17162109374999,117.85538757521685L72.22746419270834,119.23127102105128L72.39499348958334,120.36719153844642L73.02043619791667,121.7085049771793L73.38900065104167,122.05470325343165L73.44484375,121.92200738309795L73.63471028645833,120.47667928482255L73.72405924479168,119.61753718281189L73.73522786458334,119.03273967778009L73.75756510416667,118.56793332150934L73.86925130208334,117.0668254416225L73.89158854166666,115.90147852554044L74.20430989583333,114.52724082484083L74.26015299479167,113.45186276706755L74.42768229166667,112.47076825561788L74.47235677083333,111.57739603788674L75.05312500000001,106.75705868617584L75.24299153645833,103.62061910294908L75.421689453125,99.55192132817474L75.81259114583334,90.73013634124293L75.857265625,84.72390768270091L76.12531249999999,86.4005638199969L76.14764973958334,88.11716102436688L76.16998697916667,89.36045466441483L76.19232421875,90.2410771791563L76.38219075520833,91.63186852491528L76.51621419270833,92.65942798526409L76.98529622395833,94.5116849261633L77.51022135416667,96.20727830024796L77.57723307291667,97.29064447591736L77.78943684895833,98.3745822356064L77.80060546875,99.01962299984982L77.86761718749999,99.34399571761716L77.901123046875,99.54383107255354L78.06865234375,99.19417114199513L78.12449544270832,98.84810132740581L78.52656575520832,97.90207704463045L78.537734375,97.11704484098476L79.12967122395834,94.09399522467025L79.47589843749999,90.86827817996705L79.509404296875,88.37362899871442L79.58758463541666,85.99391507654747L79.7439453125,84.2598422276783L80.33588216145834,78.76955077992602L80.39172526041666,75.08380885581236L80.42523111979166,72.35226740276359L80.70444661458333,68.11775981842374L81.03950520833334,65.43347266094622L81.09534830729166,65.09430015564926L81.15119140625,66.63622289150477L81.16236002604167,67.80973036667262L81.26287760416666,69.57285739580061L81.318720703125,71.48874542330856L81.921826171875,74.95073543604805L82.54726888020834,79.68199110302261L82.58077473958333,82.20688058236382L82.94933919270834,84.4160898847159L82.97167643229166,85.63820177055185L82.994013671875,86.19055632802569L83.02751953125001,86.28731972808725L83.38491536458334,86.50611087597076L83.75347981770834,86.52473973920522L83.86516601562501,86.37229195511728L84.535283203125,85.03290833807625L84.63580078125,84.04400474879921L84.78099283854168,83.20997757651074L85.21656901041668,78.57872397501386L85.42877278645832,73.0058494545156L85.51812174479167,72.17554262123518L85.55162760416667,72.22311440086588L85.57396484374999,72.73282963470683L85.73032552083335,76.66883440851731L86.05421549479166,79.32245359026578L86.26641927083334,81.17197017798135L86.65732096354166,82.94057426374259L86.679658203125,83.85469082728008L87.07055989583333,83.85005075440878L87.10406575520834,83.62697165269007L88.27677083333333,79.33171954840688L88.44430013020833,76.83543886601187L88.47780598958333,75.25738373237779L88.56715494791668,73.52180926494772L88.622998046875,72.3064104220721L88.76819010416666,71.33259880186027L89.80687174479166,64.03786015044514L89.85154622395834,61.75404288597339L89.87388346354166,61.47385107625999L89.97440104166667,64.18933369294228L89.98556966145833,65.94861809029514L90.13076171875,68.21646194161171L90.16426757812499,70.24044550121873L90.25361653645834,71.88667468725292L90.968408203125,74.21191914648396L91.12476888020832,75.994318374325L91.20294921874999,77.64536170291463L91.25879231770833,79.69613260346773L91.99592122395833,81.89801398203014L92.56552083333334,82.68962056580665L93.09044596354167,83.0495548328306L93.10161458333333,83.11941629603066L93.179794921875,82.83215801609214L93.48134765625,81.99693488824383L93.87224934895833,80.49404457617557L93.983935546875,78.71081951178931L94.39717447916667,75.34990629820902L94.41951171875,72.53643248897149L94.4865234375,71.04613883125205L94.49769205729166,70.76641669244577L94.73223307291667,71.91237790933526L94.81041341145834,73.06452719007413L94.84391927083334,74.28827011053448L95.16780924479166,76.06300818302792L95.75974609375001,77.71912309523445L96.10597330729166,79.11884191607255L96.21765950520833,79.95314915084761L96.22882812499999,80.3543688387529L96.23999674479167,80.57077713254553L96.25116536458333,80.73679997331425L96.67557291666667,81.21496096443528L96.764921875,81.24487593117577L97.30101562499999,80.52404364726497L97.47971354166667,80.13280686843403L97.58023111979166,79.72669198129658L97.64724283854167,79.35900229596912L97.71425455729167,78.82472204215328L98.32852864583333,77.55862658668L98.48488932291667,76.67617232383351L98.63008138020834,75.4579623048849L98.909296875,73.74136985260304L98.93163411458333,72.39216306443346L98.95397135416665,70.58692330949918L98.98747721354167,70.1739585696439L99.14383789062501,72.42002045746955L99.36721028645833,77.67378121473043L100.42822916666667,83.65847652306404L100.53991536458334,87.94165211006957L100.685107421875,92.23573312733232L100.76328776041667,95.2386493990506L101.10951497395833,97.86532938290567L101.12068359374999,99.36325593888257L101.25470703124999,100.78179499889274L101.26587565104167,101.68986722101285L101.56742838541668,102.73439101773441L101.65677734375,103.54141227862915L101.958330078125,104.63478416122291L103.164541015625,105.06764232520042L103.29856445312501,104.92894900259348L103.30973307291667,104.4315078639138L103.41025065104166,104.6330327431952L103.54427408854166,105.8166479175895L103.58894856770834,107.57925701499529L103.6001171875,108.78218263094922L103.61128580729167,109.74533466932839L103.74530924479167,111.24190510168337L104.01335611979167,112.14994593072362L104.270234375,113.20756485747019L104.49360677083332,114.40095775279939L104.71697916666666,115.25585803745855L105.19722981770833,115.2326468592718L105.20839843750001,115.06814219513794L105.576962890625,113.21576329748038L105.73332356770834,111.98654602154005L106.67148763020835,108.13016260922765L107.28576171875,102.44811409602897L107.34160481770834,99.01231967687812L107.53147135416667,95.59459481004609L107.67666341145834,92.65669832562672L107.68783203125,90.5267276626131L107.97821614583333,91.44285401909907L108.00055338541667,92.19457310099722L108.01172200520833,92.88295531243695L108.06756510416668,94.06323301518292L108.123408203125,95.0789086578801L108.27976888020832,96.19785815715699L108.860537109375,98.82531419956551L109.40779947916667,101.28090856719967L109.41896809895833,102.7056930703261L109.47481119791667,103.60745330166702L109.72052083333332,104.53768983368039L110.52466145833333,105.92153423198121L111.03841796875,106.86744134330014L111.08309244791667,107.39472933183714L111.28412760416667,107.6612872728607L111.35113932291667,107.79837130184337L111.742041015625,107.83374703773137L112.18878580729167,107.56524024759608L112.19995442708333,107.19437460198964L112.52384440104167,108.93110577215148L112.57968749999999,110.45656898781496L112.64669921875,111.51584717350224L112.83656575520833,112.98154740864281L113.886416015625,115.1108677936859L114.14329427083334,116.04346194640033L114.154462890625,116.40942852596052L114.29965494791666,115.51691798303916L114.79107421875001,113.56026035117527L114.86925455729167,112.27971447204347L115.65105794270833,110.15319858514101L115.695732421875,108.85273307567132L115.96377929687499,107.58974549836061L116.33234374999999,105.79717958573305L116.51104166666666,104.15848993231629L116.62272786458333,102.58944377488918L116.92428059895833,100.54990906120308L116.99129231770833,97.96280901413624L117.04713541666666,98.05784600086977L117.32635091145833,99.91026319302053L118.0746484375,102.35914088584498L118.27568359374999,103.98175658881726L118.38736979166666,105.0325198103983L118.845283203125,105.81571988327352L118.86762044270833,106.21535482887262L119.10216145833334,106.00948362123407L119.280859375,105.75863617349825L119.6829296875,104.16863676268376L119.76111002604166,102.63538474253508L119.77227864583334,101.59261235435399L119.79461588541668,100.79784464840223L119.83929036458333,100.1285736721114L119.89513346354165,99.31527296181737L120.39772135416666,98.01863507557407L120.79979166666666,94.64845899476087L120.90030924479167,92.50915326274155L121.458740234375,87.55036980739234L121.55925781250001,84.35214458084398L121.63743815104166,82.07400847426815L122.02833984374999,78.7931581406827L122.20703776041667,78.32754051218137L122.25171223958334,78.53831768793695L122.262880859375,78.81475970167294L122.30755533854166,79.17461510913705L122.39690429687501,80.1266997244995L122.56443359375,80.79215771750835L122.68728841145833,81.52014313101333L122.95533528645834,82.01262201735278L123.08935872395833,82.36017193008084L123.45792317708333,82.85062632629405L123.51376627604166,83.3502225007182L123.89349934895833,83.7479427327795L124.31790690104167,84.33413584125833L125.09971028645833,84.22151862666716L125.345419921875,83.15692253568974L125.60229817708334,82.40352900536524L126.10488606770832,79.51620800768L126.45111328125,75.22558160334245L126.69682291666668,75.40835448560607L126.70799153645834,75.71720731493133L126.74149739583333,76.41557050229554L127.00954427083333,78.46082843992295L127.21057942708335,79.9064544640554L127.824853515625,81.29415569668781L128.28276692708334,84.0615080651566L128.29393554687502,85.703302835476L128.33861002604166,87.0395536742885L128.69600585937502,88.5302024368949L129.031064453125,89.666148253453L130.103251953125,91.70969652720916L130.14792643229165,92.93733879737601L130.15909505208333,93.59962351983438L130.52765950520833,93.86737654908L130.538828125,93.94449933922866L130.59467122395833,93.95608673881712L130.73986328125,93.89524112782529L130.91856119791666,93.7513853891019L131.34296875,96.10918053489057L131.66685872395834,99.09689469543407L132.06892903645834,101.38211935872606L132.57151692708334,103.09443323904121L132.59385416666666,104.00862256638152L132.72787760416665,104.50334671413759L133.051767578125,104.62747448025786L133.185791015625,104.66673830772625L133.50968098958333,104.2527099415737L133.56552408854168,103.71980867579934L133.91175130208333,103.21326401160374L134.1574609375,102.65822618051037L134.58186848958334,101.28484814627319L134.98393880208334,99.77489626332907L135.1067936197917,98.470301751468L135.17380533854168,97.0159208528509L135.22964843749997,95.30128501567404L135.52003255208334,93.24375710865709L135.56470703125,91.29542739208419L135.72106770833332,91.55047004140435L135.7657421875,92.16360242122084L136.04495768229168,94.40457038322417L136.10080078125,95.69918689651317L136.435859375,96.52832749195298L137.26233723958333,98.12118869617615L137.36285481770832,98.79789284729227L137.88777994791667,98.89360158651759L137.9101171875,98.88258660078156L137.99946614583334,98.62348925232891L138.05530924479166,98.35766236131762L138.23400716145832,97.90584422262945L138.479716796875,97.54571991970782L138.63607747395835,97.22803842139616L139.35086914062498,96.04851714004546L139.384375,95.03410926550288L139.484892578125,93.76016089405998L139.67475911458334,92.23151118425658L139.83111979166665,90.58989057417067L139.86462565104165,88.99970762956178L139.94280598958335,89.08402781557305L140.00981770833332,89.89023898391332L140.0768294270833,90.56268174990221L141.07083658854168,93.72094026875507L141.32771484375,96.12598029536852L141.43940104166666,97.6453449171992L141.45056966145833,98.44204650156111L141.48407552083336,98.83001641076089L141.52875,98.97383824606919L141.58459309895832,98.96653141763288L141.64043619791667,98.7609061587468L141.796796875,98.5048380760272L142.08718098958335,98.08228081993241L142.098349609375,97.72122870003342L142.31055338541668,96.92037062006108L142.835478515625,96.06638914357559L142.98067057291667,95.439783091107L143.75130533854167,93.8192527556225L143.79597981770834,92.57479685161732L143.8294856770833,91.6993634696233L144.03052083333333,90.37796762518015L144.23155598958334,89.03903176183522L144.43259114583336,86.46067224267905L144.510771484375,85.22622209745481L144.57778320312502,85.10576424943298L144.75648111979166,85.47388379312243L144.77881835937498,85.85361345669618L145.08037109375,87.12604249295089L145.11387695312501,87.96904904247748L145.59412760416666,88.69614931507314L145.73931966145832,89.28412719736107L145.92918619791666,89.84857315021803L145.97386067708334,90.1723921263625L146.119052734375,90.32001052490793L146.16372721354165,90.41185429239061L146.2195703125,90.47085480360816L146.30891927083331,90.4911461867578L146.53229166666665,90.25524529966964L146.83384440104166,90.1153874304028L147.124228515625,89.78054269127426L147.18007161458334,89.61004393588436L147.62681640625,89.26875218794001L147.80551432291668,88.90244577489716L147.88369466145835,88.55089605476218L148.0958984375,87.96763235721627L148.96705078124998,85.62833709377944L149.11224283854165,83.7783599802855L149.2574348958333,82.08525688882385L149.268603515625,80.8515488147304L149.3467838541667,80.6757311986564L149.63716796875002,81.00851057569893L149.670673828125,81.3599672667034L149.68184244791667,81.72541893487265L149.838203125,82.70528410903651L150.08391276041667,83.43863833028544L150.49715169270831,83.87330126962536L151.05558268229169,84.67537166255543L151.17843749999997,84.99475827259805L151.24544921875,85.16632096710359L151.49115885416668,85.30035699966943L151.64751953125,85.36046184483202L151.66985677083332,85.37677952324785L151.77037434895834,85.4027461611064L151.80388020833334,85.4259813979892L151.949072265625,85.41631635728844L151.96024088541665,85.44196589629246L152.016083984375,85.52114557345944L152.18361328125,85.58916516910648L152.25062499999999,85.65196121392759L152.70853841145833,85.66958892167168L152.85373046875,85.632284024787L153.03242838541667,85.4703503269689L153.14411458333333,85.19279132875681L153.52384765624998,84.67348840522925L153.9929296875,83.82571564153258L154.14929036458332,84.3119241616547L154.20513346354167,85.11800206309081L154.58486653645835,86.33797311829751L154.964599609375,87.27721821822702L155.4671875,88.151423751924L155.48952473958332,88.659656222606L155.52303059895834,89.01134812367653L155.75757161458333,89.30206195282734L155.81341471354168,89.425925554543L155.82458333333335,89.49830787410474L155.8692578125,89.53939449307244L156.36067708333334,89.70429745819162L156.45002604166666,89.69852392382651L156.58404947916665,89.62479943877325L156.706904296875,89.4931485139748L157.03079427083333,89.19064910614685L157.49987630208335,88.40597013384995L157.52221354166667,87.92295208353039L157.56688802083332,87.58151024455685L157.58922526041667,87.26222469635468L158.13648763020834,85.49758524942271L158.449208984375,83.98612388323285L158.66141276041665,84.36859094953157L158.95179687499999,85.91607891039685L158.97413411458334,86.83981698569629L159.21984375,87.8042765332994L159.96814127604168,89.35249914373813L160.18034505208334,90.14733335064955L160.29203124999998,90.54393882367731L160.392548828125,90.70091576707317L160.43722330729165,90.71465388700558L160.50423502604167,90.72017708742507L160.85046223958332,90.29144294164216L161.02916015625001,90.00983885086121L161.15201497395833,89.8303018823766L161.71044596354167,89.62990687098657L162.39173177083333,88.26111730484175L162.78263346354166,85.64902791103242L162.79380208333333,83.99943454311075L163.006005859375,82.02976120656761L163.12886067708334,82.36136375450424L163.38573893229167,83.89288872714108L163.74313476562497,85.5215575049186L163.83248372395835,86.53609820874549L163.91066406250002,87.21424809766084L164.05585611979168,87.70425767004606L164.11169921874998,88.293060154012L164.58078125,89.23405481950243L165.29557291666669,91.93858410652142L165.36258463541668,93.65957019820227L165.921015625,95.16338969367962L165.93218424479167,96.07420432631092L166.78099934895835,97.50124340556619L166.85917968750002,98.33443106279856L166.93736002604166,98.73976311482097L166.993203125,98.9497884773793L167.00437174479168,99.08975058229144L167.428779296875,99.79645217542138L167.57397135416667,100.36259180551087L167.59630859375,101.06399217749582L167.60747721354167,101.6430819013612L167.629814453125,102.31619966113118L167.70799479166666,103.23959062772224L167.79734375,104.02368341213396L168.14357096354166,104.68175418962826L168.24408854166668,105.19638205915923L168.45629231770835,105.66255059127874L168.769013671875,106.12402727779471L169.24926432291664,107.05971251379735L169.33861328125002,107.76838056982643L169.65133463541667,108.51213019363439L169.673671875,109.00055283285594L169.71834635416667,109.44995574825548L169.81886393229166,109.83315672883467L170.53365559895835,110.35577951295579L170.56716145833332,110.66059178845L170.846376953125,110.91688162125263L171.27078450520833,111.2491656930467L171.4606510416667,111.65823316136463L171.59467447916666,111.90790088558036L172.052587890625,111.96422800339772L172.14193684895835,112.0661344492395L172.17544270833332,112.75715754032038L172.30946614583334,113.3067417339662L172.320634765625,113.78347983973734L172.33180338541666,114.22768262520434L172.36530924479166,114.84860836601139L172.454658203125,115.67822460588228L173.06893229166667,116.72131634215329L173.2364615885417,117.3620626339548L173.47100260416667,118.04680211041114L173.8283984375,118.9177152967964L174.062939453125,119.42476823203526L174.27514322916667,119.69857795411274L174.599033203125,119.97108803760923L174.6325390625,120.11533331642504L174.68838216145832,120.24118798104396L175.21330729166667,120.34938617276079L175.25798177083334,120.4505598617076L175.35849934895833,120.55083310619972L175.805244140625,120.28909486686842L176.274326171875,119.89746340124377L176.408349609375,119.32912262530357L176.41951822916667,118.91372026651236L176.65405924479165,118.18351702479724L177.00028645833333,116.63044927862195L177.26833333333335,117.49664402206207L177.52521158854165,118.32722214691644L177.5810546875,118.90305105681418L178.29584635416668,119.62789003733076L178.820771484375,120.1712699686833L178.99946940104167,120.70920345723253L179.1893359375,120.94973684778037L179.31219075520832,120.95624858346713L179.77010416666667,120.787977199982L179.84828450520834,120.42820004574273L180.831123046875,118.78660560357385L181.32254231770835,116.09215986769904L181.3337109375,114.46381399329123L181.6017578125,113.38710581250072L181.78045572916668,111.99785290756031L181.88097330729167,111.57522790707338L182.07083984375,112.4520202768924L182.09317708333333,113.05599814649013L182.11551432291668,113.50136429156025L182.1378515625,113.89135329506288L182.16018880208333,114.24093913847511L182.20486328125,114.5623597806576L182.24953776041664,114.90995575894851L182.93082356770833,116.35462636397004L184.17054036458333,119.64751142342801L184.181708984375,121.38495493672515L184.22638346354165,122.2960197374913L184.66195963541665,123.25909253273704L185.56661783854165,123.66848585992038L185.6224609375,123.71147071036319L185.73414713541666,123.3420581238612L186.16972330729166,121.82237538699432L186.24790364583333,121.27638228191175L186.28140950520833,121.5764463923103L186.37075846354165,122.08395105592763L186.38192708333335,122.52587576989953L186.43777018229164,123.01319946994111L187.52112630208333,125.07538248264026L187.64398111979168,126.32249139364762L187.74449869791667,126.86249735207355L187.8450162760417,127.02616086869463L188.66032552083334,126.4645357505622L188.68266276041666,126.06232713031419L189.36394856770832,125.1179916240583L189.5538151041667,124.30994883289453L189.62082682291668,123.74086876294653L190.12341471354165,122.56639091020338L190.34678710937501,121.41386730144741L190.35795572916666,120.60568363114727L190.748857421875,118.96587541682793L190.90521809895833,117.50707747865546L190.92755533854165,116.05408129232698L191.07274739583332,115.92771910094775L191.08391601562502,116.04032038122114L191.24027669270833,117.31556750660536L191.37430013020835,118.75156772023286L191.485986328125,119.76244476209001L191.50832356770832,120.4327784977387L191.53066080729167,120.90331538778965L192.64752278645832,122.28306809993053L192.93790690104169,123.5102658746036L193.261796875,124.42033747222372L194.44567057291667,125.70130575880556L194.79189778645832,126.29526583721551L194.82540364583332,126.50219019835932L194.84774088541667,126.55690997597645L195.03760742187498,126.42425812592096L195.46201497395833,126.82266035350344L195.58486979166668,127.83865290688134L195.85291666666666,128.79251939741235L196.38901041666668,129.73811196840006L196.70173177083333,130.35818910242736L196.81341796875,130.8546799378488L196.83575520833332,131.26662544170028L196.980947265625,131.66324160696894L197.19315104166668,132.23553621715897L197.22665690104165,132.61773889715317L197.34951171875,133.05568741112992L197.37184895833332,133.34334613849924L197.383017578125,133.58166313550714L197.77391927083335,134.12379183344325L197.81859375,134.53429111782748L197.85209960937502,134.90547958737983L197.87443684895834,135.15831092083937L198.187158203125,135.34210298914286L198.4887109375,135.57925784577353L198.55572265625,135.74825345371164L198.56689127604164,135.87423125250638L198.589228515625,136.00073131201057L199.06947916666667,136.34658247726014L199.23700846354168,136.54368726246648L199.27051432291665,136.5760734160846L199.694921875,136.3102783238576L199.75076497395835,136.75106808452279L199.795439453125,137.3029252651259L199.85128255208335,137.9114316157982L199.88478841145832,138.45925445441472L199.90712565104167,138.9567684234558L200.197509765625,140.03205460374068L200.64425455729167,140.9566282245829L200.7782779947917,141.6828775506969L201.19151692708334,142.31993321890627L201.32554036458333,142.82991209516823L201.403720703125,142.99454908596599L201.6605989583333,142.95135596689667L201.79462239583333,142.66766185529872L202.207861328125,142.17948521823865L202.45357096354167,141.79254219724572L202.71044921875,141.34314773052964L203.28004882812502,140.53665496627642L203.39173502604166,139.74687178563664L203.45874674479165,139.20585521609792L203.78263671874998,137.964351008891L203.7938053385417,137.15445293616565L203.816142578125,136.9468468744265L203.883154296875,137.1937753060475L203.96133463541668,137.79350781861177L204.01717773437503,138.7077452137623L204.10652669270834,139.34781670456837L204.1623697916667,139.73797494339496L204.22938151041666,140.1094022208152L204.97767903645834,140.7677800874778L205.50260416666669,141.7210973648042L205.67013346354167,142.45186630884555L206.11687825520832,142.8820507819525L206.13921549479164,143.10309235383306L206.31791341145833,143.2690062914589L206.34025065104166,143.39457206845682L206.60829752604167,143.48321123837232L206.61946614583334,143.5199088488361L206.90985026041668,143.4335150555878L207.02153645833332,143.28040965789714L208.49579427083336,142.81452827434626L208.52930013020833,142.90782771106208L208.55163736979165,143.12981919794558L208.76384114583334,143.50504943411778L209.23292317708334,143.97611100750177L209.26642903645833,144.2725861502015L209.48980143229167,144.49792868083293L209.64616210937498,144.63726712374415L209.99238932291667,145.09380162634787L210.0147265625,145.37914748984306L210.05940104166666,145.58148320899656L210.56198893229168,145.47460480210557L210.718349609375,144.96099473047153L210.77419270833335,144.60866291410923L211.321455078125,143.96134531847036L211.53365885416667,143.45019366011215L211.75703125,142.97138218313094L211.94689778645835,142.4446626911875L212.4271484375,141.43493689824734L212.68402669270836,140.25422176436996L212.95207356770834,138.81531814495946L213.28713216145835,137.57236626324382L213.29830078125,137.08254724435747L213.32063802083331,136.97969202237243L213.39881835937499,137.60751156436365L213.71153971354167,138.85942601196018L214.23646484375,139.87771645405948L214.41516276041668,140.52131655480477L214.44866861979168,140.90779495190463L214.45983723958335,141.16203954603455L214.672041015625,141.5365615173643L214.78372721354165,141.72496396202547L215.21930338541665,141.62733124645504L215.29748372395832,141.5310022338758L215.63254231770836,141.4461106772152L215.68838541666665,141.40606553461848L216.05694986979165,141.35193506954099L216.21331054687502,141.20977298070216L216.3585026041667,141.05803407063073L216.883427734375,140.7044839415353L217.14030598958334,140.17864337636678L217.17381184895834,139.64796718692065L217.352509765625,139.0304978483595L217.49770182291667,138.30872028453075L217.55354492187502,137.75123899991118L217.58705078124999,137.79357398076522L217.74341145833333,138.25503768163102L217.821591796875,138.8638868061623L217.87743489583332,139.3193012478047L218.16781901041665,140.0927041147141L218.826767578125,140.86731027053102L218.98312825520833,141.33291859466942L219.18416341145834,141.77579551016532L219.34052408854166,142.3601485785369L219.70908854166666,142.926979720236L219.74259440104169,143.2147418095426L219.77610026041665,143.33203415352182L219.92129231770832,143.3684437996781L220.08882161458334,143.33236938004308L220.72543294270832,143.301082098765L221.08282877604168,143.18340643598466L221.09399739583333,143.11479069540778L221.20568359375002,143.03850371872826L221.239189453125,142.95351265242158L221.59658528645835,142.6602004579718L221.60775390625,142.4531840663359L221.641259765625,142.7023932653947L221.842294921875,143.3758861632233L221.9428125,144.13444379183053L222.3448828125,145.0375862192969L222.713447265625,145.75435810524147L222.93681966145834,146.51157550427732L223.26070963541665,147.34239319779695L223.32772135416667,147.86458173037988L223.39473307291667,148.22308081078478L223.41707031250002,148.42866430138594L223.819140625,148.61182985521953L223.8414778645833,148.70033690806164L223.91965820312498,148.72678523614076L224.120693359375,148.72331305669599L224.13186197916664,148.71273868088474L224.46692057291668,148.73403871492928L224.857822265625,148.59336502873617L225.38274739583332,148.08575007111446L225.74014322916665,147.3233849912662L225.88533528645831,146.6509189474493L225.89650390625,146.1543819702002L225.97468424479166,145.89762377066856L226.01935872395833,145.9150012936107L226.20922526041667,146.44625981152703L226.27623697916667,146.95122763035857L226.4214290364583,147.96405628613098L226.44376627604169,148.62147616500343L226.6336328125,149.22037010006477L227.15855794270834,149.89985836497286L227.63880859374999,150.95368107787615L227.78400065104165,151.56038955157342L227.82867513020835,151.86938106249147L227.92919270833335,151.9875504495625L228.19723958333336,152.1109892002951L228.30892578125,152.20021976652887L228.34243164062502,152.230922087204L228.87852539062501,152.3730546664409L228.90086263020834,152.47518998886716L229.11306640625,152.5141367947474L230.017724609375,152.2531055764162L230.24109700520833,151.76690902336125L230.3862890625,151.22386831461978L230.419794921875,150.60216778473855L230.49797526041667,150.76531339611398L230.67667317708333,151.2543010371341L230.90004557291667,152.33377461850296L231.34679036458334,153.48544301096072L231.52548828125,154.28425092991418L232.30729166666669,155.2013432553432L232.34079752604165,155.7336704612762L232.57533854166667,156.04339756228538L233.05558919270834,155.91209851440564L234.63036458333332,153.32087520393708L234.641533203125,151.85259995633012L234.85373697916665,150.8662985276232L235.01009765625,149.90791650512602L235.03243489583335,149.15037267423202L235.63554036458333,150.66513186417507L236.08228515625,151.6088907413447L236.52902994791665,152.15946588725362L236.54019856770833,152.4366749758297L236.59604166666668,152.57630380279562L236.67422200520832,152.60895896354117L236.75240234375,152.56773185736037L236.85291992187499,152.49460879158664L236.99811197916665,152.43263218605458L237.27732747395834,152.3782160434986L237.43368815104165,151.9500229183154L237.52303710937503,151.63082805984754L237.71290364583334,151.44259029476044L238.025625,151.2028573607969L238.40535807291667,150.69918817487678L238.91911458333334,149.65655614108974L239.198330078125,148.62212217595152L239.3546907552083,147.82783156002694L239.37702799479166,147.17623866457004L239.38819661458334,146.69255465717546L239.70091796875,147.26511651809457L239.75676106770834,147.82002719544565L239.8126041666667,148.16670576534227L239.86844726562498,148.39778309832008L240.10298828125002,148.64217596091612L240.85128580729167,148.98892748033217L240.90712890625002,149.17030739506L240.91829752604167,149.25826286588446L241.10816406249998,149.2960007536482L241.208681640625,149.45940221281765L241.30919921875,149.62022697682752L241.86763020833334,149.8901109953046L241.96814778645833,149.97514111248964L242.02399088541668,149.99672590918917L243.34188802083335,150.3582355610031L243.64344075520833,150.53548158834843L243.72162109375,150.54088670953453L244.13486002604168,150.635370557004L244.3247265625,151.2757734100775L244.46991861979166,152.0178354867559L244.693291015625,152.6405319887392L245.17354166666667,153.04212223172965L245.64262369791666,153.51362158254975L245.698466796875,153.8305379966772" style="fill: none;" fill="none"></path></g></g></g></g><g opacity="0.2"><g><g><g><path stroke="rgb(0, 119, 187)" stroke-width="2px" d="M26.480797526041666,219.67969250679L26.79351888020833,48.64303524153573L26.849361979166666,19.56822926657544L26.983385416666668,-10.846881662096234L27.083902994791668,-43.05429063524512L27.251432291666667,56.395794357572285L27.43013020833333,107.49347008977612L28.033235677083333,143.09060117176594L28.22310221354167,155.4935086114065L28.357125651041667,157.83531209400712L28.5469921875,156.16192787034163L28.647509765625,150.67862922804687L29.194772135416667,130.53155340467174L29.272952473958334,122.63049112047462L29.451650390625,120.56705750737866L29.965406901041668,82.676200900759L30.21111653645833,71.03877292360578L30.35630859375,66.34778094291686L30.75837890625,5.333687271390684L31.10460611979167,-41.47630875451217L31.160449218750003,-52.71298660550789L31.551350911458332,1.5079478195735865L31.57368815104167,3.9826815809522693L31.685374348958334,11.846517358507466L32.165625,24.1537210260119L32.24380533854167,25.21143610136851L32.8357421875,31.576565878731873L32.88041666666666,31.008522544588377L32.91392252604167,30.767529896327453L33.025608723958335,28.468077216829588L33.036777343749996,27.544648851667155L33.248981119791665,24.858311789376422L33.68455729166667,4.82216191291813L33.69572591145833,3.116374049867939L33.72923177083333,1.9655173506055896L34.15363932291667,-4.097881793975791L37.70526041666667,-4.349876608167319L38.062656249999996,0.33749822207863234L39.05666341145833,-5.601862805230226L42.12803385416667,-2.997363771711021L42.83165690104167,6.574520587921182L43.501774088541666,7.563208375658344L44.194228515625,4.992770842143512L44.350589192708334,3.6030314990452865L44.652141927083335,1.8603185585567408L45.366933593750005,-8.69090928350171L45.389270833333335,-5.679782254355227L46.137568359375,21.997748647417357L46.99755208333333,34.302691595894956L47.03105794270833,34.42266041891917L47.12040690104167,34.66907879284452L47.24326171875,33.60850014005389L47.745849609375,29.755481345312948L47.8463671875,29.199043035507223L47.913378906249996,29.0526991571699L48.214931640625004,26.954149041857054L48.60583333333334,24.23661405699595L49.17543294270833,18.67871168681557L49.43231119791667,14.23745380129136L49.566334635416666,13.017569814409566L49.86788736979167,14.822226456233459L50.01307942708333,17.208490746361896L50.47099283854167,41.361259256090456L50.761376953124994,43.42846073423114L50.87306315104166,45.52022869246348L51.565517578125,51.480086905615664L52.034599609375,52.37382449422563L52.05693684895834,51.91022637912205L52.1351171875,51.01618736130851L52.838740234374995,51.06833461352757L53.151461588541665,48.1089026927948L53.307822265625,47.389843327658525L53.642880859375,45.97885322570801L53.877421875,39.49345319611686L54.190143229166665,31.946720940726156L54.20131184895833,29.909210239137938L54.63688802083333,46.98231104442051L54.65922526041667,48.75953762871879L54.87142903645833,52.088069609233315L54.88259765625,52.91926063810075L55.251162109375,58.87067883355275L55.76491861979167,62.44668419020516L55.921279296875,62.99995749337331L56.122314453125,65.92261505126952L56.1558203125,66.30965014866419L56.178157552083334,66.56345353807721L56.21166341145833,66.63278225490023L56.23400065104166,65.76300828797476L56.46854166666667,65.6088272503444L56.792431640625004,63.77432911736623L56.825937499999995,62.89490941592625L57.55189778645833,57.44913870947701L57.80877604166667,50.541134936468936L57.87578776041667,48.31116168839591L58.199677734375,42.340150594711304L58.45655598958333,34.66727021762305L58.72460286458333,30.747936998094847L59.02615559895833,36.58089351654055L59.18251627604167,43.70185702187675L59.19368489583333,44.445332152502885L59.39472005208333,46.2177358695439L59.472900390625,47.30257957322257L59.539912109374995,48.4676034450531L59.807958984375,49.44016477039882L60.08717447916666,50.481150524956846L60.22119791666666,52.89695487703595L60.355221354166666,56.12948165621076L60.57859375,56.68561853681291L60.63443684895834,55.544106142861494L60.868977864583336,53.88142265592302L61.03650716145834,52.437878199986045L61.05884440104167,51.62658149855477L61.081181640625,50.197505644389565L61.12585611979167,49.917176485061646L61.27104817708333,48.9812388079507L61.282216796875,48.96842806679862L61.5167578125,48.029476097651894L61.717792968750004,47.68253108433315L62.04168294270833,46.74237339837211L62.10869466145833,46.51690435409546L62.5889453125,42.802241563797L62.63361979166667,40.30007774489268L63.00218424479167,36.994605098451906L63.03569010416667,35.1843720163618L63.06919596354167,39.05351727349418L63.13620768229167,42.332162720816484L63.21438802083333,47.93558090073722L63.281399739583335,52.07058671542576L63.38191731770833,54.98555782863072L63.40425455729167,55.87145825794765L63.59412109375,56.75494725363595L63.67230143229167,57.94257831573486L64.163720703125,63.66656817708696L64.7333203125,68.0401552064078L64.75565755208333,69.60517563138689L64.77799479166667,70.54473045894076L64.88968098958334,72.77229227338518L65.06837890625,74.2301546164921L65.42577473958333,76.2265202317919L65.44811197916667,77.02771905490329L65.48161783854167,77.52266580717902L65.503955078125,78.17104002407618L65.58213541666667,78.74918123653956L66.28575846354167,84.68959726606093L66.43095052083333,85.25975060462947L66.63198567708334,86.62974633489333L66.67666015625,86.90902049200874L66.710166015625,87.4535523482731L66.73250325520833,88.04947788374763L66.81068359375,88.15045666694637L67.03405598958334,87.09846874645774L67.21275390624999,85.35756438119067L67.22392252604168,84.74430666651041L67.279765625,88.10041941915236L67.32444010416665,90.9275239195142L67.50313802083333,94.63992599078583L67.51430664062501,95.46192342894413L67.52547526041667,96.34993386268611L67.53664388020833,97.3313873495374L67.58131835937499,99.33604226793557L67.82702799479166,101.32381715093335L68.29611002604167,102.49758246966766L68.37429036458333,103.59267476626799L68.38545898437499,104.30374625750945L68.43013346354167,104.93297971997937L69.01090169270833,107.01660908971509L69.0220703125,107.43619854109623L69.122587890625,109.03799332891187L69.27894856770834,110.7389583247048L69.61400716145833,111.62184446198594L69.6921875,112.05153179168695L69.77036783854166,112.01536028725755L69.926728515625,112.2644915240151L70.395810546875,113.44338113921025L70.46282226562501,113.25378217015943L71.736044921875,109.55705441747388L71.93708007812499,111.97873663902277L71.95941731770834,113.16998485156462L72.004091796875,116.71810800688603L72.02642903645832,118.09865375927511L72.17162109374999,119.56118825503752L72.22746419270834,120.6864234719957L72.39499348958334,121.5685560362679L73.02043619791667,123.12709573337004L73.38900065104167,122.42084710938583L73.44484375,121.78166648319784L73.63471028645833,118.94808125495905L73.72405924479168,118.70889718191958L73.73522786458334,118.4142501354217L73.75756510416667,118.0763479982103L73.86925130208334,115.47923398017878L73.89158854166666,114.66899228096003L74.20430989583333,113.07382893562311L74.26015299479167,112.31452877180912L74.42768229166667,111.43314978054586L74.47235677083333,110.63255381584163L75.05312500000001,101.65900642531254L75.24299153645833,100.30347929682046L75.421689453125,95.2488129820142L75.81259114583334,81.4001003674098L75.857265625,78.3716411590576L76.12531249999999,88.17381743022369L76.14764973958334,89.93265683310368L76.16998697916667,90.67537839072087L76.19232421875,91.17243514742167L76.38219075520833,93.10278776713776L76.51621419270833,93.74618840217586L76.98529622395833,96.47065625871927L77.51022135416667,98.00056018148145L77.57723307291667,98.43642680985583L77.78943684895833,99.52096908433093L77.80060546875,99.70182660647797L77.86761718749999,99.68705657550262L77.901123046875,99.75517957551135L78.06865234375,98.82436619486123L78.12449544270832,98.48209333419796L78.52656575520832,96.9015493052346L78.537734375,96.28678444453644L79.12967122395834,90.89677814074923L79.47589843749999,87.45671735491068L79.509404296875,85.73525517327441L79.58758463541666,83.47709829466682L79.7439453125,82.42586394718711L80.33588216145834,72.9629462446485L80.39172526041666,71.18571966035024L80.42523111979166,69.46335319110324L80.70444661458333,63.639288834163104L81.03950520833334,62.594535214560366L81.09534830729166,64.73558684757776L81.15119140625,68.26698068210055L81.16236002604167,69.05084732600619L81.26287760416666,71.43756375993998L81.318720703125,73.51501383100236L81.921826171875,78.61218166351317L82.54726888020834,84.68582940101619L82.58077473958333,84.87723694528849L82.94933919270834,86.75257873535152L82.97167643229166,86.93072339466636L82.994013671875,86.77473378181453L83.02751953125001,86.38965797424312L83.38491536458334,86.7375072751726L83.75347981770834,86.54444187028064L83.86516601562501,86.21106117112292L84.535283203125,83.61635858672004L84.63580078125,82.99812729018073L84.78099283854168,82.32789945602416L85.21656901041668,73.6806491783687L85.42877278645832,67.11190397398812L85.51812174479167,71.29739918027605L85.55162760416667,72.27342694146292L85.57396484374999,73.27191117831637L85.73032552083335,80.83160488946093L86.05421549479166,82.12895618166239L86.26641927083334,83.12804327692301L86.65732096354166,84.81107323510302L86.679658203125,84.82147254262648L87.07055989583333,83.84514335223605L87.10406575520834,83.39104025704516L88.27677083333333,74.78900435992648L88.44430013020833,74.1953395434788L88.47780598958333,73.5884118420737L88.56715494791668,71.68624285289218L88.622998046875,71.02098860059465L88.76819010416666,70.30268280846731L89.80687174479166,56.32284849030629L89.85154622395834,59.33864767210824L89.87388346354166,61.17751652853829L89.97440104166667,67.06126386778695L89.98556966145833,67.80926043646676L90.13076171875,70.61496346337454L90.16426757812499,72.3810371671404L90.25361653645834,73.62774835314066L90.968408203125,76.67112830707003L91.12476888020832,77.87940726961405L91.20294921874999,79.39152686936511L91.25879231770833,81.86505491392951L91.99592122395833,84.22675272396629L92.56552083333334,83.52683411325724L93.09044596354167,83.43022605351035L93.10161458333333,83.19330269949775L93.179794921875,82.5283498764038L93.48134765625,81.11359190940856L93.87224934895833,78.90456799098422L93.983935546875,76.82485720089502L94.39717447916667,71.79536022458757L94.41951171875,69.56086553846086L94.4865234375,69.46998463358197L94.49769205729166,70.47057887486048L94.73223307291667,73.12436158316474L94.81041341145834,74.28305544172011L94.84391927083334,75.58251673834663L95.16780924479166,77.93999453953333L95.75974609375001,79.47065203530444L96.10597330729166,80.59920297350199L96.21765950520833,80.83552346910746L96.22882812499999,80.77870406423293L96.23999674479167,80.79965339388163L96.25116536458333,80.91238791601997L96.67557291666667,81.72067032541544L96.764921875,81.27651439394266L97.30101562499999,79.76168193135939L97.47971354166667,79.71902969905307L97.58023111979166,79.29717952864509L97.64724283854167,78.97012884276252L97.71425455729167,78.25966020992823L98.32852864583333,76.21958736010959L98.48488932291667,75.74287707465034L98.63008138020834,74.16956734657286L98.909296875,71.92587906973701L98.93163411458333,70.96522419793264L98.95397135416665,68.67767797197614L98.98747721354167,69.73720162255422L99.14383789062501,74.79548508780341L99.36721028645833,83.2302277769361L100.42822916666667,89.98796909196032L100.53991536458334,92.47159501484458L100.685107421875,96.7772097587585L100.76328776041667,98.4145731925964L101.10951497395833,100.6433407238551L101.12068359374999,100.94748279026571L101.25470703124999,102.2820605891091L101.26587565104167,102.65025636128011L101.56742838541668,103.83909314019336L101.65677734375,104.39492859159192L101.958330078125,105.7911486625671L103.164541015625,105.52543881961272L103.29856445312501,104.78226511819018L103.30973307291667,103.90540756498059L103.41025065104166,104.8461681093488L103.54427408854166,107.06845491273057L103.58894856770834,109.44341560772482L103.6001171875,110.05441260337825L103.61128580729167,110.76397694860181L103.74530924479167,112.82469769886556L104.01335611979167,113.1103018692561L104.270234375,114.32611656188959L104.49360677083332,115.66310579436161L104.71697916666666,116.16001183646061L105.19722981770833,115.20809841156L105.20839843750001,114.89415989603309L105.576962890625,111.25666298185071L105.73332356770834,110.68650964328215L106.67148763020835,104.05160072871611L107.28576171875,96.43870476313995L107.34160481770834,95.3785782541547L107.53147135416667,91.9799639838082L107.67666341145834,89.54954031535556L107.68783203125,88.27404264041351L107.97821614583333,92.41176131793429L108.00055338541667,92.98960110119407L108.01172200520833,93.61099740437095L108.06756510416668,95.31151025635852L108.123408203125,96.15310059274942L108.27976888020832,97.38127388272962L108.860537109375,101.60414631026127L109.40779947916667,103.87797750745496L109.41896809895833,104.212563923427L109.47481119791667,104.5611667973654L109.72052083333332,105.52152023996621L110.52466145833333,107.38510629108968L111.03841796875,107.8678451606205L111.08309244791667,107.95239605222424L111.28412760416667,107.9432024615151L111.35113932291667,107.9433531761169L111.742041015625,107.87116088185986L112.18878580729167,107.28126393045693L112.19995442708333,106.80214221136906L112.52384440104167,110.76789552824833L112.57968749999999,112.06991897310523L112.64669921875,112.63615373202727L112.83656575520833,114.53169127873007L113.886416015625,117.36286507334022L114.14329427083334,117.02978580338608L114.154462890625,116.79647959981641L114.29965494791666,114.5729870796203L114.79107421875001,111.49087347303113L114.86925455729167,110.92539228711804L115.65105794270833,107.9041673796517L115.695732421875,107.47734362738468L115.96377929687499,106.25399320466173L116.33234374999999,103.9013382707323L116.51104166666666,102.42539017541064L116.62272786458333,100.92999989645817L116.92428059895833,98.39287028993876L116.99129231770833,95.22665793555119L117.04713541666666,98.15835836955475L117.32635091145833,101.86940400941027L118.0746484375,104.94910618237081L118.27568359374999,105.69785632405957L118.38736979166666,106.14382083075382L118.845283203125,106.64404259409218L118.86762044270833,106.63801401002061L119.10216145833334,105.79175152097424L119.280859375,105.49333660943162L119.6829296875,102.48703244754242L119.76111002604166,101.01379721505297L119.77227864583334,100.48976254463192L119.79461588541668,99.95728785651066L119.83929036458333,99.42074387414111L119.89513346354165,98.4551154204777L120.39772135416666,96.64729377201621L120.79979166666666,91.08411639077319L120.90030924479167,90.24659534863059L121.458740234375,82.30589512416293L121.55925781250001,80.96965946469984L121.63743815104166,79.66462172780714L122.02833984374999,75.32328762326918L122.20703776041667,77.83509717668802L122.25171223958334,78.76123840468269L122.262880859375,79.1071284157889L122.30755533854166,79.55520292690821L122.39690429687501,81.13363695144652L122.56443359375,81.49595485414774L122.68728841145833,82.29007009097506L122.95533528645834,82.5334741728646L123.08935872395833,82.72774529457091L123.45792317708333,83.36933735438754L123.51376627604166,83.87860199383323L123.89349934895833,84.16857688767566L124.31790690104167,84.954101392201L125.09971028645833,84.10241317749019L125.345419921875,82.0309916904994L125.60229817708334,81.6067300864628L126.10488606770832,76.46253929819376L126.45111328125,70.68775861603872L126.69682291666668,75.60165749277384L126.70799153645834,76.04385413442336L126.74149739583333,77.15416860580443L127.00954427083333,80.62392016819541L127.21057942708335,81.4353675842285L127.824853515625,82.76180679457526L128.28276692708334,86.98829637254984L128.29393554687502,87.43968660490852L128.33861002604166,88.45279015813551L128.69600585937502,90.1067321981702L129.031064453125,90.86753950800211L130.103251953125,93.87098009245732L130.14792643229165,94.23570942878719L130.15909505208333,94.30006456375118L130.52765950520833,94.15055567877629L130.538828125,94.0260654176984L130.59467122395833,93.96834172521314L130.73986328125,93.83089000838139L130.91856119791666,93.59924166543139L131.34296875,98.60281573023111L131.66685872395834,102.25674053600851L132.06892903645834,103.79900305611743L132.57151692708334,104.90539894785195L132.59385416666666,104.97548123768392L132.72787760416665,105.02657348769047L133.051767578125,104.75875364031106L133.185791015625,104.70826424871167L133.50968098958333,103.8148280893053L133.56552408854168,103.15620527948647L133.91175130208333,102.67753570420398L134.1574609375,102.07121086120601L134.58186848958334,99.8323454516274L134.98393880208334,98.17795126778735L135.1067936197917,97.09054541587825L135.17380533854168,95.477748462132L135.22964843749997,93.48786357470917L135.52003255208334,91.06768849917819L135.56470703125,89.23484822681968L135.72106770833332,91.82020650591166L135.7657421875,92.81205930028638L136.04495768229168,96.77464761052808L136.10080078125,97.06839036941524L136.435859375,97.4052375044141L137.26233723958333,99.80581968171252L137.36285481770832,99.51358406884326L137.88777994791667,98.99482440948482L137.9101171875,98.87093700681409L137.99946614583334,98.34946448462345L138.05530924479166,98.0765203407832L138.23400716145832,97.42799540928426L138.479716796875,97.16484771456034L138.63607747395835,96.89205428532188L139.35086914062498,94.80103990009849L139.384375,93.96125813892905L139.484892578125,92.41281632014682L139.67475911458334,90.61479112080161L139.83111979166665,88.85369099889479L139.86462565104165,87.31790920666282L139.94280598958335,89.1732059546879L140.00981770833332,90.74289853232243L140.0768294270833,91.27386607442578L141.07083658854168,97.06115606852936L141.32771484375,98.66958229882373L141.43940104166666,99.25224494934078L141.45056966145833,99.28464858872546L141.48407552083336,99.24033849579943L141.52875,99.12594611304142L141.58459309895832,98.95880361965719L141.64043619791667,98.54343417712616L141.796796875,98.23401709965292L142.08718098958335,97.63537870134623L142.098349609375,97.33937522343221L142.31055338541668,96.07337256840293L142.835478515625,95.16320708819794L142.98067057291667,94.777076278414L143.75130533854167,92.10535853249682L143.79597981770834,91.25864389964511L143.8294856770833,90.77349359648564L144.03052083333333,88.98044197899951L144.23155598958334,87.62295556068416L144.43259114583336,83.73376526151381L144.510771484375,83.92065136773242L144.57778320312502,84.97836644308906L144.75648111979166,85.86321187019344L144.77881835937498,86.25522054944716L145.08037109375,88.47178019796095L145.11387695312501,88.86062387057711L145.59412760416666,89.4651401383536L145.73931966145832,89.905980348587L145.92918619791666,90.44553862299234L145.97386067708334,90.5148673398154L146.119052734375,90.47613368715555L146.16372721354165,90.5089894703456L146.2195703125,90.53325452123366L146.30891927083331,90.51260662078853L146.53229166666665,90.00575341497145L146.83384440104166,89.96747190611698L147.124228515625,89.42640648569376L147.18007161458334,89.42972220693312L147.62681640625,88.90779754093711L147.80551432291668,88.51503528867445L147.88369466145835,88.17909244128631L148.0958984375,87.35076498985286L148.96705078124998,83.15426761763435L149.11224283854165,81.82179982321601L149.2574348958333,80.294608763286L149.268603515625,79.54676290920801L149.3467838541667,80.48978417260302L149.63716796875002,81.36046242713927L149.670673828125,81.73167249134605L149.68184244791667,82.11192543166023L149.838203125,83.74160242080687L150.08391276041667,84.21424341201778L150.49715169270831,84.33300651822768L151.05558268229169,85.5236518723624L151.17843749999997,85.33254575729366L151.24544921875,85.34776793207438L151.49115885416668,85.44211527279441L151.64751953125,85.42402952057971L151.66985677083332,85.39403731482368L151.77037434895834,85.43020881925307L151.80388020833334,85.4505552904946L151.949072265625,85.4060944829668L151.96024088541665,85.46909318651468L152.016083984375,85.60488704272677L152.18361328125,85.66110358919413L152.25062499999999,85.71837513787402L152.70853841145833,85.6882322175162L152.85373046875,85.59282987458361L153.03242838541667,85.29908711569648L153.14411458333333,84.89924127714973L153.52384765624998,84.12426679474963L153.9929296875,82.92910000256126L154.14929036458332,84.82614469528194L154.20513346354167,85.97052066666735L154.58486653645835,87.62823057174678L154.964599609375,88.27057620457236L155.4671875,89.07599503653385L155.48952473958332,89.1971695763724L155.52303059895834,89.38330210958205L155.75757161458333,89.60952472686763L155.81341471354168,89.55692533084323L155.82458333333335,89.57486036845614L155.8692578125,89.58284824235095L156.36067708333334,89.87870100566317L156.45002604166666,89.6924177578517L156.58404947916665,89.54682745252333L156.706904296875,89.35391276223315L157.03079427083333,88.87072174889697L157.49987630208335,87.57608331952773L157.52221354166667,87.41210583278107L157.56688802083332,87.22039685930521L157.58922526041667,86.924544095993L158.13648763020834,83.63127933229715L158.449208984375,82.38758243833266L158.66141276041665,84.77309315545214L158.95179687499999,87.5527225562504L158.97413411458334,87.81677453858508L159.21984375,88.8243016515459L159.96814127604168,90.98991976465494L160.18034505208334,90.98796047483167L160.29203124999998,90.96339399474003L160.392548828125,90.86693664959495L160.43722330729165,90.72918350355961L160.50423502604167,90.72601849692204L160.85046223958332,89.83800806318007L161.02916015625001,89.71201065608432L161.15201497395833,89.64042122023442L161.71044596354167,89.41796646799357L162.39173177083333,86.81346743447436L162.78263346354166,82.88644777025492L162.79380208333333,82.25480287415637L163.006005859375,79.94660874775477L163.12886067708334,82.71207097598483L163.38573893229167,85.51264970643176L163.74313476562497,87.24405905178611L163.83248372395835,87.60908981731956L163.91066406250002,87.93146835054667L164.05585611979168,88.22249824660163L164.11169921874998,88.91578541483194L164.58078125,90.22926316942484L165.29557291666669,94.79892989567344L165.36258463541668,95.47970775195526L165.921015625,96.75384899548118L165.93218424479167,97.03749387604846L166.78099934895835,99.01049872807089L166.85917968750002,99.215621301106L166.93736002604166,99.16844763074597L166.993203125,99.17191406658712L167.00437174479168,99.23777634756901L167.428779296875,100.54386908667423L167.57397135416667,100.96134853363033L167.59630859375,101.80580244745522L167.60747721354167,102.25553481919421L167.629814453125,103.02809786796566L167.70799479166666,104.21618107386992L167.79734375,104.85295026642932L168.14357096354166,105.3777385098593L168.24408854166668,105.7406592709677L168.45629231770835,106.15557656969338L168.769013671875,106.61209109851286L169.24926432291664,108.0493055411747L169.33861328125002,108.51787723813733L169.65133463541667,109.29872959000718L169.673671875,109.51711504799974L169.71834635416667,109.9252501896449L169.81886393229166,110.23843513216285L170.53365559895835,110.90851225171765L170.56716145833332,110.98296526500151L170.846376953125,111.18793712343482L171.27078450520833,111.60059370313367L171.4606510416667,112.09086830275395L171.59467447916666,112.17195275851653L172.052587890625,112.02380030495775L172.14193684895835,112.17391204833979L172.17544270833332,113.48799266133985L172.30946614583334,113.88798921448839L172.320634765625,114.28768433843335L172.33180338541666,114.69747734069819L172.36530924479166,115.50530760628831L172.454658203125,116.55563766615727L173.06893229166667,117.82450389862055L173.2364615885417,118.03972434997553L173.47100260416667,118.77099159785674L173.8283984375,119.83880455153323L174.062939453125,119.96103409358427L174.27514322916667,119.98816272190633L174.599033203125,120.25929829052511L174.6325390625,120.26788902282709L174.68838216145832,120.37429353169027L175.21330729166667,120.46381800515304L175.25798177083334,120.55756248746594L175.35849934895833,120.65688341004501L175.805244140625,120.0122770581926L176.274326171875,119.4832688059125L176.408349609375,118.72803793634681L176.41951822916667,118.47438526153559L176.65405924479165,117.41124446051457L177.00028645833333,114.98790437834599L177.26833333333335,118.41274298940381L177.52521158854165,119.2056525094168L177.5810546875,119.51205529485425L178.29584635416668,120.39448928833002L178.820771484375,120.74595573970244L178.99946940104167,121.27812899862012L179.1893359375,121.20412812914161L179.31219075520832,120.96313548088068L179.77010416666667,120.61001116888858L179.84828450520834,120.04769498961306L180.831123046875,117.05043370383122L181.32254231770835,113.24247857502523L181.3337109375,112.74165395327971L181.6017578125,112.24836506162366L181.78045572916668,110.52856074060706L181.88097330729167,111.1282541411263L182.07083984375,113.37932743344983L182.09317708333333,113.69477309499463L182.11551432291668,113.97238939149034L182.1378515625,114.30381080082479L182.16018880208333,114.61066573006761L182.20486328125,114.90229848452971L182.24953776041664,115.27757784298483L182.93082356770833,117.88252902030939L184.17054036458333,123.1301100254058L184.181708984375,123.22249807630261L184.22638346354165,123.25957386834274L184.66195963541665,124.2776510034288L185.56661783854165,124.10146563393722L185.6224609375,123.75693205424712L185.73414713541666,122.95136250768384L186.16972330729166,120.21513891220087L186.24790364583333,120.69893278394422L186.28140950520833,121.893798146929L186.37075846354165,122.62069467135832L186.38192708333335,122.99326116698123L186.43777018229164,123.52859943253647L187.52112630208333,127.2563743931906L187.64398111979168,127.64145020076201L187.74449869791667,127.4336147648947L187.8450162760417,127.19925355911246L188.66032552083334,125.87055362973888L188.68266276041666,125.63694599696562L189.36394856770832,124.11924995694835L189.5538151041667,123.45535213606692L189.62082682291668,123.13900218691138L190.12341471354165,121.3242476667676L190.34678710937501,120.19494315556112L190.35795572916666,119.75093793869013L190.748857421875,117.23159265518183L190.90521809895833,115.96423356873643L190.92755533854165,114.5173733915601L191.07274739583332,115.79407678331641L191.08391601562502,116.15940897805343L191.24027669270833,118.66428565978998L191.37430013020835,120.27030045645571L191.485986328125,120.8315616335187L191.50832356770832,121.14173228400088L191.53066080729167,121.40096139907831L192.64752278645832,123.74231273787356L192.93790690104169,124.8081664017268L193.261796875,125.38284117834903L194.44567057291667,127.05607468741275L194.79189778645832,126.92344583783824L194.82540364583332,126.72103612763534L194.84774088541667,126.61478233337394L195.03760742187498,126.28396378244666L195.46201497395833,127.24401579584388L195.58486979166668,128.9131800106593L195.85291666666666,129.80134115900304L196.38901041666668,130.73818312372472L196.70173177083333,131.01399084499897L196.81341796875,131.37977518354137L196.83575520833332,131.70230443137024L196.980947265625,132.0827080862862L197.19315104166668,132.84080253328588L197.22665690104165,133.0219614846365L197.34951171875,133.5188675267355L197.37184895833332,133.64757779666348L197.383017578125,133.83371032987316L197.77391927083335,134.69715428352347L197.81859375,134.96844056674405L197.85209960937502,135.29805340085704L197.87443684895834,135.4257086685725L198.187158203125,135.53648390088756L198.4887109375,135.83007594517292L198.55572265625,135.92698543412337L198.56689127604164,136.0074670314788L198.589228515625,136.1345194407871L199.06947916666667,136.7123592240469L199.23700846354168,136.75214787891926L199.27051432291665,136.6103254386356L199.694921875,136.02916993413646L199.75076497395835,137.21725314004073L199.795439453125,137.88657668658658L199.85128255208335,138.55499594552168L199.88478841145832,139.03863910266324L199.90712565104167,139.4829457487378L200.197509765625,141.16929142815718L200.64425455729167,141.93446946144095L200.7782779947917,142.45096840177254L201.19151692708334,142.99369168281547L201.32554036458333,143.36927247047416L201.403720703125,143.16867133549275L201.6605989583333,142.90567435537056L201.79462239583333,142.3676232269831L202.207861328125,141.6631831782204L202.45357096354167,141.38330616269783L202.71044921875,140.86786222457877L203.28004882812502,139.683697598321L203.39173502604166,138.91158669335493L203.45874674479165,138.63366896765564L203.78263671874998,136.65131981032226L203.7938053385417,136.29789406912658L203.816142578125,136.72727996962402L203.883154296875,137.4549300670623L203.96133463541668,138.4277928216116L204.01717773437503,139.67465472221366L204.10652669270834,140.02476474217L204.1623697916667,140.15061143466397L204.22938151041666,140.50222860063818L204.97767903645834,141.46408918925687L205.50260416666669,142.72933827127721L205.67013346354167,143.2247371673583L206.11687825520832,143.33701954569128L206.13921549479164,143.33686883108948L206.31791341145833,143.44447905676697L206.34025065104166,143.52737208775105L206.60829752604167,143.5769571917397L206.61946614583334,143.55872072492318L206.90985026041668,143.3421438421521L207.02153645833332,143.11848337309692L208.49579427083336,142.32180598803922L208.52930013020833,143.00650242396756L208.55163736979165,143.36460031781868L208.76384114583334,143.9018978731972L209.23292317708334,144.4743119307926L209.26642903645833,144.58614216532018L209.48980143229167,144.73625390870222L209.64616210937498,144.78463329587655L209.99238932291667,145.5766385282788L210.0147265625,145.68093303271695L210.05940104166666,145.79547613007674L210.56198893229168,145.36156879152563L210.718349609375,144.41779395512162L210.77419270833335,144.23603214536385L211.321455078125,143.27673370497558L211.53365885416667,142.9095929350171L211.75703125,142.46498485973896L211.94689778645835,141.8875972202845L212.4271484375,140.36703760283325L212.68402669270836,139.0054818902696L212.95207356770834,137.29351472854606L213.28713216145835,136.25780398505066L213.29830078125,136.5645081996917L213.32063802083331,136.87091098512914L213.39881835937499,138.2715017795562L213.71153971354167,140.183467217854L214.23646484375,140.95467383520935L214.41516276041668,141.20199649674544L214.44866861979168,141.31653959410522L214.45983723958335,141.43093197686323L214.672041015625,141.93266088621948L214.78372721354165,141.92422086851928L215.21930338541665,141.52407360076896L215.29748372395832,141.42912340164176L215.63254231770836,141.35632824897758L215.68838541666665,141.36371326446525L216.05694986979165,141.29468597684578L216.21331054687502,141.05942048345284L216.3585026041667,140.89755300113126L216.883427734375,140.33056466920027L217.14030598958334,139.6225074699946L217.17381184895834,139.086717060634L217.352509765625,138.377454144614L217.49770182291667,137.54535882813582L217.55354492187502,137.1616394519805L217.58705078124999,137.83834801401403L217.74341145833333,138.7430877685546L217.821591796875,139.50781365803303L217.87743489583332,139.80095355851302L218.16781901041665,140.9106651714869L218.826767578125,141.68654394149772L218.98312825520833,141.82535208974556L219.18416341145834,142.24418796811776L219.34052408854166,142.97816807883117L219.70908854166666,143.5264678001403L219.74259440104169,143.51908278465262L219.77610026041665,143.45608408110473L219.92129231770832,143.40695112092146L220.08882161458334,143.29421659878315L220.72543294270832,143.2679922580718L221.08282877604168,143.0589511053902L221.09399739583333,143.0422217845916L221.20568359375002,142.95782160758964L221.239189453125,142.8636249814714L221.59658528645835,142.3499896185738L221.60775390625,142.2342408043997L221.641259765625,142.96596019608626L221.842294921875,144.08818112100866L221.9428125,144.93670432908186L222.3448828125,145.9927615438188L222.713447265625,146.51242549078796L222.93681966145834,147.31241859708504L223.26070963541665,148.22107693127214L223.32772135416667,148.41685519899633L223.39473307291667,148.60223415919705L223.41707031250002,148.6460921083177L223.819140625,148.80554815701066L223.8414778645833,148.7939431326729L223.91965820312498,148.75475733620772L224.120693359375,148.71964083399084L224.13186197916664,148.70155508177612L224.46692057291668,148.7565659114292L224.857822265625,148.44458668572554L225.38274739583332,147.5488898072923L225.74014322916665,146.51709764344344L225.88533528645831,145.939710003989L225.89650390625,145.62923792430325L225.97468424479166,145.62607291766568L226.01935872395833,145.93337999071386L226.20922526041667,147.00812581607266L226.27623697916667,147.48528824533727L226.4214290364583,149.0352372101374L226.44376627604169,149.31677208627966L226.6336328125,149.85376821245458L227.15855794270834,150.61849410193298L227.63880859374999,152.06821785654333L227.78400065104165,152.20205242293213L227.82867513020835,152.19617455346236L227.92919270833335,152.11252794946935L228.19723958333336,152.2415396486009L228.30892578125,152.2945911884307L228.34243164062502,152.26339326586034L228.87852539062501,152.5233759539467L228.90086263020834,152.58320965085701L229.11306640625,152.555327449526L230.017724609375,151.97703552246085L230.24109700520833,151.25270114626196L230.3862890625,150.64954130990157L230.419794921875,149.94464911733346L230.49797526041667,150.9378583431243L230.67667317708333,151.77146080562036L230.90004557291667,153.4754400934491L231.34679036458334,154.7034626688275L231.52548828125,155.12908070428023L232.30729166666669,156.17127217565255L232.34079752604165,156.29666672434118L232.57533854166667,156.37096902302324L233.05558919270834,155.77323491232727L234.63036458333332,150.5803633076803L234.641533203125,150.29973271914884L234.85373697916665,149.82317314829137L235.01009765625,148.89431905746451L235.03243489583335,148.34918434279297L235.63554036458333,152.26716113090507L236.08228515625,152.6070225579397L236.52902994791665,152.74176141193925L236.54019856770833,152.7298549583979L236.59604166666668,152.72397708892814L236.67422200520832,152.6434954915727L236.75240234375,152.52412952695565L236.85291992187499,152.4172728742871L236.99811197916665,152.3670849118913L237.27732747395834,152.32066481454024L237.43368815104165,151.49716023036402L237.52303710937503,151.29324337414323L237.71290364583334,151.2435075555528L238.025625,150.94931265286027L238.40535807291667,150.16650101116716L238.91911458333334,148.5538547720227L239.198330078125,147.5280911922454L239.3546907552083,146.9877793448311L239.37702799479166,146.48710543768738L239.38819661458334,146.18100408145352L239.70091796875,147.87066548211226L239.75676106770834,148.40690803527824L239.8126041666667,148.53335758617936L239.86844726562498,148.64217352867118L240.10298828125002,148.90064907073966L240.85128580729167,149.35565645354126L240.90712890625002,149.3621371814182L240.91829752604167,149.3512857300894L241.10816406249998,149.33591284070687L241.208681640625,149.63221774782446L241.30919921875,149.79031736510132L241.86763020833334,150.17554388727453L241.96814778645833,150.06507008416304L242.02399088541668,150.0195542744227L243.34188802083335,150.74057292938224L243.64344075520833,150.7229393209729L243.72162109375,150.54660323687952L244.13486002604168,150.73529791831962L244.3247265625,151.95307190077637L244.46991861979166,152.8026501110621L244.693291015625,153.29910400935572L245.17354166666667,153.4668493611471L245.64262369791666,154.01228550502222L245.698466796875,154.16571296964364" style="fill: none;" fill="none"></path></g></g></g></g></g></g><g transform="translate(61, 177)" clip-path="url(#clip_1)"><clipPath id="clip_1"><rect width="268" height="22"></rect></clipPath><g><g><line x1="0" y1="0" x2="0" y2="5" style="visibility: inherit;" fill="rgb(0, 0, 0)" stroke="rgb(200, 195, 188)" stroke-width="1px"></line><line x1="22.337239583333332" y1="0" x2="22.337239583333332" y2="5" style="visibility: inherit;" fill="rgb(0, 0, 0)" stroke="rgb(200, 195, 188)" stroke-width="1px"></line><line x1="44.674479166666664" y1="0" x2="44.674479166666664" y2="5" style="visibility: inherit;" fill="rgb(0, 0, 0)" stroke="rgb(200, 195, 188)" stroke-width="1px"></line><line x1="67.01171875" y1="0" x2="67.01171875" y2="5" style="visibility: inherit;" fill="rgb(0, 0, 0)" stroke="rgb(200, 195, 188)" stroke-width="1px"></line><line x1="89.34895833333333" y1="0" x2="89.34895833333333" y2="5" style="visibility: inherit;" fill="rgb(0, 0, 0)" stroke="rgb(200, 195, 188)" stroke-width="1px"></line><line x1="111.68619791666667" y1="0" x2="111.68619791666667" y2="5" style="visibility: inherit;" fill="rgb(0, 0, 0)" stroke="rgb(200, 195, 188)" stroke-width="1px"></line><line x1="134.0234375" y1="0" x2="134.0234375" y2="5" style="visibility: inherit;" fill="rgb(0, 0, 0)" stroke="rgb(200, 195, 188)" stroke-width="1px"></line><line x1="156.36067708333334" y1="0" x2="156.36067708333334" y2="5" style="visibility: inherit;" fill="rgb(0, 0, 0)" stroke="rgb(200, 195, 188)" stroke-width="1px"></line><line x1="178.69791666666666" y1="0" x2="178.69791666666666" y2="5" style="visibility: inherit;" fill="rgb(0, 0, 0)" stroke="rgb(200, 195, 188)" stroke-width="1px"></line><line x1="201.03515625" y1="0" x2="201.03515625" y2="5" style="visibility: inherit;" fill="rgb(0, 0, 0)" stroke="rgb(200, 195, 188)" stroke-width="1px"></line><line x1="223.37239583333334" y1="0" x2="223.37239583333334" y2="5" style="visibility: inherit;" fill="rgb(0, 0, 0)" stroke="rgb(200, 195, 188)" stroke-width="1px"></line><line x1="245.70963541666666" y1="0" x2="245.70963541666666" y2="5" style="visibility: inherit;" fill="rgb(0, 0, 0)" stroke="rgb(200, 195, 188)" stroke-width="1px"></line><line x1="268.046875" y1="0" x2="268.046875" y2="5" style="visibility: inherit;" fill="rgb(0, 0, 0)" stroke="rgb(200, 195, 188)" stroke-width="1px"></line></g><g transform="translate(0, 8)"><text x="0" y="0" dx="0em" dy="0.95em" style="text-anchor: middle; visibility: hidden; font-family: Roboto, sans-serif; font-size: 12px; font-weight: 200;" fill="rgb(232, 230, 227)" stroke="none" stroke-width="1px">-2k</text><text x="22.337239583333332" y="0" dx="0em" dy="0.95em" style="text-anchor: middle; visibility: inherit; font-family: Roboto, sans-serif; font-size: 12px; font-weight: 200;" fill="rgb(232, 230, 227)" stroke="none" stroke-width="1px">0</text><text x="44.674479166666664" y="0" dx="0em" dy="0.95em" style="text-anchor: middle; visibility: hidden; font-family: Roboto, sans-serif; font-size: 12px; font-weight: 200;" fill="rgb(232, 230, 227)" stroke="none" stroke-width="1px">2k</text><text x="67.01171875" y="0" dx="0em" dy="0.95em" style="text-anchor: middle; visibility: inherit; font-family: Roboto, sans-serif; font-size: 12px; font-weight: 200;" fill="rgb(232, 230, 227)" stroke="none" stroke-width="1px">4k</text><text x="89.34895833333333" y="0" dx="0em" dy="0.95em" style="text-anchor: middle; visibility: hidden; font-family: Roboto, sans-serif; font-size: 12px; font-weight: 200;" fill="rgb(232, 230, 227)" stroke="none" stroke-width="1px">6k</text><text x="111.68619791666667" y="0" dx="0em" dy="0.95em" style="text-anchor: middle; visibility: inherit; font-family: Roboto, sans-serif; font-size: 12px; font-weight: 200;" fill="rgb(232, 230, 227)" stroke="none" stroke-width="1px">8k</text><text x="134.0234375" y="0" dx="0em" dy="0.95em" style="text-anchor: middle; visibility: hidden; font-family: Roboto, sans-serif; font-size: 12px; font-weight: 200;" fill="rgb(232, 230, 227)" stroke="none" stroke-width="1px">10k</text><text x="156.36067708333334" y="0" dx="0em" dy="0.95em" style="text-anchor: middle; visibility: inherit; font-family: Roboto, sans-serif; font-size: 12px; font-weight: 200;" fill="rgb(232, 230, 227)" stroke="none" stroke-width="1px">12k</text><text x="178.69791666666666" y="0" dx="0em" dy="0.95em" style="text-anchor: middle; visibility: hidden; font-family: Roboto, sans-serif; font-size: 12px; font-weight: 200;" fill="rgb(232, 230, 227)" stroke="none" stroke-width="1px">14k</text><text x="201.03515625" y="0" dx="0em" dy="0.95em" style="text-anchor: middle; visibility: inherit; font-family: Roboto, sans-serif; font-size: 12px; font-weight: 200;" fill="rgb(232, 230, 227)" stroke="none" stroke-width="1px">16k</text><text x="223.37239583333334" y="0" dx="0em" dy="0.95em" style="text-anchor: middle; visibility: hidden; font-family: Roboto, sans-serif; font-size: 12px; font-weight: 200;" fill="rgb(232, 230, 227)" stroke="none" stroke-width="1px">18k</text><text x="245.70963541666666" y="0" dx="0em" dy="0.95em" style="text-anchor: middle; visibility: inherit; font-family: Roboto, sans-serif; font-size: 12px; font-weight: 200;" fill="rgb(232, 230, 227)" stroke="none" stroke-width="1px">20k</text><text x="268.046875" y="0" dx="0em" dy="0.95em" style="text-anchor: middle; visibility: hidden; font-family: Roboto, sans-serif; font-size: 12px; font-weight: 200;" fill="rgb(232, 230, 227)" stroke="none" stroke-width="1px">22k</text></g><line x1="0" y1="0" x2="268.046875" y2="0" fill="rgb(0, 0, 0)" stroke="rgb(200, 195, 188)" stroke-width="1px"></line></g></g></g></g></svg>