<svg viewBox="0 0 330 200" xmlns="http://www.w3.org/2000/svg"><g><g><g><g><g><line x1="61.953125" y1="177" x2="56.953125" y2="177" style="visibility: inherit;" fill="rgb(0, 0, 0)" stroke="rgb(200, 195, 188)" stroke-width="1px"></line><line x1="61.953125" y1="154.87499999999997" x2="56.953125" y2="154.87499999999997" style="visibility: inherit;" fill="rgb(0, 0, 0)" stroke="rgb(200, 195, 188)" stroke-width="1px"></line><line x1="61.953125" y1="132.74999999999994" x2="56.953125" y2="132.74999999999994" style="visibility: inherit;" fill="rgb(0, 0, 0)" stroke="rgb(200, 195, 188)" stroke-width="1px"></line><line x1="61.953125" y1="110.62499999999991" x2="56.953125" y2="110.62499999999991" style="visibility: inherit;" fill="rgb(0, 0, 0)" stroke="rgb(200, 195, 188)" stroke-width="1px"></line><line x1="61.953125" y1="88.50000000000011" x2="56.953125" y2="88.50000000000011" style="visibility: inherit;" fill="rgb(0, 0, 0)" stroke="rgb(200, 195, 188)" stroke-width="1px"></line><line x1="61.953125" y1="66.3750000000001" x2="56.953125" y2="66.3750000000001" style="visibility: inherit;" fill="rgb(0, 0, 0)" stroke="rgb(200, 195, 188)" stroke-width="1px"></line><line x1="61.953125" y1="44.25000000000006" x2="56.953125" y2="44.25000000000006" style="visibility: inherit;" fill="rgb(0, 0, 0)" stroke="rgb(200, 195, 188)" stroke-width="1px"></line><line x1="61.953125" y1="22.12500000000004" x2="56.953125" y2="22.12500000000004" style="visibility: inherit;" fill="rgb(0, 0, 0)" stroke="rgb(200, 195, 188)" stroke-width="1px"></line><line x1="61.953125" y1="0" x2="56.953125" y2="0" style="visibility: inherit;" fill="rgb(0, 0, 0)" stroke="rgb(200, 195, 188)" stroke-width="1px"></line></g><g transform="translate(51.953125, 0)"><text x="0" y="177" dx="0em" dy="0.3em" style="text-anchor: end; visibility: hidden; font-family: Roboto, sans-serif; font-size: 12px; font-weight: 200;" fill="rgb(232, 230, 227)" stroke="none" stroke-width="1px">0.45</text><text x="0" y="154.87499999999997" dx="0em" dy="0.3em" style="text-anchor: end; visibility: inherit; font-family: Roboto, sans-serif; font-size: 12px; font-weight: 200;" fill="rgb(232, 230, 227)" stroke="none" stroke-width="1px">0.455</text><text x="0" y="132.74999999999994" dx="0em" dy="0.3em" style="text-anchor: end; visibility: hidden; font-family: Roboto, sans-serif; font-size: 12px; font-weight: 200;" fill="rgb(232, 230, 227)" stroke="none" stroke-width="1px">0.46</text><text x="0" y="110.62499999999991" dx="0em" dy="0.3em" style="text-anchor: end; visibility: inherit; font-family: Roboto, sans-serif; font-size: 12px; font-weight: 200;" fill="rgb(232, 230, 227)" stroke="none" stroke-width="1px">0.465</text><text x="0" y="88.50000000000011" dx="0em" dy="0.3em" style="text-anchor: end; visibility: hidden; font-family: Roboto, sans-serif; font-size: 12px; font-weight: 200;" fill="rgb(232, 230, 227)" stroke="none" stroke-width="1px">0.47</text><text x="0" y="66.3750000000001" dx="0em" dy="0.3em" style="text-anchor: end; visibility: inherit; font-family: Roboto, sans-serif; font-size: 12px; font-weight: 200;" fill="rgb(232, 230, 227)" stroke="none" stroke-width="1px">0.475</text><text x="0" y="44.25000000000006" dx="0em" dy="0.3em" style="text-anchor: end; visibility: hidden; font-family: Roboto, sans-serif; font-size: 12px; font-weight: 200;" fill="rgb(232, 230, 227)" stroke="none" stroke-width="1px">0.48</text><text x="0" y="22.12500000000004" dx="0em" dy="0.3em" style="text-anchor: end; visibility: inherit; font-family: Roboto, sans-serif; font-size: 12px; font-weight: 200;" fill="rgb(232, 230, 227)" stroke="none" stroke-width="1px">0.485</text><text x="0" y="0" dx="0em" dy="0.3em" style="text-anchor: end; visibility: hidden; font-family: Roboto, sans-serif; font-size: 12px; font-weight: 200;" fill="rgb(232, 230, 227)" stroke="none" stroke-width="1px">0.49</text></g><line x1="61.953125" y1="0" x2="61.953125" y2="177" fill="rgb(0, 0, 0)" stroke="rgb(200, 195, 188)" stroke-width="1px"></line></g></g><g transform="translate(61, 0)" clip-path="url(#clip_0)"><clipPath id="clip_0"><rect width="268" height="176"></rect></clipPath><g><g><g><line x1="0" y1="0" x2="0" y2="177" fill="rgb(0, 0, 0)" stroke="rgb(194, 189, 181)" stroke-width="1px" opacity="0.25"></line><line x1="22.337239583333332" y1="0" x2="22.337239583333332" y2="177" fill="rgb(0, 0, 0)" stroke="rgb(194, 189, 181)" stroke-width="1px" opacity="0.25"></line><line x1="44.674479166666664" y1="0" x2="44.674479166666664" y2="177" fill="rgb(0, 0, 0)" stroke="rgb(194, 189, 181)" stroke-width="1px" opacity="0.25"></line><line x1="67.01171875" y1="0" x2="67.01171875" y2="177" fill="rgb(0, 0, 0)" stroke="rgb(194, 189, 181)" stroke-width="1px" opacity="0.25"></line><line x1="89.34895833333333" y1="0" x2="89.34895833333333" y2="177" fill="rgb(0, 0, 0)" stroke="rgb(194, 189, 181)" stroke-width="1px" opacity="0.25"></line><line x1="111.68619791666667" y1="0" x2="111.68619791666667" y2="177" fill="rgb(0, 0, 0)" stroke="rgb(194, 189, 181)" stroke-width="1px" opacity="0.25"></line><line x1="134.0234375" y1="0" x2="134.0234375" y2="177" fill="rgb(0, 0, 0)" stroke="rgb(194, 189, 181)" stroke-width="1px" opacity="0.25"></line><line x1="156.36067708333334" y1="0" x2="156.36067708333334" y2="177" fill="rgb(0, 0, 0)" stroke="rgb(194, 189, 181)" stroke-width="1px" opacity="0.25"></line><line x1="178.69791666666666" y1="0" x2="178.69791666666666" y2="177" fill="rgb(0, 0, 0)" stroke="rgb(194, 189, 181)" stroke-width="1px" opacity="0.25"></line><line x1="201.03515625" y1="0" x2="201.03515625" y2="177" fill="rgb(0, 0, 0)" stroke="rgb(194, 189, 181)" stroke-width="1px" opacity="0.25"></line><line x1="223.37239583333334" y1="0" x2="223.37239583333334" y2="177" fill="rgb(0, 0, 0)" stroke="rgb(194, 189, 181)" stroke-width="1px" opacity="0.25"></line><line x1="245.70963541666666" y1="0" x2="245.70963541666666" y2="177" fill="rgb(0, 0, 0)" stroke="rgb(194, 189, 181)" stroke-width="1px" opacity="0.25"></line><line x1="268.046875" y1="0" x2="268.046875" y2="177" fill="rgb(0, 0, 0)" stroke="rgb(194, 189, 181)" stroke-width="1px" opacity="0.25"></line></g><g><line x1="0" y1="177" x2="268.046875" y2="177" fill="rgb(0, 0, 0)" stroke="rgb(194, 189, 181)" stroke-width="1px" opacity="0.25"></line><line x1="0" y1="154.87499999999997" x2="268.046875" y2="154.87499999999997" fill="rgb(0, 0, 0)" stroke="rgb(194, 189, 181)" stroke-width="1px" opacity="0.25"></line><line x1="0" y1="132.74999999999994" x2="268.046875" y2="132.74999999999994" fill="rgb(0, 0, 0)" stroke="rgb(194, 189, 181)" stroke-width="1px" opacity="0.25"></line><line x1="0" y1="110.62499999999991" x2="268.046875" y2="110.62499999999991" fill="rgb(0, 0, 0)" stroke="rgb(194, 189, 181)" stroke-width="1px" opacity="0.25"></line><line x1="0" y1="88.50000000000011" x2="268.046875" y2="88.50000000000011" fill="rgb(0, 0, 0)" stroke="rgb(194, 189, 181)" stroke-width="1px" opacity="0.25"></line><line x1="0" y1="66.3750000000001" x2="268.046875" y2="66.3750000000001" fill="rgb(0, 0, 0)" stroke="rgb(194, 189, 181)" stroke-width="1px" opacity="0.25"></line><line x1="0" y1="44.25000000000006" x2="268.046875" y2="44.25000000000006" fill="rgb(0, 0, 0)" stroke="rgb(194, 189, 181)" stroke-width="1px" opacity="0.25"></line><line x1="0" y1="22.12500000000004" x2="268.046875" y2="22.12500000000004" fill="rgb(0, 0, 0)" stroke="rgb(194, 189, 181)" stroke-width="1px" opacity="0.25"></line><line x1="0" y1="0" x2="268.046875" y2="0" fill="rgb(0, 0, 0)" stroke="rgb(194, 189, 181)" stroke-width="1px" opacity="0.25"></line></g></g></g><g><g><line x1="0" y1="2168.250000000001" x2="268.046875" y2="2168.250000000001" fill="rgb(0, 0, 0)" stroke="rgb(168, 160, 149)" stroke-width="1.5px"></line></g></g><g><g><line x1="22.337239583333332" y1="0" x2="22.337239583333332" y2="177" fill="rgb(0, 0, 0)" stroke="rgb(168, 160, 149)" stroke-width="1.5px"></line></g></g><g><g><g><g><g><path stroke="rgb(0, 119, 187)" stroke-width="2px" d="M26.79351888020833,-20.043698179497426L26.849361979166666,51.48126295802572L26.983385416666668,97.85147101448023L27.00572265625,130.8444877621875L27.083902994791668,131.47836011765546L27.251432291666667,72.68582768191547L27.43013020833333,17.756772164668146L28.033235677083333,-23.253323772038527L29.272952473958334,-9.448762218090337L29.451650390625,1.9844942663440004L29.965406901041668,32.79946626609178L30.21111653645833,55.10473384104576L30.35630859375,69.40959467731483L30.75837890625,105.33205321500677L31.10460611979167,142.72603591940856L31.138111979166666,169.73332577165948L31.160449218750003,177.1838868749431L31.551350911458332,149.13006246025668L31.57368815104167,133.94117191620532L31.685374348958334,123.41808157958158L32.165625,114.50360669349766L32.24380533854167,109.99539987692744L32.8357421875,107.22268410421054L32.88041666666666,107.35313427945864L32.91392252604167,108.17941220926747L33.025608723958335,112.2461119843364L33.036777343749996,115.40479904685058L33.248981119791665,122.34711591508685L33.68455729166667,139.02849994443756L33.69572591145833,148.9244238648441L33.72923177083333,155.08900993710805L34.15363932291667,163.12823193655498L35.09180338541666,184.2876142320879L37.526562500000004,177.93833605227553L37.638248697916666,175.14017481551298L37.70526041666667,173.05376376927006L38.062656249999996,171.07791633684576L39.05666341145833,177.88096692362902L45.389270833333335,191.4435969078211L46.137568359375,176.53207773635847L46.99755208333333,164.1218462321402L47.03105794270833,157.90180568954207L47.12040690104167,155.00977984044238L47.24326171875,155.37404546163756L47.745849609375,159.3324150496666L47.8463671875,162.0709967842826L47.913378906249996,163.76236035466184L48.214931640625004,166.23612085579396L48.60583333333334,170.04892123665067L49.17543294270833,176.43062160845372L49.43231119791667,182.161221499741L50.01307942708333,182.58791102138352L50.47099283854167,167.34125669568718L50.761376953124994,158.51702041266108L50.87306315104166,152.98128100083878L51.565517578125,148.8810016363974L52.034599609375,147.12954977486115L52.05693684895834,146.81650878200384L52.1351171875,147.6196042245991L52.838740234374995,149.30025104850853L53.151461588541665,152.61559896971332L53.307822265625,154.99380098244606L53.642880859375,157.3988751335241L53.877421875,162.44288057779625L54.190143229166665,168.87374011436523L54.20131184895833,173.0905173110998L54.63688802083333,163.97599848376234L54.65922526041667,158.44314269937072L54.87142903645833,154.04894832867913L54.88259765625,151.40520729321878L55.251162109375,146.67902715542996L55.76491861979167,142.47642604934265L55.921279296875,140.12311764819952L56.122314453125,137.78634195237814L56.1558203125,136.65445793988962L56.178157552083334,136.07010590209404L56.21166341145833,136.01784670372174L56.23400065104166,136.72175544081094L56.46854166666667,137.3107684894111L56.792431640625004,139.2390709792042L56.825937499999995,140.77871252674603L57.55189778645833,145.41172586376962L57.80877604166667,151.5774346029231L57.87578776041667,155.98421352782185L58.199677734375,161.45514894345055L58.45655598958333,167.964577622362L58.72460286458333,172.9873750364324L59.02615559895833,169.3137096973804L59.18251627604167,163.52625406832L59.19368489583333,160.2069465923902L59.39472005208333,157.58828941852056L59.472900390625,155.6267018838852L59.539912109374995,153.93510355049395L59.807958984375,152.54007265496182L60.08717447916666,151.4459130687848L60.22119791666666,149.6821861320927L60.355221354166666,147.15213162812145L60.57859375,146.18463835509482L60.63443684895834,146.64371845093783L60.868977864583336,148.22047738207635L61.03650716145834,150.100039856039L61.05884440104167,151.56194591745813L61.081181640625,153.22647558672926L61.12585611979167,154.35193265648866L61.27104817708333,155.7798207079421L61.282216796875,156.64475795612498L61.5167578125,157.92354916118265L61.717792968750004,158.8790009608618L62.04168294270833,160.46048990887869L62.10869466145833,161.51121835570808L62.5889453125,164.64833976509072L62.63361979166667,167.72876923805964L63.00218424479167,171.24959253790598L63.03569010416667,174.24652451885373L63.06919596354167,173.07799701216712L63.13620768229167,170.22943265690387L63.21438802083333,165.08302826974122L63.281399739583335,159.98717824040622L63.38191731770833,155.69281890236581L63.40425455729167,152.9963727567894L63.59412109375,151.122599911212L63.67230143229167,149.41505923865333L64.163720703125,145.2127068580292L64.7333203125,140.81404976830146L64.75565755208333,137.7220029511415L64.77799479166667,135.58868321624192L64.88968098958334,133.47752616589509L65.06837890625,131.93964990253855L65.42577473958333,130.14551042329924L65.44811197916667,128.7858349409819L65.48161783854167,127.88212567849376L65.503955078125,127.24002189137235L65.58213541666667,126.77641409967934L66.28575846354167,123.51422408686078L66.43095052083333,121.57218418019526L66.63198567708334,120.0202901982437L66.67666015625,119.15935849510734L66.710166015625,118.46861366787195L66.73250325520833,117.95513692440925L66.81068359375,117.73825295442697L67.03405598958334,118.8172720592879L67.21275390624999,120.65704831939284L67.22392252604168,121.99813715890174L67.279765625,120.31626787336086L67.32444010416665,117.49385935822541L67.50313802083333,113.55710067153315L67.51430664062501,111.06035592408355L67.52547526041667,109.24833929388917L67.53664388020833,107.70796641129752L67.58131835937499,105.85108003212126L67.82702799479166,104.00314244315305L68.29611002604167,102.60254781586157L68.37429036458333,101.35856692710617L68.38545898437499,100.32935695029909L68.43013346354167,99.47501515495088L69.01090169270833,98.30754897969697L69.0220703125,97.53660373477689L69.122587890625,96.61485261810334L69.27894856770834,95.40139387664749L69.61400716145833,94.51560641268304L69.6921875,94.17349704107497L69.77036783854166,94.39200711234845L69.926728515625,94.54136610917254L70.395810546875,94.3549133177647L70.46282226562501,94.64272761006445L71.736044921875,97.12109098486961L71.93708007812499,96.71974915378874L71.95941731770834,95.6919360872347L72.004091796875,92.92890177938816L72.02642903645832,90.72012175136385L72.17162109374999,88.99862901513758L72.22746419270834,87.52337191552444L72.39499348958334,86.35631491655062L73.02043619791667,85.274224042771L73.38900065104167,85.60351590066878L73.44484375,86.46707388295107L73.63471028645833,88.93097493970554L73.72405924479168,90.41013938773685L73.73522786458334,91.40987532618405L73.75756510416667,92.18324561402542L73.86925130208334,94.25296625263945L73.89158854166666,95.89215101874346L74.20430989583333,97.7506686142018L74.26015299479167,99.13176981629307L74.42768229166667,100.3075361074507L74.47235677083333,101.35103414708881L75.05312500000001,106.11620577427578L75.24299153645833,109.15469608753894L75.421689453125,112.68254741674338L75.81259114583334,119.39712344000634L75.857265625,123.26898318046716L76.12531249999999,118.63803043773176L76.14764973958334,115.14387655828929L76.16998697916667,112.90750956196891L76.19232421875,111.5151105789432L76.38219075520833,109.711081702987L76.51621419270833,108.42400182866302L76.98529622395833,106.18823018936108L77.51022135416667,104.49933001863603L77.57723307291667,103.43069338906172L77.78943684895833,102.53961480839759L77.80060546875,102.05692523493806L77.86761718749999,101.90207575849755L77.901123046875,101.8674111880792L78.06865234375,102.67630836639978L78.12449544270832,103.34921615031293L78.52656575520832,104.68722538192448L78.537734375,105.74150075441847L79.12967122395834,109.36177158051831L79.47589843749999,112.99221800010169L79.509404296875,115.74606131662682L79.58758463541666,118.19436944110166L79.7439453125,119.94873894965312L80.33588216145834,124.79056682509028L80.39172526041666,127.91838563841002L80.42523111979166,130.15578236029313L80.70444661458333,133.28757397270928L81.03950520833334,132.92778661854553L81.09534830729166,131.29381380836017L81.15119140625,128.20216508403396L81.16236002604167,126.13538455171602L81.26287760416666,123.60607166032439L81.318720703125,120.90406989154609L81.921826171875,116.46545245520345L82.54726888020834,110.84291922358513L82.58077473958333,108.00869664697085L82.94933919270834,105.85548925958261L82.97167643229166,104.72521912438641L82.994013671875,104.3949857707108L83.02751953125001,104.59454038389707L83.38491536458334,104.8061949913417L83.75347981770834,105.32882352870942L83.86516601562501,105.93810030506015L84.535283203125,107.851374071306L84.63580078125,109.1921062552467L84.78099283854168,110.25592083105805L85.21656901041668,114.68640305278554L85.42877278645832,118.97203853665211L85.51812174479167,118.31387986664319L85.55162760416667,117.31852143727838L85.57396484374999,116.1301662765908L85.73032552083335,110.6509701641485L86.05421549479166,107.07723138138587L86.26641927083334,104.84725718645377L86.65732096354166,103.12653528039993L86.679658203125,102.31745568875529L87.07055989583333,102.95307203129474L87.10406575520834,103.67336402302695L88.27677083333333,109.64377109382916L88.44430013020833,113.05250103113677L88.47780598958333,115.14875895319922L88.56715494791668,117.28201290053944L88.622998046875,118.74074993416232L88.76819010416666,119.86893630300634L89.80687174479166,126.76483775612893L89.85154622395834,128.24417851454726L89.87388346354166,127.77015960062117L89.97440104166667,123.67821079329758L89.98556966145833,121.10432607060426L90.13076171875,118.0575474480256L90.16426757812499,115.31337540777972L90.25361653645834,113.1712037346588L90.968408203125,110.2964625224887L91.12476888020832,108.11403258506706L91.20294921874999,106.02711143938947L91.25879231770833,103.49545769578215L91.99592122395833,101.42682152601678L92.56552083333334,101.32747695629668L93.09044596354167,101.40350706274727L93.10161458333333,101.63780889437828L93.179794921875,102.23161900109528L93.48134765625,103.40950568608629L93.87224934895833,105.399441528215L93.983935546875,107.50906615652389L94.39717447916667,110.99773741026357L94.41951171875,113.72126497079374L94.4865234375,114.8193518077156L94.49769205729166,114.68959465733948L94.73223307291667,112.82558478901235L94.81041341145834,111.1934987182278L94.84391927083334,109.69792615317097L95.16780924479166,108.00083815154034L95.75974609375001,106.63509535012277L96.10597330729166,105.66744476181145L96.21765950520833,105.30761247036494L96.22882812499999,105.22507670484995L96.23999674479167,105.24180966918664L96.25116536458333,105.25476862699554L96.67557291666667,105.19336448106515L96.764921875,105.60441785079824L97.30101562499999,107.0706726809899L97.47971354166667,107.98622250073036L97.58023111979166,108.8859069267078L97.64724283854167,109.57516413109003L97.71425455729167,110.49062649604404L98.32852864583333,112.33888255092627L98.48488932291667,113.66093664964065L98.63008138020834,115.23038132892468L98.909296875,117.13034672935714L98.93163411458333,118.52390749215634L98.95397135416665,120.14760354472423L98.98747721354167,120.24141509472342L99.14383789062501,116.84401731411066L99.36721028645833,109.6305033990921L100.42822916666667,101.72425883678581L100.53991536458334,96.10527168903096L100.685107421875,90.52335140829665L100.76328776041667,86.53367061895985L101.10951497395833,83.25056146240432L101.12068359374999,81.4302460074354L101.25470703124999,79.76505163483256L101.26587565104167,78.7268658300502L101.56742838541668,77.4524701053712L101.65677734375,76.46011774673212L101.958330078125,75.16576236335594L103.164541015625,75.24719241607141L103.29856445312501,75.65218924723897L103.30973307291667,76.25657055688694L103.41025065104166,75.51003516418922L103.54427408854166,73.62305255098578L103.58894856770834,71.15616102211479L103.6001171875,69.49869543321039L103.61128580729167,68.17126413956932L103.74530924479167,66.25341074596528L104.01335611979167,65.14451455219948L104.270234375,63.92016887376914L104.49360677083332,62.64577541096065L104.71697916666666,61.79461753477982L105.19722981770833,62.61228805872504L105.20839843750001,63.250481415030016L105.576962890625,65.82978676898632L105.73332356770834,67.46453428516458L106.67148763020835,71.77117703434163L107.28576171875,77.19948706669851L107.34160481770834,80.41244928628845L107.53147135416667,83.3670178949992L107.67666341145834,85.78108689148029L107.68783203125,87.4783771954461L107.97821614583333,85.12666731889631L108.00055338541667,83.5555798462749L108.01172200520833,82.34759791554858L108.06756510416668,80.79083280798795L108.123408203125,79.53073576816936L108.27976888020832,78.09209411468817L108.860537109375,74.77801730163019L109.40779947916667,71.76980941588211L109.41896809895833,70.06047798928218L109.47481119791667,69.15842418931518L109.72052083333332,68.53229687665076L110.52466145833333,67.75625179662131L111.03841796875,67.36620923653497L111.08309244791667,67.17636653046283L111.28412760416667,67.20235556868579L111.35113932291667,67.27679302367599L111.742041015625,67.71511229703387L112.18878580729167,68.6438113474489L112.19995442708333,69.3931024034175L112.52384440104167,67.07576069111698L112.57968749999999,65.22001939465386L112.64669921875,64.00672644417683L112.83656575520833,62.24245949927156L113.886416015625,59.94048503373471L114.14329427083334,59.31819795481271L114.154462890625,59.174978251682916L114.29965494791666,60.38927969401047L114.79107421875001,62.90105008903542L114.86925455729167,64.58498025851651L115.65105794270833,67.20162517050348L115.695732421875,68.7966011458515L115.96377929687499,70.43460941056956L116.33234374999999,72.58586855076378L116.51104166666666,74.5012822080862L116.62272786458333,76.16517350270507L116.92428059895833,78.10227619699441L116.99129231770833,80.29376403219693L117.04713541666666,79.39784923579079L117.32635091145833,76.68492141670261L118.0746484375,73.57699335546708L118.27568359374999,71.56516753177597L118.38736979166666,70.35515820819084L118.845283203125,69.58836688709974L118.86762044270833,69.25435386663594L119.10216145833334,69.84933231444046L119.280859375,70.35492408182064L119.6829296875,72.43896723335583L119.76111002604166,74.30887224577326L119.77227864583334,75.54630138035085L119.79461588541668,76.46100929494223L119.83929036458333,77.21079987322666L119.89513346354165,78.12263886201559L120.39772135416666,79.48373253879012L120.79979166666666,82.5796474603897L120.90030924479167,84.52191215112548L121.458740234375,88.31910695938606L121.55925781250001,90.69668824885774L121.63743815104166,92.34055043245421L122.02833984374999,94.01541493155887L122.20703776041667,93.19780601776276L122.25171223958334,92.2232286523018L122.262880859375,91.5429681928736L122.30755533854166,91.01763983205706L122.39690429687501,89.95666927958311L122.56443359375,89.21777443469065L122.68728841145833,88.3931241852203L122.95533528645834,87.86805366100766L123.08935872395833,87.53228146838786L123.45792317708333,87.1170445800021L123.51376627604166,86.68345891392048L123.89349934895833,87.01562727055257L124.31790690104167,87.20905015594255L125.09971028645833,88.0633378446243L125.345419921875,89.85374446552538L125.60229817708334,91.01243341867682L126.10488606770832,94.11429312798337L126.45111328125,97.44443598256615L126.69682291666668,95.8617681597189L126.70799153645834,94.78447676054074L126.74149739583333,93.62079127592474L127.00954427083333,90.84342168409418L127.21057942708335,88.9474097852341L127.824853515625,87.28003180373895L128.28276692708334,83.91978232031549L128.29393554687502,81.9175338639445L128.33861002604166,80.34449866925912L128.69600585937502,78.65982935429454L129.031064453125,77.52043138912154L130.103251953125,75.62212519090392L130.14792643229165,74.5168030257413L130.15909505208333,73.96404936510623L130.52765950520833,74.06185454324405L130.538828125,74.23031091766055L130.59467122395833,74.40143403014861L130.73986328125,74.6694240087774L130.91856119791666,75.03450299829811L131.34296875,71.97041311944243L131.66685872395834,68.21315928252079L132.06892903645834,65.37760137630575L132.57151692708334,63.44091333127132L132.59385416666666,62.455518023476266L132.72787760416665,62.174177868704945L133.051767578125,62.477888263106436L133.185791015625,62.71346872249812L133.50968098958333,63.60051321371971L133.56552408854168,64.59482171125886L133.91175130208333,65.44019694008108L134.1574609375,66.25869129170107L134.58186848958334,67.97609427783442L134.98393880208334,69.66344265260076L135.1067936197917,71.06295457337842L135.17380533854168,72.57421684643874L135.22964843749997,74.23540266827723L135.52003255208334,76.05812163884109L135.56470703125,77.67782879922413L135.72106770833332,76.44398795487061L135.7657421875,75.16535489062164L136.04495768229168,72.3194167179668L136.10080078125,70.70502837309063L136.435859375,69.688150012729L137.26233723958333,68.2860125586171L137.36285481770832,67.91961108022699L137.88777994791667,68.19421278993397L137.9101171875,68.4496970985124L137.99946614583334,68.9918418071953L138.05530924479166,69.4483577791986L138.23400716145832,70.14638769809858L138.479716796875,70.73878817259092L138.63607747395835,71.2815737837193L139.35086914062498,72.92032839950033L139.384375,74.21628709087159L139.484892578125,75.64336686534654L139.67475911458334,77.19949878834035L139.83111979166665,78.81138843724447L139.86462565104165,80.25703565727355L139.94280598958335,79.72205203183145L140.00981770833332,78.3977022113952L140.0768294270833,77.36031784944474L141.07083658854168,73.33892869084099L141.32771484375,70.53039734568506L141.43940104166666,68.96491042112552L141.45056966145833,68.18953990457763L141.48407552083336,67.86361499760939L141.52875,67.85490804599786L141.58459309895832,67.98278138167825L141.64043619791667,68.34794322418523L141.796796875,68.78879737965671L142.08718098958335,69.44743643788283L142.098349609375,69.96972691291688L142.31055338541668,71.00112805711129L142.835478515625,72.21377739781852L142.98067057291667,73.12228581957011L143.75130533854167,75.05849004458513L143.79597981770834,76.50156961050584L143.8294856770833,77.484616569696L144.03052083333333,78.79649277953037L144.23155598958334,80.04242820894555L144.43259114583336,82.01574754125757L144.510771484375,82.51038073326299L144.57778320312502,82.05102871992322L144.75648111979166,81.25034077979112L144.77881835937498,80.6001749544016L145.08037109375,79.25917816244136L145.11387695312501,78.33308814597575L145.59412760416666,77.65935595660478L145.73931966145832,77.1760302313979L145.92918619791666,76.71847062130882L145.97386067708334,76.48892502355125L146.119052734375,76.43906772793268L146.16372721354165,76.48791526667L146.2195703125,76.5457095076305L146.30891927083331,76.67642376931558L146.53229166666665,77.24012685485282L146.83384440104166,77.59735846860366L147.124228515625,78.38529318168132L147.18007161458334,78.83451467944694L147.62681640625,79.51258011833296L147.80551432291668,80.14413330747875L147.88369466145835,80.72755265695073L148.0958984375,81.60406038812376L148.96705078124998,84.20305675016752L149.11224283854165,86.09140861387975L149.2574348958333,87.65134175148553L149.268603515625,88.74495545743751L149.3467838541667,88.41274172422769L149.63716796875002,87.68349154160177L149.670673828125,87.08484983336923L149.68184244791667,86.54558582346135L149.838203125,85.48700196363141L150.08391276041667,84.82412852436556L150.49715169270831,84.54884888006633L151.05558268229169,84.1384917852931L151.17843749999997,84.20867305060578L151.24544921875,84.32537318256507L151.49115885416668,84.46348444798899L151.64751953125,84.63163617718386L151.66985677083332,84.77895298118024L151.77037434895834,84.92241841175664L151.80388020833334,85.02871806635375L151.949072265625,85.15180568736733L151.96024088541665,85.22193050270023L152.016083984375,85.2623328719214L152.18361328125,85.3387310113699L152.25062499999999,85.38812609378304L152.70853841145833,85.60540477106967L152.85373046875,85.81085170658783L153.03242838541667,86.14993634485302L153.14411458333333,86.65820605308645L153.52384765624998,87.51871112735994L153.9929296875,88.44265748938396L154.14929036458332,87.64644149244404L154.20513346354167,86.52468254952112L154.58486653645835,85.12260142164723L154.964599609375,84.09922811334746L155.4671875,83.32056599553373L155.48952473958332,82.88771115231225L155.52303059895834,82.63651082268042L155.75757161458333,82.49643422651542L155.81341471354168,82.58011282882055L155.82458333333335,82.6552334139954L155.8692578125,82.7317234029621L156.36067708333334,82.94658555919223L156.45002604166666,83.18975796460924L156.58404947916665,83.42998489016455L156.706904296875,83.73842926530953L157.03079427083333,84.3531080569862L157.49987630208335,85.58068880776791L157.52221354166667,86.33440031481666L157.56688802083332,86.85601538839602L157.58922526041667,87.29717227412516L158.13648763020834,89.18664969916095L158.449208984375,90.05580761164715L158.66141276041665,88.88802871397118L158.95179687499999,86.59263733428283L158.97413411458334,85.27129238834374L159.21984375,83.98485521883838L159.96814127604168,82.32988959842207L160.18034505208334,81.60338228113201L160.29203124999998,81.36589534638053L160.392548828125,81.33522137608801L160.43722330729165,81.43001259346632L160.50423502604167,81.56134907370442L160.85046223958332,82.40352858792077L161.02916015625001,82.98497268729231L161.15201497395833,83.40317311214231L161.71044596354167,83.8128377563555L162.39173177083333,85.59851524676216L162.78263346354166,88.3132836215586L162.79380208333333,89.96388645892795L163.006005859375,91.49224181455048L163.12886067708334,90.40948852037963L163.38573893229167,88.11966592716858L163.74313476562497,85.9539593269518L163.83248372395835,84.61089033855873L163.91066406250002,83.72757372006346L164.05585611979168,83.10716774422629L164.11169921874998,82.35989225924376L164.58078125,81.25630277856655L165.29557291666669,78.24403556160851L165.36258463541668,76.27471390789728L165.921015625,74.49415506157246L165.93218424479167,73.41679661200195L166.78099934895835,71.91704553501836L166.85917968750002,71.09707948099003L166.93736002604166,70.8195661786064L166.993203125,70.71422552690838L167.00437174479168,70.65969588362907L167.428779296875,69.8532136919291L167.57397135416667,69.159243409364L167.59630859375,68.23514165793634L167.60747721354167,67.45309153499001L167.629814453125,66.54569311433157L167.70799479166666,65.37620783912602L167.79734375,64.38701907506271L168.14357096354166,63.64438613169681L168.24408854166668,63.09648383902919L168.45629231770835,62.60996190463672L168.769013671875,62.12012376127786L169.24926432291664,61.26268337290876L169.33861328125002,60.673972006682426L169.65133463541667,59.99374792749358L169.673671875,59.58296957006233L169.71834635416667,59.22159928928365L169.81886393229166,58.94978023569956L170.53365559895835,58.611381950483725L170.56716145833332,58.42981835713791L170.846376953125,58.36136212730948L171.27078450520833,58.17190766290072L171.4606510416667,57.86328286517659L171.59467447916666,57.73067082121719L172.052587890625,57.93117931407231L172.14193684895835,57.96905974145384L172.17544270833332,57.08721314215838L172.30946614583334,56.365208815285456L172.320634765625,55.725555690591335L172.33180338541666,55.11951465553726L172.36530924479166,54.33879653824768L172.454658203125,53.33556114357393L173.06893229166667,52.1657173900299L173.2364615885417,51.452578234911506L173.47100260416667,50.67763440771454L173.8283984375,49.87835757966101L174.062939453125,49.57244688632227L174.27514322916667,49.509166759492324L174.599033203125,49.41460031419203L174.6325390625,49.39771839659097L174.68838216145832,49.39647569153565L175.21330729166667,49.45204508526561L175.25798177083334,49.45823986048325L175.35849934895833,49.47437043459643L175.805244140625,50.03423200393037L176.274326171875,50.689885397086435L176.408349609375,51.48194007048546L176.41951822916667,52.04146548474188L176.65405924479165,52.95286299214035L177.00028645833333,54.58816905552751L177.26833333333335,53.0848944442032L177.52521158854165,51.90971739988241L177.5810546875,51.1747377007501L178.29584635416668,50.37632637950761L178.820771484375,49.92556538821013L178.99946940104167,49.485641330732534L179.1893359375,49.473136949430156L179.31219075520832,49.7383930759586L179.77010416666667,50.203331252868615L179.84828450520834,50.82064091797759L180.831123046875,53.08439343040131L181.32254231770835,56.13173619239091L181.3337109375,57.91585289628179L181.6017578125,59.04894093893065L181.78045572916668,60.32693198786336L181.88097330729167,60.243884353991405L182.07083984375,58.691589401767956L182.09317708333333,57.69368058557868L182.11551432291668,57.01360512351393L182.1378515625,56.450109294849284L182.16018880208333,55.96774964599218L182.20486328125,55.540425001513576L182.24953776041664,55.068516445210335L182.93082356770833,53.151247572614785L184.17054036458333,49.16860187151142L184.181708984375,47.09787226029676L184.22638346354165,46.046079151476896L184.66195963541665,45.06444467741212L185.56661783854165,45.02473936887507L185.6224609375,45.24178941952894L185.73414713541666,45.871531988526996L186.16972330729166,47.59164275253568L186.24790364583333,48.1372489927781L186.28140950520833,47.59667996595945L186.37075846354165,46.82968204035119L186.38192708333335,46.18292505200971L186.43777018229164,45.52702274288063L187.52112630208333,43.20465832386188L187.64398111979168,41.93495063057509L187.74449869791667,41.49356607924377L187.8450162760417,41.491975636063785L188.66032552083334,42.438813358167955L188.68266276041666,43.066617175802335L189.36394856770832,44.27344898601412L189.5538151041667,45.237803087980446L189.62082682291668,45.90114415801017L190.12341471354165,47.21712369904774L190.34678710937501,48.44421035799917L190.35795572916666,49.27547484252155L190.748857421875,50.76711040847749L190.90521809895833,52.00558777002695L190.92755533854165,53.139962916582334L191.07274739583332,52.83799381458253L191.08391601562502,52.43564531786623L191.24027669270833,50.612517567096724L191.37430013020835,48.63189398222349L191.485986328125,47.26545269394128L191.50832356770832,46.363008569633706L191.53066080729167,45.743410225621155L192.64752278645832,44.11760061758604L192.93790690104169,42.91026854085739L193.261796875,42.18946092820018L194.44567057291667,41.25637164293609L194.79189778645832,41.01095366894724L194.82540364583332,41.05567646115656L194.84774088541667,41.16653326437946L195.03760742187498,41.48955699792546L195.46201497395833,40.771001909329335L195.58486979166668,39.3499890669933L195.85291666666666,38.10942104612193L196.38901041666668,36.97762450958639L196.70173177083333,36.27596610957459L196.81341796875,35.724834097499475L196.83575520833332,35.285041082561555L196.980947265625,34.85684324645152L197.19315104166668,34.232525197211814L197.22665690104165,33.817731841740546L197.34951171875,33.35828895812171L197.37184895833332,33.06874719272753L197.383017578125,32.821798815781825L197.77391927083335,32.20277370052531L197.81859375,31.76692300950504L197.85209960937502,31.421378489477547L197.87443684895834,31.190893214044376L198.187158203125,31.06716828895013L198.4887109375,30.97562983384865L198.55572265625,30.932552733759955L198.56689127604164,30.89092732345345L198.589228515625,30.81684874457006L199.06947916666667,30.586370019022706L199.23700846354168,30.503987403514664L199.27051432291665,30.632830826905032L199.694921875,31.29087619017755L199.75076497395835,30.801435368617756L199.795439453125,30.09641624162915L199.85128255208335,29.281230779494287L199.88478841145832,28.56926373381486L199.90712565104167,27.943806656856154L200.197509765625,26.708250394831733L200.64425455729167,25.655555015330037L200.7782779947917,24.792089926679505L201.19151692708334,24.060306280955306L201.32554036458333,23.67923445045308L201.403720703125,23.716720260214956L201.6605989583333,24.00235176004414L201.79462239583333,24.616007995005255L202.207861328125,25.512800247766158L202.45357096354167,26.17576750934815L202.71044921875,26.931588487245907L203.28004882812502,28.10731494460399L203.39173502604166,29.144639736765697L203.45874674479165,29.828952164377778L203.78263671874998,31.093926888640535L203.7938053385417,31.916465629592725L203.816142578125,32.037892852942264L203.883154296875,31.59526633658624L203.96133463541668,30.70876869266664L204.01717773437503,29.475039496944298L204.10652669270834,28.69926073079482L204.1623697916667,28.24667368208916L204.22938151041666,27.82805074149402L204.97767903645834,27.120400352215235L205.50260416666669,26.203687587428863L205.67013346354167,25.624631426365056L206.11687825520832,25.34603170074829L206.13921549479164,25.23269802691676L206.31791341145833,25.30942097413675L206.34025065104166,25.325270939544613L206.60829752604167,25.332328268229215L206.61946614583334,25.37607694181445L206.90985026041668,25.665504376108373L207.02153645833332,26.021862071442158L208.49579427083336,26.546380640215975L208.52930013020833,26.400094191123834L208.55163736979165,26.130193330450073L208.76384114583334,25.77906544012645L209.23292317708334,25.27453966491849L209.26642903645833,24.970093081836414L209.48980143229167,24.775793621329832L209.64616210937498,24.674962327863582L209.99238932291667,24.290757123467138L210.0147265625,24.08596923058453L210.05940104166666,23.964941773077676L210.56198893229168,24.391494557436427L210.718349609375,25.20217798394015L210.77419270833335,25.734554214024634L211.321455078125,26.64648169363577L211.53365885416667,27.34747959526098L211.75703125,27.96800353740432L211.94689778645835,28.589143721163314L212.4271484375,29.609889977992193L212.68402669270836,30.70823553586391L212.95207356770834,32.01464292716557L213.28713216145835,32.68978953520611L213.29830078125,32.829543354554254L213.32063802083331,32.69416937189875L213.39881835937499,31.760571191571184L213.71153971354167,30.087832880227744L214.23646484375,28.788827130829663L214.41516276041668,28.012182822140772L214.44866861979168,27.565367748857355L214.45983723958335,27.288084902572354L214.672041015625,26.919639389533618L214.78372721354165,26.86715759293326L215.21930338541665,27.249405438943896L215.29748372395832,27.611428877726652L215.63254231770836,27.94914914077702L215.68838541666665,28.146515259601497L216.05694986979165,28.370888719977323L216.21331054687502,28.727328466764195L216.3585026041667,29.051667725085192L216.883427734375,29.675285583327394L217.14030598958334,30.39549903564964L217.17381184895834,31.05211314707553L217.352509765625,31.722887999285092L217.49770182291667,32.42946213831996L217.55354492187502,32.86243676340725L217.58705078124999,32.61481132466415L217.74341145833333,31.873985026185085L217.821591796875,31.05487933078085L217.87743489583332,30.486064270891607L218.16781901041665,29.562713650583554L218.826767578125,28.68215660288694L218.98312825520833,28.162254326739557L219.18416341145834,27.727874226256397L219.34052408854166,27.20209152018887L219.70908854166666,26.793722275864532L219.74259440104169,26.66803656339781L219.77610026041665,26.721169980352443L219.92129231770832,26.80315050756981L220.08882161458334,26.988660925486613L220.72543294270832,27.232513017975734L221.08282877604168,27.62819045296014L221.09399739583333,27.868485291962674L221.20568359375002,28.147162080868924L221.239189453125,28.396985922641832L221.59658528645835,28.958268587623916L221.60775390625,29.332906698073117L221.641259765625,29.011329601100076L221.842294921875,28.093285663350397L221.9428125,27.23308138120164L222.3448828125,26.1951428706939L222.713447265625,25.371693053218262L222.93681966145834,24.552739639683143L223.26070963541665,23.73109824978923L223.32772135416667,23.26173149922631L223.39473307291667,22.951450568426356L223.41707031250002,22.79132525615108L223.819140625,22.737669694473503L223.8414778645833,22.74335416428041L223.91965820312498,22.84677127251721L224.120693359375,22.97241502191948L224.13186197916664,23.073848455148827L224.46692057291668,23.145084472383115L224.857822265625,23.48113473320892L225.38274739583332,24.3796354043419L225.74014322916665,25.4876340869345L225.88533528645831,26.349786671007124L225.89650390625,26.945278319965166L225.97468424479166,27.076647913625376L226.01935872395833,26.931516671291465L226.20922526041667,26.137877971026594L226.27623697916667,25.42256539945588L226.4214290364583,24.029112130172653L226.44376627604169,23.121628458679293L226.6336328125,22.346197287286813L227.15855794270834,21.494884125712836L227.63880859374999,20.364673569335544L227.78400065104165,19.82296927061718L227.82867513020835,19.57382302375173L227.92919270833335,19.544206219317935L228.19723958333336,19.549812881772375L228.30892578125,19.644858117056955L228.34243164062502,19.737101235239265L228.87852539062501,19.76438950328022L228.90086263020834,19.766046035861777L229.11306640625,19.834257538624463L230.017724609375,20.4489607316562L230.24109700520833,21.20708463392533L230.3862890625,21.89363161228255L230.419794921875,22.569152788282633L230.49797526041667,22.22001778112242L230.67667317708333,21.472071807717818L230.90004557291667,20.065049539112685L231.34679036458334,18.582869918856147L231.52548828125,17.554281252126255L232.30729166666669,16.59598212772131L232.34079752604165,16.04240137981793L232.57533854166667,15.85995845076216L233.05558919270834,16.253790037825137L234.63036458333332,19.35898236492793L234.641533203125,21.09662908922225L234.85373697916665,22.24697823115042L235.01009765625,23.28561555328912L235.03243489583335,24.097631745211697L235.63554036458333,22.144908672346066L236.08228515625,20.981813739863416L236.52902994791665,20.3961603076056L236.54019856770833,20.126795587324178L236.59604166666668,20.016414147471238L236.67422200520832,20.0540206052395L236.75240234375,20.23691153754903L236.85291992187499,20.464227556330545L236.99811197916665,20.65829810819952L237.27732747395834,20.832652743314405L237.43368815104165,21.5097967466579L237.52303710937503,22.0403810271785L237.71290364583334,22.36501536873881L238.025625,22.75690227096741L238.40535807291667,23.45433536266844L238.91911458333334,24.73336052609619L239.198330078125,25.920110203947104L239.3546907552083,26.80325701872164L239.37702799479166,27.519392335140463L239.38819661458334,28.03387060977439L239.70091796875,27.140309309400763L239.75676106770834,26.39920898375424L239.8126041666667,25.985724993090926L239.86844726562498,25.752300430572323L240.10298828125002,25.533875838982524L240.85128580729167,25.342068190851297L240.90712890625002,25.28718938388014L240.91829752604167,25.289232810539L241.10816406249998,25.392380707208137L241.208681640625,25.364835855891627L241.30919921875,25.294597840955614L241.86763020833334,25.25215045422157L241.96814778645833,25.338198297403906L242.02399088541668,25.45581152395004L243.34188802083335,25.356613083827096L243.64344075520833,25.403877177905795L243.72162109375,25.567505591971575L244.13486002604168,25.424534821833745L244.3247265625,24.53471588274163L244.46991861979166,23.654986724780663L244.693291015625,22.911382412672804L245.17354166666667,22.465206594607473L245.64262369791666,22.00719416454376L245.698466796875,21.717234007357455" style="fill: none;" fill="none"></path></g></g></g></g><g opacity="0.2"><g><g><g><path stroke="rgb(0, 119, 187)" stroke-width="2px" d="M26.480797526041666,-17.66974675655369L26.79351888020833,107.33627852797508L26.849361979166666,127.12020751833917L26.983385416666668,146.8909489810467L27.00572265625,165.73750850558284L27.083902994791668,132.14874368906024L27.251432291666667,10.506461083888968L27.43013020833333,-40.336733043193895L29.194772135416667,-3.7893463969231043L29.272952473958334,10.055579513311347L29.451650390625,14.07645669579502L29.965406901041668,65.38978618383408L30.21111653645833,78.69507846236229L30.35630859375,84.53860384225845L30.75837890625,143.32411837577823L31.10460611979167,182.2744044363499L31.160449218750003,185.06369841098788L31.551350911458332,119.45996832847597L31.57368815104167,117.87720125913621L31.685374348958334,112.28872266411783L32.165625,105.07554066181183L32.24380533854167,105.22746098041534L32.8357421875,104.29022338986397L32.88041666666666,107.49110010266304L32.91392252604167,109.05329462885858L33.025608723958335,116.54710721969606L33.036777343749996,118.7454680800438L33.248981119791665,129.68940165638926L33.68455729166667,156.6709513664246L33.69572591145833,159.3904833197594L33.72923177083333,161.60875734686854L34.15363932291667,171.63061898946765L35.09180338541666,206.6660555899144L36.87878255208334,177.30903652310374L37.16916666666666,174.0058245956898L37.526562500000004,172.95451489090922L37.638248697916666,172.18080264329913L37.70526041666667,170.8471479713917L38.062656249999996,168.9882340729237L39.05666341145833,185.07596281170848L42.12803385416667,179.02526137232783L42.83165690104167,176.49576169252398L43.501774088541666,177.49577191472056L45.389270833333335,191.78050187230113L46.137568359375,160.76145869493487L46.99755208333333,150.99662196636203L47.03105794270833,151.32340890169147L47.12040690104167,151.9511352181435L47.24326171875,155.75929757952693L47.745849609375,163.518838852644L47.8463671875,164.96735689044002L47.913378906249996,165.5511687397957L48.214931640625004,168.85240253806117L48.60583333333334,174.08138912916186L49.17543294270833,183.17999196052554L50.01307942708333,180.3093309402466L50.47099283854167,151.21619430184367L50.761376953124994,149.18439191579822L50.87306315104166,147.12661010026935L51.565517578125,144.54449218511584L52.034599609375,145.27719122171405L52.05693684895834,146.48543250560763L52.1351171875,148.4689685404301L52.838740234374995,151.07772526144984L53.151461588541665,156.1219545900822L53.307822265625,157.50901874899867L53.642880859375,159.9425132274628L53.877421875,167.77748715877536L54.190143229166665,175.67510184645656L54.20131184895833,177.55023640394214L54.63688802083333,154.33636334538463L54.65922526041667,152.5915215611458L54.87142903645833,149.40159049630168L54.88259765625,148.60915195941928L55.251162109375,141.68055680394176L55.76491861979167,138.0316997766495L55.921279296875,137.63422769308093L56.122314453125,135.31493720412257L56.1558203125,135.45736250281337L56.178157552083334,135.45208749175075L56.21166341145833,135.962576687336L56.23400065104166,137.46621859073642L56.46854166666667,137.9337164461613L56.792431640625004,141.2784690856934L56.825937499999995,142.40705770254138L57.55189778645833,150.31166177988055L57.80877604166667,158.09836935997012L57.87578776041667,160.64488095045093L58.199677734375,167.24128228425982L58.45655598958333,174.84903511404994L58.72460286458333,178.2995517253876L59.02615559895833,165.42839285731318L59.18251627604167,157.40536478161815L59.19368489583333,156.69640329480174L59.39472005208333,154.81876310706141L59.472900390625,153.5521010756493L59.539912109374995,152.14604687690738L59.807958984375,151.06466960906985L60.08717447916666,150.28871548175815L60.22119791666666,147.81684529781344L60.355221354166666,144.47631266713145L60.57859375,145.1614047288895L60.63443684895834,147.12924760580066L60.868977864583336,149.888078391552L61.03650716145834,152.08788987994197L61.05884440104167,153.10807701945308L61.081181640625,154.9869040846825L61.12585611979167,155.54223087430003L61.27104817708333,157.2899739146233L61.282216796875,157.55952697992328L61.5167578125,159.2760155797005L61.717792968750004,159.88949936628345L62.04168294270833,162.13309344649318L62.10869466145833,162.62248259782794L62.5889453125,167.96620067954066L62.63361979166667,170.98667201399806L63.00218424479167,174.9732616245747L63.03569010416667,177.41611924767497L63.06919596354167,171.8421469330788L63.13620768229167,167.21675348281863L63.21438802083333,159.640123218298L63.281399739583335,154.59774014353755L63.38191731770833,151.1510479152203L63.40425455729167,150.144575804472L63.59412109375,149.14087307453158L63.67230143229167,147.6091417372227L64.163720703125,140.76824364066127L64.7333203125,136.1619721055031L64.75565755208333,134.45181351900104L64.77799479166667,133.33245617151263L64.88968098958334,131.24473866820338L65.06837890625,130.31317171454432L65.42577473958333,128.24800488352778L65.44811197916667,127.34782424569131L65.48161783854167,126.92635086178781L65.503955078125,126.56092447042467L65.58213541666667,126.28609639406206L66.28575846354167,120.06408897042276L66.43095052083333,119.51825720071794L66.63198567708334,118.37898668646814L66.67666015625,118.24882578849794L66.710166015625,117.73807284235956L66.73250325520833,117.41207715868951L66.81068359375,117.50887361168863L67.03405598958334,119.95845687389375L67.21275390624999,122.6028199195862L67.22392252604168,123.41649037599565L67.279765625,118.53750076889993L67.32444010416665,114.50884294509889L67.50313802083333,109.3935328423977L67.51430664062501,108.41976580023767L67.52547526041667,107.33192664384842L67.53664388020833,106.07884776592255L67.58131835937499,103.88721254467964L67.82702799479166,102.04873931407928L68.29611002604167,101.12126049399376L68.37429036458333,100.04291635751724L68.38545898437499,99.24085092544556L68.43013346354167,98.57145202159882L69.01090169270833,97.07282137870789L69.0220703125,96.72124189138412L69.122587890625,95.63999649882317L69.27894856770834,94.11802393198013L69.61400716145833,93.57878592610359L69.6921875,93.81167766451836L69.77036783854166,94.6231062412262L69.926728515625,94.69933015108109L70.395810546875,94.15771839022636L70.46282226562501,94.94712379574776L71.736044921875,99.74224072694778L71.93708007812499,96.29528474807739L71.95941731770834,94.60490745306015L72.004091796875,90.00668030977249L72.02642903645832,88.38408690690994L72.17162109374999,87.1779556274414L72.22746419270834,85.96312057971954L72.39499348958334,85.12202006578445L73.02043619791667,84.12979048490524L73.38900065104167,85.9517793059349L73.44484375,87.38038417696953L73.63471028645833,91.53682914376259L73.72405924479168,91.97452318668365L73.73522786458334,92.46720921993256L73.75756510416667,93.00117221474648L73.86925130208334,96.44193005561829L73.89158854166666,97.62577441334724L74.20430989583333,99.71626129746437L74.26015299479167,100.5924406349659L74.42768229166667,101.55104202032089L74.47235677083333,102.45465141534805L75.05312500000001,111.15591403841974L75.24299153645833,112.36824345588686L75.421689453125,116.41364943981172L75.81259114583334,126.49854746460916L75.857265625,127.36391302943231L76.12531249999999,113.74027383327486L76.14764973958334,111.44841340184213L76.16998697916667,110.54229837656023L76.19232421875,110.04249107837678L76.38219075520833,107.80311700701714L76.51621419270833,107.06276920437813L76.98529622395833,103.82364866137505L77.51022135416667,102.71312695741653L77.57723307291667,102.30048921704292L77.78943684895833,101.59719836711884L77.80060546875,101.5464263856411L77.86761718749999,101.73830491304398L77.901123046875,101.83074948191643L78.06865234375,103.53180867433548L78.12449544270832,104.06089228391647L78.52656575520832,106.10232156515121L78.537734375,106.8565162718296L79.12967122395834,113.19061768054964L79.47589843749999,116.83182594180109L79.509404296875,118.65856227278711L79.58758463541666,120.78373235464097L79.7439453125,121.80418324470521L80.33588216145834,129.9113477468491L80.39172526041666,131.22640800476077L80.42523111979166,132.52208259701732L80.70444661458333,136.59979802370074L81.03950520833334,132.54727077484134L81.09534830729166,129.56570264697078L81.15119140625,124.93239668011667L81.16236002604167,123.94953024387361L81.26287760416666,120.9310370385647L81.318720703125,118.04639723896982L81.921826171875,111.77111220359804L82.54726888020834,104.89645403623581L82.58077473958333,105.01118552684784L82.94933919270834,103.57822877168655L82.97167643229166,103.529830545187L82.994013671875,104.04572662711143L83.02751953125001,104.80559197068214L83.38491536458334,105.03004369139671L83.75347981770834,105.88156235218048L83.86516601562501,106.58247944712639L84.535283203125,109.87487760186197L84.63580078125,110.61008226871492L84.78099283854168,111.38102513551713L85.21656901041668,119.37213939428331L85.42877278645832,123.50458306074144L85.51812174479167,117.61780259013177L85.55162760416667,116.26581725478174L85.57396484374999,114.87334620952608L85.73032552083335,104.85610020160675L86.05421549479166,103.29759818315506L86.26641927083334,102.48880711197853L86.65732096354166,101.30667713284492L86.679658203125,101.46176245808601L87.07055989583333,103.62530824542046L87.10406575520834,104.43515431880951L88.27677083333333,115.9581522345543L88.44430013020833,116.65761870145799L88.47780598958333,117.365788936615L88.56715494791668,119.53817036747934L88.622998046875,120.28352943062784L88.76819010416666,121.06212106347085L89.80687174479166,134.0580339431763L89.85154622395834,129.8087487816811L89.87388346354166,127.26883095502855L89.97440104166667,119.35051184892656L89.98556966145833,118.38215169310571L90.13076171875,114.83523425459863L90.16426757812499,112.41110292077066L90.25361653645834,110.90561476349832L90.968408203125,107.25609835982323L91.12476888020832,105.80586594343185L91.20294921874999,103.81995615363121L91.25879231770833,100.81794735789299L91.99592122395833,99.23900467157364L92.56552083333334,101.22240883111954L93.09044596354167,101.48391750454903L93.10161458333333,101.8856095969677L93.179794921875,102.85964038968086L93.48134765625,104.65525415539742L93.87224934895833,107.50402387976646L93.983935546875,109.74023294448854L94.39717447916667,114.68740206956865L94.41951171875,116.6017035841942L94.4865234375,115.98070290684701L94.49769205729166,114.55236178636552L94.73223307291667,110.85418340563776L94.81041341145834,109.46738299727441L94.84391927083334,108.11618891358376L95.16780924479166,106.20597553253174L95.75974609375001,105.19066777825356L96.10597330729166,104.64404475688934L96.21765950520833,104.92704910039902L96.22882812499999,105.13778579235077L96.23999674479167,105.25950667262077L96.25116536458333,105.26847419142723L96.67557291666667,105.12842264771461L96.764921875,106.03915330767632L97.30101562499999,108.6214030981064L97.47971354166667,108.95452004671098L97.58023111979166,109.83742502331735L97.64724283854167,110.30413162708284L97.71425455729167,111.45883154869081L98.32852864583333,114.29362249374391L98.48488932291667,115.05915847420694L98.63008138020834,116.89024668931962L98.909296875,119.1397751569748L98.93163411458333,119.99775570631029L98.95397135416665,121.86484587192537L98.98747721354167,120.34063142538072L99.14383789062501,113.2508846819401L99.36721028645833,102.00139608979225L100.42822916666667,93.36251047253609L100.53991536458334,90.16255688667297L100.685107421875,84.61983901262283L100.76328776041667,82.31413167715073L101.10951497395833,79.77830198407173L101.12068359374999,79.50505641102791L101.25470703124999,78.00392013788223L101.26587565104167,77.6288668513298L101.56742838541668,76.10465240478516L101.65677734375,75.41059282422066L101.958330078125,73.796835064888L103.164541015625,75.33331391215324L103.29856445312501,76.08051922917366L103.30973307291667,76.8957721889019L103.41025065104166,74.72048950195312L103.54427408854166,71.62735489010811L103.58894856770834,68.54714405536652L103.6001171875,67.74573799967766L103.61128580729167,66.76735532283783L103.74530924479167,64.22506374120712L104.01335611979167,63.9717313349247L104.270234375,62.625284761190414L104.49360677083332,61.297960102558136L104.71697916666666,60.89442175626755L105.19722981770833,63.47706717252731L105.20839843750001,63.92544311285019L105.576962890625,68.55769407749176L105.73332356770834,69.19346478581429L106.67148763020835,76.32593911886215L107.28576171875,82.9405392408371L107.34160481770834,83.81052044034004L107.53147135416667,86.49180856347084L107.67666341145834,88.33423805236816L107.68783203125,89.27345377206802L107.97821614583333,82.63946798443794L108.00055338541667,81.89397704601288L108.01172200520833,81.07002031803131L108.06756510416668,79.14437752962112L108.123408203125,78.19804054498672L108.27976888020832,76.57056775689125L108.860537109375,71.27300602197647L109.40779947916667,68.58828914165497L109.41896809895833,68.25266656279564L109.47481119791667,68.20440021157265L109.72052083333332,67.87009638547897L110.52466145833333,66.93549630045891L111.03841796875,66.95369508862495L111.08309244791667,66.97558638453484L111.28412760416667,67.22984191775322L111.35113932291667,67.35551905632019L111.742041015625,68.17868453264236L112.18878580729167,69.6260156929493L112.19995442708333,70.18556249141693L112.52384440104167,64.62490957975388L112.57968749999999,63.257362961769104L112.64669921875,62.72353184223175L112.83656575520833,60.376547545194626L113.886416015625,57.505886524915674L114.14329427083334,58.66005894541738L114.154462890625,59.023507207632065L114.29965494791666,61.67354089021683L114.79107421875001,65.55753153562546L114.86925455729167,66.36592698097229L115.65105794270833,69.9690232872963L115.695732421875,70.48346874117851L115.96377929687499,72.16698852181435L116.33234374999999,74.861068546772L116.51104166666666,76.52704891562462L116.62272786458333,77.92492684721947L116.92428059895833,80.15098151564598L116.99129231770833,82.61151042580605L117.04713541666666,78.45031794905663L117.32635091145833,73.81569322943687L118.0746484375,70.29000771045685L118.27568359374999,69.43743404746056L118.38736979166666,69.07543641328812L118.845283203125,68.77739828824997L118.86762044270833,68.90109729766846L119.10216145833334,70.47858935594559L119.280859375,70.88964459300041L119.6829296875,74.64307871460915L119.76111002604166,76.28650841116905L119.77227864583334,76.85502272844315L119.79461588541668,77.42841643095016L119.83929036458333,78.00378826260567L119.89513346354165,79.08701178431511L120.39772135416666,80.92324313521385L120.79979166666666,85.85392785072327L120.90030924479167,86.57607686519623L121.458740234375,92.33507019281387L121.55925781250001,93.2112495303154L121.63743815104166,94.0791207253933L122.02833984374999,95.78677368164062L122.20703776041667,92.33309206366539L122.25171223958334,91.19250279664993L122.262880859375,90.82351577281952L122.30755533854166,90.46204563975334L122.39690429687501,88.83457285165787L122.56443359375,88.4363095164299L122.68728841145833,87.5209632217884L122.95533528645834,87.3127321600914L123.08935872395833,87.17716437578201L123.45792317708333,86.67788457870483L123.51376627604166,86.22489300370216L123.89349934895833,87.36693289875984L124.31790690104167,87.41361674666405L125.09971028645833,88.96684375405312L125.345419921875,91.74730208516121L125.60229817708334,92.23787811398506L126.10488606770832,97.39486080408096L126.45111328125,100.9664389193058L126.69682291666668,94.18791782855988L126.70799153645834,93.64511919021606L126.74149739583333,92.39006218314171L127.00954427083333,87.90603902935982L127.21057942708335,86.9421626329422L127.824853515625,85.51659089326859L128.28276692708334,80.36593821644783L128.29393554687502,79.79992952942848L128.33861002604166,78.68083593249321L128.69600585937502,76.87810090184212L129.031064453125,76.31538909673691L130.103251953125,73.61445155739784L130.14792643229165,73.3477997481823L130.15909505208333,73.37944981455803L130.52765950520833,74.16529458761215L130.538828125,74.40847259759903L130.59467122395833,74.58241608738899L130.73986328125,74.95285373926163L130.91856119791666,75.42061534523964L131.34296875,68.7297913134098L131.66685872395834,64.23943814635277L132.06892903645834,62.37867799401283L132.57151692708334,61.3926465511322L132.59385416666666,61.413350969552994L132.72787760416665,61.87662881612778L133.051767578125,62.79909637570381L133.185791015625,62.962621718645096L133.50968098958333,64.53866314888L133.56552408854168,65.64641547203064L133.91175130208333,66.33427691459656L134.1574609375,67.12434169650078L134.58186848958334,69.79244229197502L134.98393880208334,71.44800451397896L135.1067936197917,72.5430968105793L135.17380533854168,74.17254772782326L135.22964843749997,75.9922946691513L135.52003255208334,77.98585322499275L135.56470703125,79.39085242152214L135.72106770833332,75.13906162977219L135.7657421875,73.81305572390556L136.04495768229168,69.30951502919197L136.10080078125,68.99763000011444L136.435859375,68.6126860678196L137.26233723958333,66.8030935227871L137.36285481770832,67.53210005164146L137.88777994791667,68.48463517427444L137.9101171875,68.71990066766739L137.99946614583334,69.56522119045258L138.05530924479166,69.93117508292198L138.23400716145832,70.88463333249092L138.479716796875,71.36531871557236L138.63607747395835,71.85563099384308L139.35086914062498,74.65349686145782L139.384375,75.5869100689888L139.484892578125,77.1526652276516L139.67475911458334,78.84528440237045L139.83111979166665,80.516144156456L139.86462565104165,81.78597119450569L139.94280598958335,79.15624630451202L140.00981770833332,76.99705240130424L140.0768294270833,76.26316648721695L141.07083658854168,69.0858545601368L141.32771484375,67.56005761027336L141.43940104166666,67.30923083424568L141.45056966145833,67.36949783563614L141.48407552083336,67.51891252398491L141.52875,67.84569945931435L141.58459309895832,68.11802190542221L141.64043619791667,68.73414319753647L141.796796875,69.2550505399704L142.08718098958335,70.14402177929878L142.098349609375,70.52210819721222L142.31055338541668,72.09195148944855L142.835478515625,73.49629130959511L142.98067057291667,74.08313629031181L143.75130533854167,77.10624513030052L143.79597981770834,78.0277895629406L143.8294856770833,78.5242999792099L144.03052083333333,80.18395033478737L144.23155598958334,81.36014592647552L144.43259114583336,84.1027560532093L144.510771484375,83.03351131081581L144.57778320312502,81.56521198153496L144.75648111979166,80.40352267026901L144.77881835937498,79.91255101561546L145.08037109375,77.84092229604721L145.11387695312501,77.3536431491375L145.59412760416666,76.94680792093277L145.73931966145832,76.66485857963562L145.92918619791666,76.23454955220222L145.97386067708334,76.24615457654L146.119052734375,76.38633799552917L146.16372721354165,76.53957706689835L146.2195703125,76.60683345794678L146.30891927083331,76.81466889381409L146.53229166666665,77.83630666136742L146.83384440104166,77.97517132759094L147.124228515625,79.21862331032753L147.18007161458334,79.30961725115776L147.62681640625,80.22971105575562L147.80551432291668,80.81207227706909L147.88369466145835,81.34458464384079L148.0958984375,82.53106650710106L148.96705078124998,86.95178952813148L149.11224283854165,88.08855441212654L149.2574348958333,89.30114758014679L149.268603515625,89.90157571434975L149.3467838541667,88.06138810515404L149.63716796875002,86.91222694516182L149.670673828125,86.45171847939491L149.68184244791667,85.97525310516357L149.838203125,84.36742973327637L150.08391276041667,84.1230648458004L150.49715169270831,84.25770950317383L151.05558268229169,83.70449271798134L151.17843749999997,84.28289768099785L151.24544921875,84.44879677891731L151.49115885416668,84.60955274105072L151.64751953125,84.8094756603241L151.66985677083332,84.93475717306137L151.77037434895834,85.07414934039116L151.80388020833334,85.14114198088646L151.949072265625,85.28198477625847L151.96024088541665,85.29609543085098L152.016083984375,85.30506294965744L152.18361328125,85.41953068971634L152.25062499999999,85.4403669834137L152.70853841145833,85.83520156145096L152.85373046875,86.02813509106636L153.03242838541667,86.50855672359467L153.14411458333333,87.19575878977776L153.52384765624998,88.42879262566566L153.9929296875,89.41983532905579L154.14929036458332,86.8043529689312L154.20513346354167,85.33829551935196L154.58486653645835,83.63974195718765L154.964599609375,83.01689502596855L155.4671875,82.49704268574715L155.48952473958332,82.42991816997528L155.52303059895834,82.37083804607391L155.75757161458333,82.3482873737812L155.81341471354168,82.66861242055893L155.82458333333335,82.73468193411827L155.8692578125,82.81262022256851L156.36067708333334,83.17382660508156L156.45002604166666,83.44694030284882L156.58404947916665,83.68405205011368L156.706904296875,84.06464409828186L157.03079427083333,85.00320044159889L157.49987630208335,86.8789943754673L157.52221354166667,87.13153553009033L157.56688802083332,87.4076823592186L157.58922526041667,87.76374560594559L158.13648763020834,91.1849859058857L158.449208984375,90.97504046559334L158.66141276041665,87.65297037363052L158.95179687499999,84.16500118374825L158.97413411458334,83.8738205730915L159.21984375,82.6243023276329L159.96814127604168,80.57957616448402L160.18034505208334,80.8350185751915L160.29203124999998,81.11472603678703L160.392548828125,81.30278018116951L160.43722330729165,81.53026503324509L160.50423502604167,81.70025226473808L160.85046223958332,83.2942287325859L161.02916015625001,83.59991562366486L161.15201497395833,83.84546738862991L161.71044596354167,84.24610447883606L162.39173177083333,87.48707127571106L162.78263346354166,91.18445840477943L162.79380208333333,91.70958575606346L163.006005859375,93.1086505651474L163.12886067708334,89.264354377985L163.38573893229167,85.69791939854622L163.74313476562497,83.66347950696945L163.83248372395835,83.19044288992882L163.91066406250002,82.79336643218994L164.05585611979168,82.45101821422577L164.11169921874998,81.56956386566162L164.58078125,80.08913201093674L165.29557291666669,75.0582220852375L165.36258463541668,74.1919333934784L165.921015625,72.61101257801056L165.93218424479167,72.27736812829971L166.78099934895835,70.33088904619217L166.85917968750002,70.22987258434296L166.93736002604166,70.52606445550919L166.993203125,70.60281586647034L167.00437174479168,70.60202461481094L167.428779296875,69.00026750564575L167.57397135416667,68.42529129981995L167.59630859375,67.25779947638512L167.60747721354167,66.62598502635956L167.629814453125,65.58601659536362L167.70799479166666,64.13934481143951L167.79734375,63.3408400118351L168.14357096354166,62.85896775126457L168.24408854166668,62.517015159130096L168.45629231770835,62.09540989995003L168.769013671875,61.6020644903183L169.24926432291664,60.355843126773834L169.33861328125002,60.051343113183975L169.65133463541667,59.274333983659744L169.673671875,59.14852496981621L169.71834635416667,58.83940932154653L169.81886393229166,58.662300825119L170.53365559895835,58.25348746776579L170.56716145833332,58.237794309854486L170.846376953125,58.28896191716192L171.27078450520833,57.97153812646864L171.4606510416667,57.53687721490858L171.59467447916666,57.59041857719419L172.052587890625,58.143239736556986L172.14193684895835,58.00912258028982L172.17544270833332,56.154560565948465L172.30946614583334,55.60160753130911L172.320634765625,55.049050122499445L172.33180338541666,54.47855767607687L172.36530924479166,53.51309877634046L172.454658203125,52.2745261788368L173.06893229166667,50.928475230932214L173.2364615885417,50.69835287332533L173.47100260416667,49.85804361104963L173.8283984375,49.03303188085554L174.062939453125,49.24891170859335L174.27514322916667,49.442240864038446L174.599033203125,49.31458559632299L174.6325390625,49.37986385822294L174.68838216145832,49.395161390304544L175.21330729166667,49.51081600785253L175.25798177083334,49.464791536331155L175.35849934895833,49.4914303421974L175.805244140625,50.626348972320535L176.274326171875,51.3833130598068L176.408349609375,52.31962752342222L176.41951822916667,52.6332269310951L176.65405924479165,53.91676899790762L177.00028645833333,56.31769028306005L177.26833333333335,51.495011419057825L177.52521158854165,50.66683468222616L177.5810546875,50.39741349220274L178.29584635416668,49.53191605210302L178.820771484375,49.448834627866724L178.99946940104167,49.020371854305246L179.1893359375,49.45991215109823L179.31219075520832,50.018931448459604L179.77010416666667,50.69505599141119L179.84828450520834,51.47351574897764L180.831123046875,55.47856789827345L181.32254231770835,59.354646027088165L181.3337109375,59.80275821685791L181.6017578125,60.247309774160385L181.78045572916668,61.67855215072632L181.88097330729167,60.15605208277702L182.07083984375,57.049861818551996L182.09317708333333,56.63827908039091L182.11551432291668,56.29434835910795L182.1378515625,55.85414868593214L182.16018880208333,55.457599729299524L182.20486328125,55.088480830192545L182.24953776041664,54.56941974163053L182.93082356770833,51.123518764972665L184.17054036458333,44.9565033316612L184.181708984375,44.907841354608514L184.22638346354165,44.93368890881536L184.66195963541665,44.0262551307678L185.56661783854165,44.98274651169775L185.6224609375,45.47134441137312L185.73414713541666,46.5375560224056L186.16972330729166,49.410854548215845L186.24790364583333,48.7142893373966L186.28140950520833,47.02496704459188L186.37075846354165,46.01849493384359L186.38192708333335,45.49890634417532L186.43777018229164,44.83333182334898L187.52112630208333,40.74849513173101L187.64398111979168,40.59209105372427L187.74449869791667,41.026751965284326L187.8450162760417,41.49029356241224L188.66032552083334,43.44020140171049L188.68266276041666,43.730590760707834L189.36394856770832,45.54981020092962L189.5538151041667,46.2577166855335L189.62082682291668,46.602702409028986L190.12341471354165,48.608920991420725L190.34678710937501,49.741993367671945L190.35795572916666,50.15463110804556L190.748857421875,52.344683825969675L190.90521809895833,53.3154177367687L190.92755533854165,54.33969300985334L191.07274739583332,52.51862731575964L191.08391601562502,52.01011624932287L191.24027669270833,48.68435364961622L191.37430013020835,46.537160396575906L191.485986328125,45.82028639316557L191.50832356770832,45.408571779727914L191.53066080729167,45.088114857673624L192.64752278645832,42.3981229662895L192.93790690104169,41.633378237485864L193.261796875,41.42712530493734L194.44567057291667,40.26952412724493L194.79189778645832,40.751396387815454L194.82540364583332,41.102975875139215L194.84774088541667,41.28377687931059L195.03760742187498,41.83119115233419L195.46201497395833,40.01104858517645L195.58486979166668,37.84710717201231L195.85291666666666,36.797379970550516L196.38901041666668,35.78062158823011L196.70173177083333,35.533882945775964L196.81341796875,35.141949623823145L196.83575520833332,34.81991019845007L196.980947265625,34.40397557616232L197.19315104166668,33.57223820686338L197.22665690104165,33.37904092669485L197.34951171875,32.87237611413L197.37184895833332,32.762524008750894L197.383017578125,32.560622960329034L197.77391927083335,31.548084586858728L197.81859375,31.305961579084375L197.85209960937502,31.05592605471609L197.87443684895834,30.94712895154951L198.187158203125,30.936315178871133L198.4887109375,30.878817558288553L198.55572265625,30.886993825435617L198.56689127604164,30.84690374135969L198.589228515625,30.738502264022806L199.06947916666667,30.34261268377302L199.23700846354168,30.416858464479425L199.27051432291665,30.769097328186014L199.694921875,31.98683363199232L199.75076497395835,30.283796310424783L199.795439453125,29.350778728723505L199.85128255208335,28.41907989978788L199.88478841145832,27.816278010606744L199.90712565104167,27.282315015792825L200.197509765625,25.401509821414926L200.64425455729167,24.54221051931379L200.7782779947917,23.878877878189066L201.19151692708334,23.28636226058004L201.32554036458333,23.276207864284494L201.403720703125,23.756365746259668L201.6605989583333,24.3044393956661L201.79462239583333,25.26501891016958L202.207861328125,26.4612595438957L202.45357096354167,26.87693041563032L202.71044921875,27.730954706668832L203.28004882812502,29.350778728723505L203.39173502604166,30.241728097200372L203.45874674479165,30.552689999341943L203.78263671874998,32.43178081512449L203.7938053385417,32.78639343380926L203.816142578125,32.166315883398035L203.883154296875,31.127138704061487L203.96133463541668,29.771197110414484L204.01717773437503,28.170231252908685L204.10652669270834,27.878786891698816L204.1623697916667,27.768011659383752L204.22938151041666,27.38530960679052L204.97767903645834,26.37197998166082L205.50260416666669,25.23416009545324L205.67013346354167,25.012214004993417L206.11687825520832,25.051380962133386L206.13921549479164,25.112834841012933L206.31791341145833,25.390564173459985L206.34025065104166,25.342034071683862L206.60829752604167,25.339792191982248L206.61946614583334,25.422346115112283L206.90985026041668,25.971606642007806L207.02153645833332,26.39875066280363L208.49579427083336,27.101118385791757L208.52930013020833,26.245379716157892L208.55163736979165,25.844742625951746L208.76384114583334,25.407707959413507L209.23292317708334,24.740946561098077L209.26642903645833,24.64810636639593L209.48980143229167,24.570299953222253L209.64616210937498,24.56832182407377L209.99238932291667,23.88441663980482L210.0147265625,23.869382858276346L210.05940104166666,23.83694154024122L210.56198893229168,24.842622399330118L210.718349609375,26.05956745147703L210.77419270833335,26.29760232567785L211.321455078125,27.61094820499418L211.53365885416667,28.08886420726774L211.75703125,28.62427783012388L211.94689778645835,29.246069759130457L212.4271484375,30.68944466114042L212.68402669270836,31.869860261678674L212.95207356770834,33.396316587924936L213.28713216145835,33.40383347868917L213.29830078125,32.97734883427618L213.32063802083331,32.55099606513975L213.39881835937499,30.773185461759546L213.71153971354167,28.318722814321497L214.23646484375,27.41498154401777L214.41516276041668,27.190793573856332L214.44866861979168,27.092810243368127L214.45983723958335,26.994826912879923L214.672041015625,26.529966562986353L214.78372721354165,26.81165215373037L215.21930338541665,27.65367579460142L215.29748372395832,27.99430963397024L215.63254231770836,28.306326538324335L215.68838541666665,28.355252265930154L216.05694986979165,28.608189046382883L216.21331054687502,29.10430383682249L216.3585026041667,29.394693195819833L216.883427734375,30.334832042455652L217.14030598958334,31.157206267118433L217.17381184895834,31.746556878089883L217.352509765625,32.43230831623075L217.49770182291667,33.17674425244329L217.55354492187502,33.32035642862318L217.58705078124999,32.35291939973829L217.74341145833333,31.090477377176263L217.821591796875,30.188582360744455L217.87743489583332,29.884477972984293L218.16781901041665,28.586165875196436L218.826767578125,27.75086787343023L218.98312825520833,27.6123988330364L219.18416341145834,27.268468111753442L219.34052408854166,26.646016806364038L219.70908854166666,26.361825585365274L219.74259440104169,26.53510969877241L219.77610026041665,26.777364581823328L219.92129231770832,26.889854192733743L220.08882161458334,27.184859186410883L220.72543294270832,27.490414202213266L221.08282877604168,28.046664118766763L221.09399739583333,28.12262427806852L221.20568359375002,28.441894322633722L221.239189453125,28.661202907562235L221.59658528645835,29.55188852548597L221.60775390625,29.729128897190073L221.641259765625,28.671225428581216L221.842294921875,27.12235030531881L221.9428125,26.323318004608133L222.3448828125,25.097405433654764L222.713447265625,24.500801682472208L222.93681966145834,23.68660372495649L223.26070963541665,22.86211949586866L223.32772135416667,22.765323042869547L223.39473307291667,22.623293370008447L223.41707031250002,22.621974617242792L223.819140625,22.680922865867593L223.8414778645833,22.749366134405115L223.91965820312498,22.9561465680599L224.120693359375,23.10529750585554L224.13186197916664,23.18112578988073L224.46692057291668,23.220424622297266L224.857822265625,23.836545914411523L225.38274739583332,25.32990154623983L225.74014322916665,26.659468084573724L225.88533528645831,27.261610597372034L225.89650390625,27.57507812976835L225.97468424479166,27.215586125850656L226.01935872395833,26.778023958206155L226.20922526041667,25.29851523041723L226.27623697916667,24.666041404008844L226.4214290364583,22.555377602577188L226.44376627604169,22.16186177730558L226.6336328125,21.526091068983057L227.15855794270834,20.594524115324L227.63880859374999,19.169348001480063L227.78400065104165,19.25005567073818L227.82867513020835,19.31032267212864L227.92919270833335,19.512883096933326L228.19723958333336,19.55574256181713L228.30892578125,19.74537920951841L228.34243164062502,19.83465877175329L228.87852539062501,19.793249934911707L228.90086263020834,19.767798006534555L229.11306640625,19.90639892220495L230.017724609375,21.0990789234638L230.24109700520833,22.00888645648954L230.3862890625,22.619732737541177L230.419794921875,23.283592879772165L230.49797526041667,21.850767999887445L230.67667317708333,20.681034296751L230.90004557291667,18.576964259147605L231.34679036458334,17.01529723405834L231.52548828125,16.466432332992515L232.30729166666669,15.582472354173621L232.34079752604165,15.456927090883216L232.57533854166667,15.66700440645214L233.05558919270834,16.670311510562858L234.63036458333332,22.64307466149328L234.641533203125,22.934387147426584L234.85373697916665,23.463602632284143L235.01009765625,24.384092062711694L235.03243489583335,24.95643076300619L235.63554036458333,20.079683035612085L236.08228515625,19.751709222793558L236.52902994791665,19.776765525341013L236.54019856770833,19.841911911964395L236.59604166666668,19.899673283100107L236.67422200520832,20.0937936902046L236.75240234375,20.430339395999887L236.85291992187499,20.704639971256235L236.99811197916665,20.863549679517725L237.27732747395834,21.017052501440027L237.43368815104165,22.22595316171644L237.52303710937503,22.60153394937513L237.71290364583334,22.708352923393228L238.025625,23.17136701941488L238.40535807291667,24.191949784755685L238.91911458333334,26.086074382066705L239.198330078125,27.175232291221597L239.3546907552083,27.73728471994398L239.37702799479166,28.27678647637365L239.38819661458334,28.57798960804937L239.70091796875,26.195267111062982L239.75676106770834,25.61541152000425L239.8126041666667,25.54841887950895L239.86844726562498,25.50542753934858L240.10298828125002,25.302867114543893L240.85128580729167,25.139209896326044L240.90712890625002,25.22914883494375L240.91829752604167,25.29139396548269L241.10816406249998,25.501471281051614L241.208681640625,25.335704058408716L241.30919921875,25.220313191413858L241.86763020833334,25.20725753903387L241.96814778645833,25.429203629493692L242.02399088541668,25.58020082116125L243.34188802083335,25.25169950723646L243.64344075520833,25.45386430621145L243.72162109375,25.74056115746496L244.13486002604168,25.27332705259321L244.3247265625,23.593631654977777L244.46991861979166,22.72457358241079L244.693291015625,22.124936699867227L245.17354166666667,21.993325173854807L245.64262369791666,21.522794187068918L245.698466796875,21.410568326711633" style="fill: none;" fill="none"></path></g></g></g></g></g></g><g transform="translate(61, 177)" clip-path="url(#clip_1)"><clipPath id="clip_1"><rect width="268" height="22"></rect></clipPath><g><g><line x1="0" y1="0" x2="0" y2="5" style="visibility: inherit;" fill="rgb(0, 0, 0)" stroke="rgb(200, 195, 188)" stroke-width="1px"></line><line x1="22.337239583333332" y1="0" x2="22.337239583333332" y2="5" style="visibility: inherit;" fill="rgb(0, 0, 0)" stroke="rgb(200, 195, 188)" stroke-width="1px"></line><line x1="44.674479166666664" y1="0" x2="44.674479166666664" y2="5" style="visibility: inherit;" fill="rgb(0, 0, 0)" stroke="rgb(200, 195, 188)" stroke-width="1px"></line><line x1="67.01171875" y1="0" x2="67.01171875" y2="5" style="visibility: inherit;" fill="rgb(0, 0, 0)" stroke="rgb(200, 195, 188)" stroke-width="1px"></line><line x1="89.34895833333333" y1="0" x2="89.34895833333333" y2="5" style="visibility: inherit;" fill="rgb(0, 0, 0)" stroke="rgb(200, 195, 188)" stroke-width="1px"></line><line x1="111.68619791666667" y1="0" x2="111.68619791666667" y2="5" style="visibility: inherit;" fill="rgb(0, 0, 0)" stroke="rgb(200, 195, 188)" stroke-width="1px"></line><line x1="134.0234375" y1="0" x2="134.0234375" y2="5" style="visibility: inherit;" fill="rgb(0, 0, 0)" stroke="rgb(200, 195, 188)" stroke-width="1px"></line><line x1="156.36067708333334" y1="0" x2="156.36067708333334" y2="5" style="visibility: inherit;" fill="rgb(0, 0, 0)" stroke="rgb(200, 195, 188)" stroke-width="1px"></line><line x1="178.69791666666666" y1="0" x2="178.69791666666666" y2="5" style="visibility: inherit;" fill="rgb(0, 0, 0)" stroke="rgb(200, 195, 188)" stroke-width="1px"></line><line x1="201.03515625" y1="0" x2="201.03515625" y2="5" style="visibility: inherit;" fill="rgb(0, 0, 0)" stroke="rgb(200, 195, 188)" stroke-width="1px"></line><line x1="223.37239583333334" y1="0" x2="223.37239583333334" y2="5" style="visibility: inherit;" fill="rgb(0, 0, 0)" stroke="rgb(200, 195, 188)" stroke-width="1px"></line><line x1="245.70963541666666" y1="0" x2="245.70963541666666" y2="5" style="visibility: inherit;" fill="rgb(0, 0, 0)" stroke="rgb(200, 195, 188)" stroke-width="1px"></line><line x1="268.046875" y1="0" x2="268.046875" y2="5" style="visibility: inherit;" fill="rgb(0, 0, 0)" stroke="rgb(200, 195, 188)" stroke-width="1px"></line></g><g transform="translate(0, 8)"><text x="0" y="0" dx="0em" dy="0.95em" style="text-anchor: middle; visibility: hidden; font-family: Roboto, sans-serif; font-size: 12px; font-weight: 200;" fill="rgb(232, 230, 227)" stroke="none" stroke-width="1px">-2k</text><text x="22.337239583333332" y="0" dx="0em" dy="0.95em" style="text-anchor: middle; visibility: inherit; font-family: Roboto, sans-serif; font-size: 12px; font-weight: 200;" fill="rgb(232, 230, 227)" stroke="none" stroke-width="1px">0</text><text x="44.674479166666664" y="0" dx="0em" dy="0.95em" style="text-anchor: middle; visibility: hidden; font-family: Roboto, sans-serif; font-size: 12px; font-weight: 200;" fill="rgb(232, 230, 227)" stroke="none" stroke-width="1px">2k</text><text x="67.01171875" y="0" dx="0em" dy="0.95em" style="text-anchor: middle; visibility: inherit; font-family: Roboto, sans-serif; font-size: 12px; font-weight: 200;" fill="rgb(232, 230, 227)" stroke="none" stroke-width="1px">4k</text><text x="89.34895833333333" y="0" dx="0em" dy="0.95em" style="text-anchor: middle; visibility: hidden; font-family: Roboto, sans-serif; font-size: 12px; font-weight: 200;" fill="rgb(232, 230, 227)" stroke="none" stroke-width="1px">6k</text><text x="111.68619791666667" y="0" dx="0em" dy="0.95em" style="text-anchor: middle; visibility: inherit; font-family: Roboto, sans-serif; font-size: 12px; font-weight: 200;" fill="rgb(232, 230, 227)" stroke="none" stroke-width="1px">8k</text><text x="134.0234375" y="0" dx="0em" dy="0.95em" style="text-anchor: middle; visibility: hidden; font-family: Roboto, sans-serif; font-size: 12px; font-weight: 200;" fill="rgb(232, 230, 227)" stroke="none" stroke-width="1px">10k</text><text x="156.36067708333334" y="0" dx="0em" dy="0.95em" style="text-anchor: middle; visibility: inherit; font-family: Roboto, sans-serif; font-size: 12px; font-weight: 200;" fill="rgb(232, 230, 227)" stroke="none" stroke-width="1px">12k</text><text x="178.69791666666666" y="0" dx="0em" dy="0.95em" style="text-anchor: middle; visibility: hidden; font-family: Roboto, sans-serif; font-size: 12px; font-weight: 200;" fill="rgb(232, 230, 227)" stroke="none" stroke-width="1px">14k</text><text x="201.03515625" y="0" dx="0em" dy="0.95em" style="text-anchor: middle; visibility: inherit; font-family: Roboto, sans-serif; font-size: 12px; font-weight: 200;" fill="rgb(232, 230, 227)" stroke="none" stroke-width="1px">16k</text><text x="223.37239583333334" y="0" dx="0em" dy="0.95em" style="text-anchor: middle; visibility: hidden; font-family: Roboto, sans-serif; font-size: 12px; font-weight: 200;" fill="rgb(232, 230, 227)" stroke="none" stroke-width="1px">18k</text><text x="245.70963541666666" y="0" dx="0em" dy="0.95em" style="text-anchor: middle; visibility: inherit; font-family: Roboto, sans-serif; font-size: 12px; font-weight: 200;" fill="rgb(232, 230, 227)" stroke="none" stroke-width="1px">20k</text><text x="268.046875" y="0" dx="0em" dy="0.95em" style="text-anchor: middle; visibility: hidden; font-family: Roboto, sans-serif; font-size: 12px; font-weight: 200;" fill="rgb(232, 230, 227)" stroke="none" stroke-width="1px">22k</text></g><line x1="0" y1="0" x2="268.046875" y2="0" fill="rgb(0, 0, 0)" stroke="rgb(200, 195, 188)" stroke-width="1px"></line></g></g></g></g></svg>