<svg viewBox="0 0 330 200" xmlns="http://www.w3.org/2000/svg"><g><g><g><g><g><line x1="40" y1="177" x2="35" y2="177" style="visibility: inherit;" fill="rgb(0, 0, 0)" stroke="rgb(200, 195, 188)" stroke-width="1px"></line><line x1="40" y1="160.90909090909082" x2="35" y2="160.90909090909082" style="visibility: inherit;" fill="rgb(0, 0, 0)" stroke="rgb(200, 195, 188)" stroke-width="1px"></line><line x1="40" y1="144.81818181818176" x2="35" y2="144.81818181818176" style="visibility: inherit;" fill="rgb(0, 0, 0)" stroke="rgb(200, 195, 188)" stroke-width="1px"></line><line x1="40" y1="128.7272727272726" x2="35" y2="128.7272727272726" style="visibility: inherit;" fill="rgb(0, 0, 0)" stroke="rgb(200, 195, 188)" stroke-width="1px"></line><line x1="40" y1="112.63636363636355" x2="35" y2="112.63636363636355" style="visibility: inherit;" fill="rgb(0, 0, 0)" stroke="rgb(200, 195, 188)" stroke-width="1px"></line><line x1="40" y1="96.54545454545452" x2="35" y2="96.54545454545452" style="visibility: inherit;" fill="rgb(0, 0, 0)" stroke="rgb(200, 195, 188)" stroke-width="1px"></line><line x1="40" y1="80.45454545454534" x2="35" y2="80.45454545454534" style="visibility: inherit;" fill="rgb(0, 0, 0)" stroke="rgb(200, 195, 188)" stroke-width="1px"></line><line x1="40" y1="64.3636363636363" x2="35" y2="64.3636363636363" style="visibility: inherit;" fill="rgb(0, 0, 0)" stroke="rgb(200, 195, 188)" stroke-width="1px"></line><line x1="40" y1="48.27272727272711" x2="35" y2="48.27272727272711" style="visibility: inherit;" fill="rgb(0, 0, 0)" stroke="rgb(200, 195, 188)" stroke-width="1px"></line><line x1="40" y1="32.18181818181807" x2="35" y2="32.18181818181807" style="visibility: inherit;" fill="rgb(0, 0, 0)" stroke="rgb(200, 195, 188)" stroke-width="1px"></line><line x1="40" y1="16.090909090909037" x2="35" y2="16.090909090909037" style="visibility: inherit;" fill="rgb(0, 0, 0)" stroke="rgb(200, 195, 188)" stroke-width="1px"></line><line x1="40" y1="0" x2="35" y2="0" style="visibility: inherit;" fill="rgb(0, 0, 0)" stroke="rgb(200, 195, 188)" stroke-width="1px"></line></g><g transform="translate(30, 0)"><text x="0" y="177" dx="0em" dy="0.3em" style="text-anchor: end; visibility: hidden; font-family: Roboto, sans-serif; font-size: 12px; font-weight: 200;" fill="rgb(232, 230, 227)" stroke="none" stroke-width="1px">7.1</text><text x="0" y="160.90909090909082" dx="0em" dy="0.3em" style="text-anchor: end; visibility: inherit; font-family: Roboto, sans-serif; font-size: 12px; font-weight: 200;" fill="rgb(232, 230, 227)" stroke="none" stroke-width="1px">7.2</text><text x="0" y="144.81818181818176" dx="0em" dy="0.3em" style="text-anchor: end; visibility: hidden; font-family: Roboto, sans-serif; font-size: 12px; font-weight: 200;" fill="rgb(232, 230, 227)" stroke="none" stroke-width="1px">7.3</text><text x="0" y="128.7272727272726" dx="0em" dy="0.3em" style="text-anchor: end; visibility: inherit; font-family: Roboto, sans-serif; font-size: 12px; font-weight: 200;" fill="rgb(232, 230, 227)" stroke="none" stroke-width="1px">7.4</text><text x="0" y="112.63636363636355" dx="0em" dy="0.3em" style="text-anchor: end; visibility: hidden; font-family: Roboto, sans-serif; font-size: 12px; font-weight: 200;" fill="rgb(232, 230, 227)" stroke="none" stroke-width="1px">7.5</text><text x="0" y="96.54545454545452" dx="0em" dy="0.3em" style="text-anchor: end; visibility: inherit; font-family: Roboto, sans-serif; font-size: 12px; font-weight: 200;" fill="rgb(232, 230, 227)" stroke="none" stroke-width="1px">7.6</text><text x="0" y="80.45454545454534" dx="0em" dy="0.3em" style="text-anchor: end; visibility: hidden; font-family: Roboto, sans-serif; font-size: 12px; font-weight: 200;" fill="rgb(232, 230, 227)" stroke="none" stroke-width="1px">7.7</text><text x="0" y="64.3636363636363" dx="0em" dy="0.3em" style="text-anchor: end; visibility: inherit; font-family: Roboto, sans-serif; font-size: 12px; font-weight: 200;" fill="rgb(232, 230, 227)" stroke="none" stroke-width="1px">7.8</text><text x="0" y="48.27272727272711" dx="0em" dy="0.3em" style="text-anchor: end; visibility: hidden; font-family: Roboto, sans-serif; font-size: 12px; font-weight: 200;" fill="rgb(232, 230, 227)" stroke="none" stroke-width="1px">7.9</text><text x="0" y="32.18181818181807" dx="0em" dy="0.3em" style="text-anchor: end; visibility: inherit; font-family: Roboto, sans-serif; font-size: 12px; font-weight: 200;" fill="rgb(232, 230, 227)" stroke="none" stroke-width="1px">8</text><text x="0" y="16.090909090909037" dx="0em" dy="0.3em" style="text-anchor: end; visibility: hidden; font-family: Roboto, sans-serif; font-size: 12px; font-weight: 200;" fill="rgb(232, 230, 227)" stroke="none" stroke-width="1px">8.1</text><text x="0" y="0" dx="0em" dy="0.3em" style="text-anchor: end; visibility: hidden; font-family: Roboto, sans-serif; font-size: 12px; font-weight: 200;" fill="rgb(232, 230, 227)" stroke="none" stroke-width="1px">8.2</text></g><line x1="40" y1="0" x2="40" y2="177" fill="rgb(0, 0, 0)" stroke="rgb(200, 195, 188)" stroke-width="1px"></line></g></g><g transform="translate(40, 0)" clip-path="url(#clip_0)"><clipPath id="clip_0"><rect width="290" height="176"></rect></clipPath><g><g><g><line x1="0" y1="0" x2="0" y2="177" fill="rgb(0, 0, 0)" stroke="rgb(194, 189, 181)" stroke-width="1px" opacity="0.25"></line><line x1="24.166666666666664" y1="0" x2="24.166666666666664" y2="177" fill="rgb(0, 0, 0)" stroke="rgb(194, 189, 181)" stroke-width="1px" opacity="0.25"></line><line x1="48.33333333333333" y1="0" x2="48.33333333333333" y2="177" fill="rgb(0, 0, 0)" stroke="rgb(194, 189, 181)" stroke-width="1px" opacity="0.25"></line><line x1="72.5" y1="0" x2="72.5" y2="177" fill="rgb(0, 0, 0)" stroke="rgb(194, 189, 181)" stroke-width="1px" opacity="0.25"></line><line x1="96.66666666666666" y1="0" x2="96.66666666666666" y2="177" fill="rgb(0, 0, 0)" stroke="rgb(194, 189, 181)" stroke-width="1px" opacity="0.25"></line><line x1="120.83333333333334" y1="0" x2="120.83333333333334" y2="177" fill="rgb(0, 0, 0)" stroke="rgb(194, 189, 181)" stroke-width="1px" opacity="0.25"></line><line x1="145" y1="0" x2="145" y2="177" fill="rgb(0, 0, 0)" stroke="rgb(194, 189, 181)" stroke-width="1px" opacity="0.25"></line><line x1="169.16666666666669" y1="0" x2="169.16666666666669" y2="177" fill="rgb(0, 0, 0)" stroke="rgb(194, 189, 181)" stroke-width="1px" opacity="0.25"></line><line x1="193.33333333333331" y1="0" x2="193.33333333333331" y2="177" fill="rgb(0, 0, 0)" stroke="rgb(194, 189, 181)" stroke-width="1px" opacity="0.25"></line><line x1="217.5" y1="0" x2="217.5" y2="177" fill="rgb(0, 0, 0)" stroke="rgb(194, 189, 181)" stroke-width="1px" opacity="0.25"></line><line x1="241.66666666666669" y1="0" x2="241.66666666666669" y2="177" fill="rgb(0, 0, 0)" stroke="rgb(194, 189, 181)" stroke-width="1px" opacity="0.25"></line><line x1="265.8333333333333" y1="0" x2="265.8333333333333" y2="177" fill="rgb(0, 0, 0)" stroke="rgb(194, 189, 181)" stroke-width="1px" opacity="0.25"></line><line x1="290" y1="0" x2="290" y2="177" fill="rgb(0, 0, 0)" stroke="rgb(194, 189, 181)" stroke-width="1px" opacity="0.25"></line></g><g><line x1="0" y1="177" x2="290" y2="177" fill="rgb(0, 0, 0)" stroke="rgb(194, 189, 181)" stroke-width="1px" opacity="0.25"></line><line x1="0" y1="160.90909090909082" x2="290" y2="160.90909090909082" fill="rgb(0, 0, 0)" stroke="rgb(194, 189, 181)" stroke-width="1px" opacity="0.25"></line><line x1="0" y1="144.81818181818176" x2="290" y2="144.81818181818176" fill="rgb(0, 0, 0)" stroke="rgb(194, 189, 181)" stroke-width="1px" opacity="0.25"></line><line x1="0" y1="128.7272727272726" x2="290" y2="128.7272727272726" fill="rgb(0, 0, 0)" stroke="rgb(194, 189, 181)" stroke-width="1px" opacity="0.25"></line><line x1="0" y1="112.63636363636355" x2="290" y2="112.63636363636355" fill="rgb(0, 0, 0)" stroke="rgb(194, 189, 181)" stroke-width="1px" opacity="0.25"></line><line x1="0" y1="96.54545454545452" x2="290" y2="96.54545454545452" fill="rgb(0, 0, 0)" stroke="rgb(194, 189, 181)" stroke-width="1px" opacity="0.25"></line><line x1="0" y1="80.45454545454534" x2="290" y2="80.45454545454534" fill="rgb(0, 0, 0)" stroke="rgb(194, 189, 181)" stroke-width="1px" opacity="0.25"></line><line x1="0" y1="64.3636363636363" x2="290" y2="64.3636363636363" fill="rgb(0, 0, 0)" stroke="rgb(194, 189, 181)" stroke-width="1px" opacity="0.25"></line><line x1="0" y1="48.27272727272711" x2="290" y2="48.27272727272711" fill="rgb(0, 0, 0)" stroke="rgb(194, 189, 181)" stroke-width="1px" opacity="0.25"></line><line x1="0" y1="32.18181818181807" x2="290" y2="32.18181818181807" fill="rgb(0, 0, 0)" stroke="rgb(194, 189, 181)" stroke-width="1px" opacity="0.25"></line><line x1="0" y1="16.090909090909037" x2="290" y2="16.090909090909037" fill="rgb(0, 0, 0)" stroke="rgb(194, 189, 181)" stroke-width="1px" opacity="0.25"></line><line x1="0" y1="0" x2="290" y2="0" fill="rgb(0, 0, 0)" stroke="rgb(194, 189, 181)" stroke-width="1px" opacity="0.25"></line></g></g></g><g><g><line x1="0" y1="1319.4545454545457" x2="290" y2="1319.4545454545457" fill="rgb(0, 0, 0)" stroke="rgb(168, 160, 149)" stroke-width="1.5px"></line></g></g><g><g><line x1="24.166666666666664" y1="0" x2="24.166666666666664" y2="177" fill="rgb(0, 0, 0)" stroke="rgb(168, 160, 149)" stroke-width="1.5px"></line></g></g><g><g><g><g><g><path stroke="rgb(0, 119, 187)" stroke-width="2px" d="M26.28125,-0.9804121427867953L26.61958333333333,10.007094002754204L26.71625,9.387903995262828L26.76458333333333,21.523184430062727L26.825,31.35616907635685L27.392916666666668,50.265822703910125L27.44125,63.130664620358935L27.598333333333333,67.6415137626734L28.649583333333332,81.92476550837819L28.987916666666667,80.56737184989329L29.048333333333332,86.32510120505434L29.193333333333335,89.31115296786388L29.2175,86.55027399843553L29.302083333333332,94.11125400407047L29.483333333333334,83.69578766611579L29.676666666666666,57.03077463317136L30.329166666666666,56.534072874438415L30.534583333333334,70.42508097515787L30.679583333333333,80.80249533707773L30.884999999999998,89.67761090904722L30.99375,92.55919040188783L31.585833333333333,94.80199815436298L31.670416666666668,91.05271923666494L31.86375,93.07052419662394L32.419583333333335,101.69214318930015L32.68541666666666,108.48758796929226L32.8425,107.0282474630339L33.2775,109.5994505486763L33.65208333333334,113.41646446585837L33.68833333333333,116.13590918683488L33.7125,119.61598857146718L34.135416666666664,124.22917045402521L34.15958333333334,126.69125782236857L34.28041666666667,121.98515037624617L34.8,118.75229251767747L34.88458333333333,118.38667586811636L35.525,118.93145093921181L35.57333333333333,119.09210153142746L35.60958333333333,121.27899884786964L35.73041666666667,116.4270062607703L35.7425,113.36918975678468L35.97208333333333,106.09217356327113L36.443333333333335,104.46021200045058L36.45541666666667,104.20567344579156L36.49166666666667,102.04684939018918L36.950833333333335,101.52918515798632L37.96583333333333,109.60350637427875L38.30416666666667,113.1086731419758L38.642500000000005,120.99754676544303L38.76333333333333,128.4515924550943L39.05333333333333,127.33931213549096L39.585,125.54912727913674L39.899166666666666,116.82598837729236L40.21333333333333,113.99306530697146L40.6,110.54284779558732L40.72083333333333,112.41967106591811L40.79333333333333,113.32122704792548L41.18,114.71999746213157L42.25541666666666,112.0315971106399L42.73875,110.91317258930597L42.75083333333333,110.0823470325571L43.07708333333333,109.63136281636376L43.31875,111.39547916958436L43.36708333333333,112.93194331465764L43.52416666666667,114.11673119515908L43.79,112.39530281664219L43.935,111.07509604571715L44.01958333333333,107.12263794830639L44.031666666666666,105.17695228015619L44.04375,103.35899852496209L44.152499999999996,98.68144699753442L45.119166666666665,99.38627488437798L45.57833333333333,102.80081654224864L46.33958333333333,102.35316096542914L47.06458333333333,101.14126989121827L47.81375,102.05662568399993L47.98291666666667,104.55727259289651L48.30916666666667,106.7595920038787L49.0825,110.03356952124193L49.10666666666667,111.71534985824974L49.91625,108.55803426551984L50.84666666666667,111.18715031199561L50.88291666666667,113.12720581337881L50.97958333333334,114.35723018356926L51.1125,111.51154256949411L51.65625,110.53317558719206L51.765,108.28954499054048L51.8375,108.27092747678917L52.16375,110.18258938097024L52.58666666666667,112.39364996657399L53.20291666666667,113.66262481742841L53.48083333333334,114.10564632251791L53.62583333333333,113.71043773157625L53.952083333333334,114.04453081413462L54.10916666666667,113.32730948738666L54.60458333333333,110.53875349774808L54.918749999999996,108.59192156359916L55.03958333333333,107.46103490109031L55.78875,105.33638268564806L56.29625,104.63935675684448L56.32041666666667,103.40336440761389L56.405,102.14976659761253L57.16625,101.01386670258589L57.504583333333336,98.72483840303539L57.67375,97.88492775871671L58.03625,98.78926035636971L58.290000000000006,101.33573818769541L58.62833333333333,102.96759243612848L58.64041666666667,103.8560724669762L59.11166666666667,106.69637271515828L59.13583333333333,107.11587178951812L59.36541666666666,106.76763928905469L59.3775,105.95845468037281L59.77625,105.36913746423158L60.33208333333334,106.6977573414641L60.50125,108.26696557271924L60.71875,107.40240819347667L60.754999999999995,107.9206549884391L60.77916666666667,108.24404953662186L60.815416666666664,108.24351554393813L60.83958333333333,107.17321792949082L61.093333333333334,107.49155817336901L61.44375,107.89864841803501L61.48,107.79596586235523L62.26541666666667,108.54293563758505L62.54333333333334,109.8913345770509L62.615833333333335,109.97316161112894L62.96625,109.55641029571198L63.244166666666665,110.61321384330803L63.534166666666664,111.39595882514625L63.860416666666666,114.16285630690325L64.02958333333333,111.41424466417999L64.04166666666667,109.98027782521932L64.25916666666666,110.0363672315465L64.34375,110.62308588584341L64.41624999999999,111.26362112683263L64.70625,111.40059140985173L65.00833333333333,112.5177113195637L65.15333333333334,113.56783725962002L65.29833333333333,114.9572812860081L65.54,115.12676731071944L65.60041666666667,114.58574094827875L65.85416666666667,115.07399058549117L66.03541666666668,113.94740098023664L66.05958333333334,113.3798563887552L66.08375,111.88484253648411L66.13208333333334,111.49925704914186L66.28916666666666,111.93688993153627L66.30125,112.33426003251438L66.555,113.48719126706251L66.77250000000001,113.84998253129353L67.12291666666667,113.7475006518429L67.19541666666666,113.73938595743935L67.715,116.36274735054793L67.76333333333334,117.46336616149433L68.16208333333334,119.6653489273089L68.19833333333334,121.1092441685068L68.23458333333333,122.95017969443899L68.30708333333334,124.03345958761756L68.39166666666667,124.44699906789297L68.46416666666667,123.80100415876149L68.57291666666667,121.59825878609215L68.59708333333333,119.99713179023233L68.8025,119.24586028583502L68.88708333333334,117.97255145896393L69.41875,116.52227480357429L70.035,116.37152607097114L70.05916666666667,116.36332517425926L70.08333333333333,116.37779196925614L70.20416666666667,114.4964757786588L70.3975,113.30011134075791L70.78416666666666,113.55988058934996L70.80833333333334,114.31576428469268L70.84458333333333,114.8063872447632L70.86875,114.32068217221918L70.95333333333333,114.18301023177423L71.71458333333334,114.05329210311078L71.87166666666667,113.22210698457553L72.08916666666666,114.25603088485134L72.1375,114.6540458214202L72.17375,114.6750118395649L72.19791666666667,115.76289652632106L72.2825,116.32945258279787L72.52416666666666,117.23467184205786L72.71749999999999,118.4324328330891L72.72958333333334,119.73928076149852L72.79,119.06249922393013L72.83833333333332,119.03386920347678L73.03166666666667,119.17487446172L73.04375,118.56454253030594L73.05583333333334,118.93531858068393L73.06791666666666,118.40553827694961L73.11625,117.36126329387845L73.38208333333333,117.01028240473097L73.88958333333333,117.91765118750507L73.97416666666666,117.55490598119619L73.98625,117.15333163072933L74.03458333333333,117.16625944621393L74.66291666666667,118.34357193446797L74.675,119.44171546589361L74.78375000000001,118.58584022820271L74.95291666666667,118.25700587408618L75.31541666666666,118.08813417420139L75.4,117.14512915903056L75.48458333333333,117.20287541411993L75.65375,117.4226963167186L76.16125,118.45598992887837L76.23375,118.61554994122599L77.61125,120.28117566432049L77.82875,120.57915755981692L77.85291666666667,120.55732047691525L77.90125,121.04633529812001L77.92541666666666,120.99389109292017L78.0825,120.66488955618757L78.14291666666668,120.92964647983158L78.32416666666667,120.5708994390169L79.00083333333333,122.00121480709782L79.39958333333333,122.9188173004953L79.46000000000001,123.12343463809222L79.66541666666667,123.33480853888373L79.76208333333334,122.93918837253757L79.77416666666667,123.27135458683154L79.79833333333333,123.35908152108131L79.91916666666667,123.36699550113575L79.94333333333333,122.11731461682592L80.28166666666667,121.76740315810156L80.34208333333333,121.75240569259671L80.52333333333334,121.5790941803928L80.57166666666666,121.48542545059203L81.2,122.40662112726211L81.40541666666667,123.4103728607491L81.59875,123.37374495549959L82.02166666666666,124.89035201263856L82.07,125.81371376781753L82.36,126.24808630414434L82.38416666666667,126.13873115570289L82.40833333333333,125.81478376427239L82.4325,124.98194814440065L82.63791666666665,124.33348949724508L82.78291666666667,124.35969013783175L83.29041666666667,123.8729181852772L83.85833333333333,124.50413008723173L83.93083333333333,123.92307128111351L84.16041666666668,124.35483442223918L84.1725,124.45090850375293L84.24499999999999,124.5103214659602L84.28125,124.61469300337602L84.4625,123.71555512236019L84.52291666666666,123.76396653390536L84.95791666666666,124.6184302344874L84.97,125.05919073696214L85.61041666666667,125.34521843996741L85.985,124.3353289258011L86.02125000000001,124.2031991968471L86.10583333333334,124.03874191587971L86.27499999999999,123.63814479388925L86.91541666666667,123.17311291011947L86.97583333333333,122.65959827130273L87.01208333333332,122.8067688454991L87.31416666666667,122.94438972406348L87.67666666666668,122.09985527434263L87.73708333333333,121.26247827051493L87.7975,121.90764577313477L87.80958333333334,121.94717295946516L87.91833333333332,122.30123125133483L87.97875,122.29318975447136L88.63125,124.32860741874289L89.30791666666667,126.64392405572843L89.34416666666667,127.58997410483519L89.74291666666667,127.5405796921491L89.76708333333333,127.47909469632827L89.79124999999999,127.0020306502672L89.8275,126.10835475610169L90.21416666666666,125.88116997739051L90.61291666666666,126.39384431392146L90.73375,127.39755614794893L91.45875000000001,129.1177294907401L91.5675,129.90009816453224L91.72458333333334,130.7545576950963L92.19583333333334,131.78326011702148L92.42541666666666,133.2386207611495L92.52208333333333,134.0184841036654L92.55833333333332,133.75908539488003L92.5825,133.97687269892077L92.75166666666668,133.8851399453275L93.10208333333334,133.6517280939036L93.33166666666668,133.74191820884027L93.75458333333333,134.35101226661988L93.77875,135.01494382594578L94.20166666666665,135.77619665478136L94.23791666666668,135.79626331029527L95.50666666666666,137.05148862202594L95.68791666666667,137.30770731615974L95.72416666666666,137.42892536624234L95.82083333333334,137.89067691878284L95.88125,137.93571509640637L96.03833333333333,137.97516024551592L97.16208333333334,138.85954539453067L97.21041666666666,138.75276273513376L97.23458333333333,137.8530447942621L97.34333333333333,135.3893351291272L97.35541666666667,133.58471395602845L97.5125,132.46975877099626L97.54875,131.3997142029554L97.64541666666666,131.07598417969805L98.41874999999999,130.80196935623272L98.58791666666666,130.47874263230034L98.6725,129.95014983788727L98.73291666666665,130.76424975611914L99.53041666666667,131.6240933132299L100.14666666666666,131.21119036333394L100.71458333333334,131.30842407936413L100.72666666666666,130.93975262524035L100.81125,130.58461539335357L101.1375,130.30579328260794L101.56041666666667,130.0218971792243L101.68125,129.83100340559088L102.12833333333334,129.99249373293583L102.1525,130.22991571630115L102.225,130.11456545027633L102.23708333333333,129.91823638069022L102.49083333333333,128.48496823383198L102.57541666666667,128.17616579463163L102.61166666666666,127.91362728171194L102.96208333333333,127.66554604371338L103.6025,127.28554486114437L103.97708333333333,127.56760485154558L104.09791666666666,128.56666314467523L104.11,129.22489978393918L104.12208333333332,129.1098672773691L104.13416666666666,129.36442011846947L104.59333333333333,129.5292683326613L104.69,129.1275210705237L105.27,128.77801761969593L105.46333333333334,129.20567017630648L105.57208333333332,129.84603494073792L105.64458333333334,130.50086920867778L105.71708333333333,131.37934551229486L106.38166666666667,131.97623693100616L106.55083333333333,131.9977741947006L106.70791666666666,132.45728826906864L107.01,133.33910947329494L107.03416666666666,133.79620639414037L107.05833333333332,134.04465302230975L107.09458333333333,134.41559421130498L107.26375,133.94190766700763L107.50541666666666,132.22016383650447L108.65333333333332,132.19754524195923L108.77416666666666,132.30073375569447L108.93124999999999,131.56211587151148L109.01583333333333,130.48451809459465L109.39041666666667,129.7376967948205L109.40249999999999,129.48907978201404L109.5475,128.30868170701714L109.55958333333334,127.8374672584755L109.88583333333334,128.23060209088788L109.98249999999999,128.79173430557955L110.30875,128.69883350204873L111.61375000000001,130.4824087318275L111.75875,131.39793584535303L111.77083333333334,132.1986410151245L111.87958333333333,132.93850051870166L112.02458333333333,132.83588885445178L112.07291666666667,132.44366255288838L112.08500000000001,132.25186538099769L112.09708333333333,132.469347714219L112.24208333333334,132.7884261460417L112.53208333333333,133.19074986379195L112.81,132.68016822370686L113.05166666666666,133.00966330354703L113.29333333333334,133.51168369623093L113.81291666666667,132.9093780785055L113.825,132.1212564172377L114.22375,131.25008001352725L114.39291666666668,130.48745981702757L115.40791666666668,128.89176691891686L116.0725,127.25516373930027L116.13291666666667,126.43072999471403L116.33833333333334,126.18842191634918L116.49541666666667,126.2071046593553L116.5075,126.47400536522252L116.82166666666666,126.26227417011401L116.84583333333333,126.28436788530693L116.85791666666665,126.62409568029605L116.91833333333334,126.13716216643591L116.97874999999999,125.80603463331373L117.14791666666666,124.67074468423458L117.77625,123.77140059756384L118.36833333333334,123.67237507551475L118.38041666666666,123.61797074110305L118.44083333333333,123.33412613949767L118.70666666666666,122.26911761109656L119.57666666666667,121.1188060620266L120.13250000000001,120.78808789111588L120.18083333333333,120.47979187430485L120.39833333333334,120.26136615300497L120.47083333333333,120.2974330935288L120.89375,119.56111948953776L121.37708333333333,119.83182777269855L121.38916666666665,119.9786161844566L121.73958333333333,121.34987669109783L121.8,121.5880260891687L121.8725,121.17227234315591L122.07791666666667,120.94373368367157L123.21375,122.13937841888959L123.49166666666667,123.17911506518577L123.50375,123.71972976381814L123.66083333333333,123.45612441387962L124.19250000000001,122.88982529217202L124.27708333333332,122.68939839772496L125.12291666666667,122.82984233329185L125.17125,122.53435572327656L125.46124999999999,122.06954184690638L125.86,122.59510022532157L126.05333333333333,122.4224986095084L126.17416666666666,122.41846590785146L126.50041666666667,122.59292174722944L126.57291666666667,122.55040065507752L126.63333333333333,122.76279765843518L126.93541666666665,122.37724948719156L127.745,122.2275914092778L127.96249999999999,122.38372673690581L128.08333333333334,122.41617511432364L128.57875,122.34037553910083L128.60291666666666,122.331246183635L128.85666666666668,122.00795192712539L129.05,121.3889718831189L129.485,121.62038927414147L129.56958333333333,121.46395461378212L129.58166666666668,121.07691537056962L129.60583333333335,120.80198113181758L129.65416666666667,120.86094701348927L129.71458333333334,120.58309477803788L130.25833333333333,121.07166509750749L130.69333333333333,121.9585767750706L130.80208333333334,122.5302706660536L131.40625,123.16274757290464L131.51500000000001,123.80748657774309L131.59958333333333,124.24914757456627L132.0225,124.56312051730211L132.21583333333334,124.3048834978536L132.26416666666668,124.1612611262945L132.27625,124.16078773822885L132.32458333333332,124.45990478566502L132.42125000000001,123.98688848161662L132.6025,124.0320434790116L132.73541666666665,123.91012228621679L133.02541666666667,123.9785647902627L133.17041666666665,123.5902843034546L133.56916666666666,123.66762020342279L133.62958333333333,124.28524674500432L134.04041666666666,124.86940152559194L134.49958333333333,124.93999085061817L135.34541666666667,124.69727347966013L135.61125,124.17437640983579L135.88916666666668,124.09037695071311L136.43291666666667,124.53658905651052L136.8075,124.7945804400411L137.07333333333332,125.24523043598458L137.08541666666667,125.3140584339211L137.12166666666667,125.45097542253376L137.41166666666666,124.73487721948973L137.62916666666666,124.35222253582053L138.29375,123.84047876622562L138.7891666666667,123.95686346436614L138.80125,123.78877157505381L138.84958333333333,123.69793488955008L139.23625,124.71843397092009L139.59875,125.55799247140055L140.75875,126.84707292525647L140.80708333333334,127.92812341503799L140.81916666666666,128.42516422130547L141.21791666666667,129.3552481326735L141.23,129.81209351898292L141.2904166666667,130.2670694488911L141.4475,130.2171910221833L141.64083333333332,130.03299841761046L142.1,129.95141204485458L142.45041666666668,129.13881387595237L142.88541666666669,129.12733329736196L143.42916666666667,129.18225150787885L143.45333333333332,129.23486682250174L143.59833333333333,129.42829698934003L143.94875,129.19323298634427L144.09375,129.33220626346056L144.44416666666666,129.26891144607947L144.50458333333333,129.23186587648303L144.87916666666666,129.56368166733762L145.14499999999998,129.58045295078358L145.60416666666666,129.42298581161455L146.0391666666667,129.5262207043248L146.17208333333335,129.48665623983135L146.24458333333334,128.90548553254987L146.30499999999998,128.6630336939242L146.61916666666667,128.63439670616427L146.66750000000002,128.6237418535252L146.83666666666664,128.08226551554702L146.885,128.22117925974507L147.18708333333333,127.63110190284368L147.2475,127.44645743460102L147.61,127.46617820159203L148.50416666666666,127.71526600167552L148.61291666666668,127.42233559572462L149.1808333333333,126.63434209426931L149.20499999999998,126.21831302236045L149.30166666666668,126.46548457276468L149.36208333333332,126.37535651094714L149.55541666666667,126.28812406974835L149.82125,126.56628852763656L149.99041666666668,126.94646377680196L150.76375,128.12829386465938L150.8,128.89733007521573L150.90875,129.24570445524458L151.11416666666668,129.9544666992666L151.28333333333333,130.05259780793781L151.31958333333333,130.46269474115047L151.40416666666667,131.0394067496793L151.47666666666666,130.74129241192685L151.54916666666665,130.805422328711L152.62458333333333,130.7511648888401L152.9025,131.35880207137302L153.0233333333333,131.63335328652107L153.03541666666666,131.71342964599836L153.0716666666667,131.59189466338964L153.12,131.47170148563467L153.18041666666664,131.42435324144205L153.2408333333333,131.24470534003112L153.41,131.260133068348L153.72416666666666,130.85392537000214L153.73624999999998,130.6335002788349L153.96583333333334,130.30545136287844L154.53375,129.90411024619567L154.69083333333333,129.29117855760236L155.52458333333334,128.93168254662967L155.57291666666669,128.83606086979032L155.60916666666665,129.05028729769518L155.82666666666665,129.2267004708644L156.04416666666668,129.6094284623568L156.26166666666668,129.69047851939908L156.34625,129.4215537304596L156.41875000000002,129.3273653271204L156.61208333333332,129.28607478855878L156.63625,129.23162647805952L156.9625,128.697136323145L156.99875,128.20653927843995L157.51833333333335,128.03570086838522L157.67541666666668,128.19664839858L157.88083333333333,128.44725290553225L157.92916666666665,128.66712466107663L158.08624999999998,128.9584945785608L158.13458333333332,128.92251955352918L158.195,129.1366404959457L158.29166666666666,129.49340620900958L158.53333333333333,129.61029654863452L158.85958333333335,129.74980488795518L159.17375,129.3034114063633L159.23416666666668,128.9476282198745L159.7175,129.03145040023392L159.91083333333333,129.06715167345456L159.99541666666667,128.77972795935528L160.225,128.6680884380084L161.1675,129.48279602641685L161.32458333333332,130.16138919104768L161.48166666666665,130.8979226391831L161.49375,131.21881392436327L161.57833333333335,131.17489337202363L161.8925,131.2792517775956L161.92874999999998,131.5064001939366L161.94083333333333,131.54790420285028L162.11,131.14708246319032L162.37583333333333,131.06299686109142L162.82291666666666,131.1347404910752L163.42708333333334,131.71347091724996L163.55999999999997,132.14096695699658L163.63250000000002,132.25748249477945L163.89833333333334,132.90952926124018L164.0675,133.4487296223988L164.09166666666667,133.5012091732269L164.20041666666665,133.43186479926408L164.23666666666668,133.1615214719304L164.39375,133.17157397454253L164.40583333333333,132.94927481112137L164.46625,133.0038973349393L164.64749999999998,133.04748575780488L164.72,133.2914646107472L165.21541666666667,133.47519057037775L165.3725,133.58245331289314L165.56583333333333,133.5314603523448L165.68666666666667,133.9487343835966L166.0975,133.83935364374244L166.605,134.08301436581786L166.77416666666664,133.71983767702963L166.8345833333333,133.92757624686956L167.24541666666667,133.8965317587301L167.65625,133.76136025563068L168.2,134.02584715832984L168.22416666666666,134.37822187438738L168.26041666666666,134.5227987363478L168.51416666666665,134.81048194978038L168.57458333333332,135.0119361800437L168.58666666666667,135.04977949769682L168.635,135.08142464017908L169.16666666666669,135.1651842976891L169.26333333333332,135.0350641715669L169.40833333333333,134.7041725348833L169.54125,134.19188819159837L169.89166666666665,134.33980300629628L170.39916666666667,134.65515544222862L170.42333333333335,134.76239369162533L170.47166666666666,134.5085330834643L170.49583333333334,134.3300943917553L171.08791666666667,133.8895333253581L171.42625,133.5581149025439L171.65583333333333,133.4825185359304L171.97,133.52510234301292L171.99416666666664,133.56910311277306L172.26,133.61838152434464L173.06958333333336,133.59325789008423L173.29916666666668,133.4725403028994L173.42,133.07719761938375L173.52875,132.9517028663038L173.57708333333332,133.09560976174993L173.64958333333334,133.33760454057236L174.02416666666664,133.35970466855915L174.2175,133.2650872822741L174.35041666666666,133.26340146745343L174.95458333333335,133.1372794181345L175.69166666666666,133.8659366521323L176.11458333333334,134.89180273891887L176.12666666666667,135.31133115788504L176.35625000000002,135.17268091459366L176.48916666666668,134.8597039382684L176.76708333333332,134.19087575734216L177.15374999999997,133.62776104072142L177.25041666666667,133.00592118146156L177.335,132.63140530159671L177.49208333333334,132.41906610792418L177.55249999999998,132.2640203475636L178.06,132.13652164575507L178.83333333333334,132.90355071069314L178.90583333333333,133.29582730483568L179.51,133.61305502574405L179.52208333333334,133.59592705205193L180.44041666666666,133.38359700383492L180.525,133.2007752423411L180.60958333333332,132.9605925990279L180.67,133.04562449795978L180.68208333333334,133.25392689156106L181.14124999999999,133.66277851040272L181.29833333333332,133.5828156777068L181.3225,133.3721592762952L181.33458333333334,133.19784212347275L181.35875000000001,133.08799489063983L181.44333333333336,132.8517232860522L181.54,132.46884276719692L181.91458333333335,132.39994527783145L182.02333333333334,132.03265512683916L182.25291666666666,131.47861701596125L182.59125,131.32558534616905L183.11083333333332,131.94334638150016L183.2075,132.00327946143608L183.54583333333335,132.1540454913739L183.57,131.95168128748733L183.61833333333334,131.5983109812028L183.72708333333333,131.31752577619523L184.50041666666667,131.81644662072668L184.53666666666666,132.20620201439044L184.83875,132.69851332815145L185.29791666666665,133.06141630690064L185.50333333333336,133.53041664854487L185.64833333333334,133.42088663725207L186.14374999999998,133.9986221367641L186.24041666666668,134.5418755473148L186.27666666666667,134.9562823565497L186.42166666666668,134.9810498951839L186.43375,134.9865835302216L186.44583333333335,135.08168212264974L186.48208333333332,135.00952097585738L186.57875,134.5169757934203L187.24333333333334,134.06002027317922L187.42458333333335,133.80627663220469L187.67833333333334,133.6522108369815L188.065,133.6196702237046L188.31875000000002,133.23799169147438L188.54833333333335,133.295415038128L188.89875,133.17077570992728L188.935,132.9395421199222L188.99541666666667,132.9290887263583L189.56333333333333,132.9777109254859L189.61166666666668,132.87148087009683L189.72041666666667,132.79465406010894L190.20374999999999,132.87195589634237L190.71125,133.11305251700617L190.85625,133.104672917837L190.86833333333334,133.07306986589248L191.12208333333334,132.97124641953604L191.49666666666667,133.32551423319427L191.78666666666666,134.37253860150776L192.06458333333333,134.72784125822392L192.125,134.92273508005024L192.89833333333334,134.99091608537114L193.46625,135.49375831043136L193.65958333333333,135.51781721125758L193.865,135.5616558519216L193.99791666666667,134.99240402851004L194.4933333333333,134.76789927807457L194.57791666666665,134.4619543240078L195.64125,134.75191198386588L196.17291666666668,135.00114719552715L196.185,135.02529087701924L196.475,135.05940323736556L196.66833333333335,135.36447657760456L196.77708333333334,135.49965634549335L196.98250000000002,134.80932722691222L197.00666666666666,134.32014387347004L197.03083333333333,133.96567265081774L197.055,133.9385988986066L197.07916666666665,133.9039127202293L197.1275,133.87668706229087L197.17583333333332,133.56713623754874L197.91291666666666,133.76895250110056L199.2541666666667,133.87126905832176L199.26624999999999,133.99016055795968L199.31458333333333,133.99712638722315L199.78583333333333,134.1283488940616L200.76458333333332,134.27708844396736L200.825,134.46552103946175L200.94583333333333,134.40561019787262L201.41708333333332,135.17538500386553L201.50166666666667,135.25158982709266L201.53791666666666,135.0855548075184L201.63458333333332,134.51190637612038L201.64666666666668,134.14989263390234L201.70708333333332,134.06420099256022L202.87916666666666,134.3375639916625L203.01208333333332,134.25963049036258L203.12083333333334,134.24414647277538L203.22958333333335,134.15146586933176L204.11166666666665,134.32708047172483L204.13583333333332,134.4054883059411L204.87291666666667,134.42639937569928L205.07833333333335,134.5328698961193L205.15083333333334,134.51066743755578L205.69458333333333,133.87625915023105L205.93625,133.83185842092558L205.94833333333332,133.6108425795062L206.37124999999997,133.58781671206185L206.54041666666666,133.63635316971474L206.56458333333333,133.72163537293486L206.72166666666666,133.52603433561407L206.73375000000001,133.36012685152383L206.90291666666667,132.70532737103915L207.04791666666668,132.12760902978783L207.16875,131.84311650632247L207.19291666666666,131.47963853147067L207.21708333333333,131.4743362978148L208.42541666666665,131.9437337238398L208.73958333333334,132.06996579228877L209.09,131.70639234419528L210.37083333333334,131.94689092670166L210.74541666666664,131.9624794217386L210.78166666666667,131.9957369218581L210.80583333333334,132.1488634923847L211.01125,132.54072804565422L211.47041666666667,132.5914221346667L211.60333333333335,132.5875726911552L211.89333333333335,132.3198315772942L212.47333333333333,132.1378753903323L212.81166666666667,132.27218895532494L212.93249999999998,132.12431291573526L212.95666666666665,132.2550378009418L213.11374999999998,132.41187442866442L213.34333333333333,132.33710297235245L213.37958333333333,132.225545670089L213.5125,132.24681155175873L213.53666666666666,132.26751207251684L213.54875,132.1715413660597L213.97166666666666,131.80745147701364L214.02,131.74854797716483L214.05625,131.38412007528652L214.08041666666668,130.98757256547125L214.41875,130.83472193669297L214.745,131.3719560573037L214.8175,131.48767482541507L214.82958333333332,131.6495140396179L214.85375,131.87350467137497L215.37333333333333,132.2187122731543L215.55458333333334,132.33085500862694L215.5908333333333,132.4276876735781L216.05,132.9850447831305L216.11041666666668,133.54713327398198L216.15875,133.66108427062545L216.21916666666667,133.72312300944577L216.25541666666666,133.68214717420955L216.27958333333333,133.58326234005264L216.59375,133.1326544547033L217.07708333333332,132.90615066762035L217.22208333333336,132.7530721103682L217.66916666666668,132.59164425877256L217.81416666666667,132.4410271306472L217.89875,132.22537762889334L218.17666666666665,132.46460791843145L218.3216666666667,132.60394239213048L218.76875,132.6411047833524L219.03458333333333,132.7365752155087L219.3125,132.90993303028662L219.92875,133.25611298584812L220.04958333333332,133.64108096882447L220.1220833333333,133.97010179874943L220.4725,134.06527336189131L220.48458333333335,134.27990622887887L220.50875000000002,134.4937059758865L220.58125,134.62906779671542L220.66583333333335,134.28398416846233L220.72625000000002,134.3850148350377L220.82291666666666,134.49616037566167L220.88333333333335,134.52021336799476L220.95583333333335,134.20938822572592L221.76541666666665,133.73639202751534L222.33333333333334,133.92918661946084L222.51458333333335,133.8678634698383L222.99791666666667,134.20185537092948L223.0220833333333,134.34813303628883L223.21541666666667,134.0404681235585L223.23958333333334,133.9402762923057L223.52958333333333,133.88553350169275L223.54166666666669,134.01304221700843L223.85583333333335,134.12083073728414L223.97666666666666,134.17131181838315L225.5716666666667,134.05399270924968L225.60791666666665,133.93093240353997L225.63208333333333,133.8226709403782L225.86166666666668,133.62096144853857L226.36916666666664,133.28866064445418L226.40541666666667,133.07624291260794L226.64708333333334,133.27645145165025L226.81625,133.48455241260055L227.19083333333333,133.39414280969316L227.215,133.54553053456033L227.26333333333332,133.46355817731614L227.80708333333334,133.5802777951998L227.97625,133.66521837620047L228.03666666666666,133.65320456244177L228.62875000000003,133.74994857255476L228.85833333333335,133.87436592784726L229.10000000000002,134.15813824401795L229.30541666666667,134.11672918106842L229.825,134.44637671540528L230.1029166666667,134.41370628055935L230.39291666666668,134.58798524285015L230.75541666666666,134.6719339100227L230.76749999999998,134.42817785998514L230.79166666666666,134.08228237452798L230.87625,133.7939659199374L231.2145833333333,133.20247329696795L231.7825,133.0724763380973L231.97583333333336,133.16417570495008L232.01208333333332,133.36095207443066L232.02416666666667,133.47078358947405L232.25375,133.7518318439484L232.37458333333333,133.54356895648343L232.84583333333333,133.1140792426534L232.93041666666664,132.6903546029965L233.29291666666668,132.22577801048584L233.35333333333332,132.13569629853492L233.75208333333333,132.1088967242194L233.92125000000001,132.34895159243783L234.07833333333335,132.4154732572612L234.64625,132.5948708335016L234.92416666666668,132.71545852211054L234.96041666666665,132.84113111598927L235.15375,133.12905384087165L235.31083333333333,133.32660391048327L235.37125,133.5971035191456L235.4075,133.6399706130406L235.57666666666668,133.52828403486777L235.66125000000002,133.11315864603415L235.72166666666666,132.9401314706071L236.03583333333333,132.3394339550022L236.74875,132.085938519514L236.91791666666666,131.9620929548384L237.13541666666669,131.8668521003575L237.3045833333333,131.66381795183912L237.70333333333332,131.51985691572202L237.73958333333334,131.3534947705408L237.7758333333333,131.18714092091966L237.93291666666664,131.24717608853044L238.11416666666668,131.31789667519018L238.80291666666665,131.42964649194994L239.18958333333333,131.43025664985626L239.20166666666665,131.38932804780075L239.32250000000002,131.28524695691405L239.35875,131.25598747248466L239.74541666666667,131.36090852433875L239.7575,131.48225742020037L239.79375000000002,131.4331350497563L240.01125000000002,131.39737050311294L240.11999999999998,130.95985317804937L240.555,130.41204191936762L240.95375,129.9436090838045L241.1954166666667,130.076662172125L241.54583333333332,129.77875637933673L241.61833333333334,129.6901436934979L241.69083333333333,129.59970017554807L241.715,129.69599382821434L242.14999999999998,129.738068148668L242.17416666666665,129.61687543895587L242.25875,129.34266597155622L242.47625,129.2461714283486L242.48833333333332,129.22767270345165L242.85083333333336,129.4960459568938L243.27375,129.38896028947497L243.84166666666667,129.38631004993303L244.22833333333332,129.43745148891767L244.38541666666666,129.46131436892713L244.3975,129.47570539261872L244.48208333333335,129.40986573647882L244.53041666666667,129.2943227869717L244.73583333333332,129.10468137303587L244.8083333333333,128.8551762612588L244.96541666666664,128.49182012982826L244.98958333333334,128.34249376915216L245.19500000000002,128.27476408668957L245.76291666666665,128.36964402480197L246.2825,128.3685562077074L246.43958333333333,128.0342184620923L246.48791666666668,127.954175690472L246.5966666666667,127.9765377801293L246.88666666666668,127.92087344573365L247.0075,128.17569971627285L247.04375000000002,128.35676026181082L247.62375,128.9190395727872L247.64791666666667,129.20577647713134L247.8775,129.54173241307146L248.85625000000002,130.1818380571426L249.0979166666667,130.73436581748757L249.25500000000002,131.07165182860194L249.29125,131.21190373323444L249.37583333333333,131.15359171619536L249.5691666666667,130.94384650205836L249.81083333333333,130.9711747286713L250.29416666666665,130.6680366715946L250.4875,130.46244218403845L251.33333333333334,130.6217833266756L251.3695833333333,130.80388164848526L251.62333333333333,130.5649321328477L252.14291666666668,130.67065962802323L253.84666666666666,130.3778380106583L253.85875000000001,130.3752552757446L254.08833333333334,130.5405000927848L254.25750000000002,130.86759415440994L254.28166666666667,131.03717479386242L254.93416666666667,130.7417113470124L255.41750000000002,130.49270390252255L255.9008333333333,130.29058248495147L255.91291666666666,130.19907220119242L255.97333333333336,129.93404130689464L256.05791666666664,129.87504204954686L256.1425,129.96959907644367L256.25124999999997,129.86307693203636L256.4083333333333,129.75585817723453L256.7104166666667,129.75686848405232L256.8795833333333,129.1523278233853L256.97625,128.71887407152832L257.1816666666667,128.52110011954792L257.52,128.54854067060407L257.93083333333334,128.3135510350892L258.4866666666667,128.35299948465328L258.78875,128.28650324502442L258.9579166666667,128.395217667346L258.9820833333333,128.38703346315808L258.9941666666667,128.38909142370713L259.3325,128.30576300282036L259.3929166666667,128.45907513673976L259.4533333333334,128.612083743743L259.51375,128.78544558092298L259.76750000000004,128.91359570602071L260.57708333333335,129.25827870667882L260.6375,129.67122748458357L260.64958333333334,129.74379656675214L260.855,129.87070382218047L260.96375,130.04153810821347L261.0725,130.11670577963272L261.6766666666667,130.06778613984972L261.78541666666666,129.9709336735265L261.84583333333336,130.07985575721247L263.2716666666667,130.40358055335867L263.59791666666666,130.39646690270067L263.6825,130.5830243928107L264.12958333333336,131.00202874398985L264.335,130.8197414032699L264.4920833333333,130.56305316249768L264.73375,130.3620179025584L265.25333333333333,129.988448535124L265.7608333333333,129.9506260981763L265.82125,129.83039175856675" style="fill: none;" fill="none"></path></g></g></g></g><g opacity="0.2"><g><g><g><path stroke="rgb(0, 119, 187)" stroke-width="2px" d="M24.83125,-71.93577471646408L25.04875,8.849926341663592L25.689166666666665,4.951098528775189L26.28125,21.071378881280964L26.61958333333333,21.210715900767834L26.71625,8.745116667313898L26.76458333333333,34.235965035178346L26.825,41.704997062683006L27.392916666666668,70.21483976190731L27.44125,76.71917776627966L27.598333333333333,72.40909090909082L28.649583333333332,97.02578362551593L28.987916666666667,79.13202537189822L29.048333333333332,92.41400449926194L29.193333333333335,92.46909479661413L29.2175,83.63040135123504L29.302083333333332,102.10774846510446L29.483333333333334,72.68032238700164L29.676666666666666,28.82959660616777L30.329166666666666,56.00875542380584L30.534583333333334,85.11638155850488L30.679583333333333,91.77778061953448L30.884999999999998,99.0640479001131L30.99375,95.6067864678122L31.585833333333333,97.17402102730483L31.670416666666668,87.08743260123504L31.86375,95.20458126068107L32.419583333333335,110.81048089807675L32.68541666666666,115.67453982613296L32.8425,105.4848297292535L33.2775,112.3187887885353L33.65208333333334,117.45338864759958L33.68833333333333,119.01202973452475L33.7125,123.29656635631207L34.135416666666664,129.10813236236564L34.15958333333334,129.29519384557543L34.28041666666667,117.00790916789654L34.8,115.33317947387687L34.88458333333333,117.99999488483768L35.525,119.50761222839347L35.57333333333333,119.26200771331779L35.60958333333333,123.59189024838528L35.73041666666667,111.29547500610343L35.7425,110.1352027546275L35.97208333333333,98.39590540799219L36.443333333333335,102.73422796075985L36.45541666666667,103.93647011843585L36.49166666666667,99.76364864002566L36.950833333333335,100.98169664903112L37.96583333333333,118.14301482113919L38.30416666666667,116.81578367406665L38.642500000000005,129.34092339602375L38.76333333333333,136.335089336742L39.05333333333333,126.16294982216567L39.585,123.65580420060583L39.899166666666666,107.60028180209063L40.21333333333333,110.99692856181744L40.6,106.89385232058429L40.72083333333333,114.40462407198812L40.79333333333333,114.27472452683874L41.18,116.19935547221783L42.25541666666666,109.18830949609921L42.73875,109.73031208731904L42.75083333333333,109.20365498282685L43.07708333333333,109.15439597043115L43.31875,113.26123185591257L43.36708333333333,114.55692802775982L43.52416666666667,115.36977845972226L43.79,110.57469749450675L43.935,109.67882797934784L44.01958333333333,102.94246621565378L44.031666666666666,103.11916949532241L44.04375,101.4363066933371L44.152499999999996,93.7344069047407L45.119166666666665,100.1317101391878L45.57833333333333,106.41208076477042L46.33958333333333,101.8797145323319L47.06458333333333,99.85955793207333L47.81375,103.02471802451386L47.98291666666667,107.20198969407507L48.30916666666667,109.08879401467055L49.0825,113.49617125771255L49.10666666666667,113.49402288957067L49.91625,105.21881571683008L50.84666666666667,113.96773806485257L50.88291666666667,115.17903405969784L50.97958333333334,115.65812015533439L51.1125,108.50190587477243L51.65625,109.49844178286456L51.765,105.91665172576896L51.8375,108.25123734907663L52.16375,112.20438818498083L52.58666666666667,114.7320967587557L53.20291666666667,115.00470933047201L53.48083333333334,114.5741917003284L53.62583333333333,113.29245992140329L53.952083333333334,114.39787205782797L54.10916666666667,112.56876676732837L54.60458333333333,107.58953996138132L54.918749999999996,106.53292647275049L55.03958333333333,106.26499427448611L55.78875,103.08932252363718L56.29625,103.90217295559961L56.32041666666667,102.09616262262509L56.405,100.8239450454711L57.16625,99.81252401525317L57.504583333333336,96.30393192984833L57.67375,96.99662720073343L58.03625,99.74569442055434L58.290000000000006,104.02892667596981L58.62833333333333,104.69346297870975L58.64041666666667,104.79574064774938L59.11166666666667,109.70031166076652L59.13583333333333,107.5595395348288L59.36541666666666,106.39934401078649L59.3775,105.10265038230195L59.77625,104.74586781588458L60.33208333333334,108.10292321985409L60.50125,109.9265808625654L60.71875,106.48804092407218L60.754999999999995,108.46875962344073L60.77916666666667,108.58607586947345L60.815416666666664,108.24295078624371L60.83958333333333,106.04125707799732L61.093333333333334,107.82823900742956L61.44375,108.32919242165298L61.48,107.68736743926993L62.26541666666667,109.33294070850711L62.54333333333334,111.31741905212394L62.615833333333335,110.05970295992755L62.96625,109.1156486164439L63.244166666666665,111.73090319199987L63.534166666666664,112.22380022569128L63.860416666666666,117.08916352011933L64.02958333333333,108.5072767951271L64.04166666666667,108.46369561282062L64.25916666666666,110.09568812630386L64.34375,111.24360726096405L64.41624999999999,111.94105963273473L64.70625,111.54545298489651L65.00833333333333,113.69919204711906L65.15333333333334,114.67846428264264L65.29833333333333,116.42677558552127L65.54,115.30601796236898L65.60041666666667,114.01354434273452L65.85416666666667,115.59036983143191L66.03541666666668,112.75590497797177L66.05958333333334,112.77961375496596L66.08375,110.30369619889684L66.13208333333334,111.09145676005963L66.28916666666666,112.39973623102352L66.30125,112.75452388416629L66.555,114.70654652335419L66.77250000000001,114.23367534984234L67.12291666666667,113.63911446658041L67.19541666666666,113.73080374977798L67.715,119.1372489062222L67.76333333333334,118.62739510969675L68.16208333333334,121.99419489773831L68.19833333333334,122.63632678985587L68.23458333333333,124.8971773494373L68.30708333333334,125.17915066805746L68.39166666666667,124.88436386801972L68.46416666666667,123.1177914359352L68.57291666666667,119.26860627261068L68.59708333333333,118.30375879461108L68.8025,118.45130564949721L68.88708333333334,116.62588327581226L69.41875,114.98844311454071L70.035,116.21209222620175L70.05916666666667,116.35465179790143L70.08333333333333,116.39309224215414L70.20416666666667,112.50677100094876L70.3975,112.03482055664054L70.78416666666666,113.83461596749038L70.80833333333334,115.11519683491092L70.84458333333333,115.32527654821216L70.86875,113.80699409138064L70.95333333333333,114.03740657459598L71.71458333333334,113.91610050201407L71.87166666666667,112.34303465756497L72.08916666666666,115.34952241724179L72.1375,115.07499165968454L72.17375,114.69718577645034L72.19791666666667,116.91345769708798L72.2825,116.92864972894833L72.52416666666666,118.19204365123394L72.71749999999999,119.6992006301879L72.72958333333334,121.12142034010446L72.79,118.34672615744843L72.83833333333332,119.00358971682455L73.03166666666667,119.32400347969741L73.04375,117.91904744234945L73.05583333333334,119.32745621421113L73.06791666666666,117.84523565118954L73.11625,116.25682432001278L73.38208333333333,116.63908039439801L73.88958333333333,118.87729636105618L73.97416666666666,117.17126187411215L73.98625,116.7286213094537L74.03458333333333,117.17993207411325L74.66291666666667,119.588713125749L74.675,120.60312652587882L74.78375000000001,117.68065530603573L74.95291666666667,117.90922633084378L75.31541666666666,117.90953324057831L75.4,116.14779463681302L75.48458333333333,117.26394861394702L75.65375,117.6551817980679L76.16125,119.54881486025717L76.23375,118.78430271148673L77.61125,122.04276336323124L77.82875,120.89430713653556L77.85291666666667,120.53422529047177L77.90125,121.56352381272741L77.92541666666666,120.9384254108775L78.0825,120.31693319840856L78.14291666666668,121.20965688878833L78.32416666666667,120.19148384441021L79.00083333333333,123.51393517580892L79.39958333333333,123.88928578116669L79.46000000000001,123.33984062888398L79.66541666666667,123.5583603598854L79.76208333333334,122.52077527479685L79.77416666666667,123.62265794927417L79.79833333333333,123.45186268199566L79.91916666666667,123.37536543065845L79.94333333333333,120.79563565687693L80.28166666666667,121.3973321914672L80.34208333333333,121.73654417558141L80.52333333333334,121.39579764279446L80.57166666666666,121.38636016845695L81.2,123.3808898058804L81.40541666666667,124.47195391221472L81.59875,123.33500680056478L82.02166666666666,126.4943356080488L82.07,126.79027331959111L82.36,126.70748441869556L82.38416666666667,126.02307571064335L82.40833333333333,125.4721727371215L82.4325,124.1011302254416L82.63791666666665,123.6476710926402L82.78291666666667,124.3874002803455L83.29041666666667,123.35810175808987L83.85833333333333,125.17170810699454L83.93083333333333,123.30853583595962L84.16041666666668,124.8114728060635L84.1725,124.55251771753477L84.24499999999999,124.57315739718344L84.28125,124.72507771578695L84.4625,122.76461505889884L84.52291666666666,123.81516708027226L84.95791666666666,125.52212229641995L84.97,125.52534484863273L85.61041666666667,125.64772510528556L85.985,123.2672564766623L86.02125000000001,124.06345705552526L86.10583333333334,123.86480972983613L86.27499999999999,123.21446800231925L86.91541666666667,122.68128906596783L86.97583333333333,122.11649842695749L87.01208333333332,122.96241838281796L87.31416666666667,123.08993937752456L87.67666666666668,121.20666451887644L87.73708333333333,120.37685732407995L87.7975,122.58998341993845L87.80958333333334,121.98897743225089L87.91833333333332,122.67568796331226L87.97875,122.28468496149227L88.63125,126.48129194433032L89.30791666666667,129.09263342077074L89.34416666666667,128.59052909504277L89.74291666666667,127.4883395108309L89.76708333333333,127.41406735506918L89.79124999999999,126.49748143282797L89.8275,125.16319136186071L90.21416666666666,125.64089636369177L90.61291666666666,126.93605544350356L90.73375,128.45909500122062L91.45875000000001,130.9370074705643L91.5675,130.72754157673222L91.72458333333334,131.65824534676284L92.19583333333334,132.87122934514818L92.42541666666666,134.7778293436223L92.52208333333333,134.84327784451565L92.55833333333332,133.48474190451876L92.5825,134.20720741965548L92.75166666666668,133.78812217712394L93.10208333333334,133.40486864610145L93.33166666666668,133.837304462086L93.75458333333333,134.99519816311917L93.77875,135.71712658622042L94.20166666666665,136.58130767128677L94.23791666666668,135.8174860694191L95.50666666666666,138.3790314414284L95.68791666666667,137.57868758114896L95.72416666666666,137.55712717229662L95.82083333333334,138.3790314414284L95.88125,137.98334806615648L96.03833333333333,138.01687795465637L97.16208333333334,139.79488277435294L97.21041666666666,138.63982798836443L97.23458333333333,136.90149125185872L97.34333333333333,132.78368334336707L97.35541666666667,131.67612283880052L97.5125,131.29056748476887L97.54875,130.2680209766734L97.64541666666666,130.7336030439896L98.41874999999999,130.51216767050997L98.58791666666666,130.1368937925858L98.6725,129.3911031376231L98.73291666666665,131.62525255029846L99.53041666666667,132.5334751822731L100.14666666666666,130.77449876611877L100.71458333333334,131.41125973788166L100.72666666666666,130.5498408404263L100.81125,130.20901758020568L101.1375,130.010907346552L101.56041666666667,129.72164492173619L101.68125,129.6291116367686L102.12833333333334,130.16328802975735L102.1525,130.48101633245287L102.225,129.99256948991246L102.23708333333333,129.7105961712923L102.49083333333333,126.96912496740161L102.57541666666667,127.84957226839926L102.61166666666666,127.63596309315068L102.96208333333333,127.40317205949255L103.6025,126.88365060632871L103.97708333333333,127.86591521176419L104.09791666666666,129.62328035181213L104.11,129.92105952176175L104.12208333333332,128.9882073835892L104.13416666666666,129.63363855535326L104.59333333333333,129.70361397483126L104.69,128.7026278755881L105.27,128.4083781675858L105.46333333333334,129.65796115181655L105.57208333333332,130.5232931483875L105.64458333333334,131.193430553783L105.71708333333333,132.30843361941243L106.38166666666667,132.60751715573392L106.55083333333333,132.02055228840214L106.70791666666666,132.9432764053344L107.01,134.27173519134513L107.03416666666666,134.27963811700988L107.05833333333332,134.30741344798687L107.09458333333333,134.80790649760846L107.26375,133.44093053991136L107.50541666666666,130.39922488819462L108.65333333333332,132.17362351851023L108.77416666666666,132.40986728668204L108.93124999999999,130.78094387054435L109.01583333333333,129.3448364951393L109.39041666666667,128.94784875349558L109.40249999999999,129.2261391553011L109.5475,127.06027715856372L109.55958333333334,127.3391046524047L109.88583333333334,128.6463866667313L109.98249999999999,129.38519512523297L110.30875,128.60058038884935L111.61375000000001,132.36874138225204L111.75875,132.36620937694198L111.77083333333334,133.0454773469404L111.87958333333333,133.72098567269057L112.02458333333333,132.7273654070767L112.07291666666667,132.02883885123507L112.08500000000001,132.04901816628188L112.09708333333333,132.69935989379874L112.24208333333334,133.12588769739318L112.53208333333333,133.61625272577453L112.81,132.140170357444L113.05166666666666,133.35814163901583L113.29333333333334,134.04262707450167L113.81291666666667,132.2723717256025L113.825,131.28772856972427L114.22375,130.32871237668118L114.39291666666668,129.68090265447435L115.40791666666668,127.20414109663523L116.0725,125.52427066456181L116.13291666666667,125.55879800969898L116.33833333333334,125.93215370178214L116.49541666666667,126.22686377438626L116.5075,126.7562830664894L116.82166666666666,126.03834446993734L116.84583333333333,126.30773448944083L116.85791666666665,126.9833962700583L116.91833333333334,125.62217486988408L116.97874999999999,125.45582979375659L117.14791666666666,123.47004708376791L117.77625,122.82024244828649L118.36833333333334,123.56764437935561L118.38041666666666,123.56043200059362L118.44083333333333,123.03392835096872L118.70666666666666,121.14275056665585L119.57666666666667,119.90222141959443L120.13250000000001,120.43831599842412L120.18083333333333,120.15373394706025L120.39833333333334,120.0303562337701L120.47083333333333,120.33557796478263L120.89375,118.78238452564578L121.37708333333333,120.11813241785214L121.38916666666665,120.13386154174796L121.73958333333333,122.80013986067331L121.8,121.83989602869198L121.8725,120.73256570642636L122.07791666666667,120.70202818783841L123.21375,123.40390803597182L123.49166666666667,124.27875423431388L123.50375,124.29149098829782L123.66083333333333,123.17733192443839L124.19250000000001,122.29089988361699L124.27708333333332,122.4774242747913L125.12291666666667,122.9783776890147L125.17125,122.22184519334265L125.46124999999999,121.57794857025138L125.86,123.15093768726689L126.05333333333333,122.23995286768124L126.17416666666666,122.41420086947348L126.50041666666667,122.77742854031644L126.57291666666667,122.50542978806921L126.63333333333333,122.987431526184L126.93541666666665,121.9694886641068L127.745,122.06931105527005L127.96249999999999,122.54885751550839L128.08333333333334,122.45049294558432L128.57875,122.26020891016171L128.60291666666666,122.32159085707224L128.85666666666668,121.66603166406796L129.05,120.73433043740005L129.485,121.86513935435894L129.56958333333333,121.29850725694128L129.58166666666668,120.66757757013485L129.60583333333335,120.51120706038034L129.65416666666667,120.92331010645077L129.71458333333334,120.2892345948652L130.25833333333333,121.58838350122616L130.69333333333333,122.89658624475643L130.80208333333334,123.13490165363652L131.40625,123.83166347850445L131.51500000000001,124.48937103965058L131.59958333333333,124.71625406091856L132.0225,124.8951824361627L132.21583333333334,124.03176862543272L132.26416666666668,124.00936421481039L132.27625,124.16028707677661L132.32458333333332,124.77625491402358L132.42125000000001,123.48662020943374L132.6025,124.0797999988902L132.73541666666665,123.78117682717055L133.02541666666667,124.05095048384226L133.17041666666665,123.17963374744755L133.56916666666666,123.74941166964437L133.62958333333333,124.93845670873462L134.04041666666666,125.48721131411459L134.49958333333333,125.01464705033727L135.34541666666667,124.44057239185673L135.61125,123.62135358290232L135.88916666666668,124.00153801657929L136.43291666666667,125.00850885564624L136.8075,125.06743552468032L137.07333333333332,125.72184380618002L137.08541666666667,125.38685183091589L137.12166666666667,125.59578063271255L137.41166666666666,123.97752232985056L137.62916666666666,123.94752190329804L138.29375,123.2992518164894L138.7891666666667,124.07995345375747L138.80125,123.61099537936117L138.84958333333333,123.60186481475822L139.23625,125.79772723804814L139.59875,126.44592059742314L140.75875,128.21042138879943L140.80708333333334,129.07145664908663L140.81916666666666,128.95084112340746L141.21791666666667,130.33891712535504L141.23,130.29525921561495L141.2904166666667,130.7482579838145L141.4475,130.16443894126192L141.64083333333332,129.83819389343253L142.1,129.8651252226395L142.45041666666668,128.2793993516401L142.88541666666669,129.11519128626037L143.42916666666667,129.24033373052416L143.45333333333332,129.2905134721235L143.59833333333333,129.6328712810169L143.94875,128.94462620128277L144.09375,129.47918623143968L144.44416666666666,129.2019700137051L144.50458333333333,129.1926859942349L144.87916666666666,129.91461441733614L145.14499999999998,129.59819048101244L145.60416666666666,129.25644649158818L146.0391666666667,129.63540328632695L146.17208333333335,129.44481234116978L146.24458333333334,128.29083173925218L146.30499999999998,128.40661343661213L146.61916666666667,128.6041098507967L146.66750000000002,128.61247314106328L146.83666666666664,127.50959300994865L146.885,128.3680962649258L147.18708333333333,127.00702831961884L147.2475,127.25117501345541L147.61,127.48703514445904L148.50416666666666,127.97870453921225L148.61291666666668,127.11252854087128L149.1808333333333,125.80094979026093L149.20499999999998,125.77831519733769L149.30166666666668,126.726896459406L149.36208333333332,126.28003588589749L149.55541666666667,126.19586589119643L149.82125,126.86047892136999L149.99041666666668,127.34854212674222L150.76375,129.3782129287719L150.8,129.71067289872593L150.90875,129.6141497872092L151.11416666666668,130.70406298203892L151.28333333333333,130.1563825607299L151.31958333333333,130.89641865816975L151.40416666666667,131.6493449644608L151.47666666666666,130.42600276253432L151.54916666666665,130.87324697321105L152.62458333333333,130.69378150593144L152.9025,132.00144715742624L153.0233333333333,131.9237222671508L153.03541666666666,131.79811945828519L153.0716666666667,131.46335766532198L153.12,131.34458359805012L153.18041666666664,131.37427711486808L153.2408333333333,131.05470735376525L153.41,131.27644963697946L153.72416666666666,130.42431475899429L153.73624999999998,130.4003757996992L153.96583333333334,129.95850250937715L154.53375,129.47964659604153L154.69083333333333,128.6429339322176L155.52458333333334,128.55147483132095L155.57291666666669,128.73493012514973L155.60916666666665,129.2768559889359L155.82666666666665,129.41327736594454L156.04416666666668,130.01420662619844L156.26166666666668,129.77619812705294L156.34625,129.13713533228088L156.41875000000002,129.22775043140751L156.61208333333332,129.2424053712324L156.63625,129.1740412278608L156.9625,128.13185249675396L156.99875,127.68767738342277L157.51833333333335,127.85501991618756L157.67541666666668,128.3668686259876L157.88083333333333,128.71229553222648L157.92916666666665,128.8996639251708L158.08624999999998,129.26665124026204L158.13458333333332,128.88447189331046L158.195,129.3630976243452L158.29166666666666,129.87072632529512L158.53333333333333,129.7339213111183L158.85958333333335,129.89735074476755L159.17375,128.83129978179923L159.23416666666668,128.57134723663322L159.7175,129.1201018420132L159.91083333333333,129.10490981015286L159.99541666666667,128.4757448543201L160.225,128.55001701008183L161.1675,130.34444150057698L161.32458333333332,130.87907825816754L161.48166666666665,131.67689011313692L161.49375,131.55819277329869L161.57833333333335,131.1284424174915L161.8925,131.38962260159573L161.92874999999998,131.746635350314L161.94083333333333,131.59179938923222L162.11,130.72316811301485L162.37583333333333,130.97406682101155L162.82291666666666,131.21061749891794L163.42708333333334,132.32554383711374L163.55999999999997,132.59309239820993L163.63250000000002,132.38071086189956L163.89833333333334,133.59914250807321L164.0675,134.01899502494112L164.09166666666667,133.5567122372713L164.20041666666665,133.358525276184L164.23666666666668,132.87560280886555L164.39375,133.18220563368357L164.40583333333333,132.71416828849092L164.46625,133.06166683543805L164.64749999999998,133.09358544783152L164.72,133.54949985850934L165.21541666666667,133.66950156471938L165.3725,133.6958958018909L165.56583333333333,133.47752952575675L165.68666666666667,134.39004889401517L166.0975,133.7236711328679L166.605,134.34071315418583L166.77416666666664,133.33573722839347L166.8345833333333,134.1472832939841L167.24541666666667,133.86369869925753L167.65625,133.6184010939164L168.2,134.30557198957956L168.22416666666666,134.75089801441533L168.26041666666666,134.67570512944994L168.51416666666665,135.11473950472737L168.57458333333332,135.22499682686538L168.58666666666667,135.08980308879498L168.635,135.11489295959464L169.16666666666669,135.2537696144797L169.26333333333332,134.89744741266418L169.40833333333333,134.35421718250615L169.54125,133.65008952400893L169.89166666666665,134.49623966217032L170.39916666666667,134.9886763312599L170.42333333333335,134.87581027637822L170.47166666666666,134.2400467612526L170.49583333333334,134.14137528159395L171.08791666666667,133.42359013990915L171.42625,133.2076024142178L171.65583333333333,133.40256682309231L171.97,133.570139538158L171.99416666666664,133.6156389063054L172.26,133.67049902135668L173.06958333333336,133.56668680364427L173.29916666666668,133.3448677929964L173.42,132.65907799113876L173.52875,132.81897796284062L173.57708333333332,133.24780758944416L173.64958333333334,133.59354140541762L174.02416666666664,133.38307805494821L174.2175,133.16501868854863L174.35041666666666,133.26161852749905L174.95458333333335,133.00389107790852L175.69166666666666,134.6365741382945L176.11458333333334,135.97677222165188L176.12666666666667,135.75502993843764L176.35625000000002,135.0260425914417L176.48916666666668,134.52869536659927L176.76708333333332,133.48351426558054L177.15374999999997,133.032203500921L177.25041666666667,132.34825515747062L177.335,132.2353123751553L177.49208333333334,132.1944933804598L177.55249999999998,132.10004190965122L178.06,132.00167733972717L178.83333333333334,133.7147707505659L178.90583333333333,133.71070419658307L179.51,133.9485592408613L179.52208333333334,133.5778122815218L180.44041666666666,133.15903394872484L180.525,133.00742053985587L180.60958333333332,132.70657227256075L180.67,133.13555535403157L180.68208333333334,133.47423024611032L181.14124999999999,134.09518536654377L181.29833333333332,133.49824593283907L181.3225,133.14936629208646L181.33458333333334,133.0134820071133L181.35875000000001,132.97181901064778L181.44333333333336,132.60183932564468L181.54,132.0639032884077L181.91458333333335,132.32707838578648L182.02333333333334,131.64420422640706L182.25291666666666,130.8926590139215L182.59125,131.16373703696505L183.11083333333332,132.59669858759094L183.2075,132.06666547601867L183.54583333333335,132.31349763003254L183.57,131.73765824057833L183.61833333333334,131.22458189184007L183.72708333333333,131.02056364579624L184.50041666666667,132.34411187605417L184.53666666666666,132.61841245131052L184.83875,133.21918825669715L185.29791666666665,133.4452272761951L185.50333333333336,134.02643758600402L185.64833333333334,133.30504625493822L186.14374999999998,134.60964280908752L186.24041666666668,135.1164275082674L186.27666666666667,135.39456445520568L186.42166666666668,135.00724437020034L186.43375,134.9924359755082L186.44583333333335,135.18225964632893L186.48208333333332,134.93320239673955L186.57875,133.99605352228332L187.24333333333334,133.57673809745089L187.42458333333335,133.53791401603L187.67833333333334,133.4892688231034L188.065,133.5852548425847L188.31875000000002,132.83432344956825L188.54833333333335,133.35614672574124L188.89875,133.03895551508117L188.935,132.69498643008137L188.99541666666667,132.91803307966745L189.56333333333333,133.02913440357548L189.61166666666668,132.75913056460286L189.72041666666667,132.71340101415453L190.20374999999999,132.9537113363092L190.71125,133.36803947795514L190.85625,133.09581054340703L190.86833333333334,133.03964606198392L191.12208333333334,132.86355660178438L191.49666666666667,133.70019253817463L191.78666666666666,135.47988536141128L192.06458333333333,135.10361402684984L192.125,135.1288573525168L192.89833333333334,135.06302521445528L193.46625,136.02557086944572L193.65958333333333,135.5432622215964L193.865,135.60802017558697L193.99791666666667,134.3903558037497L194.4933333333333,134.53046009757296L194.57791666666665,134.13838291168204L195.64125,135.05857502330426L196.17291666666668,135.26474163748995L196.185,135.0508255525068L196.475,135.0954809188842L196.66833333333335,135.68712615966788L196.77708333333334,135.64262424815777L196.98250000000002,134.07922606034705L197.00666666666666,133.80277711694885L197.03083333333333,133.59077921780667L197.055,133.90996534174133L197.07916666666665,133.86722816120488L197.1275,133.84789284792805L197.17583333333332,133.23975120891217L197.91291666666666,133.98239603909573L199.2541666666667,133.97948039661748L199.26624999999999,134.1159017736261L199.31458333333333,134.0044935399835L199.78583333333333,134.26713154532686L200.76458333333332,134.434397350658L200.825,134.66480983387333L200.94583333333333,134.3422477028586L201.41708333333332,135.9895089756358L201.50166666666667,135.33218505165786L201.53791666666666,134.9099539843472L201.63458333333332,133.90520824085576L201.64666666666668,133.76702213287345L201.70708333333332,133.97357238422734L202.87916666666666,134.62667629935518L203.01208333333332,134.17720699310294L203.12083333333334,134.2277703718705L203.22958333333335,134.05344564264465L204.11166666666665,134.51281278783617L204.13583333333332,134.48841346393925L204.87291666666667,134.4485151984474L205.07833333333335,134.6454745205965L205.15083333333334,134.48718582500103L205.69458333333333,133.20530059120864L205.93625,133.78489962491116L205.94833333333332,133.37709331512443L206.37124999999997,133.56346425143147L206.54041666666666,133.6876859664916L206.56458333333333,133.81183095411814L206.72166666666666,133.31916410272765L206.73375000000001,133.18466091155997L206.90291666666667,132.0128028176047L207.04791666666668,131.51660650426683L207.16875,131.54223346710197L207.19291666666666,131.0952194387262L207.21708333333333,131.46872858567662L208.42541666666665,132.4401746229691L208.73958333333334,132.20347049019546L209.09,131.32187227769322L210.37083333333334,132.20124539461995L210.74541666666664,131.97896601937026L210.78166666666667,132.03091049194327L210.80583333333334,132.3108121698552L211.01125,132.9551691575483L211.47041666666667,132.64503687078295L211.60333333333335,132.58350146900517L211.89333333333335,132.03666504946614L212.47333333333333,131.9454361308704L212.81166666666667,132.41424075039944L212.93249999999998,131.96791726892639L212.95666666666665,132.39329416101623L213.11374999999998,132.57774691148228L213.34333333333333,132.25802369551218L213.37958333333333,132.10756119814778L213.5125,132.26930262825698L213.53666666666666,132.2894052158702L213.54875,132.07004148309875L213.97166666666666,131.4223852157592L214.02,131.68625086004076L214.05625,130.9986963272094L214.08041666666668,130.56817869706578L214.41875,130.67306509884915L214.745,131.94014193794936L214.8175,131.6100605184381L214.82958333333332,131.82067732377476L214.85375,132.1104001131924L215.37333333333333,132.58380837873972L215.55458333333334,132.4494586424393L215.5908333333333,132.53009917519302L216.05,133.57451300187537L216.11041666666668,134.14160546389485L216.15875,133.7816003452647L216.21916666666667,133.78873599659306L216.25541666666666,133.63881059126413L216.27958333333333,133.47868043726135L216.59375,132.65608562122685L217.07708333333332,132.66659727963528L217.22208333333336,132.59117421236897L217.66916666666668,132.42091603712595L217.81416666666667,132.28173247250638L217.89875,131.9973038760098L218.17666666666665,132.71762102300463L218.3216666666667,132.75130436637178L218.76875,132.68040821769014L219.03458333333333,132.83754600178105L219.3125,133.09327853809697L219.92875,133.6222374655983L220.04958333333332,134.04822817715726L220.1220833333333,134.31807856126258L220.4725,134.16592806035814L220.48458333333335,134.50690477544603L220.50875000000002,134.71982340379188L220.58125,134.7722282409667L220.66583333333335,133.91901917891062L220.72625000000002,134.49186619845295L220.82291666666666,134.61370936307034L220.88333333333335,134.5456521294333L220.95583333333335,133.88065546209154L221.76541666666665,133.23614501953116L222.33333333333334,134.13308871876103L222.51458333333335,133.80300729924974L222.99791666666667,134.5550896037708L223.0220833333333,134.5028382214632L223.21541666666667,133.71507766030044L223.23958333333334,133.83431209217412L223.52958333333333,133.82763680544758L223.54166666666669,134.14789711345318L223.85583333333335,134.2348292957652L223.97666666666666,134.22470127452496L225.5716666666667,133.92991447448722L225.60791666666665,133.80078220367423L225.63208333333333,133.708172191273L225.86166666666668,133.40763083371243L226.36916666666664,132.93721493807698L226.40541666666667,132.85158712213683L226.64708333333334,133.48819463903246L226.81625,133.70464272932566L227.19083333333333,133.298524423079L227.215,133.70564018596295L227.26333333333332,133.37686313282353L227.80708333333334,133.70372200012199L227.97625,133.7550526532259L228.03666666666666,133.64049859480417L228.62875000000003,133.85226631164542L228.85833333333335,134.00595136122263L229.10000000000002,134.45825958251945L229.30541666666667,134.07293441078872L229.825,134.79501628875724L230.1029166666667,134.37915359843853L230.39291666666668,134.77230496840036L230.75541666666666,134.760719125921L230.76749999999998,134.17037825150916L230.79166666666666,133.71645875410593L230.87625,133.48903864080248L231.2145833333333,132.57690290971226L231.7825,132.9349898425015L231.97583333333336,133.2611581628972L232.01208333333332,133.56906535408706L232.02416666666667,133.58694284612474L232.25375,134.04907217892728L232.37458333333333,133.3233073841441L232.84583333333333,132.65984526547513L232.93041666666664,132.24221784418273L233.29291666666668,131.73443568836552L233.35333333333332,132.04042469371444L233.75208333333333,132.08055314150715L233.92125000000001,132.60283678228197L234.07833333333335,132.4858274459838L234.64625,132.78460407257072L234.92416666666668,132.84299364956937L234.96041666666665,132.9740441062233L235.15375,133.4335647062821L235.31083333333333,133.5355354655872L235.37125,133.8831874674016L235.4075,133.68530741604886L235.57666666666668,133.4101628390225L235.66125000000002,132.6741165681318L235.72166666666666,132.75713565132827L236.03583333333333,131.70412835207844L236.74875,131.81783840873018L236.91791666666666,131.8311122547496L237.13541666666669,131.7661241184581L237.3045833333333,131.44908636266527L237.70333333333332,131.36760182814157L237.73958333333334,131.17754797501988L237.7758333333333,131.0112028988924L237.93291666666664,131.31067007238207L238.11416666666668,131.39269169894123L238.80291666666665,131.54783456975755L239.18958333333333,131.43090196089304L239.20166666666665,131.34604141928926L239.32250000000002,131.17516942457712L239.35875,131.22504225644192L239.74541666666667,131.4718744104558L239.7575,131.61059761047355L239.79375000000002,131.38118258389554L240.01125000000002,131.35954544760958L240.11999999999998,130.4971290935169L240.555,129.8326695182106L240.95375,129.44818834824986L241.1954166666667,130.21738087047223L241.54583333333332,129.46368728984478L241.61833333333334,129.59642575003878L241.69083333333333,129.50404591993845L241.715,129.7978352633389L242.14999999999998,129.7825665040449L242.17416666666665,129.4887004332108L242.25875,129.05265842784527L242.47625,129.14411752874193L242.48833333333332,129.20810820839614L242.85083333333336,129.77988104386753L243.27375,129.27570507743135L243.84166666666667,129.38350712169293L244.22833333333332,129.49153934825543L244.38541666666666,129.48655206506896L244.3975,129.49092552878633L244.48208333333335,129.340232849121L244.53041666666667,129.17212304201985L244.73583333333332,128.90411411632184L244.8083333333333,128.59129636937914L244.96541666666664,128.10752990029067L244.98958333333334,128.18456424366337L245.19500000000002,128.2031322826038L245.76291666666665,128.46999029679722L246.2825,128.36740571802306L246.43958333333333,127.68061845952808L246.48791666666668,127.86952140114516L246.5966666666667,128.00018822063092L246.88666666666668,127.86200211264863L247.0075,128.44520733573214L247.04375000000002,128.54825227910814L247.62375,129.51371357657686L247.64791666666667,129.50903320312491L247.8775,129.897043835033L248.85625000000002,130.85882221568707L249.0979166666667,131.3187264529141L249.25500000000002,131.42836995558298L249.29125,131.36023599451232L249.37583333333333,131.09192015907973L249.5691666666667,130.72201720151028L249.81083333333333,131.00007742101488L250.29416666666665,130.34743387048889L250.4875,130.24500274658195L251.33333333333334,130.79030461744821L251.3695833333333,130.9964712316339L251.62333333333333,130.31221597844896L252.14291666666668,130.7824784192171L253.84666666666666,130.06814601204604L253.85875000000001,130.37252374128855L254.08833333333334,130.71526518735013L254.25750000000002,131.2135331413962L254.28166666666667,131.21652551130808L254.93416666666667,130.42922531474713L255.41750000000002,130.22935035011977L255.9008333333333,130.07681621204716L255.91291666666666,130.102289720015L255.97333333333336,129.65374114296645L256.05791666666664,129.81264365803105L256.1425,130.06960383328519L256.25124999999997,129.7504177093505L256.4083333333333,129.64246221022165L256.7104166666667,129.75793699784703L256.8795833333333,128.5129576596346L256.97625,128.26044767553148L257.1816666666667,128.31193178350267L257.52,128.57756215875793L257.93083333333334,128.06502290205515L258.4866666666667,128.39472068439824L258.78875,128.2161759463223L258.9579166666667,128.51019547202364L258.9820833333333,128.37837774103332L258.9941666666667,128.3912679498845L259.3325,128.21763376756138L259.3929166666667,128.62122006849802L259.4533333333334,128.7739076614379L259.51375,128.96879534287876L259.76750000000004,129.04912896589792L260.57708333333335,129.62281998721028L260.6375,130.10796755010423L260.64958333333334,129.82054658369577L260.855,130.00492260672823L260.96375,130.22221469879142L261.0725,130.19620409878812L261.6766666666667,130.01604808460576L261.78541666666666,129.86850122971958L261.84583333333336,130.19505318728352L263.2716666666667,130.74595616080538L263.59791666666666,130.38894341208712L263.6825,130.78033005107525L264.12958333333336,131.44517326354972L264.335,130.62695191123262L264.4920833333333,130.29157629880032L264.73375,130.14940036426884L265.25333333333333,129.59335665269322L265.7608333333333,129.91062459078694L265.82125,129.70323033766306" style="fill: none;" fill="none"></path></g></g></g></g></g></g><g transform="translate(40, 177)" clip-path="url(#clip_1)"><clipPath id="clip_1"><rect width="290" height="22"></rect></clipPath><g><g><line x1="0" y1="0" x2="0" y2="5" style="visibility: inherit;" fill="rgb(0, 0, 0)" stroke="rgb(200, 195, 188)" stroke-width="1px"></line><line x1="24.166666666666664" y1="0" x2="24.166666666666664" y2="5" style="visibility: inherit;" fill="rgb(0, 0, 0)" stroke="rgb(200, 195, 188)" stroke-width="1px"></line><line x1="48.33333333333333" y1="0" x2="48.33333333333333" y2="5" style="visibility: inherit;" fill="rgb(0, 0, 0)" stroke="rgb(200, 195, 188)" stroke-width="1px"></line><line x1="72.5" y1="0" x2="72.5" y2="5" style="visibility: inherit;" fill="rgb(0, 0, 0)" stroke="rgb(200, 195, 188)" stroke-width="1px"></line><line x1="96.66666666666666" y1="0" x2="96.66666666666666" y2="5" style="visibility: inherit;" fill="rgb(0, 0, 0)" stroke="rgb(200, 195, 188)" stroke-width="1px"></line><line x1="120.83333333333334" y1="0" x2="120.83333333333334" y2="5" style="visibility: inherit;" fill="rgb(0, 0, 0)" stroke="rgb(200, 195, 188)" stroke-width="1px"></line><line x1="145" y1="0" x2="145" y2="5" style="visibility: inherit;" fill="rgb(0, 0, 0)" stroke="rgb(200, 195, 188)" stroke-width="1px"></line><line x1="169.16666666666669" y1="0" x2="169.16666666666669" y2="5" style="visibility: inherit;" fill="rgb(0, 0, 0)" stroke="rgb(200, 195, 188)" stroke-width="1px"></line><line x1="193.33333333333331" y1="0" x2="193.33333333333331" y2="5" style="visibility: inherit;" fill="rgb(0, 0, 0)" stroke="rgb(200, 195, 188)" stroke-width="1px"></line><line x1="217.5" y1="0" x2="217.5" y2="5" style="visibility: inherit;" fill="rgb(0, 0, 0)" stroke="rgb(200, 195, 188)" stroke-width="1px"></line><line x1="241.66666666666669" y1="0" x2="241.66666666666669" y2="5" style="visibility: inherit;" fill="rgb(0, 0, 0)" stroke="rgb(200, 195, 188)" stroke-width="1px"></line><line x1="265.8333333333333" y1="0" x2="265.8333333333333" y2="5" style="visibility: inherit;" fill="rgb(0, 0, 0)" stroke="rgb(200, 195, 188)" stroke-width="1px"></line><line x1="290" y1="0" x2="290" y2="5" style="visibility: inherit;" fill="rgb(0, 0, 0)" stroke="rgb(200, 195, 188)" stroke-width="1px"></line></g><g transform="translate(0, 8)"><text x="0" y="0" dx="0em" dy="0.95em" style="text-anchor: middle; visibility: hidden; font-family: Roboto, sans-serif; font-size: 12px; font-weight: 200;" fill="rgb(232, 230, 227)" stroke="none" stroke-width="1px">-2k</text><text x="24.166666666666664" y="0" dx="0em" dy="0.95em" style="text-anchor: middle; visibility: inherit; font-family: Roboto, sans-serif; font-size: 12px; font-weight: 200;" fill="rgb(232, 230, 227)" stroke="none" stroke-width="1px">0</text><text x="48.33333333333333" y="0" dx="0em" dy="0.95em" style="text-anchor: middle; visibility: hidden; font-family: Roboto, sans-serif; font-size: 12px; font-weight: 200;" fill="rgb(232, 230, 227)" stroke="none" stroke-width="1px">2k</text><text x="72.5" y="0" dx="0em" dy="0.95em" style="text-anchor: middle; visibility: inherit; font-family: Roboto, sans-serif; font-size: 12px; font-weight: 200;" fill="rgb(232, 230, 227)" stroke="none" stroke-width="1px">4k</text><text x="96.66666666666666" y="0" dx="0em" dy="0.95em" style="text-anchor: middle; visibility: hidden; font-family: Roboto, sans-serif; font-size: 12px; font-weight: 200;" fill="rgb(232, 230, 227)" stroke="none" stroke-width="1px">6k</text><text x="120.83333333333334" y="0" dx="0em" dy="0.95em" style="text-anchor: middle; visibility: inherit; font-family: Roboto, sans-serif; font-size: 12px; font-weight: 200;" fill="rgb(232, 230, 227)" stroke="none" stroke-width="1px">8k</text><text x="145" y="0" dx="0em" dy="0.95em" style="text-anchor: middle; visibility: hidden; font-family: Roboto, sans-serif; font-size: 12px; font-weight: 200;" fill="rgb(232, 230, 227)" stroke="none" stroke-width="1px">10k</text><text x="169.16666666666669" y="0" dx="0em" dy="0.95em" style="text-anchor: middle; visibility: inherit; font-family: Roboto, sans-serif; font-size: 12px; font-weight: 200;" fill="rgb(232, 230, 227)" stroke="none" stroke-width="1px">12k</text><text x="193.33333333333331" y="0" dx="0em" dy="0.95em" style="text-anchor: middle; visibility: hidden; font-family: Roboto, sans-serif; font-size: 12px; font-weight: 200;" fill="rgb(232, 230, 227)" stroke="none" stroke-width="1px">14k</text><text x="217.5" y="0" dx="0em" dy="0.95em" style="text-anchor: middle; visibility: inherit; font-family: Roboto, sans-serif; font-size: 12px; font-weight: 200;" fill="rgb(232, 230, 227)" stroke="none" stroke-width="1px">16k</text><text x="241.66666666666669" y="0" dx="0em" dy="0.95em" style="text-anchor: middle; visibility: hidden; font-family: Roboto, sans-serif; font-size: 12px; font-weight: 200;" fill="rgb(232, 230, 227)" stroke="none" stroke-width="1px">18k</text><text x="265.8333333333333" y="0" dx="0em" dy="0.95em" style="text-anchor: middle; visibility: inherit; font-family: Roboto, sans-serif; font-size: 12px; font-weight: 200;" fill="rgb(232, 230, 227)" stroke="none" stroke-width="1px">20k</text><text x="290" y="0" dx="0em" dy="0.95em" style="text-anchor: middle; visibility: hidden; font-family: Roboto, sans-serif; font-size: 12px; font-weight: 200;" fill="rgb(232, 230, 227)" stroke="none" stroke-width="1px">22k</text></g><line x1="0" y1="0" x2="290" y2="0" fill="rgb(0, 0, 0)" stroke="rgb(200, 195, 188)" stroke-width="1px"></line></g></g></g></g></svg>