<svg viewBox="0 0 330 200" xmlns="http://www.w3.org/2000/svg"><g><g><g><g><g><line x1="61.953125" y1="177" x2="56.953125" y2="177" style="visibility: inherit;" fill="rgb(0, 0, 0)" stroke="rgb(200, 195, 188)" stroke-width="1px"></line><line x1="61.953125" y1="160.90909090909088" x2="56.953125" y2="160.90909090909088" style="visibility: inherit;" fill="rgb(0, 0, 0)" stroke="rgb(200, 195, 188)" stroke-width="1px"></line><line x1="61.953125" y1="144.81818181818176" x2="56.953125" y2="144.81818181818176" style="visibility: inherit;" fill="rgb(0, 0, 0)" stroke="rgb(200, 195, 188)" stroke-width="1px"></line><line x1="61.953125" y1="128.72727272727263" x2="56.953125" y2="128.72727272727263" style="visibility: inherit;" fill="rgb(0, 0, 0)" stroke="rgb(200, 195, 188)" stroke-width="1px"></line><line x1="61.953125" y1="112.6363636363635" x2="56.953125" y2="112.6363636363635" style="visibility: inherit;" fill="rgb(0, 0, 0)" stroke="rgb(200, 195, 188)" stroke-width="1px"></line><line x1="61.953125" y1="96.54545454545438" x2="56.953125" y2="96.54545454545438" style="visibility: inherit;" fill="rgb(0, 0, 0)" stroke="rgb(200, 195, 188)" stroke-width="1px"></line><line x1="61.953125" y1="80.45454545454527" x2="56.953125" y2="80.45454545454527" style="visibility: inherit;" fill="rgb(0, 0, 0)" stroke="rgb(200, 195, 188)" stroke-width="1px"></line><line x1="61.953125" y1="64.36363636363613" x2="56.953125" y2="64.36363636363613" style="visibility: inherit;" fill="rgb(0, 0, 0)" stroke="rgb(200, 195, 188)" stroke-width="1px"></line><line x1="61.953125" y1="48.27272727272701" x2="56.953125" y2="48.27272727272701" style="visibility: inherit;" fill="rgb(0, 0, 0)" stroke="rgb(200, 195, 188)" stroke-width="1px"></line><line x1="61.953125" y1="32.181818181817896" x2="56.953125" y2="32.181818181817896" style="visibility: inherit;" fill="rgb(0, 0, 0)" stroke="rgb(200, 195, 188)" stroke-width="1px"></line><line x1="61.953125" y1="16.090909090909115" x2="56.953125" y2="16.090909090909115" style="visibility: inherit;" fill="rgb(0, 0, 0)" stroke="rgb(200, 195, 188)" stroke-width="1px"></line><line x1="61.953125" y1="0" x2="56.953125" y2="0" style="visibility: inherit;" fill="rgb(0, 0, 0)" stroke="rgb(200, 195, 188)" stroke-width="1px"></line></g><g transform="translate(51.953125, 0)"><text x="0" y="177" dx="0em" dy="0.3em" style="text-anchor: end; visibility: hidden; font-family: Roboto, sans-serif; font-size: 12px; font-weight: 200;" fill="rgb(232, 230, 227)" stroke="none" stroke-width="1px">0.89</text><text x="0" y="160.90909090909088" dx="0em" dy="0.3em" style="text-anchor: end; visibility: inherit; font-family: Roboto, sans-serif; font-size: 12px; font-weight: 200;" fill="rgb(232, 230, 227)" stroke="none" stroke-width="1px">0.895</text><text x="0" y="144.81818181818176" dx="0em" dy="0.3em" style="text-anchor: end; visibility: hidden; font-family: Roboto, sans-serif; font-size: 12px; font-weight: 200;" fill="rgb(232, 230, 227)" stroke="none" stroke-width="1px">0.9</text><text x="0" y="128.72727272727263" dx="0em" dy="0.3em" style="text-anchor: end; visibility: inherit; font-family: Roboto, sans-serif; font-size: 12px; font-weight: 200;" fill="rgb(232, 230, 227)" stroke="none" stroke-width="1px">0.905</text><text x="0" y="112.6363636363635" dx="0em" dy="0.3em" style="text-anchor: end; visibility: hidden; font-family: Roboto, sans-serif; font-size: 12px; font-weight: 200;" fill="rgb(232, 230, 227)" stroke="none" stroke-width="1px">0.91</text><text x="0" y="96.54545454545438" dx="0em" dy="0.3em" style="text-anchor: end; visibility: inherit; font-family: Roboto, sans-serif; font-size: 12px; font-weight: 200;" fill="rgb(232, 230, 227)" stroke="none" stroke-width="1px">0.915</text><text x="0" y="80.45454545454527" dx="0em" dy="0.3em" style="text-anchor: end; visibility: hidden; font-family: Roboto, sans-serif; font-size: 12px; font-weight: 200;" fill="rgb(232, 230, 227)" stroke="none" stroke-width="1px">0.92</text><text x="0" y="64.36363636363613" dx="0em" dy="0.3em" style="text-anchor: end; visibility: inherit; font-family: Roboto, sans-serif; font-size: 12px; font-weight: 200;" fill="rgb(232, 230, 227)" stroke="none" stroke-width="1px">0.925</text><text x="0" y="48.27272727272701" dx="0em" dy="0.3em" style="text-anchor: end; visibility: hidden; font-family: Roboto, sans-serif; font-size: 12px; font-weight: 200;" fill="rgb(232, 230, 227)" stroke="none" stroke-width="1px">0.93</text><text x="0" y="32.181818181817896" dx="0em" dy="0.3em" style="text-anchor: end; visibility: inherit; font-family: Roboto, sans-serif; font-size: 12px; font-weight: 200;" fill="rgb(232, 230, 227)" stroke="none" stroke-width="1px">0.935</text><text x="0" y="16.090909090909115" dx="0em" dy="0.3em" style="text-anchor: end; visibility: hidden; font-family: Roboto, sans-serif; font-size: 12px; font-weight: 200;" fill="rgb(232, 230, 227)" stroke="none" stroke-width="1px">0.94</text><text x="0" y="0" dx="0em" dy="0.3em" style="text-anchor: end; visibility: hidden; font-family: Roboto, sans-serif; font-size: 12px; font-weight: 200;" fill="rgb(232, 230, 227)" stroke="none" stroke-width="1px">0.945</text></g><line x1="61.953125" y1="0" x2="61.953125" y2="177" fill="rgb(0, 0, 0)" stroke="rgb(200, 195, 188)" stroke-width="1px"></line></g></g><g transform="translate(61, 0)" clip-path="url(#clip_0)"><clipPath id="clip_0"><rect width="268" height="176"></rect></clipPath><g><g><g><line x1="0" y1="0" x2="0" y2="177" fill="rgb(0, 0, 0)" stroke="rgb(194, 189, 181)" stroke-width="1px" opacity="0.25"></line><line x1="22.337239583333332" y1="0" x2="22.337239583333332" y2="177" fill="rgb(0, 0, 0)" stroke="rgb(194, 189, 181)" stroke-width="1px" opacity="0.25"></line><line x1="44.674479166666664" y1="0" x2="44.674479166666664" y2="177" fill="rgb(0, 0, 0)" stroke="rgb(194, 189, 181)" stroke-width="1px" opacity="0.25"></line><line x1="67.01171875" y1="0" x2="67.01171875" y2="177" fill="rgb(0, 0, 0)" stroke="rgb(194, 189, 181)" stroke-width="1px" opacity="0.25"></line><line x1="89.34895833333333" y1="0" x2="89.34895833333333" y2="177" fill="rgb(0, 0, 0)" stroke="rgb(194, 189, 181)" stroke-width="1px" opacity="0.25"></line><line x1="111.68619791666667" y1="0" x2="111.68619791666667" y2="177" fill="rgb(0, 0, 0)" stroke="rgb(194, 189, 181)" stroke-width="1px" opacity="0.25"></line><line x1="134.0234375" y1="0" x2="134.0234375" y2="177" fill="rgb(0, 0, 0)" stroke="rgb(194, 189, 181)" stroke-width="1px" opacity="0.25"></line><line x1="156.36067708333334" y1="0" x2="156.36067708333334" y2="177" fill="rgb(0, 0, 0)" stroke="rgb(194, 189, 181)" stroke-width="1px" opacity="0.25"></line><line x1="178.69791666666666" y1="0" x2="178.69791666666666" y2="177" fill="rgb(0, 0, 0)" stroke="rgb(194, 189, 181)" stroke-width="1px" opacity="0.25"></line><line x1="201.03515625" y1="0" x2="201.03515625" y2="177" fill="rgb(0, 0, 0)" stroke="rgb(194, 189, 181)" stroke-width="1px" opacity="0.25"></line><line x1="223.37239583333334" y1="0" x2="223.37239583333334" y2="177" fill="rgb(0, 0, 0)" stroke="rgb(194, 189, 181)" stroke-width="1px" opacity="0.25"></line><line x1="245.70963541666666" y1="0" x2="245.70963541666666" y2="177" fill="rgb(0, 0, 0)" stroke="rgb(194, 189, 181)" stroke-width="1px" opacity="0.25"></line><line x1="268.046875" y1="0" x2="268.046875" y2="177" fill="rgb(0, 0, 0)" stroke="rgb(194, 189, 181)" stroke-width="1px" opacity="0.25"></line></g><g><line x1="0" y1="177" x2="268.046875" y2="177" fill="rgb(0, 0, 0)" stroke="rgb(194, 189, 181)" stroke-width="1px" opacity="0.25"></line><line x1="0" y1="160.90909090909088" x2="268.046875" y2="160.90909090909088" fill="rgb(0, 0, 0)" stroke="rgb(194, 189, 181)" stroke-width="1px" opacity="0.25"></line><line x1="0" y1="144.81818181818176" x2="268.046875" y2="144.81818181818176" fill="rgb(0, 0, 0)" stroke="rgb(194, 189, 181)" stroke-width="1px" opacity="0.25"></line><line x1="0" y1="128.72727272727263" x2="268.046875" y2="128.72727272727263" fill="rgb(0, 0, 0)" stroke="rgb(194, 189, 181)" stroke-width="1px" opacity="0.25"></line><line x1="0" y1="112.6363636363635" x2="268.046875" y2="112.6363636363635" fill="rgb(0, 0, 0)" stroke="rgb(194, 189, 181)" stroke-width="1px" opacity="0.25"></line><line x1="0" y1="96.54545454545438" x2="268.046875" y2="96.54545454545438" fill="rgb(0, 0, 0)" stroke="rgb(194, 189, 181)" stroke-width="1px" opacity="0.25"></line><line x1="0" y1="80.45454545454527" x2="268.046875" y2="80.45454545454527" fill="rgb(0, 0, 0)" stroke="rgb(194, 189, 181)" stroke-width="1px" opacity="0.25"></line><line x1="0" y1="64.36363636363613" x2="268.046875" y2="64.36363636363613" fill="rgb(0, 0, 0)" stroke="rgb(194, 189, 181)" stroke-width="1px" opacity="0.25"></line><line x1="0" y1="48.27272727272701" x2="268.046875" y2="48.27272727272701" fill="rgb(0, 0, 0)" stroke="rgb(194, 189, 181)" stroke-width="1px" opacity="0.25"></line><line x1="0" y1="32.181818181817896" x2="268.046875" y2="32.181818181817896" fill="rgb(0, 0, 0)" stroke="rgb(194, 189, 181)" stroke-width="1px" opacity="0.25"></line><line x1="0" y1="16.090909090909115" x2="268.046875" y2="16.090909090909115" fill="rgb(0, 0, 0)" stroke="rgb(194, 189, 181)" stroke-width="1px" opacity="0.25"></line><line x1="0" y1="0" x2="268.046875" y2="0" fill="rgb(0, 0, 0)" stroke="rgb(194, 189, 181)" stroke-width="1px" opacity="0.25"></line></g></g></g><g><g><line x1="0" y1="3041.1818181818217" x2="268.046875" y2="3041.1818181818217" fill="rgb(0, 0, 0)" stroke="rgb(168, 160, 149)" stroke-width="1.5px"></line></g></g><g><g><line x1="22.337239583333332" y1="0" x2="22.337239583333332" y2="177" fill="rgb(0, 0, 0)" stroke="rgb(168, 160, 149)" stroke-width="1.5px"></line></g></g><g><g><g><g><g><path stroke="rgb(0, 119, 187)" stroke-width="2px" d="M30.75837890625,180.35616787041025L31.10460611979167,171.65201408492365L31.138111979166666,165.1030097671274L31.160449218750003,152.8985497196902L31.551350911458332,143.23360135709063L31.57368815104167,137.74758661761604L31.685374348958334,155.10653956931188L32.165625,163.03807205356355L32.24380533854167,160.96070848950055L32.8357421875,155.6517253866299L32.88041666666666,151.39030827580962L32.91392252604167,141.04164268237855L33.025608723958335,149.88266250930525L33.036777343749996,158.28044701453734L33.248981119791665,176.60593313687838L33.68455729166667,175.8951585374023L33.69572591145833,172.61555018517285L33.72923177083333,177.5765974806502L34.15363932291667,175.1037689531836L35.09180338541666,146.20436093398087L35.40452473958333,134.69754656691083L35.71724609375,105.02178081979702L35.82893229166666,77.63805899898024L36.096979166666664,90.84617873741314L36.588398437500004,99.30618946924348L36.87878255208334,126.55889146145975L37.16916666666666,136.6133440235017L37.526562500000004,144.90349199356064L37.638248697916666,134.54974148019414L37.70526041666667,131.00914147187024L38.062656249999996,121.29796892359958L39.05666341145833,131.4520360786029L39.503408203125005,129.9970528011816L39.514576822916666,131.04822490402114L39.81612955729167,133.74059952360705L40.039501953125004,129.10231376308244L40.08417643229166,123.72341928333816L40.22936848958334,119.03695145057435L40.475078124999996,129.80706687221164L40.6091015625,138.36932467677195L40.687281901041665,146.86042758779524L40.69845052083333,150.92243637347383L40.709619140625,157.27343472074335L40.81013671875,169.31021045023888L41.70362630208333,167.49766938623716L42.12803385416667,151.81465701950557L42.83165690104167,157.67004228460985L43.501774088541666,162.2747700741749L44.194228515625,158.5455073443461L44.350589192708334,148.49013255510147L44.652141927083335,140.13742348823442L45.366933593750005,130.31390687365297L45.389270833333335,125.37471667919692L46.137568359375,135.89234346801467L46.99755208333333,122.48238508425372L47.03105794270833,112.90183695451485L47.12040690104167,107.41249879469471L47.24326171875,113.57179004760799L47.745849609375,113.50727352963467L47.8463671875,119.89797984591752L47.913378906249996,119.39828821387869L48.214931640625004,111.66834468078865L48.60583333333334,106.37296009736333L49.17543294270833,101.15664912829652L49.43231119791667,98.62975073194153L49.566334635416666,100.40255699251064L49.86788736979167,102.49576437472719L50.01307942708333,106.56975140213684L50.47099283854167,123.18357899569423L50.761376953124994,135.41111439140548L50.87306315104166,142.76348045971633L51.565517578125,151.8127262821221L52.034599609375,153.64709410721224L52.05693684895834,157.7220002486568L52.1351171875,161.57628827957538L52.838740234374995,167.32121131540092L53.151461588541665,174.87143502450115L53.307822265625,177.86457268390905L53.642880859375,175.8745234045521L53.877421875,169.75136223333666L54.190143229166665,166.46534032950893L54.20131184895833,164.58969095953714L54.63688802083333,154.1973217233329L54.65922526041667,150.86573619871223L54.87142903645833,151.58066337329703L54.88259765625,154.42863565943964L55.251162109375,155.40055125373723L55.76491861979167,149.4959182912091L55.921279296875,143.5297000029709L56.122314453125,145.60957866505052L56.1558203125,143.77629873973984L56.178157552083334,142.5686778326274L56.21166341145833,142.64769876839037L56.23400065104166,146.84125079153233L56.46854166666667,146.12357803318346L56.792431640625004,145.59444246840724L56.825937499999995,147.5829582633039L57.55189778645833,143.49443169491707L57.80877604166667,138.65084324813222L57.87578776041667,139.8081550892526L58.199677734375,145.2342452384366L58.45655598958333,144.32795610360867L58.72460286458333,142.66130730998546L59.02615559895833,134.0203666450577L59.18251627604167,141.84643362676687L59.19368489583333,146.05930189621262L59.39472005208333,145.64978072661708L59.472900390625,143.16667627210973L59.539912109374995,140.30061457760826L59.807958984375,140.1826537105337L60.08717447916666,136.18900158207973L60.22119791666666,132.82563053578895L60.355221354166666,127.0544860204339L60.57859375,127.95000819860216L60.63443684895834,132.01471283361568L60.868977864583336,133.28826248714685L61.03650716145834,140.05378241199446L61.05884440104167,143.52958162439245L61.081181640625,149.384710113882L61.12585611979167,150.67696995059669L61.27104817708333,148.84158090272828L61.282216796875,147.02403106067587L61.5167578125,142.65926665286426L61.717792968750004,142.01885476009153L62.04168294270833,143.15264464074752L62.10869466145833,143.50943807095078L62.5889453125,134.5551231179766L62.63361979166667,131.957104065024L63.00218424479167,124.54166395722288L63.03569010416667,120.12529152063833L63.06919596354167,113.6219818830017L63.13620768229167,110.19938790534357L63.21438802083333,106.70910126682685L63.281399739583335,108.1125781439501L63.38191731770833,114.74584778068088L63.40425455729167,120.11500654370707L63.59412109375,122.49924855312858L63.67230143229167,125.67685598533606L64.163720703125,127.33028255317481L64.7333203125,125.06339143812262L64.75565755208333,123.58917240233589L64.77799479166667,122.7618788393663L64.88968098958334,127.64500138236053L65.06837890625,129.5178347024581L65.42577473958333,127.8441010636949L65.44811197916667,124.79425383423195L65.48161783854167,122.70224830401746L65.503955078125,125.05116202991648L65.58213541666667,125.90919398701037L66.28575846354167,123.76121015425373L66.43095052083333,124.50474958805498L66.63198567708334,119.28445623311686L66.67666015625,117.51220873371568L66.710166015625,117.87405849554942L66.73250325520833,114.09747707565123L66.81068359375,112.17803537864948L67.03405598958334,109.52068483161015L67.21275390624999,105.10508221462558L67.22392252604168,100.67677141870614L67.279765625,101.71174372997399L67.32444010416665,100.87174436432998L67.50313802083333,100.207111558377L67.51430664062501,101.66377801289606L67.52547526041667,100.2765601347058L67.53664388020833,101.35780923732423L67.58131835937499,105.39249823380769L67.82702799479166,106.92879976343538L68.29611002604167,103.98531040241642L68.37429036458333,103.83976403672678L68.38545898437499,105.29578174790501L68.43013346354167,104.98692337420941L69.01090169270833,100.95136389797011L69.0220703125,96.9936852519066L69.122587890625,98.07758915622867L69.27894856770834,97.68280721582259L69.61400716145833,97.60117350371695L69.6921875,99.5073121902891L69.77036783854166,98.04917104794585L69.926728515625,97.02048112433008L70.395810546875,94.22611571764645L70.46282226562501,94.76308074781079L71.736044921875,90.40082224243847L71.93708007812499,89.8765501443836L71.95941731770834,90.82178081525382L72.004091796875,89.1756003452064L72.02642903645832,90.4593484703438L72.17162109374999,92.97388314172483L72.22746419270834,93.3296409001815L72.39499348958334,93.9922302268328L73.02043619791667,88.42986810670153L73.38900065104167,83.68303138158004L73.44484375,84.16003778025848L73.63471028645833,84.4583566533452L73.72405924479168,86.19053137066804L73.73522786458334,85.25703812866075L73.75756510416667,85.35828674631681L73.86925130208334,84.37367952539402L73.89158854166666,86.99599676374419L74.20430989583333,87.48098803646432L74.26015299479167,86.91288699280311L74.42768229166667,87.76884132201297L74.47235677083333,88.27210082906656L75.05312500000001,85.27745093108108L75.24299153645833,81.96228688638661L75.421689453125,81.76367100445594L75.81259114583334,76.85281752177568L75.857265625,74.34224951113147L76.12531249999999,71.84848433187776L76.14764973958334,71.81887153942392L76.16998697916667,73.30846965815323L76.19232421875,75.57586579877983L76.38219075520833,76.64761746403204L76.51621419270833,75.73963807503266L76.98529622395833,75.83367801778705L77.51022135416667,71.87469491158437L77.57723307291667,71.32352810304464L77.78943684895833,67.76508870218646L77.80060546875,66.80694788747819L77.86761718749999,66.2897591932724L77.901123046875,65.64860505734056L78.06865234375,68.81112334950282L78.12449544270832,68.75937456866298L78.52656575520832,66.06163324073043L78.537734375,64.71508044587723L79.12967122395834,63.901761327891265L79.47589843749999,66.10861873521975L79.509404296875,66.07065375681684L79.58758463541666,66.74910658713094L79.7439453125,68.53301223355645L80.33588216145834,71.48874493882337L80.39172526041666,74.42844307553926L80.42523111979166,74.40144113961412L80.70444661458333,75.13307312801612L81.03950520833334,77.35384515510468L81.09534830729166,81.17112562320273L81.15119140625,78.76371356021043L81.16236002604167,78.91990682246184L81.26287760416666,78.70047553979592L81.318720703125,78.43899584867252L81.921826171875,71.73296770739935L82.54726888020834,64.40040670659738L82.58077473958333,62.36655231095579L82.94933919270834,61.20033306549194L82.97167643229166,60.84504958899201L82.994013671875,62.26215483696632L83.02751953125001,65.46144459814808L83.38491536458334,66.4861275011217L83.75347981770834,64.97578056305153L83.86516601562501,61.4053575480654L84.535283203125,54.77780259340415L84.63580078125,52.04841726141462L84.78099283854168,49.134261662321585L85.21656901041668,47.47287108328724L85.42877278645832,43.27320622366896L85.51812174479167,40.9613185062303L85.55162760416667,41.09240511192757L85.57396484374999,39.82071650627049L85.73032552083335,40.03227894655157L86.05421549479166,41.4630292006093L86.26641927083334,42.079760893224204L86.65732096354166,40.57926915708405L86.679658203125,38.46699158325283L87.07055989583333,35.116128243518226L87.10406575520834,34.673561250810515L88.27677083333333,28.967783336698755L88.44430013020833,27.301738916299353L88.47780598958333,26.52248819317059L88.56715494791668,24.89848375201619L88.622998046875,25.324877466804782L88.76819010416666,25.459396596868004L89.80687174479166,24.34664768926793L89.85154622395834,27.171211841125753L89.87388346354166,31.08871494431915L89.97440104166667,38.313616964744654L89.98556966145833,43.245372414292746L90.13076171875,47.162710918165864L90.16426757812499,50.16346328866327L90.25361653645834,51.519775238685696L90.968408203125,51.521283347580926L91.12476888020832,51.64874970306493L91.20294921874999,52.25338082949001L91.25879231770833,48.749628476001696L91.99592122395833,46.68077447351329L92.56552083333334,50.04010854782687L93.09044596354167,50.56160856360451L93.10161458333333,52.005305315430945L93.179794921875,53.905578333027236L93.48134765625,54.70948167978397L93.87224934895833,55.09593276026995L93.983935546875,55.373715648897786L94.39717447916667,54.97589105263654L94.41951171875,54.04491588839263L94.4865234375,54.63110403776254L94.49769205729166,55.88543197974895L94.73223307291667,59.974870353370896L94.81041341145834,60.432466507051565L94.84391927083334,61.3316110606241L95.16780924479166,61.48137830056261L95.75974609375001,62.80289681736023L96.10597330729166,60.50980867964043L96.21765950520833,56.12295642686618L96.22882812499999,53.17797834160419L96.23999674479167,52.786767765330424L96.25116536458333,51.41358229102006L96.67557291666667,51.352687426103635L96.764921875,53.487256751379995L97.30101562499999,55.31604601709054L97.47971354166667,53.98790787026041L97.58023111979166,52.029756395139415L97.64724283854167,49.84780724087427L97.71425455729167,46.82088347598412L98.32852864583333,44.89811565858917L98.48488932291667,44.925859544002876L98.63008138020834,43.54651683847615L98.909296875,40.41912204145507L98.93163411458333,38.80399676157239L98.95397135416665,38.262443351183336L98.98747721354167,36.97176730796362L99.14383789062501,38.31267220696101L99.36721028645833,42.31190269943386L100.42822916666667,40.841408955901L100.53991536458334,38.79880662041899L100.685107421875,40.73785151740797L100.76328776041667,43.84482847650919L101.10951497395833,45.90653543536091L101.12068359374999,46.32356771529657L101.25470703124999,48.75609016270602L101.26587565104167,49.364467394415605L101.56742838541668,47.4303857196074L101.65677734375,45.25922363756076L101.958330078125,45.48110153856022L103.164541015625,40.26759123594782L103.29856445312501,37.625602592312454L103.30973307291667,35.134577976931816L103.41025065104166,32.197137713130964L103.54427408854166,33.24414345424505L103.58894856770834,35.1374060252452L103.6001171875,36.08155037502732L103.61128580729167,35.46596034025865L103.74530924479167,34.513387633704326L104.01335611979167,33.0587121550135L104.270234375,34.166163213186124L104.49360677083332,32.84388150843808L104.71697916666666,30.767456039284113L105.19722981770833,31.299148512378654L105.20839843750001,32.57562009830611L105.576962890625,34.32990323290555L105.73332356770834,36.22648949780989L106.67148763020835,39.46891132438502L107.28576171875,44.5364147537063L107.34160481770834,47.06699857004028L107.53147135416667,47.89423480956665L107.67666341145834,47.983921665782205L107.68783203125,47.03550887148376L107.97821614583333,48.4281629363756L108.00055338541667,48.5295488498724L108.01172200520833,47.48963724288047L108.06756510416668,49.30147330123144L108.123408203125,50.810931240483505L108.27976888020832,53.508135796106735L108.860537109375,56.21147201052943L109.40779947916667,55.3787171206179L109.41896809895833,54.99999651426234L109.47481119791667,55.93474084570509L109.72052083333332,60.031165422653196L110.52466145833333,63.248142178762805L111.03841796875,64.23847389147775L111.08309244791667,65.6781579053746L111.28412760416667,66.8888426156308L111.35113932291667,66.83181249386337L111.742041015625,69.48986241260108L112.18878580729167,68.80163326407379L112.19995442708333,68.43184898264916L112.52384440104167,64.05910619747053L112.57968749999999,62.805002782130714L112.64669921875,63.986555269154366L112.83656575520833,64.96658212730183L113.886416015625,61.87122345537163L114.14329427083334,58.41769016106197L114.154462890625,56.630921068802984L114.29965494791666,55.945301663562134L114.79107421875001,56.48374022662123L114.86925455729167,56.77448122281436L115.65105794270833,56.838342617200745L115.695732421875,57.76098884911744L115.96377929687499,59.294811085360905L116.33234374999999,57.28750622083068L116.51104166666666,58.469071736727685L116.62272786458333,59.01253808706755L116.92428059895833,58.51262178053805L116.99129231770833,59.12861276061577L117.04713541666666,59.37503457897721L117.32635091145833,61.80889200857407L118.0746484375,62.722704127511705L118.27568359374999,62.75313286087284L118.38736979166666,63.13411742692044L118.845283203125,63.120749215151776L118.86762044270833,62.96984713406314L119.10216145833334,63.21996523340724L119.280859375,64.20739709949193L119.6829296875,62.53266039840656L119.76111002604166,63.256557652012575L119.77227864583334,64.4812660066523L119.79461588541668,65.64913372998808L119.83929036458333,65.44321804176829L119.89513346354165,66.2839721668348L120.39772135416666,64.48788375775378L120.79979166666666,61.4978287390887L120.90030924479167,59.41903032483284L121.458740234375,58.05081332044236L121.55925781250001,56.37214882732616L121.63743815104166,54.98949919135541L122.02833984374999,54.61815202647425L122.20703776041667,54.29434239947855L122.25171223958334,54.30493630792452L122.262880859375,53.95752937323646L122.30755533854166,52.80458671809814L122.39690429687501,53.00558867406915L122.56443359375,52.1664107392291L122.68728841145833,52.77190873878339L122.95533528645834,52.48221389031806L123.08935872395833,53.163841856339545L123.45792317708333,52.92931230971991L123.51376627604166,50.93375319234947L123.89349934895833,48.419717330211384L124.31790690104167,47.35366391318959L125.09971028645833,47.42313389531772L125.345419921875,48.622461335537096L125.60229817708334,48.478675290907205L126.10488606770832,47.80506035354524L126.45111328125,48.04100510577172L126.69682291666668,47.283273197710606L126.70799153645834,47.695244279556874L126.74149739583333,47.984466419910206L127.00954427083333,49.97467017481803L127.21057942708335,51.21810926721439L127.824853515625,53.09916484888227L128.28276692708334,51.55168744848504L128.29393554687502,51.54505090613571L128.33861002604166,51.37812512226775L128.69600585937502,47.88322296169296L129.031064453125,45.51780498142087L130.103251953125,40.84505400614491L130.14792643229165,36.87728607709549L130.15909505208333,35.2348004376679L130.52765950520833,32.04700890961385L130.538828125,30.55512515172589L130.59467122395833,28.96923231335894L130.73986328125,29.678293045518018L130.91856119791666,31.032041565655724L131.34296875,30.93471994345397L131.66685872395834,33.085151957109616L132.06892903645834,32.941274665065905L132.57151692708334,31.864979096685804L132.59385416666666,31.193648579558538L132.72787760416665,29.933779231611606L133.051767578125,30.3072870172429L133.185791015625,29.65102637286874L133.50968098958333,29.99051342103935L133.56552408854168,29.472077021507065L133.91175130208333,27.92405269542566L134.1574609375,27.510213007160548L134.58186848958334,27.763245671416975L134.98393880208334,27.38691260612468L135.1067936197917,27.107804709075708L135.17380533854168,28.461145094502697L135.22964843749997,29.242434754100703L135.52003255208334,29.33041266872255L135.56470703125,29.400896975275238L135.72106770833332,31.574561925966087L135.7657421875,31.159505586168766L136.04495768229168,32.71713976155371L136.10080078125,32.97725195051716L136.435859375,32.586752009037426L137.26233723958333,31.658423031368855L137.36285481770832,32.49450605640484L137.88777994791667,34.294643059767296L137.9101171875,35.308569343604006L137.99946614583334,34.072831118068265L138.05530924479166,34.16434143957214L138.23400716145832,33.6703998484813L138.479716796875,32.24515642320958L138.63607747395835,30.467542147353406L139.35086914062498,25.872439289003687L139.384375,22.96864628514991L139.484892578125,22.012133714423523L139.67475911458334,19.672417010072298L139.83111979166665,19.91178885540651L139.86462565104165,18.714217181633142L139.94280598958335,16.765564545567603L140.00981770833332,17.767803356682844L140.0768294270833,17.518239012763683L141.07083658854168,17.40105657598169L141.32771484375,15.449033583331051L141.43940104166666,14.463872412323541L141.45056966145833,14.38026964795747L141.48407552083336,15.045892173119586L141.52875,15.824775803365815L141.58459309895832,16.164806170091946L141.64043619791667,16.65495800180674L141.796796875,16.831384739492947L142.08718098958335,18.97578909876751L142.098349609375,20.166762027374986L142.31055338541668,21.731390002898365L142.835478515625,23.16887827221268L142.98067057291667,25.305265706208463L143.75130533854167,27.439924633848833L143.79597981770834,28.367471948651836L143.8294856770833,28.05471863635063L144.03052083333333,28.43419553951627L144.23155598958334,27.58709745126497L144.43259114583336,28.102385671317503L144.510771484375,30.158726193476916L144.57778320312502,31.223049904584457L144.75648111979166,31.71846628923764L144.77881835937498,32.20495798081093L145.08037109375,34.10209337176463L145.11387695312501,35.76092454565198L145.59412760416666,36.33100233463123L145.73931966145832,35.57348295681989L145.92918619791666,34.41343657855264L145.97386067708334,33.390766933148264L146.119052734375,32.17702963237537L146.16372721354165,32.23025335065251L146.2195703125,31.497742888271954L146.30891927083331,30.30104923781302L146.53229166666665,28.830620044066702L146.83384440104166,27.69558489043276L147.124228515625,28.61224150009033L147.18007161458334,29.758809659354807L147.62681640625,29.110133205978453L147.80551432291668,28.9727632273667L147.88369466145835,30.04694371372772L148.0958984375,30.58564825192796L148.96705078124998,28.156907112189927L149.11224283854165,25.933412885001236L149.2574348958333,23.389382659214927L149.268603515625,22.479910109079025L149.3467838541667,23.388145305219762L149.63716796875002,23.666479607994344L149.670673828125,23.139823431463917L149.68184244791667,23.39331976333389L149.838203125,25.296174817098038L150.08391276041667,26.080616415938L150.49715169270831,26.561381625857752L151.05558268229169,24.001059246981548L151.17843749999997,22.24587607229791L151.24544921875,21.50993001273525L151.49115885416668,19.07215284444066L151.64751953125,17.329710262617922L151.66985677083332,17.09085667108746L151.77037434895834,17.63780593319732L151.80388020833334,18.574208168138284L151.949072265625,18.45506421582128L151.96024088541665,19.04853519555587L152.016083984375,18.767108152843083L152.18361328125,18.690974169313442L152.25062499999999,17.928051471137827L152.70853841145833,17.60442872070015L152.85373046875,17.382338775516757L153.03242838541667,17.988711540218343L153.14411458333333,16.554025098847713L153.52384765624998,17.047430520167257L153.9929296875,16.596268737785753L154.14929036458332,18.696738631206134L154.20513346354167,18.293468662862367L154.58486653645835,19.35393878873859L154.964599609375,19.97807424286506L155.4671875,19.680805860985437L155.48952473958332,18.820161357308102L155.52303059895834,18.66230921728631L155.75757161458333,17.68398705939456L155.81341471354168,16.923272351284822L155.82458333333335,16.97936648896649L155.8692578125,16.953849381754885L156.36067708333334,16.898503192811003L156.45002604166666,17.503324741588916L156.58404947916665,18.446913164564663L156.706904296875,20.195753102640467L157.03079427083333,19.651365465794846L157.49987630208335,18.403047831155128L157.52221354166667,18.13598592340533L157.56688802083332,18.627137953459616L157.58922526041667,19.200000407045945L158.13648763020834,20.48784486059965L158.449208984375,21.484284018476984L158.66141276041665,22.519812337746092L158.95179687499999,22.47194198812144L158.97413411458334,22.34040889325914L159.21984375,21.768180280585785L159.96814127604168,21.239596836517915L160.18034505208334,21.384429027063433L160.29203124999998,22.05764944510698L160.392548828125,22.03600994708497L160.43722330729165,21.343700705625224L160.50423502604167,20.580931729400554L160.85046223958332,20.664776137319254L161.02916015625001,20.953144064640234L161.15201497395833,21.034337244168206L161.71044596354167,21.38576010791927L162.39173177083333,18.941860921241357L162.78263346354166,15.944555231446703L162.79380208333333,15.010361133209148L163.006005859375,16.02428372010058L163.12886067708334,17.647625293966005L163.38573893229167,21.111307817003688L163.74313476562497,23.697747108027748L163.83248372395835,25.624461994407433L163.91066406250002,26.99486700854242L164.05585611979168,27.837040009312123L164.11169921874998,28.570470565657438L164.58078125,28.578567168907917L165.29557291666669,26.39290101234474L165.36258463541668,25.31673309062954L165.921015625,24.45538479070436L165.93218424479167,24.602106053458893L166.78099934895835,26.326091025310205L166.85917968750002,27.73306084950112L166.93736002604166,28.948465171410632L166.993203125,28.90840384780447L167.00437174479168,28.2733740516138L167.428779296875,27.700857820234226L167.57397135416667,27.988860531167024L167.59630859375,29.250172924781985L167.60747721354167,30.35519104743293L167.629814453125,31.07848126637153L167.70799479166666,32.515987284847554L167.79734375,33.866879834573005L168.14357096354166,34.37702831335633L168.24408854166668,35.793355670005674L168.45629231770835,37.59948154690398L168.769013671875,38.358535768953004L169.24926432291664,36.10337018593362L169.33861328125002,35.703896082172996L169.65133463541667,35.04279507882573L169.673671875,35.79790306842262L169.71834635416667,37.40949814454175L169.81886393229166,38.676662590280344L170.53365559895835,37.131724860357046L170.56716145833332,35.797954104479054L170.846376953125,33.943182636639655L171.27078450520833,32.42209696608017L171.4606510416667,30.976691696159403L171.59467447916666,31.36838064511406L172.052587890625,29.50992819970142L172.14193684895835,27.72452541995403L172.17544270833332,26.680603322811542L172.30946614583334,26.70924345751018L172.320634765625,26.782322605496304L172.33180338541666,26.395903300214478L172.36530924479166,26.68540376097298L172.454658203125,28.581221607052953L173.06893229166667,30.810837652240327L173.2364615885417,32.08560241127935L173.47100260416667,32.99458676777637L173.8283984375,32.81445843850859L174.062939453125,34.08890674781154L174.27514322916667,33.80483629653142L174.599033203125,34.74292402539363L174.6325390625,35.78006258915306L174.68838216145832,35.86614353710678L175.21330729166667,35.757035940928674L175.25798177083334,36.25470419780281L175.35849934895833,36.52654018091786L175.805244140625,36.39516897315995L176.274326171875,35.47818861637014L176.408349609375,35.562847646254546L176.41951822916667,35.791411693877805L176.65405924479165,36.282814403987956L177.00028645833333,35.77273122845319L177.26833333333335,32.35594722956799L177.52521158854165,31.664336414100497L177.5810546875,31.33849363348497L178.29584635416668,30.645321256331897L178.820771484375,28.591704347611614L178.99946940104167,27.667870530962173L179.1893359375,27.252962873097207L179.31219075520832,28.61630178154557L179.77010416666667,29.180018947638636L179.84828450520834,30.20055118904205L180.831123046875,29.365435173294692L181.32254231770835,28.788425767686114L181.3337109375,29.026668056643484L181.6017578125,29.043968110817687L181.78045572916668,27.996447875908594L181.88097330729167,28.28892648862568L182.07083984375,30.7544743600621L182.09317708333333,32.552396016986464L182.11551432291668,34.006691680492295L182.1378515625,34.19485666031197L182.16018880208333,34.435790727842985L182.20486328125,34.624328177871966L182.24953776041664,35.25065456837821L182.93082356770833,34.58413404377741L184.17054036458333,34.024610637370394L184.181708984375,33.42033424961371L184.22638346354165,33.47638551705264L184.66195963541665,32.91424999829024L185.56661783854165,32.90600929940774L185.6224609375,32.75140353937532L185.73414713541666,33.74876466065314L186.16972330729166,31.27927111928973L186.24790364583333,30.52799627273231L186.28140950520833,31.58326788998092L186.37075846354165,33.158690782201724L186.38192708333335,34.440170738067174L186.43777018229164,34.60644315544304L187.52112630208333,34.00643234223144L187.64398111979168,34.74502363997647L187.74449869791667,35.092870240349946L187.8450162760417,35.45839072817808L188.66032552083334,34.614560111612555L188.68266276041666,34.26491907104484L189.36394856770832,34.32777198671981L189.5538151041667,34.24541307217648L189.62082682291668,34.70993856398018L190.12341471354165,36.95422896179376L190.34678710937501,37.155046664555385L190.35795572916666,37.76288756568857L190.748857421875,37.970254530353245L190.90521809895833,38.069383243641255L190.92755533854165,37.88662325577224L191.07274739583332,39.19244045754094L191.08391601562502,40.3223849758839L191.24027669270833,42.618961083885594L191.37430013020835,44.94344406811156L191.485986328125,46.15985625099748L191.50832356770832,47.28309382285251L191.53066080729167,47.28785715943834L192.64752278645832,45.21840585112472L192.93790690104169,43.96145487518467L193.261796875,45.495141710343546L194.44567057291667,44.237473305556954L194.79189778645832,44.20015626293744L194.82540364583332,44.119261126332724L194.84774088541667,43.56877212793757L195.03760742187498,42.14951549609531L195.46201497395833,41.88222134574116L195.58486979166668,41.44856681477515L195.85291666666666,41.99159538850521L196.38901041666668,41.89529970446089L196.70173177083333,41.02608656922633L196.81341796875,41.5279567308284L196.83575520833332,41.03994089126509L196.980947265625,40.34516886236313L197.19315104166668,39.95216486423723L197.22665690104165,40.23352637744834L197.34951171875,40.273176160553035L197.37184895833332,40.24824936677999L197.383017578125,40.71796354854139L197.77391927083335,41.862922016453986L197.81859375,42.02968605357967L197.85209960937502,43.09332076498187L197.87443684895834,44.12022496460688L198.187158203125,44.43261344776183L198.4887109375,42.37855577819168L198.55572265625,42.158242117254794L198.56689127604164,41.6194341030451L198.589228515625,40.83497624303929L199.06947916666667,39.588368896065305L199.23700846354168,38.950782330004024L199.27051432291665,38.673963047250034L199.694921875,37.10115823586401L199.75076497395835,35.365625554861175L199.795439453125,35.32422922264246L199.85128255208335,35.266314541956994L199.88478841145832,35.55621091556801L199.90712565104167,35.87190186298824L200.197509765625,37.02000903199105L200.64425455729167,37.20106994261148L200.7782779947917,37.53045766446162L201.19151692708334,37.608496822091624L201.32554036458333,37.32903765346169L201.403720703125,37.2629578689023L201.6605989583333,36.11906991739056L201.79462239583333,35.76454398531654L202.207861328125,35.42104042709517L202.45357096354167,35.12841592749073L202.71044921875,34.483640954285335L203.28004882812502,33.4447509579942L203.39173502604166,32.31524766191249L203.45874674479165,31.244232388256734L203.78263671874998,30.941519482708884L203.7938053385417,30.25669335572965L203.816142578125,29.475210533035433L203.883154296875,29.09944458743058L203.96133463541668,30.29971750635575L204.01717773437503,29.69598493217304L204.10652669270834,29.399463516160118L204.1623697916667,29.472653181455705L204.22938151041666,30.435798872226023L204.97767903645834,31.410212700759434L205.50260416666669,30.223150708781215L205.67013346354167,30.63016607444157L206.11687825520832,29.537780831817408L206.13921549479164,29.15090305420166L206.31791341145833,29.93658476489007L206.34025065104166,30.064296174183575L206.60829752604167,30.157161197467058L206.61946614583334,29.6944001161128L206.90985026041668,29.26114376869595L207.02153645833332,29.45199092430077L208.49579427083336,29.781840808311436L208.52930013020833,30.21576643587713L208.55163736979165,30.656668303527034L208.76384114583334,31.13257238992017L209.23292317708334,32.199234839759164L209.26642903645833,33.03397617431378L209.48980143229167,32.45612261224321L209.64616210937498,31.733072969691825L209.99238932291667,31.566890778862312L210.0147265625,30.67042579550397L210.05940104166666,30.81009749513466L210.56198893229168,30.373912088883266L210.718349609375,30.16817110878061L210.77419270833335,30.45190941456192L211.321455078125,30.00316930406444L211.53365885416667,29.644707013774976L211.75703125,28.599535309243254L211.94689778645835,28.553793094734203L212.4271484375,27.37281449997485L212.68402669270836,27.217181296184435L212.95207356770834,26.504755354028077L213.28713216145835,26.598721253871492L213.29830078125,27.08992615160667L213.32063802083331,27.785032222763355L213.39881835937499,28.58429093023504L213.71153971354167,30.92810605970688L214.23646484375,31.61496865021579L214.41516276041668,31.44652190625454L214.44866861979168,30.86921002889291L214.45983723958335,30.532851595384262L214.672041015625,29.413834690908665L214.78372721354165,29.822544323567893L215.21930338541665,30.98080066870816L215.29748372395832,32.20158311812815L215.63254231770836,33.83523011450665L215.68838541666665,34.18745725379517L216.05694986979165,34.24870937943619L216.21331054687502,33.34888689163116L216.3585026041667,33.28136750853403L216.883427734375,33.10188593472728L217.14030598958334,33.00236094690463L217.17381184895834,32.90011844329863L217.352509765625,32.000067940912096L217.49770182291667,31.320230454427453L217.55354492187502,30.483792688683653L217.58705078124999,30.724515923566678L217.74341145833333,31.155793087636756L217.821591796875,32.53055512637299L217.87743489583332,33.21359718482017L218.16781901041665,35.518186199705184L218.826767578125,36.632081288798176L218.98312825520833,37.173952723906716L219.18416341145834,37.02728074439199L219.34052408854166,37.57201627652283L219.70908854166666,38.283636681597706L219.74259440104169,38.87696894340179L219.77610026041665,39.399899044882126L219.92129231770832,39.191379097866744L220.08882161458334,38.9287024935407L220.72543294270832,38.550465741567564L221.08282877604168,38.92742091658693L221.09399739583333,39.40830527870761L221.20568359375002,40.24931564985153L221.239189453125,40.62025369924854L221.59658528645835,40.518565919893504L221.60775390625,40.15549014584942L221.641259765625,39.91703674747083L221.842294921875,39.45634886251044L221.9428125,40.71029758507926L222.3448828125,42.03442896281437L222.713447265625,43.14376889374212L222.93681966145834,42.82946190145312L223.26070963541665,44.079037250437956L223.32772135416667,44.56610129975199L223.39473307291667,44.835190211305076L223.41707031250002,44.505052156695285L223.819140625,44.40509262286501L223.8414778645833,44.768839145794395L223.91965820312498,46.0574308797922L224.120693359375,46.69329146281587L224.13186197916664,46.86444000326627L224.46692057291668,46.027536717072174L224.857822265625,46.652289309413604L225.38274739583332,47.46199824470934L225.74014322916665,48.19645479945653L225.88533528645831,48.60034781301612L225.89650390625,48.803380854223974L225.97468424479166,49.366307866374925L226.01935872395833,50.065743987018486L226.20922526041667,50.44147509977463L226.27623697916667,50.7308078862215L226.4214290364583,51.41369749507228L226.44376627604169,51.57517870382905L226.6336328125,51.59963547871513L227.15855794270834,50.715392998413954L227.63880859374999,49.882403606145935L227.78400065104165,51.038772528819955L227.82867513020835,51.25279292104355L227.92919270833335,51.30966181848052L228.19723958333336,51.48534707163137L228.30892578125,50.48977809812541L228.34243164062502,49.738563621668376L228.87852539062501,47.8404420516645L228.90086263020834,46.88680838900355L229.11306640625,45.63351039870516L230.017724609375,43.706741752819916L230.24109700520833,42.01142405223128L230.3862890625,40.89168246602631L230.419794921875,40.58601828398144L230.49797526041667,41.11783101193227L230.67667317708333,41.76006945680988L230.90004557291667,41.46530067244985L231.34679036458334,42.100505434443036L231.52548828125,42.771555964700106L232.30729166666669,42.09297148714796L232.34079752604165,41.34760488490987L232.57533854166667,41.832679997567695L233.05558919270834,41.64022086624015L234.63036458333332,42.14687888456778L234.641533203125,41.955351969080645L234.85373697916665,41.25822368624898L235.01009765625,40.03683351341766L235.03243489583335,39.4621765487486L235.63554036458333,38.60065453796008L236.08228515625,38.837433958749486L236.52902994791665,39.12311930129518L236.54019856770833,39.20824739066549L236.59604166666668,39.64279753180224L236.67422200520832,39.62545237045719L236.75240234375,39.060643248083146L236.85291992187499,39.35493800884172L236.99811197916665,39.458381690122124L237.27732747395834,39.463727916550894L237.43368815104165,41.59505563003095L237.52303710937503,42.97955195355751L237.71290364583334,43.562627399700915L238.025625,43.535392200649476L238.40535807291667,44.31771128017373L238.91911458333334,44.151157912639995L239.198330078125,44.68875079778107L239.3546907552083,44.34513505880574L239.37702799479166,44.566675554890345L239.38819661458334,44.65202087732551L239.70091796875,45.49947780377945L239.75676106770834,45.07834364908867L239.8126041666667,44.71440059155859L239.86844726562498,44.09169889365812L240.10298828125002,43.77759654617671L240.85128580729167,42.451502608015325L240.90712890625002,40.94271526361479L240.91829752604167,40.54988239842052L241.10816406249998,39.90944140059297L241.208681640625,39.393620616305014L241.30919921875,39.09819098782326L241.86763020833334,39.00730854482653L241.96814778645833,38.98744343270517L242.02399088541668,38.40894028599308L243.34188802083335,37.13348522459955L243.64344075520833,37.12534083538251L243.72162109375,36.45879929388609L244.13486002604168,34.57837661102402L244.3247265625,34.31260289620253L244.46991861979166,35.015289365112785L244.693291015625,35.70760126093606L245.17354166666667,36.799544951837596L245.64262369791666,36.612403086705754L245.698466796875,36.55937480218396" style="fill: none;" fill="none"></path></g></g></g></g><g opacity="0.2"><g><g><g><path stroke="rgb(0, 119, 187)" stroke-width="2px" d="M29.965406901041668,178.14117479324344L30.21111653645833,165.97258745540273L30.35630859375,185.93936751105574L30.75837890625,176.15316698767927L31.10460611979167,162.44638642397797L31.138111979166666,158.1766965605996L31.160449218750003,139.99095205827192L31.551350911458332,133.01182469454676L31.57368815104167,131.94550518556073L31.685374348958334,173.46559680591935L32.165625,171.42656525698578L32.24380533854167,158.7636614279314L32.8357421875,150.0368749445135L32.88041666666666,146.88337742198598L32.91392252604167,130.0967576720498L33.025608723958335,159.2330415032127L33.036777343749996,167.162054495378L33.248981119791665,195.98720858313828L33.68455729166667,175.14343396100134L33.69572591145833,169.14699320359668L33.72923177083333,182.8234664310109L34.15363932291667,172.48847293853763L35.09180338541666,115.63996644453566L35.40452473958333,122.52778816223143L35.71724609375,73.6363001736727L35.82893229166666,48.67667419260187L36.096979166666664,104.81526010686699L36.588398437500004,108.25360822677608L36.87878255208334,155.3817079717463L37.16916666666666,147.24706545743078L37.526562500000004,153.67126165736806L37.638248697916666,123.59947859157214L37.70526041666667,127.26455627788195L38.062656249999996,111.02730495279482L39.05666341145833,142.19111121784556L39.503408203125005,128.4582433267073L39.514576822916666,132.15995836257935L39.81612955729167,136.58809037642047L40.039501953125004,124.19680166244505L40.08417643229166,118.03462964838201L40.22936848958334,114.08048135584048L40.475078124999996,141.1976827708158L40.6091015625,147.42488128488714L40.687281901041665,155.84072984348646L40.69845052083333,155.21847035668114L40.709619140625,163.99033420736143L40.81013671875,182.04046297073367L41.70362630208333,165.58070208809596L42.12803385416667,135.22809661518443L42.83165690104167,163.86277484893802L43.501774088541666,167.14479082280943L44.194228515625,154.60138997164643L44.350589192708334,137.85543576153842L44.652141927083335,131.3034883845936L45.366933593750005,119.92442633888936L45.389270833333335,120.15096408670598L46.137568359375,147.01592406359586L46.99755208333333,108.29983650554307L47.03105794270833,102.76932308890599L47.12040690104167,101.60690246928819L47.24326171875,120.08593758669765L47.745849609375,113.43904001062563L47.8463671875,126.65687500346789L47.913378906249996,118.86980776353313L48.214931640625004,103.49305460669774L48.60583333333334,100.77249162847343L49.17543294270833,95.63980995525007L49.43231119791667,95.95726971192789L49.566334635416666,102.2775002392855L49.86788736979167,104.70956806703043L50.01307942708333,110.87845373153682L50.47099283854167,140.7545818415555L50.761376953124994,148.34311684695157L50.87306315104166,150.53943963484332L51.565517578125,161.38332783092153L52.034599609375,155.5871456753124L52.05693684895834,162.03167464516383L52.1351171875,165.6526340571317L52.838740234374995,173.3971175713973L53.151461588541665,182.8566510460594L53.307822265625,181.03015448830348L53.642880859375,173.76982108029455L53.877421875,163.27542634443805L54.190143229166665,162.9900002913042L54.20131184895833,162.6059794859453L54.63688802083333,143.20621516487816L54.65922526041667,147.34220747514206L54.87142903645833,152.33677976781672L54.88259765625,157.44068865342575L55.251162109375,156.4284619851546L55.76491861979167,143.25110071355647L55.921279296875,137.21974897384644L56.122314453125,147.80928572741422L56.1558203125,141.83739774877375L56.178157552083334,141.2914820584384L56.21166341145833,142.73127235065806L56.23400065104166,151.27640663493764L56.46854166666667,145.36455787311903L56.792431640625004,145.0348217270591L56.825937499999995,149.6860387542031L57.55189778645833,139.17035215551203L57.80877604166667,133.52820032293147L57.87578776041667,141.03214333274147L58.199677734375,150.9729496348988L58.45655598958333,143.3694527799433L58.72460286458333,140.8986375982111L59.02615559895833,124.88159400766546L59.18251627604167,150.1233851259405L59.19368489583333,150.51488685607913L59.39472005208333,145.2166657447815L59.472900390625,140.5405123017051L59.539912109374995,137.26942998712713L59.807958984375,140.0578967441212L60.08717447916666,131.96526249972254L60.22119791666666,129.26848502592605L60.355221354166666,120.95084758238356L60.57859375,128.89712424711746L60.63443684895834,136.31359798258L60.868977864583336,134.6351853717457L61.03650716145834,147.2090853777799L61.05884440104167,147.20563264326617L61.081181640625,155.57717110893944L61.12585611979167,152.04368097131902L61.27104817708333,146.90044927597046L61.282216796875,145.10176641290838L61.5167578125,138.04303433678368L61.717792968750004,141.34154670888728L62.04168294270833,144.3517557490956L62.10869466145833,143.88678750124845L62.5889453125,125.08492170680651L62.63361979166667,129.2094049020247L63.00218424479167,116.6989968473261L63.03569010416667,115.45447787371548L63.06919596354167,106.74399596994569L63.13620768229167,106.57960744337599L63.21438802083333,103.01772815530946L63.281399739583335,109.59691377119582L63.38191731770833,121.76128110018642L63.40425455729167,125.79349955645473L63.59412109375,125.02085429971868L63.67230143229167,129.03753545067528L64.163720703125,129.07896826483986L64.7333203125,122.66589754278007L64.75565755208333,122.03001893650399L64.77799479166667,121.88692227276886L64.88968098958334,132.8094560883262L65.06837890625,131.49856788461858L65.42577473958333,126.07393832640213L65.44811197916667,121.56869524175468L65.48161783854167,120.48971570621835L65.503955078125,127.53540411862457L65.58213541666667,126.81665988401932L66.28575846354167,121.48947416652331L66.43095052083333,125.29112668470901L66.63198567708334,113.76340523633087L66.67666015625,115.63785644011061L66.710166015625,118.25675556876439L66.73250325520833,110.10331483320753L66.81068359375,110.14800856330174L67.03405598958334,106.7102358991449L67.21275390624999,100.43508273904969L67.22392252604168,95.99333160573781L67.279765625,102.80634407563639L67.32444010416665,99.98334997350514L67.50313802083333,99.50418715043497L67.51430664062501,103.20436763763423L67.52547526041667,98.80942023884162L67.53664388020833,102.50135252692479L67.58131835937499,109.65963844819498L67.82702799479166,108.5536124923012L68.29611002604167,100.87223729220298L68.37429036458333,103.68583228371355L68.38545898437499,106.83568525314327L68.43013346354167,104.66027069091793L69.01090169270833,96.68330305272877L69.0220703125,92.80799219825046L69.122587890625,99.22394019907166L69.27894856770834,97.26528063687407L69.61400716145833,97.51483661478211L69.6921875,101.5232695666226L69.77036783854166,96.50702177394514L69.926728515625,95.93252511457958L70.395810546875,91.27075806531033L70.46282226562501,95.33098203485658L71.736044921875,85.78724020177661L71.93708007812499,89.3220730694857L71.95941731770834,91.82146922024808L72.004091796875,87.43457820198746L72.02642903645832,91.8170573928139L72.17162109374999,95.63328812339086L72.22746419270834,93.7058949904008L72.39499348958334,94.69299342415545L73.02043619791667,82.54704067923801L73.38900065104167,78.66271435130719L73.44484375,84.66452602906654L73.63471028645833,84.77386262200089L73.72405924479168,88.02250216223972L73.73522786458334,84.26976338299832L73.75756510416667,85.46536861766462L73.86925130208334,83.33234596252436L73.89158854166666,89.76939400759605L74.20430989583333,87.9939211932095L74.26015299479167,86.31205584786149L74.42768229166667,88.6741098924116L74.47235677083333,88.80435471101237L75.05312500000001,82.1102697632529L75.24299153645833,78.45612573623652L75.421689453125,81.5536122322082L75.81259114583334,71.65903420881784L75.857265625,71.68703972209576L76.12531249999999,69.21104543859299L76.14764973958334,71.78755266016172L76.16998697916667,74.88388824462882L76.19232421875,77.9738938158208L76.38219075520833,77.78111613880498L76.51621419270833,74.77934711629688L76.98529622395833,75.9331358996304L77.51022135416667,67.68762224370774L77.57723307291667,70.7406068281693L77.78943684895833,64.00163633173153L77.80060546875,65.79360554435029L77.86761718749999,65.74277361956503L77.901123046875,64.97051199999713L78.06865234375,72.15584434162479L78.12449544270832,68.70464437658127L78.52656575520832,63.208466486497265L78.537734375,63.29094847765827L79.12967122395834,63.041584318334316L79.47589843749999,68.44262019070703L79.509404296875,66.03050149570804L79.58758463541666,67.46664723482992L79.7439453125,70.41969433697778L80.33588216145834,74.61476677114307L80.39172526041666,77.53750653700388L80.42523111979166,74.37288353659882L80.70444661458333,75.90685675360932L81.03950520833334,79.70256289568808L81.09534830729166,85.20833171497685L81.15119140625,76.21760285984378L81.16236002604167,79.08509887348515L81.26287760416666,78.4684021256186L81.318720703125,78.16245148398652L81.921826171875,64.64058403535314L82.54726888020834,56.64539363167493L82.58077473958333,60.21552111885756L82.94933919270834,59.96692423386999L82.97167643229166,60.4692971056157L82.994013671875,63.760904008691874L83.02751953125001,68.84505558013907L83.38491536458334,67.56984563307321L83.75347981770834,63.37841775200575L83.86516601562501,57.62923114949998L84.535283203125,47.76841319691041L84.63580078125,49.16178339177901L84.78099283854168,46.05221232500932L85.21656901041668,45.71576252850609L85.42877278645832,38.83158536390814L85.51812174479167,38.516235611655375L85.55162760416667,41.23104403235684L85.57396484374999,38.475761890411256L85.73032552083335,40.25603016940019L86.05421549479166,42.976209510456314L86.26641927083334,42.732024452902955L86.65732096354166,38.992329337380035L86.679658203125,36.23301900516845L87.07055989583333,31.572211048819682L87.10406575520834,34.20549657128062L88.27677083333333,22.93327747691748L88.44430013020833,25.539708397605082L88.47780598958333,25.69834236665193L88.56715494791668,23.180915268984585L88.622998046875,25.775837074626455L88.76819010416666,25.60166580026787L89.80687174479166,23.16978979110704L89.85154622395834,30.158508084036967L89.87388346354166,35.23191781477484L89.97440104166667,45.954768484288884L89.98556966145833,48.4612619226628L90.13076171875,51.30573970621271L90.16426757812499,53.33709851178246L90.25361653645834,52.95422861792815L90.968408203125,51.52287834340865L91.12476888020832,51.78355979919424L91.20294921874999,52.892846671017644L91.25879231770833,45.04401384700419L91.99592122395833,44.492727236314146L92.56552083333334,53.59298450296566L93.09044596354167,51.11315384778099L93.10161458333333,53.53217801180744L93.179794921875,55.91533210060803L93.48134765625,55.55970044569526L93.87224934895833,55.5046485120599L93.983935546875,55.66750248995685L94.39717447916667,54.55514652078793L94.41951171875,53.06030429493287L94.4865234375,55.25106434388586L94.49769205729166,57.212025729092595L94.73223307291667,64.29991422999981L94.81041341145834,60.91642622514196L94.84391927083334,62.28255818106902L95.16780924479166,61.63977410576552L95.75974609375001,64.20055220343842L96.10597330729166,58.08460846814234L96.21765950520833,51.48336371508503L96.22882812499999,50.063330737027165L96.23999674479167,52.373018308119235L96.25116536458333,49.961283250288425L96.67557291666667,51.288284215060045L96.764921875,55.744805379347284L97.30101562499999,57.250197627327566L97.47971354166667,52.58325147628774L97.58023111979166,49.95878960869519L97.64724283854167,47.54014908183695L97.71425455729167,43.619569041512115L98.32852864583333,42.86457109451282L98.48488932291667,44.95520184256802L98.63008138020834,42.087705828926666L98.909296875,37.11154812032515L98.93163411458333,37.09581899642932L98.95397135416665,37.68968933278853L98.98747721354167,35.60673132809713L99.14383789062501,39.730830886147125L99.36721028645833,46.54154153303656L100.42822916666667,39.286195408214105L100.53991536458334,36.63852349194601L100.685107421875,42.78861093521106L100.76328776041667,47.13080822337748L101.10951497395833,48.08702386509278L101.12068359374999,46.76462654633945L101.25470703124999,51.32875793630416L101.26587565104167,50.00789516622359L101.56742838541668,45.38487547094161L101.65677734375,42.962974028153745L101.958330078125,45.71576252850609L103.164541015625,34.75371408462512L103.29856445312501,34.831400611183746L103.30973307291667,32.50003754008888L103.41025065104166,29.090462207794072L103.54427408854166,34.35147051377717L103.58894856770834,37.139745452187164L103.6001171875,37.08008987253351L103.61128580729167,34.81490421295154L103.74530924479167,33.5059341950849L104.01335611979167,31.520228212529833L104.270234375,35.33741803602728L104.49360677083332,31.445418964732657L104.71697916666666,28.57140111923206L105.19722981770833,31.861473473635463L105.20839843750001,33.9256332570855L105.576962890625,36.18525617772872L105.73332356770834,38.23234410719427L106.67148763020835,42.89813934672951L107.28576171875,49.89587311311191L107.34160481770834,49.74337733875611L107.53147135416667,48.76913075013584L107.67666341145834,48.078775665976686L107.68783203125,46.03245501084751L107.97821614583333,49.9010522148825L108.00055338541667,48.636775927110044L108.01172200520833,46.389813033017134L108.06756510416668,51.217694976112966L108.123408203125,52.407353834672314L108.27976888020832,56.36073485287745L108.860537109375,59.07055599039242L109.40779947916667,54.49798458272752L109.41896809895833,54.599456613713954L109.47481119791667,56.92333876002909L109.72052083333332,64.36359799991946L110.52466145833333,66.65045915950421L111.03841796875,65.2858617522499L111.08309244791667,67.20078667727377L111.28412760416667,68.16927870837118L111.35113932291667,66.77149668606836L111.742041015625,72.30105100978497L112.18878580729167,68.07375305349167L112.19995442708333,68.04076025702729L112.52384440104167,59.43443584442129L112.57968749999999,61.47864649512542L112.64669921875,65.2361807389692L112.83656575520833,66.0030714381824L113.886416015625,58.5975313620133L114.14329427083334,54.76518787037232L114.154462890625,54.74121054736042L114.29965494791666,55.2201815518465L114.79107421875001,57.05319994146165L114.86925455729167,57.081972729075936L115.65105794270833,56.905883268876416L115.695732421875,58.73679165406652L115.96377929687499,60.91700168089424L116.33234374999999,55.164554162458856L116.51104166666666,59.7187109860506L116.62272786458333,59.58731525594529L116.92428059895833,57.983903711492275L116.99129231770833,59.78009293296111L117.04713541666666,59.63565353913732L117.32635091145833,64.38297167691309L118.0746484375,63.689163858240214L118.27568359374999,62.78531468998294L118.38736979166666,63.537051721052606L118.845283203125,63.106610818342645L118.86762044270833,62.81025110591534L119.10216145833334,63.48449342901048L119.280859375,65.25171804428092L119.6829296875,60.76143680919291L119.76111002604166,64.02216092022974L119.77227864583334,65.77653369036581L119.79461588541668,66.88428601351644L119.83929036458333,65.22543889825985L119.89513346354165,67.17316480116403L120.39772135416666,62.58831700411701L120.79979166666666,58.33550717613905L120.90030924479167,57.22046574679279L121.458740234375,56.60376899892625L121.55925781250001,54.59677115353661L121.63743815104166,53.527190728620944L122.02833984374999,54.225410374728014L122.20703776041667,53.951877073808056L122.25171223958334,54.316140565005114L122.262880859375,53.590107224204225L122.30755533854166,51.58521938323965L122.39690429687501,53.21817098964335L122.56443359375,51.27888510443938L122.68728841145833,53.41229139674784L122.95533528645834,52.175828803669226L123.08935872395833,53.884740569374685L123.45792317708333,52.681270772760456L123.51376627604166,48.82322359085073L123.89349934895833,45.76083989576849L124.31790690104167,46.226191780783815L125.09971028645833,47.4966062632473L125.345419921875,49.89088582992544L125.60229817708334,48.326605276627866L126.10488606770832,47.09263632514251L126.45111328125,48.29054338281794L126.69682291666668,46.48188595338291L126.70799153645834,48.13095032085062L126.74149739583333,48.290351564233845L127.00954427083333,52.079535874453356L127.21057942708335,52.533186825838854L127.824853515625,55.0885940031571L128.28276692708334,49.91505497152144L128.29393554687502,51.5380320115522L128.33861002604166,51.20158221504895L128.69600585937502,44.18696841326616L129.031064453125,43.01610777594815L130.103251953125,35.90309104052446L130.14792643229165,32.680922464890806L130.15909505208333,33.497685995968794L130.52765950520833,28.675558610395825L130.538828125,28.977289243177808L130.59467122395833,27.291971163316077L130.73986328125,30.42820501327503L130.91856119791666,32.46378382769487L131.34296875,30.831791314211635L131.66685872395834,35.359477173198236L132.06892903645834,32.78910814632057L132.57151692708334,30.72667473012738L132.59385416666666,30.48364058407858L132.72787760416665,28.601324818350932L133.051767578125,30.70231376994728L133.185791015625,28.956956473263695L133.50968098958333,30.34955939379592L133.56552408854168,28.923771858215215L133.91175130208333,26.28684178265646L134.1574609375,27.072530703111L134.58186848958334,28.03085634925135L134.98393880208334,26.98889780044544L135.1067936197917,26.812616521661806L135.17380533854168,29.89245570789672L135.22964843749997,30.068736986680335L135.52003255208334,29.4234592697836L135.56470703125,29.475442106073427L135.72106770833332,33.87345860221158L135.7657421875,30.720536535436327L136.04495768229168,34.36451417749567L136.10080078125,33.252350026910825L136.435859375,32.17375412854269L137.26233723958333,30.67661007967849L137.36285481770832,33.37875847382966L137.88777994791667,36.198491660031294L137.9101171875,36.38091113350596L137.99946614583334,32.765898097645035L138.05530924479166,34.26112396066828L138.23400716145832,33.148000717162965L138.479716796875,30.737800208004906L138.63607747395835,28.587513880296058L139.35086914062498,21.012597994370765L139.384375,19.897556565024495L139.484892578125,21.00051342357275L139.67475911458334,17.197901812466576L139.83111979166665,20.164951671253416L139.86462565104165,17.447649608958713L139.94280598958335,14.704643856395235L140.00981770833332,18.82778432152474L140.0768294270833,17.254296476190593L141.07083658854168,17.277122887697942L141.32771484375,13.384548360651044L141.43940104166666,13.421952984549641L141.45056966145833,14.29185026342204L141.48407552083336,15.74986332113078L141.52875,16.648533387617487L141.58459309895832,16.524426763707794L141.64043619791667,17.173349033702365L141.796796875,17.017975980585124L142.08718098958335,21.243739388205647L142.098349609375,21.426350680264427L142.31055338541668,23.3861611539666L142.835478515625,24.68918479572631L142.98067057291667,27.564737189899656L143.75130533854167,29.697568026455833L143.79597981770834,29.34845820340231L143.8294856770833,27.723946614698804L144.03052083333333,28.835535309531352L144.23155598958334,26.69119535792944L144.43259114583336,28.64736127853382L144.510771484375,32.33353900909412L144.57778320312502,32.34869267723765L144.75648111979166,32.242425181648834L144.77881835937498,32.71947800029396L145.08037109375,36.10852874409057L145.11387695312501,37.515326239845855L145.59412760416666,36.933924111452846L145.73931966145832,34.77232048728238L145.92918619791666,33.18655625256613L145.97386067708334,32.309178048914L146.119052734375,30.89336507970624L146.16372721354165,32.28654345599077L146.2195703125,30.723030177029564L146.30891927083331,29.035410274158707L146.53229166666665,27.27547476508387L146.83384440104166,26.495156764984014L147.124228515625,29.58170960166226L147.18007161458334,30.971435243433046L147.62681640625,28.42408444664683L147.80551432291668,28.82747892899934L147.88369466145835,31.18301114169023L148.0958984375,31.15538926558048L148.96705078124998,25.588238499381205L149.11224283854165,23.581816109743862L149.2574348958333,20.69878279079077L149.268603515625,21.518039963461995L149.3467838541667,24.348706808957054L149.63716796875002,23.960849631916258L149.670673828125,22.582824923775277L149.68184244791667,23.661420822143416L149.838203125,27.308659380132372L150.08391276041667,26.91025218096633L150.49715169270831,27.069845242933667L151.05558268229169,21.29322858290226L151.17843749999997,20.389571233229077L151.24544921875,20.731583768671083L151.49115885416668,16.493927608836643L151.64751953125,15.48688004233607L151.66985677083332,16.838241967287786L151.77037434895834,18.216266675428766L151.80388020833334,19.564559503034967L151.949072265625,18.32905600287684L151.96024088541665,19.67619791897846L152.016083984375,18.469467206434626L152.18361328125,18.61045386574471L152.25062499999999,17.121174378828425L152.70853841145833,17.262161038138508L152.85373046875,17.147453524849496L153.03242838541667,18.63001936132245L153.14411458333333,15.036681825464276L153.52384765624998,17.56926259127517L153.9929296875,16.119114095514323L154.14929036458332,20.918223250995847L154.20513346354167,17.866965033791146L154.58486653645835,20.47550595890378L154.964599609375,20.638168118216633L155.4671875,19.36641090566449L155.48952473958332,17.9099323966285L155.52303059895834,18.495362715287513L155.75757161458333,16.64930066195388L155.81341471354168,16.118730458346135L155.82458333333335,17.038692387667425L155.8692578125,16.926862153139837L156.36067708333334,16.83996833454465L156.45002604166666,18.14299197630436L156.58404947916665,19.444864706559486L156.706904296875,22.04534925114011L157.03079427083333,19.07561393217594L157.49987630208335,17.082810662009358L157.52221354166667,17.85353773290446L157.56688802083332,19.146586808291204L157.58922526041667,19.805867281826927L158.13648763020834,21.849886113946962L158.449208984375,22.538131193681068L158.66141276041665,23.615000724792342L158.95179687499999,22.421313675967006L158.97413411458334,22.201297760009627L159.21984375,21.16298376430151L159.96814127604168,20.680560025301702L160.18034505208334,21.537605459039735L160.29203124999998,22.769656224684155L160.392548828125,22.013123729012094L160.43722330729165,20.611505335027392L160.50423502604167,19.774217215451195L160.85046223958332,20.753451087257943L161.02916015625001,21.2581257820128L161.15201497395833,21.120208220048255L161.71044596354167,21.757429556413L162.39173177083333,16.357160958376653L162.78263346354166,12.774565263227839L162.79380208333333,14.02234515276809L163.006005859375,17.096621600064232L163.12886067708334,19.364492719823534L163.38573893229167,24.77454406564873L163.74313476562497,26.433199362321204L163.83248372395835,27.662181030620108L163.91066406250002,28.44422539797683L164.05585611979168,28.727733265269766L164.11169921874998,29.346156380393168L164.58078125,28.58713024312787L165.29557291666669,24.081311702728133L165.36258463541668,24.178563724864475L165.921015625,23.544411485845263L165.93218424479167,24.75728039308015L166.78099934895835,28.149400234222295L166.85917968750002,29.221090663563004L166.93736002604166,30.23389278758644L166.993203125,28.866034464402503L167.00437174479168,27.601758176630067L167.428779296875,27.09535711461835L167.57397135416667,28.293455990877895L167.59630859375,30.584153522144547L167.60747721354167,31.52387276562765L167.629814453125,31.843442526730513L167.70799479166666,34.03631258010852L167.79734375,35.29560158469449L168.14357096354166,34.916568062522074L168.24408854166668,37.291282133622495L168.45629231770835,39.50966405868518L168.769013671875,39.16132150996803L169.24926432291664,33.71827736767843L169.33861328125002,35.28140700947143L169.65133463541667,34.34360595182928L169.673671875,36.596515222029126L169.71834635416667,39.11394231969649L169.81886393229166,40.0168323950333L170.53365559895835,35.49777837233099L170.56716145833332,34.387340589003L170.846376953125,31.981551907279155L171.27078450520833,30.813376730138476L171.4606510416667,29.448012048547792L171.59467447916666,31.78263603557228L172.052587890625,27.54440441998556L172.14193684895835,25.836259928616478L172.17544270833332,25.57653756575138L172.30946614583334,26.73953364112147L172.320634765625,26.85961207476516L172.33180338541666,25.987221154299526L172.36530924479166,26.991583260622768L172.454658203125,30.586263526569596L173.06893229166667,33.16890894282936L173.2364615885417,33.433810407465025L173.47100260416667,33.955940593372574L173.8283984375,32.62395234541449L174.062939453125,35.43678006258867L174.27514322916667,33.504399646412125L174.599033203125,35.73505796085693L174.6325390625,36.87695399197653L174.68838216145832,35.95718388123933L175.21330729166667,35.641642310402496L175.25798177083334,36.78104469992886L175.35849934895833,36.81403749639327L175.805244140625,36.25622905384399L176.274326171875,34.50837811556718L176.408349609375,35.65238415111183L176.41951822916667,36.03314404054109L176.65405924479165,36.802528381347535L177.00028645833333,35.23326054486349L177.26833333333335,28.742311477661016L177.52521158854165,30.932879708029887L177.5810546875,30.993878017772207L178.29584635416668,29.912213022058534L178.820771484375,26.419772061434536L178.99946940104167,26.690811720761253L179.1893359375,26.814151070334574L179.31219075520832,30.05818696455509L179.77010416666667,29.77621364593494L179.84828450520834,31.279879526658362L180.831123046875,28.48220547762771L181.32254231770835,28.178173021836585L181.3337109375,29.278636238791606L181.6017578125,29.062264875932044L181.78045572916668,26.888576680963563L181.88097330729167,28.598255721005394L182.07083984375,33.362070257013364L182.09317708333333,34.4539016376841L182.11551432291668,35.54477392543434L182.1378515625,34.39386242086224L182.16018880208333,34.69060577045776L182.20486328125,34.823727867819926L182.24953776041664,35.91306560689742L182.93082356770833,33.87921315973443L184.17054036458333,33.43285131454456L184.181708984375,32.78124358437266L184.22638346354165,33.53566607561967L184.66195963541665,32.31972807103924L185.56661783854165,32.897293827750346L185.6224609375,32.587890451604544L185.73414713541666,34.80358691648993L186.16972330729166,28.667502229863818L186.24790364583333,29.733438101681664L186.28140950520833,32.69933704896394L186.37075846354165,34.82487877932451L186.38192708333335,35.79548081484697L186.43777018229164,34.78229505365534L187.52112630208333,33.37185300480224L187.64398111979168,35.526167522777094L187.74449869791667,35.46075738560058L187.8450162760417,35.84497000954356L188.66032552083334,33.722113739360346L188.68266276041666,33.89513410221435L189.36394856770832,34.394246058030454L189.5538151041667,34.15830919959317L189.62082682291668,35.201226841319574L190.12341471354165,39.3278200409628L190.34678710937501,37.367434111508345L190.35795572916666,38.40574810721646L190.748857421875,38.18956856294101L190.90521809895833,38.17422307621337L190.92755533854165,37.69333388588633L191.07274739583332,40.573489926078004L191.08391601562502,41.5174291784112L191.24027669270833,45.04785021868608L191.37430013020835,47.401847882704196L191.485986328125,47.44634979421431L191.50832356770832,48.47104467045167L191.53066080729167,47.29289492693803L192.64752278645832,43.02972689541893L192.93790690104169,42.63208697058926L193.261796875,47.117189103906696L194.44567057291667,42.9073466387661L194.79189778645832,44.160689267245104L194.82540364583332,44.03370536457398L194.84774088541667,42.98656771399747L195.03760742187498,40.64849099245927L195.46201497395833,41.59952753240401L195.58486979166668,40.98992807214899L195.85291666666666,42.565909559076374L196.38901041666668,41.79345612092441L196.70173177083333,40.106795310974L196.81341796875,42.05874122272828L196.83575520833332,40.5238089127973L196.980947265625,39.61036881533525L197.19315104166668,39.53651866045854L197.22665690104165,40.531098018992914L197.34951171875,40.31511029330156L197.37184895833332,40.22188646143122L197.383017578125,41.214739452708734L197.77391927083335,43.073845169760865L197.81859375,42.20605789531349L197.85209960937502,44.2182348424737L197.87443684895834,45.206292369148834L198.187158203125,44.76299962130449L198.4887109375,40.206157337535394L198.55572265625,41.925235488197906L198.56689127604164,41.04958365180264L198.589228515625,40.005323279987564L199.06947916666667,38.26994054967696L199.23700846354168,38.2764623815362L199.27051432291665,38.38119532845225L199.694921875,35.437739155509135L199.75076497395835,33.5301033366809L199.795439453125,35.28044791655096L199.85128255208335,35.20506321300148L199.88478841145832,35.86280913786444L199.90712565104167,36.20578076622691L200.197509765625,38.23426229303522L200.64425455729167,37.39256234602484L200.7782779947917,37.87882245670654L201.19151692708334,37.69103206287719L201.32554036458333,37.03347795659835L201.403720703125,37.19307101856567L201.6605989583333,34.90927895632646L201.79462239583333,35.389592690901196L202.207861328125,35.057746540416254L202.45357096354167,34.818932403217545L202.71044921875,33.80171845175992L203.28004882812502,32.34600721706032L203.39173502604166,31.120670101859233L203.45874674479165,30.11151253093361L203.78263671874998,30.621366327459032L203.7938053385417,29.532412225549745L203.816142578125,28.648704008622474L203.883154296875,28.702029575000992L203.96133463541668,31.569141951474165L204.01717773437503,29.057469411329663L204.10652669270834,29.085858561775765L204.1623697916667,29.55005953528653L204.22938151041666,31.45443443818513L204.97767903645834,32.44076559760342L205.50260416666669,28.96769831397303L205.67013346354167,31.060630885037398L206.11687825520832,28.382459813898134L206.13921549479164,28.741736021908714L206.31791341145833,30.767532088539703L206.34025065104166,30.199365442449267L206.60829752604167,30.255376469005117L206.61946614583334,29.20497790249899L206.90985026041668,28.80292615023513L207.02153645833332,29.65383338928211L208.49579427083336,30.130694389343144L208.52930013020833,30.674691893837554L208.55163736979165,31.122971924868374L208.76384114583334,31.63589481873933L209.23292317708334,33.327351093292116L209.26642903645833,33.916809602217114L209.48980143229167,31.84497707540326L209.64616210937498,30.96836614608753L209.99238932291667,31.391134305433667L210.0147265625,29.72231262380414L210.05940104166666,30.957816123962285L210.56198893229168,29.912596659226722L210.718349609375,29.9505767388776L210.77419270833335,30.751994783227968L211.321455078125,29.528575853867835L211.53365885416667,29.265592575073125L211.75703125,27.494147950952577L211.94689778645835,28.505415526303246L212.4271484375,26.12379598617542L212.68402669270836,27.052581570365092L212.95207356770834,25.751284295862245L213.28713216145835,26.69810082695689L213.29830078125,27.609430919993887L213.32063802083331,28.520185557278587L213.39881835937499,29.429597464474632L213.71153971354167,33.406955805691695L214.23646484375,32.341403571042036L214.41516276041668,31.26837041161265L214.44866861979168,30.25863738493473L214.45983723958335,30.17711448669422L214.672041015625,28.230347676710522L214.78372721354165,30.254801013252838L215.21930338541665,32.20578783208661L215.29748372395832,33.4926987127823L215.63254231770836,35.562996690923406L215.68838541666665,34.55997731468882L216.05694986979165,34.313490434126294L216.21331054687502,32.397222779013774L216.3585026041667,33.20995811982576L216.883427734375,32.91206385872569L217.14030598958334,32.897102009166254L217.17381184895834,32.791985425082L217.352509765625,31.048162677071197L217.49770182291667,30.601225376129033L217.55354492187502,29.599165092814932L217.58705078124999,30.979107986796866L217.74341145833333,31.611917495727422L217.821591796875,33.98452156240277L217.87743489583332,33.935991460626646L218.16781901041665,37.955549890344685L218.826767578125,37.81015140360041L218.98312825520833,37.74704308943304L219.18416341145834,36.87215852737415L219.34052408854166,38.14813574877641L219.70908854166666,39.036255793137876L219.74259440104169,39.50448495691462L219.77610026041665,39.952956806529535L219.92129231770832,38.97084565596136L220.08882161458334,38.65089225769031L220.72543294270832,38.15043757178555L221.08282877604168,39.326093673705934L221.09399739583333,39.916894912719606L221.20568359375002,41.13877929340698L221.239189453125,41.01256266507225L221.59658528645835,40.411019585349244L221.60775390625,39.771496425975336L221.641259765625,39.66484529321833L221.842294921875,38.9691192887045L221.9428125,42.03649026697321L222.3448828125,43.43484774502831L222.713447265625,44.31702141328281L222.93681966145834,42.49704668738614L223.26070963541665,45.40060459483744L223.32772135416667,45.08122665231867L223.39473307291667,45.11978218772183L223.41707031250002,44.15589380264272L223.819140625,44.29937410354604L223.8414778645833,45.15354225852261L223.91965820312498,47.42026246677735L224.120693359375,47.365785988894274L224.13186197916664,47.045448953455036L224.46692057291668,45.142416780645085L224.857822265625,47.31303587826805L225.38274739583332,48.318357077511784L225.74014322916665,48.97322572361329L225.88533528645831,49.02751038291228L225.89650390625,49.0181112722916L225.97468424479166,49.96166688745661L226.01935872395833,50.80547683889205L226.20922526041667,50.838853272524645L226.27623697916667,51.03681005131104L226.4214290364583,52.13593053817739L226.44376627604169,51.74596335671155L226.6336328125,51.62550128589967L227.15855794270834,49.78020650690241L227.63880859374999,49.0014230554753L227.78400065104165,52.261763529343945L227.82867513020835,51.47914370623493L227.92919270833335,51.369807113300574L228.19723958333336,51.67115410891437L228.30892578125,49.436851241371755L228.34243164062502,48.9440692988308L228.87852539062501,45.832963683388336L228.90086263020834,45.87823286923485L229.11306640625,44.30800593983033L230.017724609375,41.66896585984653L230.24109700520833,40.218433726917496L230.3862890625,39.707429018887495L230.419794921875,40.26274381984352L230.49797526041667,41.68028315630815L230.67667317708333,42.439309293573444L230.90004557291667,41.15354932438232L231.34679036458334,42.772306355562975L231.52548828125,43.48126784237938L232.30729166666669,41.37529160759656L232.34079752604165,40.55929535085494L232.57533854166667,42.34570182453492L233.05558919270834,41.43667355450707L234.63036458333332,42.682727076790435L234.641533203125,41.752790581096185L234.85373697916665,40.520931634035875L235.01009765625,38.74507518248114L235.03243489583335,38.854411775415485L235.63554036458333,37.68949751420444L236.08228515625,39.087854992259516L236.52902994791665,39.42526388168323L236.54019856770833,39.298279979012115L236.59604166666668,40.10238348353981L236.67422200520832,39.60710789940562L236.75240234375,38.46329368244506L236.85291992187499,39.66618802330699L236.99811197916665,39.56778508966608L237.27732747395834,39.46938215602516L237.43368815104165,43.84917588667425L237.52303710937503,44.44381349736983L237.71290364583334,44.17929566990235L238.025625,43.50658789547997L238.40535807291667,45.14510224082242L238.91911458333334,43.97500887784081L239.198330078125,45.25731611251821L239.3546907552083,43.98172252828414L239.37702799479166,44.80097970095537L239.38819661458334,44.742283214222184L239.70091796875,46.39575940912409L239.75676106770834,44.63294662128785L239.8126041666667,44.32948962124901L239.86844726562498,43.43312137777144L240.10298828125002,43.44539776715355L240.85128580729167,41.04900819605036L240.90712890625002,39.34700189937233L240.91829752604167,40.134417187083734L241.10816406249998,39.232102567499226L241.208681640625,38.84808176214034L241.30919921875,38.78574072230934L241.86763020833334,38.91119007630771L241.96814778645833,38.966433828527165L242.02399088541668,37.79710773988193L243.34188802083335,35.78454715555353L243.64344075520833,37.11672722209572L243.72162109375,35.75385618209827L244.13486002604168,32.5896168188614L244.3247265625,34.03151711550615L244.46991861979166,35.75845982811656L244.693291015625,36.439799438823236L245.17354166666667,37.9543989788401L245.64262369791666,36.41447938572265L245.698466796875,36.50329139015879" style="fill: none;" fill="none"></path></g></g></g></g></g></g><g transform="translate(61, 177)" clip-path="url(#clip_1)"><clipPath id="clip_1"><rect width="268" height="22"></rect></clipPath><g><g><line x1="0" y1="0" x2="0" y2="5" style="visibility: inherit;" fill="rgb(0, 0, 0)" stroke="rgb(200, 195, 188)" stroke-width="1px"></line><line x1="22.337239583333332" y1="0" x2="22.337239583333332" y2="5" style="visibility: inherit;" fill="rgb(0, 0, 0)" stroke="rgb(200, 195, 188)" stroke-width="1px"></line><line x1="44.674479166666664" y1="0" x2="44.674479166666664" y2="5" style="visibility: inherit;" fill="rgb(0, 0, 0)" stroke="rgb(200, 195, 188)" stroke-width="1px"></line><line x1="67.01171875" y1="0" x2="67.01171875" y2="5" style="visibility: inherit;" fill="rgb(0, 0, 0)" stroke="rgb(200, 195, 188)" stroke-width="1px"></line><line x1="89.34895833333333" y1="0" x2="89.34895833333333" y2="5" style="visibility: inherit;" fill="rgb(0, 0, 0)" stroke="rgb(200, 195, 188)" stroke-width="1px"></line><line x1="111.68619791666667" y1="0" x2="111.68619791666667" y2="5" style="visibility: inherit;" fill="rgb(0, 0, 0)" stroke="rgb(200, 195, 188)" stroke-width="1px"></line><line x1="134.0234375" y1="0" x2="134.0234375" y2="5" style="visibility: inherit;" fill="rgb(0, 0, 0)" stroke="rgb(200, 195, 188)" stroke-width="1px"></line><line x1="156.36067708333334" y1="0" x2="156.36067708333334" y2="5" style="visibility: inherit;" fill="rgb(0, 0, 0)" stroke="rgb(200, 195, 188)" stroke-width="1px"></line><line x1="178.69791666666666" y1="0" x2="178.69791666666666" y2="5" style="visibility: inherit;" fill="rgb(0, 0, 0)" stroke="rgb(200, 195, 188)" stroke-width="1px"></line><line x1="201.03515625" y1="0" x2="201.03515625" y2="5" style="visibility: inherit;" fill="rgb(0, 0, 0)" stroke="rgb(200, 195, 188)" stroke-width="1px"></line><line x1="223.37239583333334" y1="0" x2="223.37239583333334" y2="5" style="visibility: inherit;" fill="rgb(0, 0, 0)" stroke="rgb(200, 195, 188)" stroke-width="1px"></line><line x1="245.70963541666666" y1="0" x2="245.70963541666666" y2="5" style="visibility: inherit;" fill="rgb(0, 0, 0)" stroke="rgb(200, 195, 188)" stroke-width="1px"></line><line x1="268.046875" y1="0" x2="268.046875" y2="5" style="visibility: inherit;" fill="rgb(0, 0, 0)" stroke="rgb(200, 195, 188)" stroke-width="1px"></line></g><g transform="translate(0, 8)"><text x="0" y="0" dx="0em" dy="0.95em" style="text-anchor: middle; visibility: hidden; font-family: Roboto, sans-serif; font-size: 12px; font-weight: 200;" fill="rgb(232, 230, 227)" stroke="none" stroke-width="1px">-2k</text><text x="22.337239583333332" y="0" dx="0em" dy="0.95em" style="text-anchor: middle; visibility: inherit; font-family: Roboto, sans-serif; font-size: 12px; font-weight: 200;" fill="rgb(232, 230, 227)" stroke="none" stroke-width="1px">0</text><text x="44.674479166666664" y="0" dx="0em" dy="0.95em" style="text-anchor: middle; visibility: hidden; font-family: Roboto, sans-serif; font-size: 12px; font-weight: 200;" fill="rgb(232, 230, 227)" stroke="none" stroke-width="1px">2k</text><text x="67.01171875" y="0" dx="0em" dy="0.95em" style="text-anchor: middle; visibility: inherit; font-family: Roboto, sans-serif; font-size: 12px; font-weight: 200;" fill="rgb(232, 230, 227)" stroke="none" stroke-width="1px">4k</text><text x="89.34895833333333" y="0" dx="0em" dy="0.95em" style="text-anchor: middle; visibility: hidden; font-family: Roboto, sans-serif; font-size: 12px; font-weight: 200;" fill="rgb(232, 230, 227)" stroke="none" stroke-width="1px">6k</text><text x="111.68619791666667" y="0" dx="0em" dy="0.95em" style="text-anchor: middle; visibility: inherit; font-family: Roboto, sans-serif; font-size: 12px; font-weight: 200;" fill="rgb(232, 230, 227)" stroke="none" stroke-width="1px">8k</text><text x="134.0234375" y="0" dx="0em" dy="0.95em" style="text-anchor: middle; visibility: hidden; font-family: Roboto, sans-serif; font-size: 12px; font-weight: 200;" fill="rgb(232, 230, 227)" stroke="none" stroke-width="1px">10k</text><text x="156.36067708333334" y="0" dx="0em" dy="0.95em" style="text-anchor: middle; visibility: inherit; font-family: Roboto, sans-serif; font-size: 12px; font-weight: 200;" fill="rgb(232, 230, 227)" stroke="none" stroke-width="1px">12k</text><text x="178.69791666666666" y="0" dx="0em" dy="0.95em" style="text-anchor: middle; visibility: hidden; font-family: Roboto, sans-serif; font-size: 12px; font-weight: 200;" fill="rgb(232, 230, 227)" stroke="none" stroke-width="1px">14k</text><text x="201.03515625" y="0" dx="0em" dy="0.95em" style="text-anchor: middle; visibility: inherit; font-family: Roboto, sans-serif; font-size: 12px; font-weight: 200;" fill="rgb(232, 230, 227)" stroke="none" stroke-width="1px">16k</text><text x="223.37239583333334" y="0" dx="0em" dy="0.95em" style="text-anchor: middle; visibility: hidden; font-family: Roboto, sans-serif; font-size: 12px; font-weight: 200;" fill="rgb(232, 230, 227)" stroke="none" stroke-width="1px">18k</text><text x="245.70963541666666" y="0" dx="0em" dy="0.95em" style="text-anchor: middle; visibility: inherit; font-family: Roboto, sans-serif; font-size: 12px; font-weight: 200;" fill="rgb(232, 230, 227)" stroke="none" stroke-width="1px">20k</text><text x="268.046875" y="0" dx="0em" dy="0.95em" style="text-anchor: middle; visibility: hidden; font-family: Roboto, sans-serif; font-size: 12px; font-weight: 200;" fill="rgb(232, 230, 227)" stroke="none" stroke-width="1px">22k</text></g><line x1="0" y1="0" x2="268.046875" y2="0" fill="rgb(0, 0, 0)" stroke="rgb(200, 195, 188)" stroke-width="1px"></line></g></g></g></g></svg>