<svg viewBox="0 0 330 200" xmlns="http://www.w3.org/2000/svg"><g><g><g><g><g><line x1="51.5625" y1="177" x2="46.5625" y2="177" style="visibility: inherit;" fill="rgb(0, 0, 0)" stroke="rgb(200, 195, 188)" stroke-width="1px"></line><line x1="51.5625" y1="164.35714285714258" x2="46.5625" y2="164.35714285714258" style="visibility: inherit;" fill="rgb(0, 0, 0)" stroke="rgb(200, 195, 188)" stroke-width="1px"></line><line x1="51.5625" y1="151.71428571428572" x2="46.5625" y2="151.71428571428572" style="visibility: inherit;" fill="rgb(0, 0, 0)" stroke="rgb(200, 195, 188)" stroke-width="1px"></line><line x1="51.5625" y1="139.0714285714283" x2="46.5625" y2="139.0714285714283" style="visibility: inherit;" fill="rgb(0, 0, 0)" stroke="rgb(200, 195, 188)" stroke-width="1px"></line><line x1="51.5625" y1="126.42857142857143" x2="46.5625" y2="126.42857142857143" style="visibility: inherit;" fill="rgb(0, 0, 0)" stroke="rgb(200, 195, 188)" stroke-width="1px"></line><line x1="51.5625" y1="113.785714285714" x2="46.5625" y2="113.785714285714" style="visibility: inherit;" fill="rgb(0, 0, 0)" stroke="rgb(200, 195, 188)" stroke-width="1px"></line><line x1="51.5625" y1="101.14285714285714" x2="46.5625" y2="101.14285714285714" style="visibility: inherit;" fill="rgb(0, 0, 0)" stroke="rgb(200, 195, 188)" stroke-width="1px"></line><line x1="51.5625" y1="88.49999999999973" x2="46.5625" y2="88.49999999999973" style="visibility: inherit;" fill="rgb(0, 0, 0)" stroke="rgb(200, 195, 188)" stroke-width="1px"></line><line x1="51.5625" y1="75.85714285714286" x2="46.5625" y2="75.85714285714286" style="visibility: inherit;" fill="rgb(0, 0, 0)" stroke="rgb(200, 195, 188)" stroke-width="1px"></line><line x1="51.5625" y1="63.21428571428543" x2="46.5625" y2="63.21428571428543" style="visibility: inherit;" fill="rgb(0, 0, 0)" stroke="rgb(200, 195, 188)" stroke-width="1px"></line><line x1="51.5625" y1="50.57142857142857" x2="46.5625" y2="50.57142857142857" style="visibility: inherit;" fill="rgb(0, 0, 0)" stroke="rgb(200, 195, 188)" stroke-width="1px"></line><line x1="51.5625" y1="37.92857142857115" x2="46.5625" y2="37.92857142857115" style="visibility: inherit;" fill="rgb(0, 0, 0)" stroke="rgb(200, 195, 188)" stroke-width="1px"></line><line x1="51.5625" y1="25.285714285714295" x2="46.5625" y2="25.285714285714295" style="visibility: inherit;" fill="rgb(0, 0, 0)" stroke="rgb(200, 195, 188)" stroke-width="1px"></line><line x1="51.5625" y1="12.642857142856862" x2="46.5625" y2="12.642857142856862" style="visibility: inherit;" fill="rgb(0, 0, 0)" stroke="rgb(200, 195, 188)" stroke-width="1px"></line><line x1="51.5625" y1="0" x2="46.5625" y2="0" style="visibility: inherit;" fill="rgb(0, 0, 0)" stroke="rgb(200, 195, 188)" stroke-width="1px"></line></g><g transform="translate(41.5625, 0)"><text x="0" y="177" dx="0em" dy="0.3em" style="text-anchor: end; visibility: hidden; font-family: Roboto, sans-serif; font-size: 12px; font-weight: 200;" fill="rgb(232, 230, 227)" stroke="none" stroke-width="1px">4.68</text><text x="0" y="164.35714285714258" dx="0em" dy="0.3em" style="text-anchor: end; visibility: inherit; font-family: Roboto, sans-serif; font-size: 12px; font-weight: 200;" fill="rgb(232, 230, 227)" stroke="none" stroke-width="1px">4.7</text><text x="0" y="151.71428571428572" dx="0em" dy="0.3em" style="text-anchor: end; visibility: hidden; font-family: Roboto, sans-serif; font-size: 12px; font-weight: 200;" fill="rgb(232, 230, 227)" stroke="none" stroke-width="1px">4.72</text><text x="0" y="139.0714285714283" dx="0em" dy="0.3em" style="text-anchor: end; visibility: inherit; font-family: Roboto, sans-serif; font-size: 12px; font-weight: 200;" fill="rgb(232, 230, 227)" stroke="none" stroke-width="1px">4.74</text><text x="0" y="126.42857142857143" dx="0em" dy="0.3em" style="text-anchor: end; visibility: hidden; font-family: Roboto, sans-serif; font-size: 12px; font-weight: 200;" fill="rgb(232, 230, 227)" stroke="none" stroke-width="1px">4.76</text><text x="0" y="113.785714285714" dx="0em" dy="0.3em" style="text-anchor: end; visibility: inherit; font-family: Roboto, sans-serif; font-size: 12px; font-weight: 200;" fill="rgb(232, 230, 227)" stroke="none" stroke-width="1px">4.78</text><text x="0" y="101.14285714285714" dx="0em" dy="0.3em" style="text-anchor: end; visibility: hidden; font-family: Roboto, sans-serif; font-size: 12px; font-weight: 200;" fill="rgb(232, 230, 227)" stroke="none" stroke-width="1px">4.8</text><text x="0" y="88.49999999999973" dx="0em" dy="0.3em" style="text-anchor: end; visibility: inherit; font-family: Roboto, sans-serif; font-size: 12px; font-weight: 200;" fill="rgb(232, 230, 227)" stroke="none" stroke-width="1px">4.82</text><text x="0" y="75.85714285714286" dx="0em" dy="0.3em" style="text-anchor: end; visibility: hidden; font-family: Roboto, sans-serif; font-size: 12px; font-weight: 200;" fill="rgb(232, 230, 227)" stroke="none" stroke-width="1px">4.84</text><text x="0" y="63.21428571428543" dx="0em" dy="0.3em" style="text-anchor: end; visibility: inherit; font-family: Roboto, sans-serif; font-size: 12px; font-weight: 200;" fill="rgb(232, 230, 227)" stroke="none" stroke-width="1px">4.86</text><text x="0" y="50.57142857142857" dx="0em" dy="0.3em" style="text-anchor: end; visibility: hidden; font-family: Roboto, sans-serif; font-size: 12px; font-weight: 200;" fill="rgb(232, 230, 227)" stroke="none" stroke-width="1px">4.88</text><text x="0" y="37.92857142857115" dx="0em" dy="0.3em" style="text-anchor: end; visibility: inherit; font-family: Roboto, sans-serif; font-size: 12px; font-weight: 200;" fill="rgb(232, 230, 227)" stroke="none" stroke-width="1px">4.9</text><text x="0" y="25.285714285714295" dx="0em" dy="0.3em" style="text-anchor: end; visibility: hidden; font-family: Roboto, sans-serif; font-size: 12px; font-weight: 200;" fill="rgb(232, 230, 227)" stroke="none" stroke-width="1px">4.92</text><text x="0" y="12.642857142856862" dx="0em" dy="0.3em" style="text-anchor: end; visibility: inherit; font-family: Roboto, sans-serif; font-size: 12px; font-weight: 200;" fill="rgb(232, 230, 227)" stroke="none" stroke-width="1px">4.94</text><text x="0" y="0" dx="0em" dy="0.3em" style="text-anchor: end; visibility: hidden; font-family: Roboto, sans-serif; font-size: 12px; font-weight: 200;" fill="rgb(232, 230, 227)" stroke="none" stroke-width="1px">4.96</text></g><line x1="51.5625" y1="0" x2="51.5625" y2="177" fill="rgb(0, 0, 0)" stroke="rgb(200, 195, 188)" stroke-width="1px"></line></g></g><g transform="translate(51, 0)" clip-path="url(#clip_0)"><clipPath id="clip_0"><rect width="278" height="176"></rect></clipPath><g><g><g><line x1="0" y1="0" x2="0" y2="177" fill="rgb(0, 0, 0)" stroke="rgb(194, 189, 181)" stroke-width="1px" opacity="0.25"></line><line x1="23.203125" y1="0" x2="23.203125" y2="177" fill="rgb(0, 0, 0)" stroke="rgb(194, 189, 181)" stroke-width="1px" opacity="0.25"></line><line x1="46.40625" y1="0" x2="46.40625" y2="177" fill="rgb(0, 0, 0)" stroke="rgb(194, 189, 181)" stroke-width="1px" opacity="0.25"></line><line x1="69.609375" y1="0" x2="69.609375" y2="177" fill="rgb(0, 0, 0)" stroke="rgb(194, 189, 181)" stroke-width="1px" opacity="0.25"></line><line x1="92.8125" y1="0" x2="92.8125" y2="177" fill="rgb(0, 0, 0)" stroke="rgb(194, 189, 181)" stroke-width="1px" opacity="0.25"></line><line x1="116.015625" y1="0" x2="116.015625" y2="177" fill="rgb(0, 0, 0)" stroke="rgb(194, 189, 181)" stroke-width="1px" opacity="0.25"></line><line x1="139.21875" y1="0" x2="139.21875" y2="177" fill="rgb(0, 0, 0)" stroke="rgb(194, 189, 181)" stroke-width="1px" opacity="0.25"></line><line x1="162.421875" y1="0" x2="162.421875" y2="177" fill="rgb(0, 0, 0)" stroke="rgb(194, 189, 181)" stroke-width="1px" opacity="0.25"></line><line x1="185.625" y1="0" x2="185.625" y2="177" fill="rgb(0, 0, 0)" stroke="rgb(194, 189, 181)" stroke-width="1px" opacity="0.25"></line><line x1="208.828125" y1="0" x2="208.828125" y2="177" fill="rgb(0, 0, 0)" stroke="rgb(194, 189, 181)" stroke-width="1px" opacity="0.25"></line><line x1="232.03125" y1="0" x2="232.03125" y2="177" fill="rgb(0, 0, 0)" stroke="rgb(194, 189, 181)" stroke-width="1px" opacity="0.25"></line><line x1="255.234375" y1="0" x2="255.234375" y2="177" fill="rgb(0, 0, 0)" stroke="rgb(194, 189, 181)" stroke-width="1px" opacity="0.25"></line><line x1="278.4375" y1="0" x2="278.4375" y2="177" fill="rgb(0, 0, 0)" stroke="rgb(194, 189, 181)" stroke-width="1px" opacity="0.25"></line></g><g><line x1="0" y1="177" x2="278.4375" y2="177" fill="rgb(0, 0, 0)" stroke="rgb(194, 189, 181)" stroke-width="1px" opacity="0.25"></line><line x1="0" y1="164.35714285714258" x2="278.4375" y2="164.35714285714258" fill="rgb(0, 0, 0)" stroke="rgb(194, 189, 181)" stroke-width="1px" opacity="0.25"></line><line x1="0" y1="151.71428571428572" x2="278.4375" y2="151.71428571428572" fill="rgb(0, 0, 0)" stroke="rgb(194, 189, 181)" stroke-width="1px" opacity="0.25"></line><line x1="0" y1="139.0714285714283" x2="278.4375" y2="139.0714285714283" fill="rgb(0, 0, 0)" stroke="rgb(194, 189, 181)" stroke-width="1px" opacity="0.25"></line><line x1="0" y1="126.42857142857143" x2="278.4375" y2="126.42857142857143" fill="rgb(0, 0, 0)" stroke="rgb(194, 189, 181)" stroke-width="1px" opacity="0.25"></line><line x1="0" y1="113.785714285714" x2="278.4375" y2="113.785714285714" fill="rgb(0, 0, 0)" stroke="rgb(194, 189, 181)" stroke-width="1px" opacity="0.25"></line><line x1="0" y1="101.14285714285714" x2="278.4375" y2="101.14285714285714" fill="rgb(0, 0, 0)" stroke="rgb(194, 189, 181)" stroke-width="1px" opacity="0.25"></line><line x1="0" y1="88.49999999999973" x2="278.4375" y2="88.49999999999973" fill="rgb(0, 0, 0)" stroke="rgb(194, 189, 181)" stroke-width="1px" opacity="0.25"></line><line x1="0" y1="75.85714285714286" x2="278.4375" y2="75.85714285714286" fill="rgb(0, 0, 0)" stroke="rgb(194, 189, 181)" stroke-width="1px" opacity="0.25"></line><line x1="0" y1="63.21428571428543" x2="278.4375" y2="63.21428571428543" fill="rgb(0, 0, 0)" stroke="rgb(194, 189, 181)" stroke-width="1px" opacity="0.25"></line><line x1="0" y1="50.57142857142857" x2="278.4375" y2="50.57142857142857" fill="rgb(0, 0, 0)" stroke="rgb(194, 189, 181)" stroke-width="1px" opacity="0.25"></line><line x1="0" y1="37.92857142857115" x2="278.4375" y2="37.92857142857115" fill="rgb(0, 0, 0)" stroke="rgb(194, 189, 181)" stroke-width="1px" opacity="0.25"></line><line x1="0" y1="25.285714285714295" x2="278.4375" y2="25.285714285714295" fill="rgb(0, 0, 0)" stroke="rgb(194, 189, 181)" stroke-width="1px" opacity="0.25"></line><line x1="0" y1="12.642857142856862" x2="278.4375" y2="12.642857142856862" fill="rgb(0, 0, 0)" stroke="rgb(194, 189, 181)" stroke-width="1px" opacity="0.25"></line><line x1="0" y1="0" x2="278.4375" y2="0" fill="rgb(0, 0, 0)" stroke="rgb(194, 189, 181)" stroke-width="1px" opacity="0.25"></line></g></g></g><g><g><line x1="0" y1="3135.4285714285684" x2="278.4375" y2="3135.4285714285684" fill="rgb(0, 0, 0)" stroke="rgb(168, 160, 149)" stroke-width="1.5px"></line></g></g><g><g><line x1="23.203125" y1="0" x2="23.203125" y2="177" fill="rgb(0, 0, 0)" stroke="rgb(168, 160, 149)" stroke-width="1.5px"></line></g></g><g><g><g><g><g><path stroke="rgb(0, 119, 187)" stroke-width="2px" d="M23.8412109375,269.9787848497884L24.050039062499998,129.71194129683622L24.664921875,61.36140496002949L25.2333984375,-20.40045235048209L35.477578125,-0.4261628227255201L36.452109375,2.5918788388674305L36.776953125,5.417655211496247L37.101796875000005,7.7793962054009445L37.217812499999994,9.562316075242823L37.496249999999996,12.925196590424445L38.006718750000005,15.880755885685511L38.308359375,18.204168678686365L38.61,19.891943137899972L38.98125,21.32785823053987L39.097265625,22.612929398191532L39.166875,23.579190193827927L39.538124999999994,24.74679347844612L40.5706640625,27.29575913660901L41.034726562500005,29.32082109844733L41.046328125,30.514789796453673L41.3595703125,31.91252876863907L41.5916015625,33.21225714512433L41.6380078125,34.020073372302114L41.788828125,34.73428637726001L42.044062499999995,36.50231965408499L42.18328125,37.60343615890242L42.2644921875,39.21230504951215L42.276093749999994,40.20231214122629L42.287695312500006,40.876421687202864L42.392109375,41.65390108626217L43.320234375,43.37476023109547L43.76109375,45.37176177031992L44.4919921875,48.9010806818456L45.1880859375,51.31680389557054L45.907382812499996,53.46792406039162L46.0698046875,55.17349518319524L46.383046875,56.35823686926697L47.125546875000005,58.7107727410692L47.14875,60.07628590984149L47.9260546875,63.19912932150246L48.819375,66.63999457921575L48.8541796875,68.54249537962653L48.9469921875,69.79637660413509L49.074609374999994,71.17451647497153L49.5966796875,72.80799372299192L49.70109375,73.82515247511658L49.770703125,74.43323192679894L50.0839453125,75.00346875394415L50.49,75.82541596360679L51.0816796875,77.02959197729619L51.348515625000005,77.89875121307303L51.487734375,78.42973345120207L51.8009765625,79.52962029874159L51.951796875,80.19208805349518L52.4274609375,82.05657972978405L52.7291015625,83.2129891410506L52.8451171875,84.01174353559195L53.5644140625,85.9103953694611L54.0516796875,87.39742204683483L54.0748828125,88.36669969452635L54.156093750000004,89.16229242910606L54.8869921875,90.33373145092852L55.2118359375,91.50044126933265L55.3742578125,92.28500629228112L55.7223046875,92.9666124406611L55.9659375,93.86059943532534L56.29078125,94.79372576955481L56.3023828125,95.37355500691925L56.75484375,96.51158723083743L56.778046875,97.28199794859245L56.998476562499995,98.03836575614854L57.010078125,98.51840494063332L57.3929296875,99.20111299004526L57.926601562500004,99.87504550487336L58.0890234375,100.2951335977434L58.2978515625,100.87626989767585L58.33265625,101.3213220541878L58.355859375,101.62610955637L58.3906640625,101.93717563344977L58.413867187499996,102.25308033854857L58.6575,102.49016759936848L58.9939453125,102.96903777442277L59.028749999999995,103.28827784627694L59.7828515625,104.06632608221739L60.049687500000005,104.88668235722676L60.119296875,105.4564515160429L60.4557421875,106.14103940519354L60.722578125,106.90500687015454L61.001015625,107.46468998309496L61.3142578125,108.78002667261435L61.4766796875,109.99301241414885L61.48828125,110.69281076821868L61.697109375,111.20588696101797L61.7783203125,111.54519933407343L61.8479296875,111.79592957674545L62.126367187499994,112.00244705573687L62.416406249999994,112.26139090037377L62.555625,112.63107680411315L62.69484375,113.12419267142647L62.926875,113.77436158490507L62.984882812500004,114.35890766576564L63.228515625,114.99307903404359L63.402539062500004,115.56574001184725L63.4257421875,115.94329668322824L63.4489453125,116.30231372396744L63.4953515625,116.56815298198846L63.646171875,116.94387353628835L63.6577734375,117.21654046516392L63.90140625,117.59650291524733L64.110234375,117.87281512448513L64.4466796875,118.41271891445642L64.5162890625,118.76889705890987L65.01515625,119.50352476757458L65.0615625,120.11507527475231L65.4444140625,120.74305715892439L65.47921875,121.30404005550734L65.5140234375,121.75045293013243L65.5836328125,122.13856279184245L65.66484375,122.61858840624019L65.734453125,123.14204985810224L65.8388671875,123.60594685296846L65.86207031250001,123.90738258329354L66.059296875,124.12633868579502L66.1405078125,124.29982387314347L66.6509765625,124.71128336390674L67.24265625,125.20140625792908L67.265859375,125.54723245953063L67.2890625,125.77362333200986L67.405078125,126.08570501663105L67.590703125,126.41004245202492L67.96195312500001,126.68457191422037L67.98515625,126.85981329794366L68.0199609375,126.98533906066906L68.0431640625,127.12208113702884L68.124375,127.26092603377313L68.8552734375,127.58265157003252L69.00609374999999,127.77306907106285L69.214921875,127.94536291980506L69.261328125,128.0595585118226L69.2961328125,128.1447705674418L69.3193359375,128.23954968237274L69.400546875,128.31492816336234L69.632578125,128.51027542244287L69.818203125,128.7215803204652L69.8298046875,128.85743903233492L69.8878125,128.97121878811834L69.93421875,129.07672634692454L70.11984375,129.20772039885068L70.1314453125,129.30024841152593L70.143046875,129.3713934395045L70.1546484375,129.42993617282661L70.20105468749999,129.52858660724917L70.4562890625,129.68096017804226L70.94355468750001,129.83472490879382L71.024765625,129.96342164740608L71.03636718749999,130.0535968842953L71.0827734375,130.12455804766952L71.6860546875,130.3170488271243L71.69765625000001,130.44309058745802L71.8020703125,130.64777838852626L71.9644921875,130.8444005442692L72.3125390625,131.00801752350623L72.39375,131.17635104177432L72.4749609375,131.34344649628005L72.63738281250001,131.46888709998993L73.1246484375,131.63356587186706L73.19425781250001,131.78486580039927L74.5168359375,132.35705321483442L74.72566406249999,132.70404209390503L74.74886718750001,132.90920288825544L74.7952734375,133.123501019105L74.8184765625,133.28858573071383L74.969296875,133.48785154956587L75.0273046875,133.64740707170225L75.201328125,133.78479356621156L75.85101562499999,134.0099620199399L76.2338671875,134.25695776042994L76.291875,134.46785497279618L76.4891015625,134.71542600324435L76.5819140625,134.86025686404705L76.59351562500001,134.9514003100946L76.61671875,135.01597388710923L76.732734375,135.13076219396126L76.7559375,135.21759735634228L77.08078125,135.30354210501505L77.13878906250001,135.3617811867546L77.3128125,135.40651202865556L77.35921875,135.4451786028374L77.9625,135.60671349333907L78.1597265625,135.70849373495273L78.3453515625,135.81589074608706L78.75140625,135.98828848416176L78.79781249999999,136.12934598580395L79.07624999999999,136.35068804807446L79.09945312500001,136.4972726569L79.12265625,136.5893175294309L79.145859375,136.65186403157762L79.34308593749999,136.72532440888978L79.48230468749999,136.77685353456448L79.9695703125,136.85417312891173L80.51484375000001,136.94372356200498L80.584453125,136.9954657737399L80.8048828125,137.04945575945123L80.816484375,137.0855568039047L80.88609375,137.11319540551537L80.9208984375,137.1372167844704L81.094921875,137.18926380793943L81.15292968749999,137.22495214817226L81.5705859375,137.27039745474553L81.58218749999999,137.303424985458L82.1970703125,137.40404954881254L82.55671875,137.4986934901076L82.5915234375,137.56579879464377L82.672734375,137.62036068040794L82.83515625,137.6589531003828L83.45003906250001,137.76185203844625L83.508046875,137.8279266059755L83.54285156249999,137.87478045786395L83.83289062499999,137.93929584538543L84.1809375,138.08921294514397L84.2389453125,138.19146740440556L84.296953125,138.2961782715525L84.3085546875,138.3636236544098L84.41296874999999,138.44150648611523L84.4709765625,138.5074678045618L85.09746093749999,138.62282291591762L85.7471484375,138.8212853064467L85.781953125,138.9508359586509L86.1648046875,139.08803538768095L86.1880078125,139.16968948326576L86.2112109375,139.23378037192984L86.24601562500001,139.28986923438757L86.617265625,139.36455171728133L87.0001171875,139.44805884811387L87.1161328125,139.51398116445293L87.8122265625,139.60690255600565L87.916640625,139.66755567544217L88.0674609375,139.71118341923267L88.51992187500001,139.84303954046612L88.7403515625,139.99768488039336L88.8331640625,140.1356239276988L88.86796875,140.21897663841324L88.891171875,140.27427197212046L89.05359375,140.4294115965386L89.3900390625,140.5400637225991L89.61046875000001,140.64323120676326L90.0165234375,140.79690107897295L90.03972656250001,140.89244128229083L90.44578125,141.06167451300576L90.48058593750001,141.1861630093859L91.69874999999999,141.58049540360278L91.8727734375,141.80032212160415L91.907578125,141.93089240580937L92.00039062500001,142.0510365745349L92.0583984375,142.13051652300538L92.20921875,142.1896810406369L93.2881640625,142.56977419604513L93.3345703125,142.82842774207495L93.3577734375,143.0022476561638L93.4621875,143.22534065535882L93.4737890625,143.35553888379724L93.62460937499999,143.4885298346299L93.65941406249999,143.58940898299036L93.7522265625,143.67334318110127L94.49472656249999,143.79427398778114L94.6571484375,143.88719628693138L94.738359375,143.96498974024735L94.7963671875,144.06328042324114L95.5620703125,144.2687931136298L96.15375,144.49894704048785L96.6990234375,144.63321406952315L96.710625,144.71775574929885L96.79183593750001,144.79343898315L97.105078125,144.87907194049714L97.51113281250001,144.99809251215834L97.62714843750001,145.10541488276795L98.05640625000001,145.25565357207898L98.079609375,145.36671650935398L98.14921874999999,145.45896156141836L98.1608203125,145.52424785851832L98.404453125,145.60849214438448L98.4856640625,145.68299705561586L98.52046875,145.7702217740307L98.8569140625,145.94221258596687L99.47179687500001,146.14121928097137L99.8314453125,146.33330990767504L99.9474609375,146.48917738104723L99.9590625,146.58379622706155L99.97066406249999,146.6462008056493L99.982265625,146.69190075618639L100.42312500000001,146.79977141629547L100.51593749999999,146.89916531347336L101.0728125,147.05792730243266L101.25843750000001,147.1702948292752L101.3628515625,147.274490524034L101.43246093750001,147.3434290433989L101.5020703125,147.42500923912795L102.14015625,147.56216294514286L102.302578125,147.6640097929234L102.4533984375,147.762358374866L102.7434375,147.8586158589813L102.766640625,147.9234741380749L102.78984374999999,147.98816113641837L102.8246484375,148.0373781641974L102.98707031250001,148.15335586950468L103.21910156249999,148.38480656755038L104.32124999999999,148.63503138161963L104.437265625,148.80730232474633L104.5880859375,148.97202677784213L104.669296875,149.07500697085055L105.0289453125,149.17291263008937L105.04054687499999,149.23231880370085L105.17976562499999,149.2886366252936L105.1913671875,149.32505520983273L105.504609375,149.35857031617286L105.597421875,149.38268232669986L105.9106640625,149.4167570998649L107.16363281250001,149.5598173994209L107.30285156250001,149.64140759600446L107.314453125,149.69110917047416L107.4188671875,149.75489086850826L107.5580859375,149.81243224750528L107.6044921875,149.87848566995135L107.61609375,149.92195927762938L107.6276953125,149.95368036592407L107.7669140625,150.0098315345873L108.0453515625,150.0490943513783L108.31218750000001,150.10003930372685L108.54421875,150.16592504392008L108.77625,150.22029955739083L109.2751171875,150.3800931909602L109.28671875,150.4708702995982L109.6695703125,150.58521023537583L109.8319921875,150.65042672445483L110.8065234375,150.7390299667866L111.444609375,150.8247115518104L111.50261718750001,150.87431868104423L111.69984375,150.9165171290656L111.8506640625,150.95021968796937L111.86226562499999,150.97354908155654L112.16390625,151.02846330559177L112.18710937499999,151.06225601127753L112.1987109375,151.0850457619382L112.25671875,151.1196128502767L112.3147265625,151.14909990111767L112.47714843749999,151.17304592082635L113.0804296875,151.21802246918244L113.64890625,151.26033120671232L113.6605078125,151.28530077884724L113.718515625,151.30795027665118L113.97375,151.3446426939153L114.8090625,151.38840667718887L115.342734375,151.42188845906142L115.389140625,151.44202798680328L115.59796875,151.45897196074432L115.66757812499999,151.47119703358064L116.0736328125,151.49872243699448L116.53769531249999,151.53792106974214L116.549296875,151.56217101557678L116.8857421875,151.61594696294463L116.94375,151.65896973215L117.01335937500001,151.68943362731977L117.2105859375,151.72355038814672L118.3011328125,151.78195839464217L118.56796875,151.8421579961258L118.5795703125,151.87764192367024L118.730390625,151.91492495950968L119.240859375,151.95474417753553L119.3220703125,151.98165701769045L120.1341796875,152.01702492269214L120.1805859375,152.03828041231466L120.4590234375,152.06195076356576L120.841875,152.09242914822698L121.02749999999999,152.1201075945638L121.14351562499999,152.1425380131851L121.45675781249999,152.16754475090667L121.5263671875,152.19578014635465L121.584375,152.23226732855508L121.8744140625,152.29570259105287L122.65171875,152.36976628577847L122.860546875,152.4182361409666L122.9765625,152.4538437518174L123.4522265625,152.48752799605379L123.4754296875,152.50982251375035L123.7190625,152.5476509225759L123.90468750000001,152.57105007872184L124.32234375,152.60988575548834L124.40355468749999,152.63878346351598L124.41515625000001,152.6565667773005L124.438359375,152.6689302816303L124.484765625,152.6783615093076L124.54277343749999,152.6893619332373L125.06484375,152.7048312888641L125.4825,152.73578218874763L125.5869140625,152.75476733773968L126.1669921875,152.79045524727147L126.27140625,152.81246119759484L126.3526171875,152.8275811154776L126.75867187499999,152.87695721766346L126.944296875,152.91654650970244L126.990703125,152.94363415708565L127.0023046875,152.9613660672574L127.04871093749999,152.9780979879179L127.1415234375,153.0026661057678L127.315546875,153.017345042644L127.4431640625,153.02928485398655L127.7216015625,153.0379123250965L127.8608203125,153.0441047803622L128.243671875,153.05329398067911L128.30167968749998,153.06109361609367L128.6961328125,153.0788731204331L129.1369921875,153.09240662345238L129.9491015625,153.0995093385965L130.2043359375,153.10228116662333L130.471171875,153.10370588622916L130.9932421875,153.10561014884988L131.35289062500001,153.11098377762505L131.608125,153.11975210112587L131.6197265625,153.12499149237004L131.65453125,153.13017494754973L131.93296875,153.12990935165303L132.141796875,153.12830788943356L132.7798828125,153.1230899000644L133.25554687500002,153.10107056726048L133.2671484375,153.0878482004907L133.3135546875,153.0757780986256L133.68480468750002,153.05800099342488L134.03285156249999,153.0393414128104L135.1466015625,153.0032348670523L135.19300781249999,152.9804277593379L135.204609375,152.96680047626455L135.5874609375,152.94705102317863L135.5990625,152.93499537458487L135.6570703125,152.92674784690584L135.807890625,152.91884625285542L135.993515625,152.91170844706198L136.434375,152.8867978989078L136.7708203125,152.85494958007493L137.1884765625,152.8289109010606L137.710546875,152.79985209860303L137.73375,152.7814000039088L137.87296874999998,152.75375029771158L138.2094140625,152.72034755705144L138.3486328125,152.69966267812137L138.685078125,152.6677889343749L138.7430859375,152.6370493599817L139.102734375,152.61348500531776L139.35796875,152.59390170278098L139.798828125,152.56127571796398L140.21648437500002,152.53454432944832L140.34410156250001,152.51362616069676L140.4137109375,152.49056867615224L140.47171874999998,152.467144056254L140.773359375,152.4445561909346L140.819765625,152.42679325525683L140.98218749999998,152.39715386330735L141.02859375,152.37547345375532L141.3186328125,152.32360422640855L141.37664062500002,152.29313458413614L141.72468750000002,152.27395731777787L142.583203125,152.2138525574917L142.6876171875,152.17006718652598L143.23289062499998,152.1330585411481L143.25609375,152.11022723800806L143.34890625,152.08721186453735L143.4069140625,152.07157310315674L143.5925390625,152.04991078266409L143.8477734375,152.02940069598264L144.0101953125,152.00992234125923L144.75269531249998,151.96401929166086L144.7875,151.93134245940573L144.8919140625,151.9010690650759L145.089140625,151.8712985648752L145.25156249999998,151.84251902522152L145.2863671875,151.81893666626348L145.367578125,151.79392380958046L145.4371875,151.76832217165992L145.506796875,151.75062159738712L146.5393359375,151.6745754732378L146.806171875,151.60237998742096L146.92218749999998,151.5416858782476L146.9337890625,151.50609426834478L146.96859375000003,151.4835518376595L147.01500000000001,151.4637613310829L147.07300781249998,151.4497801512858L147.131015625,151.43482961144394L147.2934375,151.41938082053935L147.59507812500001,151.40045304754452L147.6066796875,151.3872083019944L147.82710937500002,151.36750897860313L148.3723828125,151.34170860493563L148.523203125,151.3225874291528L149.3237109375,151.29444732068285L149.3701171875,151.27573496173426L149.40492187499999,151.2639193903403L149.61375,151.25125392996165L149.822578125,151.2402025509459L150.03140625,151.22661143411304L150.11261718749998,151.2149377730872L150.1822265625,151.20630060864713L150.3678515625,151.19922420345145L150.3910546875,151.19441497443802L150.704296875,151.18491129026418L150.73910156250003,151.1790009344476L151.23796875,151.17274013051383L151.3887890625,151.1680571313618L151.586015625,151.1638921346824L151.632421875,151.16116534801748L151.78324218749998,151.15917780130061L151.8296484375,151.1569842455439L151.88765625,151.1551242849205L151.98046874999997,151.1528498138237L152.21249999999998,151.14391652225385L152.52574218750001,151.13756687527237L152.8273828125,151.12170462173063L152.885390625,151.11179348829492L153.349453125,151.09864196309724L153.535078125,151.0879267251365L153.61628906250002,151.07846373881557L153.83671875,151.06627503419955L154.741640625,151.0428701726531L154.89246093749998,151.0271777089946L155.04328124999998,151.01515642866445L155.0548828125,151.00707306086656L155.13609375000001,150.9963259531361L155.43773437500002,150.98801854249692L155.47253906249998,150.98228358749915L155.484140625,150.97801736929378L155.64656250000002,150.96703485755984L155.90179687499997,150.9556765574043L156.33105468749997,150.94573654252181L156.91113281250003,150.92597791557802L157.03875,150.91157363813434L157.10835937500002,150.9021189152272L157.36359375,150.8937433174221L157.52601562499999,150.88665486288468L157.54921875,150.88154645132232L157.6536328125,150.87643031969995L157.6884375,150.87248217670924L157.8392578125,150.86913437987556L157.850859375,150.86594866637373L157.9088671875,150.86182080155382L158.082890625,150.85735516554914L158.15249999999997,150.8538878718992L158.62816406250002,150.84844331813983L158.77898437500002,150.8450588391356L158.96460937499998,150.8422937547772L159.080625,150.83970054467358L159.47507812499998,150.83587722659976L159.96234375,150.83156812762326L160.12476562499998,150.83008572371367L160.1827734375,150.83049572484816L160.57722656250002,150.8340758410682L160.9716796875,150.83855292347866L161.49374999999998,150.84642093836894L161.516953125,150.85134406558024L161.5517578125,150.85607197186138L161.79539062499998,150.8624574696992L161.8533984375,150.87086692634068L161.865,150.87709381676294L161.91140625,150.88234536274027L162.421875,150.90218452474744L162.5146875,150.91399329454137L162.65390624999998,150.92152794814407L162.7815234375,150.92803766276933L163.11796875,150.93782941817597L163.605234375,150.95370298033268L163.6284375,150.9637664209891L163.67484375,150.97025748082334L163.698046875,150.97505883150689L164.2665234375,150.98792784185747L164.5913671875,151.01080341299357L164.811796875,151.0312046375411L165.1134375,151.05795176677512L165.13664062499998,151.074043704688L165.391875,151.0880282499002L166.16917968750002,151.1185089464162L166.389609375,151.1407682811074L166.50562499999998,151.15836235204273L166.6100390625,151.1693101342113L166.65644531249998,151.17654873476886L166.7260546875,151.18393174027844L167.08570312499998,151.19988565632408L167.271328125,151.21130885021637L167.3989453125,151.22025675832884L167.9790234375,151.228225358736L168.68671875,151.25063304346304L169.0927734375,151.27782551485697L169.10437499999998,151.2938533694545L169.3248046875,151.31337177037398L169.452421875,151.3364422472183L169.7192578125,151.36895620992067L170.0905078125,151.4009038244154L170.1833203125,151.41952231716013L170.26453125,151.43143613591758L170.4153515625,151.43990375224564L170.473359375,151.44923692319833L170.960625,151.46604672968925L171.703125,151.52390915345276L171.772734375,151.55951022298484L172.3528125,151.59026121312442L172.3644140625,151.60929010310056L173.2461328125,151.6520322359597L173.32734375,151.6813264218962L173.4085546875,151.707810211717L173.4665625,151.72523173910147L173.4781640625,151.73784876900012L173.9190234375,151.78476643001935L174.06984375,151.81283746179236L174.093046875,151.83517668014272L174.1046484375,151.85090738156995L174.1278515625,151.86748964849403L174.20906250000002,151.8941782632178L174.301875,151.91697887594816L174.6615234375,151.9423223880344L174.7659375,151.9642851234161L174.9863671875,151.98392416120043L175.3112109375,152.00251531301143L175.810078125,152.04972027542746L175.902890625,152.09083050429757L176.227734375,152.12734309419562L176.2509375,152.15358178964283L176.29734375,152.17864155194454L176.4017578125,152.20353482638865L177.1442578125,152.24020858810263L177.1790625,152.26301425563275L177.46910156250001,152.2902647955946L177.9099609375,152.31555165679174L178.1071875,152.3395361979171L178.24640625,152.35904248710986L178.7220703125,152.38562260875688L178.8148828125,152.4132017776129L178.8496875,152.43777858650307L178.98890625,152.45392693650336L179.0005078125,152.46588955322704L179.012109375,152.4757007030465L179.04691406249998,152.49114475015227L179.13972656250002,152.51285348210126L179.7778125,152.54437451874182L179.95183593750002,152.5642386963979L180.19546875,152.5857289673696L180.56671874999998,152.62563440145792L180.81035156250002,152.6635786511392L181.03078125,152.69421558453874L181.3672265625,152.72153604114806L181.40203125,152.73938761526233L181.4600390625,152.7566205269683L182.00531249999997,152.7780767785778L182.05171875000002,152.79335363510023L182.15613281249998,152.8097026257435L182.6201953125,152.84520750662787L183.1074609375,152.87766699091745L183.24667968749998,152.90856114135732L183.25828125,152.9292750562501L183.5019140625,152.95940578936654L183.8615625,153.00301994803255L184.14,153.08637937624934L184.40683593749998,153.14841691402805L184.46484375,153.19026584076582L185.20734375,153.2338968726427L185.7526171875,153.27844390656153L185.9382421875,153.31760198181178L186.13546875,153.35867795928073L186.2630859375,153.39678438448095L186.73874999999998,153.43160652469928L186.81996093749999,153.460785188428L187.84089843750002,153.53862920195544L188.35136718750002,153.62390785412666L188.36296875,153.67228241372345L188.64140625,153.7016882697379L188.82703125,153.73071986605882L188.93144531250002,153.77435504678354L189.128671875,153.82520348070614L189.151875,153.85588090812323L189.175078125,153.87619043819643L189.19828125,153.8911708690356L189.221484375,153.90355863746103L189.26789062499998,153.91461377740595L189.314296875,153.92469095712565L190.0219921875,153.96517582439975L191.309765625,154.0844294126338L191.3213671875,154.1502670893672L191.36777343749998,154.188648987589L191.82023437499998,154.240313104536L192.75996093749998,154.31887404114065L192.81796875,154.36906950028197L192.933984375,154.41552570388487L193.38644531249997,154.4814481407106L193.46765625,154.520166594806L193.5024609375,154.5550103286909L193.5952734375,154.58185617807678L193.606875,154.60019627704202L193.6648828125,154.6189987418582L194.790234375,154.7150950186079L194.9178515625,154.78646269379837L195.02226562500002,154.8369161705821L195.1266796875,154.87691273857118L195.97359375,154.93980791187735L195.996796875,154.97711684711652L196.7044921875,155.02632503138187L196.90171875000001,155.0617261650073L196.971328125,155.0850496584435L197.4933984375,155.1266298418434L197.7254296875,155.1625050208122L197.73703124999997,155.1857791843687L198.1430859375,155.22249969064387L198.3055078125,155.2514821577819L198.3287109375,155.27678026198964L198.47953125,155.30575139818242L198.4911328125,155.32606286212445L198.6535546875,155.37854690276419L198.79277343750002,155.43189272638236L198.9087890625,155.47015307959938L198.9319921875,155.49494621190584L198.9551953125,155.51281719266424L200.1153515625,155.5786962842412L200.41699218750003,155.66324526646903L200.7534375,155.7462569834275L201.98320312500002,155.87506382659242L202.3428515625,155.96690709774327L202.37765625,156.02422266602733L202.400859375,156.0586636842857L202.5980859375,156.09130881615053L203.0389453125,156.15818956471426L203.1665625,156.22186518806373L203.445,156.27422473391914L204.001875,156.32457667535854L204.32671875,156.35954023802148L204.442734375,156.38674066858476L204.4659375,156.40995084924955L204.6167578125,156.43125653605983L204.8371875,156.46007999941818L204.87199218749998,156.47943659196582L204.99960937499998,156.50330286686446L205.0228125,156.52025795913642L205.0344140625,156.53366070353863L205.44046875,156.55871504368523L205.486875,156.5805291446903L205.5216796875,156.60477961137835L205.5448828125,156.62149269445135L205.8697265625,156.638872894727L206.18296875000001,156.66904803364486L206.252578125,156.6932012360322L206.2641796875,156.71001081984699L206.2873828125,156.72289928912335L206.78625,156.75662546202503L206.9602734375,156.7830433796587L206.995078125,156.81039268105903L207.4359375,156.86708014852405L207.49394531250002,156.9104274823164L207.5403515625,156.94237665501896L207.598359375,156.96832067832906L207.6331640625,156.99132454944495L207.6563671875,157.01281718233253L207.9580078125,157.06620133299592L208.4220703125,157.11195261055423L208.5612890625,157.1444049373887L208.990546875,157.17456293593207L209.129765625,157.2244903765237L209.2109765625,157.26699995917585L209.4778125,157.3051107844759L209.61703125,157.34828537814275L210.0462890625,157.39713913520256L210.3015234375,157.43001417975677L210.568359375,157.46580975514686L211.1600390625,157.5110171914054L211.2760546875,157.54553389729875L211.3456640625,157.5669378489512L211.68210937499998,157.59683728258955L211.69371093750001,157.61586795630353L211.7169140625,157.62931208741585L211.7865234375,157.643547100455L211.867734375,157.66199748621975L211.92574218750002,157.68979280862084L212.0185546875,157.71550618258368L212.07656250000002,157.73267821081052L212.146171875,157.74926884674468L212.92347656249999,157.77903814959072L213.46875000000003,157.82715436007237L213.6427734375,157.8757647109086L214.1068359375,157.91100505274443L214.13003906249997,157.93248796408537L214.3156640625,157.96711580997803L214.3388671875,157.98813740381118L214.6173046875,158.00245837327216L214.62890625,158.0131887272128L214.930546875,158.03569750191903L215.0465625,158.05752163362394L216.57796875000003,158.1504832201798L216.61277343749998,158.2066156674673L216.6359765625,158.2410345399045L216.85640625000002,158.27249633207398L217.34367187499998,158.29672489586028L217.3784765625,158.31196177491276L217.6105078125,158.32506733609162L217.77292968749998,158.33458699180326L218.132578125,158.3580849081424L218.15578125,158.37529014789382L218.20218749999998,158.38926095187836L218.7242578125,158.421932004298L218.8866796875,158.45337438453555L218.9446875,158.47261215442975L219.5131640625,158.50007971930796L219.73359375,158.52005783137295L219.96562500000002,158.53618636469184L220.1628515625,158.55018971994264L220.66171875,158.56896051738377L220.92855468750003,158.58695889906585L221.20699218750002,158.60675767794237L221.55503906250001,158.6424243094557L221.566640625,158.66339386072667L221.58984374999997,158.67651612356698L221.6710546875,158.69791042596023L221.9958984375,158.72795139447302L222.541171875,158.75291460082946L222.72679687500002,158.77058001046376L222.7616015625,158.78200394450278L222.773203125,158.79036625467853L222.9936328125,158.80477260902188L223.1096484375,158.82506899933293L223.56210937499998,158.85249471673345L223.64332031249998,158.87669966239008L223.9913671875,158.89968861515004L224.049375,158.91414183954106L224.4322265625,158.92948150489698L224.5946484375,158.94762071439558L224.74546875000001,158.96207157883075L225.2907421875,158.9857602229665L225.55757812500002,159.006579367036L225.5923828125,159.02314019080518L225.7780078125,159.03736574334707L225.928828125,159.05053746107126L225.98683593750002,159.0660973995576L226.021640625,159.07995499165753L226.1840625,159.09586746957325L226.2652734375,159.1153265668779L226.32328124999998,159.1310418320176L226.62492187499998,159.15596635648657L227.3094140625,159.18240155920768L227.4718359375,159.1986261560786L227.6806640625,159.21765970415518L227.84308593749998,159.24531528820515L228.2259375,159.28003950141812L228.2607421875,159.30521247665655L228.29554687499999,159.32562261016946L228.4463671875,159.33860382687462L228.62039062500003,159.35289389109388L229.2816796875,159.3735699920602L229.6529296875,159.40016541858722L229.66453124999998,159.41661886508797L229.780546875,159.43679550402436L229.81535156249998,159.45302608015535L230.18660156250002,159.47968042040387L230.198203125,159.49660363233673L230.2330078125,159.51086895780128L230.4418359375,159.52948141874663L230.54625,159.55736004779027L230.96390625,159.58619262781949L231.34675781250002,159.6078978198226L231.57878906250002,159.6322388018765L231.91523437499998,159.66145045024732L231.98484375,159.68320398878555L232.054453125,159.69892663997527L232.07765625000002,159.70920550158047L232.49531249999998,159.72518294172994L232.518515625,159.7354462702683L232.5997265625,159.7470208886332L232.8085546875,159.75736508026094L232.82015625,159.7648794136514L233.16820312500002,159.77313661880228L233.5742578125,159.78851441131349L234.11953125,159.82073669909178L234.49078125,159.85253439267638L234.64160156249997,159.87400571793094L234.653203125,159.8876788817851L234.7344140625,159.9055474878837L234.7808203125,159.9175153486839L234.978046875,159.93406794523412L235.04765625,159.94741030142785L235.1984765625,159.96759928046927L235.22167968750003,159.98017383458995L235.41890625000002,159.9933759066831L235.9641796875,160.00821897435085L236.46304687499997,160.03928744600228L236.61386718749998,160.06477878897212L236.66027343750002,160.07993226356018L236.7646875,160.0915300089147L237.043125,160.10525546345292L237.159140625,160.122418473998L237.1939453125,160.13329118571954L237.75082031250003,160.15103881075797L237.7740234375,160.16235850892176L237.994453125,160.1722786823806L238.9341796875,160.202721216117L239.1662109375,160.22686536484792L239.31703125,160.24367029508366L239.3518359375,160.2568493616065L239.433046875,160.27065514225956L239.61867187500002,160.2844900647906L239.85070312500002,160.3121104579832L240.314765625,160.337147939962L240.500390625,160.35382606511493L241.3125,160.38246838067644L241.34730468749999,160.39894846599043L241.5909375,160.41825982971957L242.0898046875,160.43975894351829L243.72562499999998,160.4849427281653L243.7372265625,160.50948564481024L243.95765624999999,160.5245911120459L244.12007812500002,160.53601768702913L244.14328125,160.5446743438358L244.769765625,160.5645057976931L245.233828125,160.57631060549838L245.69789062499999,160.5847221901971L245.7094921875,160.58963172310413L245.7675,160.5924482122038L245.8487109375,160.59448186597257L245.929921875,160.59743159371865L246.0343359375,160.60070568889483L246.18515625,160.60326754137344L246.4751953125,160.6054633011052L246.63761718749998,160.60908232968688L246.73042968750002,160.61182147793588L246.92765625,160.61366888391478L247.2525,160.6157904073311L247.64695312499998,160.61937127844737L248.180625,160.62531369480288L248.47066406250002,160.63027252651807L248.6330859375,160.63399332276325L248.65628906249998,160.63707776877717L248.667890625,160.6393956469923L248.992734375,160.64512836877614L249.0507421875,160.65144436341117L249.10875000000001,160.65659521436132L249.16675781249998,160.66129367605123L249.41039062500002,160.66693156640414L250.1876953125,160.67935159058655L250.245703125,160.68778640731762L250.2573046875,160.69314736526798L250.45453125,160.6998582516637L250.5589453125,160.70843495802382L250.663359375,160.71489430939454L251.2434375,160.72729708076088L251.3478515625,160.73528354576584L251.405859375,160.7408535347074L252.77484375,160.75441061430809L253.08808593749998,160.76460183426772L253.16929687500001,160.77130506725607L253.5985546875,160.78148928028747L253.79578125,160.78789592252912L253.94660156249998,160.7926538825708L254.17863281249998,160.7955389578107L254.67749999999998,160.79702188648426L255.164765625,160.79749112263661L255.2227734375,160.79743932083278" style="fill: none;" fill="none"></path></g></g></g></g><g opacity="0.2"><g><g><g><path stroke="rgb(0, 119, 187)" stroke-width="2px" d="M23.377148437499997,666.9583581856313L23.8412109375,65.93128415516438L24.050039062499998,20.556844711303672L24.664921875,-1.1104893003191323L35.03671875,-0.6601540701730135L35.477578125,0.98203223092214L36.452109375,5.783799443926108L36.776953125,8.406233515058208L37.101796875000005,10.277204581669373L37.217812499999994,11.44795560836788L37.496249999999996,16.48182330812724L38.006718750000005,19.00659431729995L38.308359375,20.661440644945376L38.61,21.676955631801025L38.98125,22.84650094168522L39.097265625,23.972037587846987L39.166875,24.60112033571511L39.538124999999994,25.98166608810421L40.5706640625,29.991578783307702L41.034726562500005,31.462553296770327L41.046328125,31.777546814509748L41.3595703125,33.390795912061364L41.5916015625,34.586866991860475L41.6380078125,34.874430452074265L41.788828125,35.4896474565778L42.044062499999995,38.37221493039807L42.18328125,38.767991474696515L42.2644921875,40.91386597497117L42.276093749999994,41.24935667855394L42.287695312500006,41.58936882019037L42.392109375,42.476173537118044L43.320234375,45.19476352419165L43.76109375,47.48381689616606L44.4919921875,52.63373483930308L45.1880859375,53.87170457839958L45.907382812499996,55.742977074214316L46.0698046875,56.97732966286788L46.383046875,57.611235277993266L47.125546875000005,61.19884565898342L47.14875,61.52047061920158L47.9260546875,66.5018896375383L48.819375,70.27909898757926L48.8541796875,70.55460527964992L48.9469921875,71.12249789919163L49.074609374999994,72.63205535071228L49.5966796875,74.5355807713099L49.70109375,74.90091296604692L49.770703125,75.07634476252956L50.0839453125,75.60655873162396L50.49,76.69471815654201L51.0816796875,78.30314438683637L51.348515625000005,78.81798546654828L51.487734375,78.99130725860586L51.8009765625,80.69287511280595L51.951796875,80.89272267477843L52.4274609375,84.02849067960457L52.7291015625,84.43602296284257L52.8451171875,84.85651670183444L53.5644140625,87.91843455178388L54.0516796875,88.97012104306893L54.0748828125,89.3918204988751L54.156093750000004,90.00372178213927L54.8869921875,91.57266078676486L55.2118359375,92.73436893735602L55.3742578125,93.11477259227198L55.7223046875,93.68748807907093L55.9659375,94.8060918535504L56.29078125,95.78061246871937L56.3023828125,95.986790043967L56.75484375,97.71518509728557L56.778046875,98.09679446901583L56.998476562499995,98.8383103098187L57.010078125,99.02610070364804L57.3929296875,99.92315401349738L57.926601562500004,100.58780540738776L58.0890234375,100.73942429678769L58.2978515625,101.49088730130866L58.33265625,101.79201507568348L58.355859375,101.94845683234067L58.3906640625,102.26616321291232L58.413867187499996,102.58718531472331L58.6575,102.7409142085483L58.9939453125,103.47549717766887L59.028749999999995,103.62591035025449L59.7828515625,104.88920014245159L60.049687500000005,105.7543019567216L60.119296875,106.05904688153935L60.4557421875,106.865068571908L60.722578125,107.71298892157407L61.001015625,108.05661821365345L61.3142578125,110.17114407675595L61.4766796875,111.27588210787081L61.48828125,111.43292672293515L61.697109375,111.74852309908174L61.7783203125,111.90406056812817L61.8479296875,112.06110518319255L62.126367187499994,112.2208626610891L62.416406249999994,112.53525332042138L62.555625,113.02206148420048L62.69484375,113.64571850640422L62.926875,114.46198878969453L62.984882812500004,114.97713129861003L63.228515625,115.66378702436161L63.402539062500004,116.17139380318767L63.4257421875,116.3426055908202L63.4489453125,116.68201487404949L63.4953515625,116.84930808203549L63.646171875,117.34124054227543L63.6577734375,117.50491659981853L63.90140625,117.99835620607637L64.110234375,118.16504655565522L64.4466796875,118.98372827257417L64.5162890625,119.14559575489575L65.01515625,120.28047670636845L65.0615625,120.76185914448315L65.4444140625,121.40721906934452L65.47921875,121.897342954363L65.5140234375,122.22258506502412L65.5836328125,122.54903289249951L65.66484375,123.12626981735218L65.734453125,123.69566958291176L65.8388671875,124.09657042367104L65.86207031250001,124.22618498120976L66.059296875,124.3579095431735L66.1405078125,124.48330409186215L66.6509765625,125.14644833973462L67.24265625,125.71976668494077L67.265859375,125.91298280443449L67.2890625,126.01305730002255L67.405078125,126.41576671600328L67.590703125,126.75306599480751L67.96195312500001,126.97491788864122L67.98515625,127.04515089307499L68.0199609375,127.11809676034096L68.0431640625,127.26670135770512L68.124375,127.40777022497983L68.8552734375,127.9229127338953L69.00609374999999,127.9744571277072L69.214921875,128.12758316312505L69.261328125,128.18033327375127L69.2961328125,128.23489195959897L69.3193359375,128.33978932244423L69.400546875,128.3946494374955L69.632578125,128.71687725612082L69.818203125,128.94505916322967L69.8298046875,129.00112499509527L69.8878125,129.0915537561688L69.93421875,129.18831253051744L70.11984375,129.34626143319252L70.1314453125,129.39810725620802L70.143046875,129.44663735798414L70.1546484375,129.4918517385209L70.20105468749999,129.6329206057956L70.4562890625,129.842112473079L70.94355468750001,129.9973485129219L71.024765625,130.09953301293496L71.03636718749999,130.14896740232183L71.0827734375,130.199607508523L71.6860546875,130.520629610334L71.69765625000001,130.576394012996L71.8020703125,130.86425890241338L71.9644921875,131.0523507254463L72.3125390625,131.18106099537428L72.39375,131.35438278743186L72.4749609375,131.52016884939997L72.63738281250001,131.60155473436615L73.1246484375,131.80773230961378L73.19425781250001,131.94488259724196L74.5168359375,132.96220615931907L74.72566406249999,133.07102210181085L74.74886718750001,133.12618364606573L74.7952734375,133.35014554432448L74.8184765625,133.46318149566636L74.969296875,133.6985977036611L75.0273046875,133.8161550930567L75.201328125,133.93009533200933L75.85101562499999,134.24810314178453L76.2338671875,134.51818370819078L76.291875,134.6909026418412L76.4891015625,134.9772603852407L76.5819140625,135.0134318896701L76.59351562500001,135.04779481887803L76.61671875,135.084267752511L76.732734375,135.2521638189042L76.7559375,135.3094353675841L77.08078125,135.3944384029932L77.13878906250001,135.42337560653672L77.3128125,135.45381995609816L77.35921875,135.48607288088104L77.9625,135.77755492074135L78.1597265625,135.81613785879938L78.3453515625,135.92947523934487L78.75140625,136.17061860220758L78.79781249999999,136.27853025708865L79.07624999999999,136.58478232792433L79.09945312500001,136.6523024695259L79.12265625,136.68666539873382L79.145859375,136.71801403590598L79.34308593749999,136.80301707131508L79.48230468749999,136.83135141645144L79.9695703125,136.93594735009316L80.51484375000001,137.03843327930983L80.584453125,137.05018901824937L80.8048828125,137.10655627931854L80.816484375,137.1237377439225L80.88609375,137.14242635454437L80.9208984375,137.1626221111841L81.094921875,137.24430942535386L81.15292968749999,137.26269660677215L81.5705859375,137.31846100943415L81.58218749999999,137.33835533687034L82.1970703125,137.5104714121136L82.55671875,137.59879016876206L82.5915234375,137.63677024841294L82.672734375,137.6780660493032L82.83515625,137.69976895196083L83.45003906250001,137.8706793103898L83.508046875,137.89780793871185L83.54285156249999,137.92433370862673L83.83289062499999,138.0075281688144L84.1809375,138.24776724406638L84.2389453125,138.29961306708185L84.296953125,138.40692186355574L84.3085546875,138.43495477948855L84.41296874999999,138.5238763945442L84.4709765625,138.57722936357757L85.09746093749999,138.74482400076715L85.7471484375,139.03118174416664L85.781953125,139.0878504344394L86.1648046875,139.23313931056418L86.1880078125,139.25604793003615L86.2112109375,139.30156373977644L86.24601562500001,139.34918955394187L86.617265625,139.4435368946619L87.0001171875,139.53637708936404L87.1161328125,139.58370147432586L87.8122265625,139.70517744336794L87.916640625,139.73170321328286L88.0674609375,139.757324695587L88.51992187500001,139.9824923106601L88.7403515625,140.1612398283821L88.8331640625,140.28151008060985L88.86796875,140.30713156291404L88.891171875,140.3327530452182L89.05359375,140.5934893063135L89.3900390625,140.65709086826854L89.61046875000001,140.75234249659934L90.0165234375,140.9594243594577L90.03972656250001,140.99348585946206L90.44578125,141.2406578063963L90.48058593750001,141.31782368251243L91.69874999999999,141.99754653658172L91.8727734375,142.03281375340038L91.907578125,142.0689852578298L92.00039062500001,142.17810262952517L92.0583984375,142.21457556315818L92.20921875,142.25225421360545L93.2881640625,142.9717657225471L93.3345703125,143.10198313849298L93.3577734375,143.18608188629133L93.4621875,143.46128674915843L93.4737890625,143.49323824473777L93.62460937499999,143.6291828155516L93.65941406249999,143.69610009874603L93.7522265625,143.76211309432966L94.49472656249999,143.92217200142983L94.6571484375,143.9854721341813L94.738359375,144.04726512091486L94.7963671875,144.16723394393904L95.5620703125,144.486146041325L96.15375,144.74236086436667L96.6990234375,144.77521664755668L96.710625,144.807168143136L96.79183593750001,144.87348256792328L97.105078125,144.96963848386477L97.51113281250001,145.1239702360969L97.62714843750001,145.2189204352241L98.05640625000001,145.41454798834647L98.079609375,145.48417813437308L98.14921874999999,145.55652114323192L98.1608203125,145.5932955060685L98.404453125,145.69759001050662L98.4856640625,145.76179443086883L98.52046875,145.862471784864L98.8569140625,146.12411233357005L99.47179687500001,146.35169138227175L99.8314453125,146.53646748406533L99.9474609375,146.65402487346088L99.9590625,146.68386636461517L99.97066406249999,146.7122007097515L99.982265625,146.7402336256843L100.42312500000001,146.9138568469455L100.51593749999999,147.004285608019L101.0728125,147.22583607264912L101.25843750000001,147.28913620540058L101.3628515625,147.38468926293496L101.43246093750001,147.4163393293107L101.5020703125,147.51128952843789L102.14015625,147.70721851076385L102.302578125,147.7717243603296L102.4533984375,147.8663731302532L102.7434375,147.9604190417697L102.766640625,147.99206910814544L102.78984374999999,148.0565749577112L102.8246484375,148.08943074090126L102.98707031250001,148.27601541791628L103.21910156249999,148.62959187371376L104.32124999999999,148.89967244012L104.437265625,148.98949834278636L104.5880859375,149.14624152864715L104.669296875,149.18392017909443L105.0289453125,149.276458944593L105.04054687499999,149.29514755521487L105.17976562499999,149.34819909504466L105.1913671875,149.36357198442718L105.504609375,149.39401633398856L105.597421875,149.40818350655678L105.9106640625,149.45279502868635L107.16363281250001,149.71111985615306L107.30285156250001,149.72769846234988L107.314453125,149.74367421013955L107.4188671875,149.82234723227347L107.5580859375,149.87328876767825L107.6044921875,149.94834463936928L107.61609375,149.96793753760184L107.6276953125,149.98722900663088L107.7669140625,150.06921775000419L108.0453515625,150.09061922345828L108.31218750000001,150.15391935620974L108.54421875,150.23560667037947L108.77625,150.27780675888044L109.2751171875,150.54909304210102L109.28671875,150.56687736511213L109.6695703125,150.70613765716536L109.8319921875,150.7194005421228L110.8065234375,150.8327379226683L111.444609375,150.91532952444877L111.50261718750001,150.92678383418476L111.69984375,150.96114676339272L111.8506640625,150.98586395808613L111.86226562499999,150.99822255543285L112.16390625,151.0865413120813L112.18710937499999,151.09799562181732L112.1987109375,151.10914850234968L112.25671875,151.1561714581079L112.3147265625,151.18028579439422L112.47714843749999,151.19837154660888L113.0804296875,151.26559025900687L113.64890625,151.30507748467568L113.6605078125,151.31170892715437L113.718515625,151.33190468379414L113.97375,151.38344907760603L114.8090625,151.43469204221435L115.342734375,151.45729923248274L115.389140625,151.46332781655434L115.59796875,151.47689213071533L115.66757812499999,151.48412643160125L116.0736328125,151.5278336661201L116.53769531249999,151.57937805993203L116.549296875,151.58781807763222L116.8857421875,151.6728211130413L116.94375,151.70447117941703L117.01335937500001,151.721652644021L117.2105859375,151.75963272367187L118.3011328125,151.84373147147025L118.56796875,151.90582588740742L118.5795703125,151.91517019271834L118.730390625,151.95435598918354L119.240859375,151.99685750688812L119.3220703125,152.01012039184553L120.1341796875,152.05443048477156L120.1805859375,152.0607604980467L120.4590234375,152.08698483875804L120.841875,152.12466348920532L121.02749999999999,152.14938068389876L121.14351562499999,152.16626071929915L121.45675781249999,152.19399220602835L121.5263671875,152.2256422724041L121.584375,152.27085665294086L121.8744140625,152.36279256003226L122.65171875,152.44809702464497L122.860546875,152.46949849809906L122.9765625,152.49150282996024L123.4522265625,152.52315289633597L123.4754296875,152.53340148925764L123.7190625,152.5876587459018L123.90468750000001,152.59579733439838L124.32234375,152.65095887865326L124.40355468749999,152.66934606007152L124.41515625000001,152.67537464414306L124.438359375,152.6820060866218L124.484765625,152.68833609989696L124.54277343749999,152.70099612644725L125.06484375,152.721191883087L125.4825,152.7685162680488L125.5869140625,152.77484628132396L126.1669921875,152.82819925035736L126.27140625,152.83573498044677L126.3526171875,152.84357213973982L126.75867187499999,152.9291780335561L126.944296875,152.9584166663032L126.990703125,152.9722824096678L127.0023046875,152.98011956896084L127.04871093749999,152.9957938875469L127.1415234375,153.02864967073697L127.315546875,153.03286967958707L127.4431640625,153.0419125556944L127.7216015625,153.04703685215526L127.8608203125,153.05065400259818L128.243671875,153.0630125999449L128.30167968749998,153.06934261322004L128.6961328125,153.09767695835643L129.1369921875,153.10671983446377L129.9491015625,153.10702126366738L130.2043359375,153.10521268844587L130.471171875,153.10521268844587L130.9932421875,153.1076241220745L131.35289062500001,153.11666699818187L131.608125,153.12902559552856L131.6197265625,153.13053274154646L131.65453125,153.1356570380073L131.93296875,153.12962845393574L132.141796875,153.12661416189994L132.7798828125,153.11757128579262L133.25554687500002,153.07778263092024L133.2671484375,153.07386405127372L133.3135546875,153.0630125999449L133.68480468750002,153.0391996928622L134.03285156249999,153.01960679462962L135.1466015625,152.96504810878193L135.19300781249999,152.95630666187816L135.204609375,152.95238808223164L135.5874609375,152.9261637415203L135.5990625,152.92224516187378L135.6570703125,152.91802515302368L135.807890625,152.91048942293423L135.993515625,152.9041594096591L136.434375,152.8604521751402L136.7708203125,152.82126637867503L137.1884765625,152.80137205123884L137.710546875,152.769119126456L137.73375,152.76188482557006L137.87296874999998,152.72450760432636L138.2094140625,152.6850203786576L138.3486328125,152.6777860777717L138.685078125,152.63407884325287L138.7430859375,152.60453878130218L139.102734375,152.5885630335125L139.35796875,152.57319014413002L139.798828125,152.52677004677895L140.21648437500002,152.50627286093558L140.34410156250001,152.49150282996024L140.4137109375,152.46618277685965L140.47171874999998,152.442369869777L140.773359375,152.42066696711933L140.819765625,152.40800694056904L140.98218749999998,152.36580685206806L141.02859375,152.3525439671106L141.3186328125,152.26874664851582L141.37664062500002,152.2609094892228L141.72468750000002,152.2536751883369L142.583203125,152.1502849715095L142.6876171875,152.12375920159462L143.23289062499998,152.09391771044037L143.25609375,152.0860805511473L143.34890625,152.06287050247175L143.4069140625,152.0550333431787L143.5925390625,152.02700042724592L143.8477734375,152.00770895821694L144.0101953125,151.98932177679862L144.75269531249998,151.9154716219219L144.7875,151.89678301130004L144.8919140625,151.86905152457084L145.089140625,151.83981289182373L145.25156249999998,151.81208140509452L145.2863671875,151.79399565287983L145.367578125,151.76746988296492L145.4371875,151.7412455422536L145.506796875,151.73190123694266L146.5393359375,151.59414809090737L146.806171875,151.52602509089863L146.92218749999998,151.4774949891225L146.9337890625,151.46845211301513L146.96859375000003,151.45971066611136L147.01500000000001,151.44283063071097L147.07300781249998,151.43499347141795L147.131015625,151.41901772362831L147.2934375,151.40304197583862L147.59507812500001,151.38043478557026L147.6066796875,151.37320048468436L147.82710937500002,151.34667471476948L148.3723828125,151.31442178998657L148.523203125,151.30236462184345L149.3237109375,151.26468597139618L149.3701171875,151.25594452449238L149.40492187499999,151.2514230864387L149.61375,151.23785877227766L149.822578125,151.22851446696674L150.03140625,151.21223728997353L150.11261718749998,151.20259155545898L150.1822265625,151.1971658297946L150.3678515625,151.19174010413016L150.3910546875,151.18932867050154L150.704296875,151.17486006872977L150.73910156250003,151.17275006430472L151.23796875,151.166118621826L151.3887890625,151.16310432979023L151.586015625,151.1594871793473L151.632421875,151.15828146253295L151.78324218749998,151.15707574571869L151.8296484375,151.15466431209003L151.88765625,151.15315716607216L151.98046874999997,151.15044430323994L152.21249999999998,151.13446855545027L152.52574218750001,151.13085140500732L152.8273828125,151.10492849349959L152.885390625,151.10131134305664L153.349453125,151.08473273685985L153.535078125,151.07659414836323L153.61628906250002,151.06845555986663L153.83671875,151.0533840996877L154.741640625,151.01811688286904L154.89246093749998,151.01058115277954L155.04328124999998,151.00244256428294L155.0548828125,150.99852398463642L155.13609375000001,150.98495967047538L155.43773437500002,150.9792325156074L155.47253906249998,150.9762182235716L155.484140625,150.97350536073944L155.64656250000002,150.9554196085247L155.90179687499997,150.94366386958515L156.33105468749997,150.93522385188496L156.91113281250003,150.9050809315271L157.03875,150.89633948462333L157.10835937500002,150.89211947577323L157.36359375,150.8848851748874L157.52601562499999,150.87915802001936L157.54921875,150.8761437279836L157.6536328125,150.87101943152274L157.6884375,150.86830656869057L157.8392578125,150.86559370585834L157.850859375,150.86257941382254L157.9088671875,150.85745511736175L158.082890625,150.85263225010448L158.15249999999997,150.85022081647583L158.62816406250002,150.8426850863864L158.77898437500002,150.84147936957206L158.96460937499998,150.839369365147L159.080625,150.83695793151838L159.47507812499998,150.83183363505756L159.96234375,150.8270107678003L160.12476562499998,150.8285179138182L160.1827734375,150.8309293474468L160.57722656250002,150.83786221912914L160.9716796875,150.84328794479353L161.49374999999998,150.85474225452953L161.516953125,150.85655082975097L161.5517578125,150.86107226780467L161.79539062499998,150.86921085630127L161.8533984375,150.8797608784265L161.865,150.88367945807303L161.91140625,150.88789946692313L162.421875,150.92316668374184L162.5146875,150.9264824049812L162.65390624999998,150.929496697017L162.7815234375,150.93492242268138L163.11796875,150.94818530763885L163.605234375,150.9704910687036L163.6284375,150.97440964835013L163.67484375,150.97712251118236L163.698046875,150.98013680321816L164.2665234375,151.0015382766722L164.5913671875,151.03499691826943L164.811796875,151.0527812412805L165.1134375,151.08623988287772L165.13664062499998,151.091062750135L165.391875,151.10281848907454L166.16917968750002,151.15074573244354L166.389609375,151.16431004660453L166.50562499999998,151.17697007315482L166.6100390625,151.18088865280134L166.65644531249998,151.18420437404072L166.7260546875,151.19174010413016L167.08570312499998,151.21675872802717L167.271328125,151.2233901705059L167.3989453125,151.22972018378104L167.9790234375,151.23665305546336L168.68671875,151.27433170591064L169.0927734375,151.30658463069355L169.10437499999998,151.31080463954365L169.3248046875,151.33401468821918L169.452421875,151.36084188733764L169.7192578125,151.40334340504222L170.0905078125,151.43469204221435L170.1833203125,151.43921348026805L170.26453125,151.44403634752533L170.4153515625,151.44885921478254L170.473359375,151.45910780770424L170.960625,151.48382500239765L171.703125,151.5851052148L171.772734375,151.5971623829431L172.3528125,151.6227838652473L172.3644140625,151.62941530772602L173.2461328125,151.69723687853119L173.32734375,151.7123083387101L173.4085546875,151.73581981658918L173.4665625,151.74365697588226L173.4781640625,151.75119270597168L173.9190234375,151.83438716615936L174.06984375,151.84252575465595L174.093046875,151.85880293164917L174.1046484375,151.86754437855296L174.1278515625,151.88502727236053L174.20906250000002,151.92240449360423L174.301875,151.94109310422607L174.6615234375,151.96912602015888L174.7659375,151.98751320157714L174.9863671875,152.00469466618114L175.3112109375,152.0221775599887L175.810078125,152.09964486530833L175.902890625,152.13430922371987L176.227734375,152.1659592900956L176.2509375,152.18133217947806L176.29734375,152.20514508656078L176.4017578125,152.22986228125419L177.1442578125,152.27899524143749L177.1790625,152.28713382993408L177.46910156250001,152.3190853255134L177.9099609375,152.34229537418895L178.1071875,152.3649025644573L178.24640625,152.37967259543265L178.7220703125,152.413734095437L178.8148828125,152.442369869777L178.8496875,152.46377134323103L178.98890625,152.47100564411693L179.0005078125,152.47854137420637L179.012109375,152.48607710429584L179.04691406249998,152.50747857774994L179.13972656250002,152.53581292288627L179.7778125,152.57771158218367L179.95183593750002,152.58524731227314L180.19546875,152.60845736094868L180.56671874999998,152.66783891405365L180.81035156250002,152.70370898927948L181.03078125,152.7266176087514L181.3672265625,152.75043051583413L181.40203125,152.75826767512714L181.4600390625,152.77484628132396L182.00531249999997,152.80076919283172L182.05171875000002,152.8095106397355L182.15613281249998,152.826993533543L182.6201953125,152.88275793620502L183.1074609375,152.91199656895213L183.24667968749998,152.94123520169921L183.25828125,152.9511823654173L183.5019140625,152.99127244949324L183.8615625,153.0491468565803L184.14,153.17454140526894L184.40683593749998,153.2140286309377L184.46484375,153.234525816781L185.20734375,153.28004162652138L185.7526171875,153.3255574362617L185.9382421875,153.35901607785888L186.13546875,153.4021204539706L186.2630859375,153.4370862415857L186.73874999999998,153.46843487875785L186.81996093749999,153.49164492743338L187.84089843750002,153.62095805576854L188.35136718750002,153.71409967967426L188.36296875,153.72344398498518L188.64140625,153.73278829029613L188.82703125,153.76142406463606L188.93144531250002,153.82050418853743L189.128671875,153.87898145403165L189.151875,153.88832575934256L189.175078125,153.8976700646535L189.19828125,153.90701436996443L189.221484375,153.91666010447895L189.26789062499998,153.92630583899344L189.314296875,153.93534871510082L190.0219921875,154.00799315316323L191.309765625,154.21055357796791L191.3213671875,154.2198978832788L191.36777343749998,154.22924218858975L191.82023437499998,154.29495375496987L192.75996093749998,154.40196112224018L192.81796875,154.42215687887992L192.933984375,154.46465839658447L193.38644531249997,154.55116857801147L193.46765625,154.56111574172957L193.5024609375,154.59186152049458L193.5952734375,154.61024870191284L193.606875,154.61959300722378L193.6648828125,154.63888447625283L194.790234375,154.81672770636405L194.9178515625,154.86194208690083L195.02226562500002,154.89027643203718L195.1266796875,154.91921363558072L195.97359375,155.00632667541487L195.996796875,155.01657526833657L196.7044921875,155.0783682550701L196.90171875000001,155.09916687011702L196.971328125,155.10971689224226L197.4933984375,155.17060559136513L197.7254296875,155.20044708251936L197.73703124999997,155.21039424623746L198.1430859375,155.26133578164223L198.3055078125,155.28213439668912L198.3287109375,155.3035358701432L198.47953125,155.33639165333324L198.4911328125,155.34754453386563L198.6535546875,155.43405471529263L198.79277343750002,155.48831197193675L198.9087890625,155.51061773300154L198.9319921875,155.52116775512678L198.9551953125,155.53171777725203L200.1153515625,155.64837087903686L200.41699218750003,155.752665383475L200.7534375,155.83405126844116L201.98320312500002,156.01129164014526L202.3428515625,156.06404175077148L202.37765625,156.0848403658184L202.400859375,156.09508895874006L202.5980859375,156.12583473750507L203.0389453125,156.2289235251289L203.1665625,156.28920936584456L203.445,156.32960087912406L204.001875,156.3778295516966L204.32671875,156.3965181623185L204.442734375,156.41550820214394L204.4659375,156.43449824196938L204.6167578125,156.45378971099836L204.8371875,156.49056407383495L204.87199218749998,156.4999083791459L204.99960937499998,156.52854415348583L205.0228125,156.53818988800032L205.0344140625,156.54783562251484L205.44046875,156.58521284375854L205.486875,156.60360002517683L205.5216796875,156.63042722429532L205.5448828125,156.63916867119912L205.8697265625,156.6572544234138L206.18296875000001,156.70096165793265L206.252578125,156.7187459809438L206.2641796875,156.72778885705117L206.2873828125,156.7365303039549L206.78625,156.79229470661693L206.9602734375,156.81098331723877L206.995078125,156.83931766237515L207.4359375,156.92703356061645L207.49394531250002,156.95627219336356L207.5403515625,156.97616652079975L207.598359375,156.99575941903237L207.6331640625,157.0156537464685L207.6563671875,157.0355480739047L207.9580078125,157.12266111373884L208.4220703125,157.16033976418618L208.5612890625,157.17872694560444L208.990546875,157.20645843233365L209.129765625,157.27729429517456L209.2109765625,157.3119586535861L209.4778125,157.3454172951833L209.61703125,157.39394739695942L210.0462890625,157.4488075120107L210.3015234375,157.46478325980033L210.568359375,157.50366762706196L211.1600390625,157.5588291713168L211.2760546875,157.58203921999234L211.3456640625,157.58957495008178L211.68210937499998,157.6284593173434L211.69371093750001,157.63599504743286L211.7169140625,157.64353077752236L211.7865234375,157.65860223770125L211.867734375,157.68151085717324L211.92574218750002,157.7191895076205L212.0185546875,157.74270098549965L212.07656250000002,157.75083957399625L212.146171875,157.76681532178588L212.92347656249999,157.81052255630476L213.46875000000003,157.87804269790632L213.6427734375,157.9271756580896L214.1068359375,157.94827570234008L214.13003906249997,157.9552085740224L214.3156640625,158.00373867579853L214.3388671875,158.01037011827725L214.6173046875,158.01760441916312L214.62890625,158.02453729084544L214.930546875,158.05950307846052L215.0465625,158.080603122711L216.57796875000003,158.24880061830777L216.61277343749998,158.26598208291173L216.6359765625,158.2774363926477L216.85640625000002,158.3057707377841L217.34367187499998,158.3223493439809L217.3784765625,158.32807649884887L217.6105078125,158.3389279501777L217.77292968749998,158.3446551050457L218.132578125,158.38293661390014L218.15578125,158.3934866360254L218.20218749999998,158.40403665815063L218.7242578125,158.45648533957328L218.8866796875,158.4866282599311L218.9446875,158.49295827320626L219.5131640625,158.5291297776357L219.73359375,158.5411869457788L219.96562500000002,158.55324411392195L220.1628515625,158.56499985286152L220.66171875,158.5888127599442L220.92855468750003,158.60599422454817L221.20699218750002,158.6276971272058L221.55503906250001,158.68014580862845L221.566640625,158.68557153429288L221.58984374999997,158.69039440155012L221.6710546875,158.72053732190795L221.9958984375,158.75972311837316L222.541171875,158.77931601660575L222.72679687500002,158.78926318032384L222.7616015625,158.7940860475811L222.773203125,158.79921034404194L222.9936328125,158.82000895908882L223.1096484375,158.84653472900374L223.56210937499998,158.88150051661884L223.64332031249998,158.90229913166573L223.9913671875,158.9240020343234L224.049375,158.9294277599878L224.4322265625,158.94570493698103L224.5946484375,158.96680498123152L224.74546875000001,158.97735500335676L225.2907421875,159.01081364495397L225.55757812500002,159.02859796796508L225.5923828125,159.04065513610823L225.7780078125,159.0524108750478L225.928828125,159.0644680431909L225.98683593750002,159.08255379540563L226.021640625,159.09461096354877L226.1840625,159.11269671576346L226.2652734375,159.135906764439L226.32328124999998,159.14766250337857L226.62492187499998,159.18232686179007L227.3094140625,159.21035977772286L227.4718359375,159.21578550338728L227.6806640625,159.2377898352485L227.84308593749998,159.27456419808507L228.2259375,159.31676428658605L228.2607421875,159.33183574676497L228.29554687499999,159.34720863614746L228.4463671875,159.3523329326083L228.62039062500003,159.36800725119437L229.2816796875,159.39543730872L229.6529296875,159.42829309191006L229.66453124999998,159.43402024677803L229.780546875,159.45813458306432L229.81535156249998,159.47019175120747L230.18660156250002,159.50787040165474L230.198203125,159.5145018441335L230.2330078125,159.52595615386946L230.4418359375,159.549166202545L230.54625,159.5868448529923L230.96390625,159.61668634414656L231.34675781250002,159.63085351671475L231.57878906250002,159.6579821450368L231.91523437499998,159.69234507424474L231.98484375,159.70621081760933L232.054453125,159.71555512292028L232.07765625000002,159.72007656097395L232.49531249999998,159.74208089283516L232.518515625,159.74630090168526L232.5997265625,159.75926235743916L232.8085546875,159.7683052335465L232.82015625,159.77282667160017L233.16820312500002,159.78186954770752L233.5742578125,159.80477816717948L234.11953125,159.8548154149735L234.49078125,159.88616405214566L234.64160156249997,159.8967140742709L234.653203125,159.9021397999353L234.7344140625,159.9244455610001L234.7808203125,159.9301727158681L234.978046875,159.95157418932217L235.04765625,159.96152135304024L235.1984765625,159.98895141056587L235.22167968750003,159.99347284861958L235.41890625000002,160.00733859198417L235.9641796875,160.02391719818098L236.46304687499997,160.07214587075353L236.61386718749998,160.09173876898612L236.66027343750002,160.09595877783622L236.7646875,160.10379593712926L237.043125,160.1197716849189L237.159140625,160.14057029996582L237.1939453125,160.1447903088159L237.75082031250003,160.16980893271293L237.7740234375,160.1743303707666L237.994453125,160.1827703884668L238.9341796875,160.23491764068586L239.1662109375,160.2524005344934L239.31703125,160.26144341060078L239.3518359375,160.2707877159117L239.433046875,160.28525631768346L239.61867187500002,160.29912206104805L239.85070312500002,160.34132214954903L240.314765625,160.36362791061384L240.500390625,160.3714650699069L241.3125,160.41276087079711L241.34730468749999,160.41637802124006L241.5909375,160.43868378230488L242.0898046875,160.46249668938756L243.72562499999998,160.53272969382132L243.7372265625,160.53544255665352L243.95765624999999,160.54056685311437L244.12007812500002,160.54810258320381L244.14328125,160.5538297380718L244.769765625,160.58547980444754L245.233828125,160.58879552568692L245.69789062499999,160.59361839294417L245.7094921875,160.5948241097585L245.7675,160.59542696816564L245.8487109375,160.59663268497994L245.929921875,160.60055126462646L246.0343359375,160.6041684150694L246.18515625,160.60597699029088L246.4751953125,160.60778556551236L246.63761718749998,160.61290986197318L246.73042968750002,160.61471843719465L246.92765625,160.61562272480538L247.2525,160.61803415843403L247.64695312499998,160.62315845489485L248.180625,160.63159847259504L248.47066406250002,160.63551705224157L248.6330859375,160.6379284858702L248.65628906249998,160.6403399194988L248.667890625,160.6418470655167L248.992734375,160.65119137082763L249.0507421875,160.65812424250996L249.10875000000001,160.66204282215645L249.16675781249998,160.66626283100655L249.41039062500002,160.6728942734853L250.1876953125,160.6924871717179L250.245703125,160.69670718056798L250.2573046875,160.69881718499303L250.45453125,160.70695577348965L250.5589453125,160.7175057956149L250.663359375,160.721725804465L251.2434375,160.74041441508686L251.3478515625,160.7437301363262L251.405859375,160.746744428362L252.77484375,160.76874876022322L253.08808593749998,160.77538020270194L253.16929687500001,160.77839449473774L253.5985546875,160.79226023810233L253.79578125,160.79467167173095L253.94660156249998,160.79768596376675L254.17863281249998,160.79859025137748L254.67749999999998,160.79859025137748L255.164765625,160.79798739297033L255.2227734375,160.79738453456318" style="fill: none;" fill="none"></path></g></g></g></g></g></g><g transform="translate(51, 177)" clip-path="url(#clip_1)"><clipPath id="clip_1"><rect width="278" height="22"></rect></clipPath><g><g><line x1="0" y1="0" x2="0" y2="5" style="visibility: inherit;" fill="rgb(0, 0, 0)" stroke="rgb(200, 195, 188)" stroke-width="1px"></line><line x1="23.203125" y1="0" x2="23.203125" y2="5" style="visibility: inherit;" fill="rgb(0, 0, 0)" stroke="rgb(200, 195, 188)" stroke-width="1px"></line><line x1="46.40625" y1="0" x2="46.40625" y2="5" style="visibility: inherit;" fill="rgb(0, 0, 0)" stroke="rgb(200, 195, 188)" stroke-width="1px"></line><line x1="69.609375" y1="0" x2="69.609375" y2="5" style="visibility: inherit;" fill="rgb(0, 0, 0)" stroke="rgb(200, 195, 188)" stroke-width="1px"></line><line x1="92.8125" y1="0" x2="92.8125" y2="5" style="visibility: inherit;" fill="rgb(0, 0, 0)" stroke="rgb(200, 195, 188)" stroke-width="1px"></line><line x1="116.015625" y1="0" x2="116.015625" y2="5" style="visibility: inherit;" fill="rgb(0, 0, 0)" stroke="rgb(200, 195, 188)" stroke-width="1px"></line><line x1="139.21875" y1="0" x2="139.21875" y2="5" style="visibility: inherit;" fill="rgb(0, 0, 0)" stroke="rgb(200, 195, 188)" stroke-width="1px"></line><line x1="162.421875" y1="0" x2="162.421875" y2="5" style="visibility: inherit;" fill="rgb(0, 0, 0)" stroke="rgb(200, 195, 188)" stroke-width="1px"></line><line x1="185.625" y1="0" x2="185.625" y2="5" style="visibility: inherit;" fill="rgb(0, 0, 0)" stroke="rgb(200, 195, 188)" stroke-width="1px"></line><line x1="208.828125" y1="0" x2="208.828125" y2="5" style="visibility: inherit;" fill="rgb(0, 0, 0)" stroke="rgb(200, 195, 188)" stroke-width="1px"></line><line x1="232.03125" y1="0" x2="232.03125" y2="5" style="visibility: inherit;" fill="rgb(0, 0, 0)" stroke="rgb(200, 195, 188)" stroke-width="1px"></line><line x1="255.234375" y1="0" x2="255.234375" y2="5" style="visibility: inherit;" fill="rgb(0, 0, 0)" stroke="rgb(200, 195, 188)" stroke-width="1px"></line><line x1="278.4375" y1="0" x2="278.4375" y2="5" style="visibility: inherit;" fill="rgb(0, 0, 0)" stroke="rgb(200, 195, 188)" stroke-width="1px"></line></g><g transform="translate(0, 8)"><text x="0" y="0" dx="0em" dy="0.95em" style="text-anchor: middle; visibility: hidden; font-family: Roboto, sans-serif; font-size: 12px; font-weight: 200;" fill="rgb(232, 230, 227)" stroke="none" stroke-width="1px">-2k</text><text x="23.203125" y="0" dx="0em" dy="0.95em" style="text-anchor: middle; visibility: inherit; font-family: Roboto, sans-serif; font-size: 12px; font-weight: 200;" fill="rgb(232, 230, 227)" stroke="none" stroke-width="1px">0</text><text x="46.40625" y="0" dx="0em" dy="0.95em" style="text-anchor: middle; visibility: hidden; font-family: Roboto, sans-serif; font-size: 12px; font-weight: 200;" fill="rgb(232, 230, 227)" stroke="none" stroke-width="1px">2k</text><text x="69.609375" y="0" dx="0em" dy="0.95em" style="text-anchor: middle; visibility: inherit; font-family: Roboto, sans-serif; font-size: 12px; font-weight: 200;" fill="rgb(232, 230, 227)" stroke="none" stroke-width="1px">4k</text><text x="92.8125" y="0" dx="0em" dy="0.95em" style="text-anchor: middle; visibility: hidden; font-family: Roboto, sans-serif; font-size: 12px; font-weight: 200;" fill="rgb(232, 230, 227)" stroke="none" stroke-width="1px">6k</text><text x="116.015625" y="0" dx="0em" dy="0.95em" style="text-anchor: middle; visibility: inherit; font-family: Roboto, sans-serif; font-size: 12px; font-weight: 200;" fill="rgb(232, 230, 227)" stroke="none" stroke-width="1px">8k</text><text x="139.21875" y="0" dx="0em" dy="0.95em" style="text-anchor: middle; visibility: hidden; font-family: Roboto, sans-serif; font-size: 12px; font-weight: 200;" fill="rgb(232, 230, 227)" stroke="none" stroke-width="1px">10k</text><text x="162.421875" y="0" dx="0em" dy="0.95em" style="text-anchor: middle; visibility: inherit; font-family: Roboto, sans-serif; font-size: 12px; font-weight: 200;" fill="rgb(232, 230, 227)" stroke="none" stroke-width="1px">12k</text><text x="185.625" y="0" dx="0em" dy="0.95em" style="text-anchor: middle; visibility: hidden; font-family: Roboto, sans-serif; font-size: 12px; font-weight: 200;" fill="rgb(232, 230, 227)" stroke="none" stroke-width="1px">14k</text><text x="208.828125" y="0" dx="0em" dy="0.95em" style="text-anchor: middle; visibility: inherit; font-family: Roboto, sans-serif; font-size: 12px; font-weight: 200;" fill="rgb(232, 230, 227)" stroke="none" stroke-width="1px">16k</text><text x="232.03125" y="0" dx="0em" dy="0.95em" style="text-anchor: middle; visibility: hidden; font-family: Roboto, sans-serif; font-size: 12px; font-weight: 200;" fill="rgb(232, 230, 227)" stroke="none" stroke-width="1px">18k</text><text x="255.234375" y="0" dx="0em" dy="0.95em" style="text-anchor: middle; visibility: inherit; font-family: Roboto, sans-serif; font-size: 12px; font-weight: 200;" fill="rgb(232, 230, 227)" stroke="none" stroke-width="1px">20k</text><text x="278.4375" y="0" dx="0em" dy="0.95em" style="text-anchor: middle; visibility: hidden; font-family: Roboto, sans-serif; font-size: 12px; font-weight: 200;" fill="rgb(232, 230, 227)" stroke="none" stroke-width="1px">22k</text></g><line x1="0" y1="0" x2="278.4375" y2="0" fill="rgb(0, 0, 0)" stroke="rgb(200, 195, 188)" stroke-width="1px"></line></g></g></g></g></svg>