<svg viewBox="0 0 330 200" xmlns="http://www.w3.org/2000/svg"><g><g><g><g><g><line x1="61.953125" y1="177" x2="56.953125" y2="177" style="visibility: inherit;" fill="rgb(0, 0, 0)" stroke="rgb(200, 195, 188)" stroke-width="1px"></line><line x1="61.953125" y1="157.33333333333331" x2="56.953125" y2="157.33333333333331" style="visibility: inherit;" fill="rgb(0, 0, 0)" stroke="rgb(200, 195, 188)" stroke-width="1px"></line><line x1="61.953125" y1="137.66666666666666" x2="56.953125" y2="137.66666666666666" style="visibility: inherit;" fill="rgb(0, 0, 0)" stroke="rgb(200, 195, 188)" stroke-width="1px"></line><line x1="61.953125" y1="118.00000000000001" x2="56.953125" y2="118.00000000000001" style="visibility: inherit;" fill="rgb(0, 0, 0)" stroke="rgb(200, 195, 188)" stroke-width="1px"></line><line x1="61.953125" y1="98.33333333333334" x2="56.953125" y2="98.33333333333334" style="visibility: inherit;" fill="rgb(0, 0, 0)" stroke="rgb(200, 195, 188)" stroke-width="1px"></line><line x1="61.953125" y1="78.66666666666666" x2="56.953125" y2="78.66666666666666" style="visibility: inherit;" fill="rgb(0, 0, 0)" stroke="rgb(200, 195, 188)" stroke-width="1px"></line><line x1="61.953125" y1="59.00000000000001" x2="56.953125" y2="59.00000000000001" style="visibility: inherit;" fill="rgb(0, 0, 0)" stroke="rgb(200, 195, 188)" stroke-width="1px"></line><line x1="61.953125" y1="39.33333333333333" x2="56.953125" y2="39.33333333333333" style="visibility: inherit;" fill="rgb(0, 0, 0)" stroke="rgb(200, 195, 188)" stroke-width="1px"></line><line x1="61.953125" y1="19.666666666666675" x2="56.953125" y2="19.666666666666675" style="visibility: inherit;" fill="rgb(0, 0, 0)" stroke="rgb(200, 195, 188)" stroke-width="1px"></line><line x1="61.953125" y1="0" x2="56.953125" y2="0" style="visibility: inherit;" fill="rgb(0, 0, 0)" stroke="rgb(200, 195, 188)" stroke-width="1px"></line></g><g transform="translate(51.953125, 0)"><text x="0" y="177" dx="0em" dy="0.3em" style="text-anchor: end; visibility: hidden; font-family: Roboto, sans-serif; font-size: 12px; font-weight: 200;" fill="rgb(232, 230, 227)" stroke="none" stroke-width="1px">0.859</text><text x="0" y="157.33333333333331" dx="0em" dy="0.3em" style="text-anchor: end; visibility: inherit; font-family: Roboto, sans-serif; font-size: 12px; font-weight: 200;" fill="rgb(232, 230, 227)" stroke="none" stroke-width="1px">0.86</text><text x="0" y="137.66666666666666" dx="0em" dy="0.3em" style="text-anchor: end; visibility: hidden; font-family: Roboto, sans-serif; font-size: 12px; font-weight: 200;" fill="rgb(232, 230, 227)" stroke="none" stroke-width="1px">0.861</text><text x="0" y="118.00000000000001" dx="0em" dy="0.3em" style="text-anchor: end; visibility: inherit; font-family: Roboto, sans-serif; font-size: 12px; font-weight: 200;" fill="rgb(232, 230, 227)" stroke="none" stroke-width="1px">0.862</text><text x="0" y="98.33333333333334" dx="0em" dy="0.3em" style="text-anchor: end; visibility: hidden; font-family: Roboto, sans-serif; font-size: 12px; font-weight: 200;" fill="rgb(232, 230, 227)" stroke="none" stroke-width="1px">0.863</text><text x="0" y="78.66666666666666" dx="0em" dy="0.3em" style="text-anchor: end; visibility: inherit; font-family: Roboto, sans-serif; font-size: 12px; font-weight: 200;" fill="rgb(232, 230, 227)" stroke="none" stroke-width="1px">0.864</text><text x="0" y="59.00000000000001" dx="0em" dy="0.3em" style="text-anchor: end; visibility: hidden; font-family: Roboto, sans-serif; font-size: 12px; font-weight: 200;" fill="rgb(232, 230, 227)" stroke="none" stroke-width="1px">0.865</text><text x="0" y="39.33333333333333" dx="0em" dy="0.3em" style="text-anchor: end; visibility: inherit; font-family: Roboto, sans-serif; font-size: 12px; font-weight: 200;" fill="rgb(232, 230, 227)" stroke="none" stroke-width="1px">0.866</text><text x="0" y="19.666666666666675" dx="0em" dy="0.3em" style="text-anchor: end; visibility: hidden; font-family: Roboto, sans-serif; font-size: 12px; font-weight: 200;" fill="rgb(232, 230, 227)" stroke="none" stroke-width="1px">0.867</text><text x="0" y="0" dx="0em" dy="0.3em" style="text-anchor: end; visibility: hidden; font-family: Roboto, sans-serif; font-size: 12px; font-weight: 200;" fill="rgb(232, 230, 227)" stroke="none" stroke-width="1px">0.868</text></g><line x1="61.953125" y1="0" x2="61.953125" y2="177" fill="rgb(0, 0, 0)" stroke="rgb(200, 195, 188)" stroke-width="1px"></line></g></g><g transform="translate(61, 0)" clip-path="url(#clip_0)"><clipPath id="clip_0"><rect width="268" height="176"></rect></clipPath><g><g><g><line x1="0" y1="0" x2="0" y2="177" fill="rgb(0, 0, 0)" stroke="rgb(194, 189, 181)" stroke-width="1px" opacity="0.25"></line><line x1="22.337239583333332" y1="0" x2="22.337239583333332" y2="177" fill="rgb(0, 0, 0)" stroke="rgb(194, 189, 181)" stroke-width="1px" opacity="0.25"></line><line x1="44.674479166666664" y1="0" x2="44.674479166666664" y2="177" fill="rgb(0, 0, 0)" stroke="rgb(194, 189, 181)" stroke-width="1px" opacity="0.25"></line><line x1="67.01171875" y1="0" x2="67.01171875" y2="177" fill="rgb(0, 0, 0)" stroke="rgb(194, 189, 181)" stroke-width="1px" opacity="0.25"></line><line x1="89.34895833333333" y1="0" x2="89.34895833333333" y2="177" fill="rgb(0, 0, 0)" stroke="rgb(194, 189, 181)" stroke-width="1px" opacity="0.25"></line><line x1="111.68619791666667" y1="0" x2="111.68619791666667" y2="177" fill="rgb(0, 0, 0)" stroke="rgb(194, 189, 181)" stroke-width="1px" opacity="0.25"></line><line x1="134.0234375" y1="0" x2="134.0234375" y2="177" fill="rgb(0, 0, 0)" stroke="rgb(194, 189, 181)" stroke-width="1px" opacity="0.25"></line><line x1="156.36067708333334" y1="0" x2="156.36067708333334" y2="177" fill="rgb(0, 0, 0)" stroke="rgb(194, 189, 181)" stroke-width="1px" opacity="0.25"></line><line x1="178.69791666666666" y1="0" x2="178.69791666666666" y2="177" fill="rgb(0, 0, 0)" stroke="rgb(194, 189, 181)" stroke-width="1px" opacity="0.25"></line><line x1="201.03515625" y1="0" x2="201.03515625" y2="177" fill="rgb(0, 0, 0)" stroke="rgb(194, 189, 181)" stroke-width="1px" opacity="0.25"></line><line x1="223.37239583333334" y1="0" x2="223.37239583333334" y2="177" fill="rgb(0, 0, 0)" stroke="rgb(194, 189, 181)" stroke-width="1px" opacity="0.25"></line><line x1="245.70963541666666" y1="0" x2="245.70963541666666" y2="177" fill="rgb(0, 0, 0)" stroke="rgb(194, 189, 181)" stroke-width="1px" opacity="0.25"></line><line x1="268.046875" y1="0" x2="268.046875" y2="177" fill="rgb(0, 0, 0)" stroke="rgb(194, 189, 181)" stroke-width="1px" opacity="0.25"></line></g><g><line x1="0" y1="177" x2="268.046875" y2="177" fill="rgb(0, 0, 0)" stroke="rgb(194, 189, 181)" stroke-width="1px" opacity="0.25"></line><line x1="0" y1="157.33333333333331" x2="268.046875" y2="157.33333333333331" fill="rgb(0, 0, 0)" stroke="rgb(194, 189, 181)" stroke-width="1px" opacity="0.25"></line><line x1="0" y1="137.66666666666666" x2="268.046875" y2="137.66666666666666" fill="rgb(0, 0, 0)" stroke="rgb(194, 189, 181)" stroke-width="1px" opacity="0.25"></line><line x1="0" y1="118.00000000000001" x2="268.046875" y2="118.00000000000001" fill="rgb(0, 0, 0)" stroke="rgb(194, 189, 181)" stroke-width="1px" opacity="0.25"></line><line x1="0" y1="98.33333333333334" x2="268.046875" y2="98.33333333333334" fill="rgb(0, 0, 0)" stroke="rgb(194, 189, 181)" stroke-width="1px" opacity="0.25"></line><line x1="0" y1="78.66666666666666" x2="268.046875" y2="78.66666666666666" fill="rgb(0, 0, 0)" stroke="rgb(194, 189, 181)" stroke-width="1px" opacity="0.25"></line><line x1="0" y1="59.00000000000001" x2="268.046875" y2="59.00000000000001" fill="rgb(0, 0, 0)" stroke="rgb(194, 189, 181)" stroke-width="1px" opacity="0.25"></line><line x1="0" y1="39.33333333333333" x2="268.046875" y2="39.33333333333333" fill="rgb(0, 0, 0)" stroke="rgb(194, 189, 181)" stroke-width="1px" opacity="0.25"></line><line x1="0" y1="19.666666666666675" x2="268.046875" y2="19.666666666666675" fill="rgb(0, 0, 0)" stroke="rgb(194, 189, 181)" stroke-width="1px" opacity="0.25"></line><line x1="0" y1="0" x2="268.046875" y2="0" fill="rgb(0, 0, 0)" stroke="rgb(194, 189, 181)" stroke-width="1px" opacity="0.25"></line></g></g></g><g><g><line x1="0" y1="17070.66666666665" x2="268.046875" y2="17070.66666666665" fill="rgb(0, 0, 0)" stroke="rgb(168, 160, 149)" stroke-width="1.5px"></line></g></g><g><g><line x1="22.337239583333332" y1="0" x2="22.337239583333332" y2="177" fill="rgb(0, 0, 0)" stroke="rgb(168, 160, 149)" stroke-width="1.5px"></line></g></g><g><g><g><g><g><path stroke="rgb(0, 119, 187)" stroke-width="2px" d="M25.319261067708336,209.70679954707538L25.363935546875002,116.77380425027154L25.509127604166665,-14.509353056347916L28.647509765625,191.81001032121821L29.194772135416667,160.3439530654845L29.272952473958334,176.46448277688992L29.451650390625,183.02424022821475L29.965406901041668,36.52295248750034L30.21111653645833,-74.13379548520152L31.160449218750003,-118.09218030988511L31.551350911458332,13.671970109248013L31.57368815104167,69.04192450620978L31.685374348958334,151.78548970780045L32.165625,210.4416442398385L32.8357421875,182.13034851056972L32.88041666666666,135.5270546449182L32.91392252604167,99.65652170713516L33.025608723958335,66.15787729116595L33.036777343749996,39.254653750386986L33.248981119791665,-22.45186125866628L36.096979166666664,-35.00942559007744L36.588398437500004,28.270297586406098L36.87878255208334,60.970973565912146L37.16916666666666,47.497793414130435L37.526562500000004,9.241861610113194L37.638248697916666,-22.558031889192847L40.475078124999996,-21.04045169356563L40.6091015625,88.2491174974762L40.687281901041665,143.57054367191645L40.69845052083333,165.5288238423153L40.709619140625,177.6984167017831L41.70362630208333,193.1281364377379L42.12803385416667,157.71150690915508L42.83165690104167,146.63432127795355L43.501774088541666,125.25791337407543L44.194228515625,78.29893657293884L44.350589192708334,31.948803212142824L44.652141927083335,-4.274711839328371L45.366933593750005,105.20257566432925L45.389270833333335,155.1849699522183L46.137568359375,211.78221043209498L46.99755208333333,183.49003919622857L47.03105794270833,167.23875959670607L47.12040690104167,149.43368936023606L47.24326171875,145.30778719889074L47.745849609375,137.10779203864087L47.8463671875,127.3469533952531L47.913378906249996,121.90032763169926L48.214931640625004,101.27367220270355L48.60583333333334,57.4352036097155L49.17543294270833,-9.517371402766702L49.566334635416666,-49.36677636646687L49.86788736979167,47.266075501292576L50.01307942708333,92.34527883511471L50.47099283854167,157.17823772173082L50.761376953124994,179.7430018251557L50.87306315104166,180.6690780928159L51.565517578125,150.8688809998992L52.034599609375,128.4975395005799L52.05693684895834,112.28154407729286L52.1351171875,114.8397789747896L52.838740234374995,106.56379209826295L53.151461588541665,77.83500181550878L53.307822265625,56.85410297769621L53.642880859375,31.639389711711104L53.877421875,16.54378701502151L54.190143229166665,32.476810815538364L54.20131184895833,55.70706629194662L54.63688802083333,111.18455261181853L54.65922526041667,137.54878886880763L54.87142903645833,165.87406738869097L54.88259765625,177.5967182991881L55.251162109375,189.4758406433745L55.76491861979167,176.91317107708952L55.921279296875,166.94944806625318L56.122314453125,154.39577265180472L56.1558203125,146.21641916744952L56.178157552083334,142.55230820912644L56.21166341145833,143.65191063232862L56.23400065104166,140.01157205811373L56.46854166666667,135.7562385308808L56.792431640625004,120.89941222754564L56.825937499999995,114.97609500028538L57.55189778645833,124.10488507517266L57.80877604166667,104.84228733626223L57.87578776041667,89.16909959312257L58.199677734375,62.176213379220805L58.45655598958333,31.19032477936806L58.72460286458333,22.005421977870235L59.02615559895833,96.74687428466373L59.18251627604167,118.86369018579217L59.19368489583333,131.51925825913773L59.39472005208333,146.44725241340907L59.472900390625,166.28905892884788L59.539912109374995,172.4240688555355L59.807958984375,171.52574906069904L60.08717447916666,163.13092354907417L60.22119791666666,146.54632860448424L60.355221354166666,129.636984618441L60.57859375,109.66606785449719L60.63443684895834,89.82149104788891L60.868977864583336,88.89383521525752L61.03650716145834,94.7879885783229L61.05884440104167,95.37641378737865L61.081181640625,95.39971075939701L61.12585611979167,107.5975939590001L61.27104817708333,112.25960915197284L61.282216796875,110.83888695624691L61.5167578125,99.3532468917118L61.717792968750004,89.55059292158099L62.04168294270833,69.05147775744956L62.10869466145833,55.549068143149334L62.5889453125,24.882483943096766L62.63361979166667,4.390770046540746L63.00218424479167,12.1807589296846L63.03569010416667,48.502252890951986L63.06919596354167,67.76626883437702L63.13620768229167,79.95019601551738L63.21438802083333,104.67618060770361L63.281399739583335,122.97980242066068L63.38191731770833,139.75467018200496L63.40425455729167,147.4927759570637L63.59412109375,156.40149586731437L63.67230143229167,165.54331477003956L64.163720703125,156.8132131230835L64.7333203125,140.51432600552192L64.75565755208333,127.4281176523772L64.77799479166667,121.84006954599872L64.88968098958334,118.87039391501715L65.06837890625,110.93142399243769L65.42577473958333,116.06969818588902L65.44811197916667,116.62680415087779L65.48161783854167,114.15067552347726L65.503955078125,107.6013729430971L65.58213541666667,105.00127952373838L66.28575846354167,94.78205047744007L66.43095052083333,88.29425455739633L66.63198567708334,77.03270503055923L66.67666015625,68.13256064796826L66.710166015625,61.2335055606817L66.73250325520833,50.94782611176917L66.81068359375,42.58118221613715L67.03405598958334,37.12822173677703L67.21275390624999,58.30070513079998L67.22392252604168,79.67554849928005L67.279765625,100.8815180223413L67.32444010416665,119.12141655052318L67.50313802083333,120.36993685071204L67.51430664062501,117.73931262228892L67.52547526041667,126.7397818801166L67.53664388020833,130.14344431467924L67.58131835937499,125.01834248883567L67.82702799479166,127.0994569394085L68.29611002604167,131.70186687572806L68.37429036458333,141.22864960116993L68.38545898437499,142.78981542670863L68.43013346354167,140.476558826876L69.01090169270833,126.01977380972134L69.0220703125,118.67501119131285L69.122587890625,117.20880214782905L69.27894856770834,117.72047705304537L69.61400716145833,120.71234667724262L69.6921875,116.78103619435274L69.77036783854166,109.85692442282307L69.926728515625,112.82442785946172L70.395810546875,99.6850461714935L70.46282226562501,84.39784978752091L71.736044921875,109.23082480406123L71.93708007812499,128.05488557125733L71.95941731770834,147.16185608490082L72.004091796875,154.72397369167987L72.02642903645832,155.67637128733818L72.17162109374999,157.4568465588383L72.22746419270834,164.51111092315952L72.39499348958334,170.073417167421L73.02043619791667,155.44888261088252L73.38900065104167,137.96210094046705L73.44484375,126.6922418768445L73.63471028645833,123.98218748300748L73.72405924479168,125.49697442264743L73.73522786458334,123.22767351763878L73.75756510416667,119.58647086241314L73.86925130208334,109.54936547308678L73.89158854166666,106.61554616971767L74.20430989583333,96.67085805453955L74.26015299479167,88.94606898295757L74.42768229166667,82.27457403579305L74.47235677083333,76.42932286595789L75.05312500000001,52.53050274552868L75.24299153645833,37.23392928572045L75.421689453125,23.861340571630272L75.81259114583334,25.801677156768783L75.857265625,40.502602700363575L76.12531249999999,65.8888167222743L76.14764973958334,76.49843991475552L76.16998697916667,82.30614037883299L76.19232421875,83.22556188515874L76.38219075520833,95.92735038619715L76.51621419270833,99.58534535531915L76.98529622395833,99.81626981060802L77.51022135416667,91.65948542549755L77.57723307291667,85.96345679856842L77.78943684895833,77.75570741126423L77.80060546875,71.4324480127333L77.86761718749999,66.258411747173L77.901123046875,71.23637132367061L78.06865234375,67.1620115353624L78.12449544270832,64.90143785529992L78.52656575520832,58.28347464150342L78.537734375,53.24452031585935L79.12967122395834,59.135069777724254L79.47589843749999,64.16303309593647L79.509404296875,62.98680865486559L79.58758463541666,57.78075274205261L79.7439453125,54.94703277191879L80.33588216145834,38.64921488249372L80.39172526041666,27.92667666848975L80.42523111979166,27.863344552011082L80.70444661458333,28.325862182392388L81.03950520833334,56.14169168050279L81.09534830729166,86.48352279064875L81.15119140625,94.67595695531458L81.16236002604167,99.04182684092687L81.26287760416666,112.28339582583959L81.318720703125,124.67491279754529L81.921826171875,115.71976008306707L82.54726888020834,93.48000200034659L82.58077473958333,83.11296817764594L82.94933919270834,89.91780883884499L82.97167643229166,92.76147996711106L82.994013671875,95.2548557907577L83.02751953125001,92.73996220221028L83.38491536458334,87.90262606387886L83.75347981770834,75.75353332439732L83.86516601562501,65.1421399984467L84.535283203125,48.247144435672375L84.63580078125,37.36691861059406L84.78099283854168,29.186899709888394L85.21656901041668,12.933189725686239L85.42877278645832,28.159854647443503L85.51812174479167,53.09562669835605L85.55162760416667,63.81212522743235L85.57396484374999,67.84544907813623L85.73032552083335,76.65016685471805L86.05421549479166,81.40025406261842L86.26641927083334,81.91336034320699L86.65732096354166,72.01590646163153L86.679658203125,64.87655146296505L87.07055989583333,62.25631259440606L87.10406575520834,59.03462318399887L88.27677083333333,49.170420012900614L88.44430013020833,41.96270070020684L88.47780598958333,36.34715516624487L88.56715494791668,26.93255877099851L88.622998046875,19.974167779321508L88.76819010416666,15.61250656321758L89.80687174479166,19.766078310551837L89.85154622395834,38.73682389632193L89.87388346354166,45.09806501856794L89.97440104166667,58.74655932159846L89.98556966145833,64.10861252615206L90.13076171875,71.47074203295298L90.16426757812499,75.82742630018654L90.25361653645834,73.48921291362186L90.968408203125,61.40721781534095L91.12476888020832,52.09334022575409L91.20294921874999,43.9282487609559L91.25879231770833,35.2028369508759L91.99592122395833,26.787037036628405L92.56552083333334,37.222273837020296L93.09044596354167,40.925876270881226L93.10161458333333,40.89425296327497L93.179794921875,37.50308870538922L93.48134765625,31.861565001072186L93.87224934895833,23.886923574103065L93.983935546875,15.177935812616635L94.39717447916667,20.535128426020982L94.41951171875,32.157263928187604L94.4865234375,40.34433071795739L94.49769205729166,49.820509995873465L94.73223307291667,55.189754690139665L94.81041341145834,53.88301933477316L94.84391927083334,48.35693348153902L95.16780924479166,60.12138518192524L95.75974609375001,60.418319197178825L96.10597330729166,52.87029223140356L96.21765950520833,51.23636848075308L96.22882812499999,48.28066143556759L96.23999674479167,45.77755405098763L96.25116536458333,47.092782211795566L96.67557291666667,46.71315317255309L96.764921875,44.11559390806714L97.30101562499999,41.63136113628352L97.47971354166667,42.02027178507599L97.58023111979166,36.31635837722561L97.64724283854167,31.966560611824175L97.71425455729167,24.773224763578135L98.32852864583333,11.09867311369083L98.48488932291667,1.7996943045172076L98.63008138020834,-4.951716638472094L98.909296875,-3.554414855112862L98.93163411458333,3.116606045615321L98.95397135416665,11.867089648872946L98.98747721354167,18.891463019721417L99.14383789062501,47.55858888041094L99.36721028645833,57.732463807531886L100.42822916666667,49.41946841935769L100.53991536458334,42.12831185998038L100.685107421875,41.10952611137682L100.76328776041667,38.619831413464404L101.10951497395833,33.4428024653631L101.12068359374999,31.35777749394486L101.25470703124999,33.86550726533352L101.26587565104167,33.31377580754562L101.56742838541668,34.976854820749864L101.65677734375,33.74828016428707L101.958330078125,27.807747356867054L103.164541015625,4.525363470202636L103.29856445312501,-1.8148431468667188L103.30973307291667,0.7885159460747964L103.41025065104166,18.236652905358273L103.54427408854166,36.79249670910012L103.58894856770834,41.36069690230437L103.6001171875,49.49862504398801L103.61128580729167,59.4634175344646L103.74530924479167,63.03744272839748L104.01335611979167,62.96029566367609L104.270234375,65.86770635292034L104.49360677083332,60.038036887314696L104.71697916666666,53.48380282069727L105.19722981770833,43.75933998167866L105.20839843750001,38.36331464847906L105.576962890625,35.08215386268014L105.73332356770834,33.29366070491717L106.67148763020835,27.83442640075759L107.28576171875,19.159887961164543L107.34160481770834,14.145146837124932L107.53147135416667,15.098008203315514L107.67666341145834,23.809706588360502L107.68783203125,33.83014248212528L107.97821614583333,62.72237412207931L108.00055338541667,75.85134417444294L108.01172200520833,83.56812681245658L108.06756510416668,83.80984667703213L108.123408203125,89.96950514474551L108.27976888020832,96.08263387765963L108.860537109375,91.46659117609305L109.40779947916667,83.4408002718523L109.41896809895833,78.1892444850264L109.47481119791667,74.65191435309924L109.72052083333332,77.1070553272083L110.52466145833333,77.14243111557599L111.03841796875,69.35285939656761L111.08309244791667,63.749298578102284L111.28412760416667,58.2837642955749L111.35113932291667,53.935716747300525L111.742041015625,47.79267011141266L112.18878580729167,43.4564323686012L112.19995442708333,43.046662083673944L112.52384440104167,73.58794094934427L112.57968749999999,84.90800460454452L112.64669921875,94.18688238030784L112.83656575520833,107.47325841875892L113.886416015625,105.6316035182293L114.14329427083334,96.1690994400347L114.154462890625,90.12552116948987L114.29965494791666,88.45192044325863L114.79107421875001,88.26279767740718L114.86925455729167,91.8726342500826L115.65105794270833,89.67922385725686L115.695732421875,87.65168302761883L115.96377929687499,81.75852136777617L116.33234374999999,70.8612930737431L116.51104166666666,62.13359757375001L116.62272786458333,59.54694587009137L116.92428059895833,64.29497924014643L116.99129231770833,79.15210593221722L117.04713541666666,89.31814235669097L117.32635091145833,96.51180270677827L118.0746484375,108.03134153082141L118.27568359374999,110.73813034552464L118.38736979166666,109.02568768721255L118.845283203125,107.0949631576957L118.86762044270833,104.556971408133L119.10216145833334,99.33005092291309L119.280859375,95.10749937242896L119.6829296875,92.75708229793345L119.76111002604166,89.51057704678088L119.77227864583334,86.7748230098964L119.79461588541668,84.65822804506948L119.83929036458333,82.25257936966234L119.89513346354165,84.70716999137173L120.39772135416666,81.31721931569047L120.79979166666666,70.52679029315948L120.90030924479167,63.42864372104486L121.458740234375,51.218157126882076L121.55925781250001,43.402634389230634L121.63743815104166,42.696559046043156L122.02833984374999,72.36030749083271L122.20703776041667,94.97086213376966L122.25171223958334,103.84501835789618L122.262880859375,106.811741012954L122.30755533854166,107.23141613981315L122.39690429687501,114.55870916924809L122.56443359375,116.73490175179352L122.68728841145833,117.4865771697955L122.95533528645834,116.28689020842761L123.08935872395833,114.28302870103433L123.45792317708333,109.05206727605167L123.51376627604166,105.56463202855278L123.89349934895833,96.33578061609403L124.31790690104167,93.46077090891418L125.09971028645833,85.93335893223245L125.345419921875,74.4240064532504L125.60229817708334,66.97570306514113L126.10488606770832,62.382736120278125L126.45111328125,67.77387526776411L126.69682291666668,83.58936904606381L126.70799153645834,90.62356715177403L126.74149739583333,98.10114937740752L127.00954427083333,103.49535329352938L127.21057942708335,103.33401295338585L127.824853515625,97.68453364452128L128.28276692708334,90.49654829514715L128.29393554687502,86.47434563857944L128.33861002604166,84.31065397118834L128.69600585937502,80.545417990135L129.031064453125,76.75741841050504L130.103251953125,69.02791949972962L130.14792643229165,62.44230738040558L130.15909505208333,57.776044764050646L130.52765950520833,49.09321189981197L130.538828125,45.73944403379733L130.59467122395833,46.9546958144491L130.73986328125,47.64086295873866L130.91856119791666,54.496122307929426L131.34296875,71.28179972630524L131.66685872395834,86.34669171898187L132.06892903645834,92.5780592323162L132.57151692708334,92.20268892986013L132.59385416666666,90.65784765922658L132.72787760416665,87.11613038377845L133.051767578125,90.56200554858921L133.185791015625,93.08803946636328L133.50968098958333,91.46670227693679L133.56552408854168,92.1327885061876L133.91175130208333,89.62722055540227L134.1574609375,85.80817622036544L134.58186848958334,81.63018918691641L134.98393880208334,75.51131682302952L135.1067936197917,72.50351441593132L135.17380533854168,67.92669362254057L135.22964843749997,66.90446002451147L135.52003255208334,66.78351980340737L135.56470703125,73.30425383524675L135.72106770833332,90.45863167433346L135.7657421875,102.31647716007629L136.04495768229168,109.5627758543641L136.10080078125,113.45144732731991L136.435859375,114.05388683605528L137.26233723958333,107.22632417555167L137.36285481770832,103.82520019505684L137.88777994791667,98.45600167516791L137.9101171875,95.99247825722308L137.99946614583334,96.08439486871566L138.05530924479166,96.04219691944303L138.23400716145832,102.92357655046453L138.479716796875,104.56919771419311L138.63607747395835,102.88785249238211L139.35086914062498,92.81385153382956L139.384375,85.26016105897068L139.484892578125,79.47362276199418L139.67475911458334,77.26388108071984L139.83111979166665,81.19556598396481L139.86462565104165,90.08647873188073L139.94280598958335,98.89441507215413L140.00981770833332,104.99862725815764L140.0768294270833,112.16227066515506L141.07083658854168,116.40838755916765L141.32771484375,116.81684212219749L141.43940104166666,113.12433458346773L141.45056966145833,110.22428130697146L141.48407552083336,107.77427711087172L141.52875,106.21246361965726L141.58459309895832,104.28681043029573L141.64043619791667,102.12856754050364L141.796796875,100.26551601447906L142.08718098958335,101.02612633350766L142.098349609375,101.70022153128595L142.31055338541668,100.42020955189344L142.835478515625,100.97004992738536L142.98067057291667,98.9049292567699L143.75130533854167,90.33593488748377L143.79597981770834,83.7666072415709L143.8294856770833,79.3291892069226L144.03052083333333,73.75035612062908L144.23155598958334,70.96943049587821L144.43259114583336,73.369566155955L144.510771484375,84.38386599692645L144.57778320312502,90.80747631378041L144.75648111979166,91.95403239685417L144.77881835937498,96.42644556705984L145.08037109375,104.556157664948L145.11387695312501,112.59341587539178L145.59412760416666,112.14359928847132L145.73931966145832,108.3175790238367L145.92918619791666,102.9265307260939L145.97386067708334,99.14943959110134L146.119052734375,95.92276885233063L146.16372721354165,95.05842355810346L146.2195703125,94.53040400123956L146.30891927083331,93.37311659115397L146.53229166666665,93.60034968641436L146.83384440104166,94.39110401078231L147.124228515625,91.75306854869217L147.18007161458334,94.20557080817115L147.62681640625,92.47807420300946L147.80551432291668,89.24923873867515L147.88369466145835,85.530147490939L148.0958984375,80.14164819796255L148.96705078124998,69.05033420946658L149.11224283854165,62.10232290404085L149.2574348958333,66.07331921052311L149.268603515625,70.9782992181315L149.3467838541667,79.05917290173448L149.63716796875002,80.94077361039025L149.670673828125,85.65882904096L149.68184244791667,91.83140399142412L149.838203125,95.98627237573412L150.08391276041667,98.06433490460029L150.49715169270831,100.4376444816393L151.05558268229169,97.77558166312156L151.17843749999997,94.195131635137L151.24544921875,95.35425711118135L151.49115885416668,97.59306585156548L151.64751953125,96.5048878487031L151.66985677083332,96.97957202372871L151.77037434895834,97.86789174096891L151.80388020833334,97.51437297667674L151.949072265625,96.33169933263251L151.96024088541665,96.87004388345758L152.016083984375,97.52161636873619L152.18361328125,96.73820118084852L152.25062499999999,95.03147973945937L152.70853841145833,89.90368430445896L152.85373046875,86.19809860710241L153.03242838541667,82.0419684369577L153.14411458333333,76.55530480309947L153.52384765624998,69.22255653157846L153.9929296875,84.20580844684078L154.14929036458332,96.6807262422053L154.20513346354167,104.88169574058098L154.58486653645835,110.28482105382756L154.964599609375,112.4382046565706L155.4671875,108.56015837420176L155.48952473958332,105.70089676902535L155.52303059895834,103.62336512915121L155.75757161458333,100.60029936582863L155.81341471354168,96.94766436197268L155.82458333333335,95.99825321626042L155.8692578125,94.50131507143958L156.36067708333334,97.59560236788391L156.45002604166666,98.06945169652172L156.58404947916665,97.9751774429476L156.706904296875,96.88245818660867L157.03079427083333,93.56971341933914L157.49987630208335,84.55940538373544L157.52221354166667,78.89808729330416L157.56688802083332,75.03278089120354L157.58922526041667,72.01770274397705L158.13648763020834,64.40006515087795L158.449208984375,76.81052656635394L158.66141276041665,93.01514023999098L158.95179687499999,98.2787495392197L158.97413411458334,99.8539575486129L159.21984375,104.05732448264465L159.96814127604168,98.03181861918635L160.18034505208334,94.63846398409096L160.29203124999998,93.10279033893512L160.392548828125,91.37572591874601L160.43722330729165,90.41338395025296L160.50423502604167,91.20797398219548L160.85046223958332,91.5947446132135L161.02916015625001,90.1425506551328L161.15201497395833,88.3906003519221L161.71044596354167,85.45113732001711L162.39173177083333,75.00335067936707L162.78263346354166,68.13202569787208L162.79380208333333,64.24922872140908L163.006005859375,71.68031674525264L163.12886067708334,81.28578132352398L163.38573893229167,90.21146818129232L163.74313476562497,92.91526937510197L163.83248372395835,96.33543824685798L163.91066406250002,97.03774873304519L164.05585611979168,96.34364971024466L164.11169921874998,93.80948484613829L164.58078125,87.8125862611379L165.29557291666669,82.63937700366749L165.36258463541668,80.43155079158052L165.921015625,79.1241086565557L165.93218424479167,77.44940929636813L166.78099934895835,68.57120891133047L166.85917968750002,62.91398761947596L166.93736002604166,57.75072884539415L166.993203125,54.10553375662999L167.00437174479168,54.43550770234769L167.428779296875,70.48724421805565L167.57397135416667,82.01817626657464L167.59630859375,90.46714252872916L167.60747721354167,98.08455365497683L167.629814453125,101.92071450779711L167.70799479166666,102.47508461357656L167.79734375,104.24809036866652L168.14357096354166,101.9138276202169L168.24408854166668,104.06955660466905L168.45629231770835,103.16370757919077L168.769013671875,100.68819536497023L169.24926432291664,99.14574372054281L169.33861328125002,98.23727423276947L169.65133463541667,98.63227882373177L169.673671875,98.05311144307504L169.71834635416667,98.24935034527944L169.81886393229166,96.69295636544447L170.53365559895835,91.41739727374988L170.56716145833332,87.86659004073344L170.846376953125,82.92691869119244L171.27078450520833,77.61576160380939L171.4606510416667,72.08688489102319L171.59467447916666,68.21616190290975L172.052587890625,67.50501976806693L172.14193684895835,77.21579774253463L172.17544270833332,85.45443443156131L172.30946614583334,92.67204914550058L172.320634765625,95.97969406496337L172.33180338541666,97.11240116358468L172.36530924479166,95.86245356991624L172.454658203125,96.96041765677246L173.06893229166667,96.97557924566541L173.2364615885417,95.99038311988309L173.47100260416667,96.6279523103162L173.8283984375,93.67760219953071L174.062939453125,89.06935385860712L174.27514322916667,88.5636371182491L174.599033203125,87.93852024786267L174.6325390625,86.9620538025041L174.68838216145832,84.56361477222397L175.21330729166667,81.9584069324769L175.25798177083334,82.77166121666086L175.35849934895833,86.70700909519961L175.805244140625,83.51473316790606L176.274326171875,78.88525087355087L176.408349609375,75.1463899235461L176.41951822916667,72.3176510931791L176.65405924479165,69.54311196491138L177.00028645833333,75.75384336878103L177.26833333333335,89.41726727011805L177.52521158854165,100.20941025995921L177.5810546875,105.96907030238332L178.29584635416668,106.7863196694902L178.820771484375,103.72892975134918L178.99946940104167,102.81201800620562L179.1893359375,101.36425752137917L179.31219075520832,99.1104004660546L179.77010416666667,96.76409094853831L179.84828450520834,95.67658570504399L180.831123046875,91.54216331155426L181.32254231770835,81.07322650279845L181.3337109375,75.31675989575078L181.6017578125,71.48002651859817L181.78045572916668,73.02755954398758L181.88097330729167,85.50357511526947L182.07083984375,99.32919906516726L182.09317708333333,105.92967511446437L182.11551432291668,108.91042583998757L182.1378515625,111.65371645297475L182.16018880208333,112.37101117521624L182.20486328125,113.70021687682039L182.24953776041664,114.7822194437802L182.93082356770833,110.99724565910115L184.17054036458333,100.52391194936692L184.181708984375,94.33790943914049L184.22638346354165,90.50998418924313L184.66195963541665,92.55768463148657L185.56661783854165,84.73539744678057L185.6224609375,78.85010982338044L185.73414713541666,72.77603119058034L186.16972330729166,80.96765080012328L186.24790364583333,85.69372286069047L186.28140950520833,92.37403421514395L186.37075846354165,97.95776656036972L186.38192708333335,103.73954779224894L186.43777018229164,104.81883597643267L187.52112630208333,101.36517249674795L187.64398111979168,97.49690727863226L187.74449869791667,93.27652967543855L187.8450162760417,93.23451984864309L188.66032552083334,93.28072123984515L188.68266276041666,92.49378395477606L189.36394856770832,88.64146655954286L189.5538151041667,84.98759330818076L189.62082682291668,82.24355664093973L190.12341471354165,80.08852233242206L190.34678710937501,76.3340029469735L190.35795572916666,73.75073271245974L190.748857421875,72.63713946115223L190.90521809895833,74.82609422099644L190.92755533854165,80.78342250153669L191.07274739583332,85.49933180613193L191.08391601562502,90.76326964458737L191.24027669270833,99.7920472542311L191.37430013020835,103.78850689431094L191.485986328125,106.03923406150412L191.50832356770832,107.8091063110071L191.53066080729167,107.7132980384957L192.64752278645832,99.81243072019923L192.93790690104169,94.88259059657946L193.261796875,92.18856673731246L194.44567057291667,81.56043658861465L194.79189778645832,71.99743819347334L194.82540364583332,65.64242209920435L194.84774088541667,62.060899066046716L195.03760742187498,59.595034016348166L195.46201497395833,74.56007552319022L195.58486979166668,79.62806315462946L195.85291666666666,85.81301110507962L196.38901041666668,88.6946903279446L196.70173177083333,88.42689078057496L196.81341796875,86.85644330839621L196.83575520833332,85.61910890564945L196.980947265625,83.496198904307L197.19315104166668,79.58101434117552L197.22665690104165,77.68311941587407L197.34951171875,75.22808742147018L197.37184895833332,73.79643002030456L197.383017578125,74.94000235763193L197.77391927083335,77.9729560669406L197.81859375,78.76450676418042L197.85209960937502,77.49701201115012L197.87443684895834,76.4490076765393L198.187158203125,74.2958002625892L198.4887109375,73.47732045636968L198.55572265625,72.23853092029225L198.56689127604164,70.69824700385306L198.589228515625,69.28613646970895L199.06947916666667,63.748045662993505L199.23700846354168,59.52677800537623L199.27051432291665,55.53856021567689L199.694921875,62.17428068713295L199.75076497395835,71.87226339486605L199.795439453125,78.59404544947414L199.85128255208335,84.03558949168318L199.88478841145832,85.09324538176783L199.90712565104167,84.5436239165214L200.197509765625,88.8557586191477L200.64425455729167,87.66481301042099L200.7782779947917,85.32419354262356L201.19151692708334,83.45114653113221L201.32554036458333,78.10227086874374L201.403720703125,77.51781331837734L201.6605989583333,76.55426994678466L201.79462239583333,77.13916211905729L202.207861328125,73.4456216191217L202.45357096354167,69.92520250066127L202.71044921875,64.8815133911031L203.28004882812502,56.79599826888381L203.39173502604166,50.81813907521114L203.45874674479165,49.50418703789675L203.78263671874998,55.444185964306364L203.7938053385417,61.12480732272913L203.816142578125,65.11283644113965L203.883154296875,71.12609461996851L203.96133463541668,78.03846493835842L204.01717773437503,77.8803896993241L204.10652669270834,80.03179800873598L204.1623697916667,81.87196671982417L204.22938151041666,84.61123279843912L204.97767903645834,84.7624547272009L205.50260416666669,79.04005493469998L205.67013346354167,77.56230381070137L206.11687825520832,75.18592774222573L206.13921549479164,73.26430767466779L206.31791341145833,74.22155483886365L206.34025065104166,73.90745269066967L206.60829752604167,75.3599676712626L206.61946614583334,75.1927596548872L206.90985026041668,73.95544861985509L207.02153645833332,71.33804999246094L208.49579427083336,80.96800061509246L208.52930013020833,84.18362479826598L208.55163736979165,84.53183989241171L208.76384114583334,87.4921036836362L209.23292317708334,88.69008899369818L209.26642903645833,88.5094111727919L209.48980143229167,86.77181542356367L209.64616210937498,85.1363705516854L209.99238932291667,84.23764236567376L210.0147265625,82.63914219451286L210.05940104166666,81.92233812636972L210.56198893229168,79.6556564543955L210.718349609375,75.94344803321407L210.77419270833335,75.06083505529922L211.321455078125,72.59213885877206L211.53365885416667,69.83232098706328L211.75703125,66.89836942293502L211.94689778645835,64.32155887759654L212.4271484375,59.84435184547511L212.68402669270836,56.63952133606901L212.95207356770834,56.20741110266394L213.28713216145835,72.11696547360845L213.29830078125,82.78919795214269L213.32063802083331,90.76830757558817L213.39881835937499,93.34618892724166L213.71153971354167,94.10721575917769L214.23646484375,91.28299000754902L214.41516276041668,88.20085315179968L214.44866861979168,87.05473502671674L214.45983723958335,85.87029256189516L214.672041015625,83.68455622787364L214.78372721354165,81.14310147841967L215.21930338541665,83.12624843576363L215.29748372395832,85.65643354034982L215.63254231770836,85.97706262911538L215.68838541666665,86.08945347082239L216.05694986979165,83.99318214605995L216.21331054687502,80.45800773092473L216.3585026041667,77.26111178782942L216.883427734375,70.97769104172913L217.14030598958334,65.96940564818364L217.17381184895834,63.11998127883232L217.352509765625,60.89710486275496L217.49770182291667,64.64657054432382L217.55354492187502,73.9012926716931L217.58705078124999,79.1145505021665L217.74341145833333,85.90455914724527L217.821591796875,86.64752442966683L217.87743489583332,88.85188270688079L218.16781901041665,95.94513676098228L218.826767578125,95.93529677799401L218.98312825520833,95.17025763292445L219.18416341145834,91.94276406840994L219.34052408854166,93.0935986688222L219.70908854166666,91.65756110127225L219.74259440104169,92.94757404490738L219.77610026041665,92.04965942428555L219.92129231770832,91.53571879936686L220.08882161458334,92.04292873586887L220.72543294270832,89.01816785303193L221.08282877604168,83.33823440797572L221.09399739583333,79.79492580894912L221.20568359375002,77.37718803813135L221.239189453125,75.48785996787578L221.59658528645835,82.7529155124559L221.60775390625,88.87192326365066L221.641259765625,94.82002312599823L221.842294921875,100.0735445610554L221.9428125,103.01996549481382L222.3448828125,108.69039607056142L222.713447265625,109.3666413922733L222.93681966145834,106.28406059396367L223.26070963541665,101.52352990282743L223.32772135416667,98.89659155003679L223.39473307291667,97.0501354960658L223.41707031250002,96.04978397679498L223.819140625,94.61667526873772L223.8414778645833,93.46132701464407L223.91965820312498,91.90639209647559L224.120693359375,92.0830536951661L224.13186197916664,91.43780381325801L224.46692057291668,90.22196911968476L224.857822265625,86.90234343596099L225.38274739583332,78.53909737371745L225.74014322916665,71.15887513525016L225.88533528645831,70.45663958746444L225.89650390625,72.332337406541L225.97468424479166,79.36718201694464L226.01935872395833,84.3896843965602L226.20922526041667,90.45554312685454L226.27623697916667,93.10794863810541L226.4214290364583,96.46409985016938L226.44376627604169,98.01711181235127L226.6336328125,96.85046054017474L227.15855794270834,95.78307710537595L227.63880859374999,89.79721381706932L227.78400065104165,85.15608060605962L227.82867513020835,83.89911620242721L227.92919270833335,82.60414683812466L228.19723958333336,83.51888369914728L228.30892578125,81.280129264613L228.34243164062502,80.15333693544206L228.87852539062501,77.30447611831137L228.90086263020834,75.22032675840303L229.11306640625,72.81369438688587L230.017724609375,64.35857121027698L230.24109700520833,60.429089470870835L230.3862890625,61.47888589420145L230.419794921875,64.65733718993562L230.49797526041667,69.97190057530914L230.67667317708333,73.81849139354176L230.90004557291667,79.67302540567235L231.34679036458334,82.91298487178722L231.52548828125,83.16090746479824L232.30729166666669,78.64869314745386L232.34079752604165,77.43520500737571L232.57533854166667,76.06231503226292L233.05558919270834,72.92402548341508L234.63036458333332,63.35620687282818L234.641533203125,57.720524601583854L234.85373697916665,54.87733582647384L235.01009765625,57.632295338509834L235.03243489583335,62.97814336917112L235.63554036458333,72.58852984905018L236.08228515625,75.42721049342128L236.52902994791665,75.54920364051748L236.54019856770833,74.92143027007245L236.59604166666668,74.02335655095135L236.67422200520832,73.26379293446413L236.75240234375,71.70321098154679L236.85291992187499,72.0307893269607L236.99811197916665,71.67276069254126L237.27732747395834,70.18183943366463L237.43368815104165,69.90601863529211L237.52303710937503,69.30962519150734L237.71290364583334,71.20212557318959L238.025625,70.0498853129058L238.40535807291667,66.6085581441108L238.91911458333334,60.22855450893581L239.198330078125,58.41963142414192L239.3546907552083,59.52082971788763L239.37702799479166,63.32160902473703L239.38819661458334,65.77654663984957L239.70091796875,73.33529187973495L239.75676106770834,80.16755121354606L239.8126041666667,82.77008940428333L239.86844726562498,84.42340849622163L240.10298828125002,85.90387373208182L240.85128580729167,85.07422712753203L240.90712890625002,84.4204779960844L240.91829752604167,83.6098898472815L241.10816406249998,81.32007001041704L241.208681640625,81.56165858922829L241.30919921875,81.18962537809931L241.86763020833334,78.21313116638181L241.96814778645833,75.89873459637055L242.02399088541668,73.99302035756558L243.34188802083335,67.52840013564108L243.64344075520833,61.98261127960712L243.72162109375,59.918263456375804L244.13486002604168,69.63080796940348L244.3247265625,79.79993060591306L244.46991861979166,84.63946282863955L244.693291015625,88.9403412940518L245.17354166666667,91.32418198848268L245.64262369791666,88.86635788127447L245.698466796875,87.88845658874524" style="fill: none;" fill="none"></path></g></g></g></g><g opacity="0.2"><g><g><g><path stroke="rgb(0, 119, 187)" stroke-width="2px" d="M24.738492838541664,233.0704886118568L24.7943359375,56.992963790893384L25.319261067708336,107.63072554270404L25.363935546875002,18.613155523935813L25.509127604166665,-153.26428826649982L28.5469921875,207.95323038101168L28.647509765625,119.96721808115618L29.194772135416667,127.06503852208432L29.272952473958334,193.51376676559417L31.160449218750003,-48.55180199941006L31.551350911458332,153.02747074762954L31.57368815104167,127.6019174257912L31.685374348958334,239.2961738904314L32.24380533854167,239.93386411666836L32.8357421875,137.0289483070371L32.88041666666666,86.2387973467507L32.91392252604167,61.71937370300276L33.025608723958335,30.72926982243841L33.036777343749996,10.801450252532822L33.248981119791665,-87.71348412831627L35.82893229166666,-34.64335616429655L36.096979166666664,89.24438142776468L36.588398437500004,95.19576613108298L36.87878255208334,95.55563910802184L37.16916666666666,33.2483806610106L37.526562500000004,-31.21811564763398L40.22936848958334,-186.83328644434604L40.475078124999996,151.12612231572444L40.6091015625,203.8352050781247L40.81013671875,241.27254470189376L41.70362630208333,176.76970942815117L42.12803385416667,120.25441312789894L42.83165690104167,134.91894388198827L43.501774088541666,102.64994287490823L44.194228515625,28.634504318237155L44.350589192708334,-17.071708202362178L46.137568359375,271.64019727706875L46.99755208333333,153.56786632537816L47.03105794270833,150.05119228363012L47.12040690104167,130.60281260808287L47.24326171875,140.94417874018325L47.745849609375,128.43536917368547L47.8463671875,117.02376190821306L47.913378906249996,116.13990449905373L48.214931640625004,79.45864979426047L48.60583333333334,11.071061929066843L49.17543294270833,-80.32729641596482L49.566334635416666,-60.73004420598354L49.86788736979167,149.46625216801937L50.01307942708333,140.02163791656469L50.47099283854167,225.74642880757617L50.87306315104166,181.6485085487363L51.565517578125,119.35180012385028L52.034599609375,104.83731412887552L52.05693684895834,95.13129377365091L52.1351171875,117.54540189107237L52.838740234374995,97.81099939346292L53.151461588541665,47.45105489095035L53.307822265625,34.664428075154476L53.642880859375,4.971976915995158L53.877421875,0.5784788131712688L54.190143229166665,49.32778660456322L54.20131184895833,80.27569039662659L54.63688802083333,169.8582727114357L54.65922526041667,165.43195231755547L54.87142903645833,195.83125495910616L55.251162109375,202.03935686747204L55.76491861979167,163.62672630945815L55.921279296875,156.41168340047173L56.122314453125,141.11884021759008L56.1558203125,137.56582721074398L56.178157552083334,138.67709620793636L56.21166341145833,144.81486463546727L56.23400065104166,136.16150204340593L56.46854166666667,131.2557417551674L56.792431640625004,105.18663708368915L56.825937499999995,108.71151669820127L57.55189778645833,133.759613672892L57.80877604166667,84.46991030375143L57.87578776041667,72.59292984008769L58.199677734375,33.62818145751939L58.45655598958333,-1.580759048462045L58.72460286458333,12.291347821553408L59.02615559895833,175.79441849390636L59.18251627604167,142.2547259330747L59.19368489583333,144.90395371119158L59.39472005208333,162.2352956136065L59.472900390625,187.27401479085256L59.539912109374995,178.91253614425634L59.807958984375,170.5756742159523L60.08717447916666,154.25244553883846L60.22119791666666,129.00624259312923L60.355221354166666,111.75343974431334L60.57859375,88.54456329345683L60.63443684895834,68.83360528945904L60.868977864583336,87.91273419062276L61.03650716145834,101.02172279357887L61.05884440104167,95.99874003728209L61.081181640625,95.42434994379659L61.12585611979167,120.49823586146013L61.27104817708333,117.19021781285582L61.282216796875,109.33631245295186L61.5167578125,87.2058827082314L61.717792968750004,79.18317699432355L62.04168294270833,47.37134361267073L62.10869466145833,41.268741925557286L62.5889453125,-7.550899346669637L62.63361979166667,-17.28153642018647L63.00218424479167,20.41955375671372L63.03569010416667,86.91634321212749L63.06919596354167,88.1401457786558L63.13620768229167,92.83607784907002L63.21438802083333,130.82670752207414L63.281399739583335,142.33795388539608L63.38191731770833,157.49599123001073L63.40425455729167,155.67669852574642L63.59412109375,165.82347536087008L63.67230143229167,175.2118228276568L64.163720703125,147.5801426569618L64.7333203125,123.2764083544411L64.75565755208333,113.58797136942525L64.77799479166667,115.93007628122945L64.88968098958334,115.72962586084981L65.06837890625,102.53506485621112L65.42577473958333,121.50400463740009L65.44811197916667,117.21600675582863L65.48161783854167,111.53188927968321L65.503955078125,100.67474428812642L65.58213541666667,102.25138648351012L66.28575846354167,83.97405926386496L66.43095052083333,81.43267615636171L66.63198567708334,65.12234195073427L66.67666015625,58.71965074539167L66.710166015625,53.93697404861434L66.73250325520833,40.06955607732121L66.81068359375,33.732509454091236L67.03405598958334,31.36109892527247L67.21275390624999,80.69300238291403L67.22392252604168,102.28186432520526L67.279765625,123.30923064549742L67.32444010416665,138.41217343012465L67.50313802083333,121.69038836161272L67.51430664062501,114.9571297963458L67.52547526041667,136.25879669189428L67.53664388020833,133.74320252736385L67.58131835937499,119.59796730677263L67.82702799479166,129.3004709879555L68.29611002604167,136.5694362322487L68.37429036458333,151.304300467173L68.38545898437499,144.4409249623614L68.43013346354167,138.03002818425472L69.01090169270833,110.73008759816466L69.0220703125,110.90709352493263L69.122587890625,115.65812015533423L69.27894856770834,118.2616311709084L69.61400716145833,123.87658739089942L69.6921875,112.6232304573057L69.77036783854166,102.53389263153055L69.926728515625,115.96289857228575L70.395810546875,85.78866306940695L70.46282226562501,68.22990957895897L71.736044921875,135.49450620015438L71.93708007812499,147.96346012751238L71.95941731770834,167.36963971455864L72.004091796875,162.7217688560483L72.02642903645832,156.68363952636693L72.17162109374999,159.33990065256728L72.22746419270834,171.97179381052626L72.39499348958334,175.9561854998268L73.02043619791667,139.98178227742488L73.38900065104167,119.46785036722797L73.44484375,114.77309052149432L73.63471028645833,121.11599826812721L73.72405924479168,127.09903303782121L73.73522786458334,120.82763099670386L73.75756510416667,115.7354869842527L73.86925130208334,98.93399063746114L73.89158854166666,103.5127002398171L74.20430989583333,86.15322494506817L74.26015299479167,80.7762303352354L74.42768229166667,75.21871312459291L74.47235677083333,70.24730825424176L75.05312500000001,27.254795869191334L75.24299153645833,21.056071758270125L75.421689453125,9.718314647674429L75.81259114583334,27.85380268096909L75.857265625,56.0504951477049L76.12531249999999,92.73761097590109L76.14764973958334,87.71931711832663L76.16998697916667,88.44844086964905L76.19232421875,84.19795417785625L76.38219075520833,109.36092917124408L76.51621419270833,103.45408900578795L76.98529622395833,100.06049855550108L77.51022135416667,83.03276284535707L77.57723307291667,79.93926191329938L77.78943684895833,69.07508357365907L77.80060546875,64.74488560358664L77.86761718749999,60.78628285725893L77.901123046875,76.50112692515037L78.06865234375,62.85291496912621L78.12449544270832,62.51062536239607L78.52656575520832,51.28422959645573L78.537734375,47.915255864461095L79.12967122395834,65.36499245961488L79.47589843749999,69.4806733131407L79.509404296875,61.74281819661441L79.58758463541666,52.27475945154809L79.7439453125,51.950053215026685L80.33588216145834,21.412428061167265L80.39172526041666,16.586379051208365L80.42523111979166,27.79636367162054L80.70444661458333,28.815026919046897L81.03950520833334,85.56007925669331L81.09534830729166,118.57344293594338L81.15119140625,103.34038321177145L81.16236002604167,103.65922832488991L81.26287760416666,126.287853558858L81.318720703125,137.7803443272906L81.921826171875,106.24867264429706L82.54726888020834,69.95894098281842L82.58077473958333,72.14865668614686L82.94933919270834,97.11469793319681L82.97167643229166,95.7689839998879L82.994013671875,97.89188289642314L83.02751953125001,90.08017762502016L83.38491536458334,82.78659566243469L83.75347981770834,62.90449285507184L83.86516601562501,53.919390678405584L84.535283203125,30.37877464294419L84.63580078125,25.859848499297946L84.78099283854168,20.535604000091407L85.21656901041668,-4.2569479942322825L85.42877278645832,44.263775984446056L85.51812174479167,79.46802759170514L85.55162760416667,75.14603519439677L85.57396484374999,72.11114549636822L85.73032552083335,85.96215232213318L86.05421549479166,86.42400884628276L86.26641927083334,82.45602830251038L86.65732096354166,61.54822889963769L86.679658203125,57.32587560017887L87.07055989583333,59.48511346181216L87.10406575520834,55.62732203801456L88.27677083333333,38.73790884017929L88.44430013020833,34.33972183863307L88.47780598958333,30.408080259958762L88.56715494791668,16.975557645161807L88.622998046875,12.614881833394241L88.76819010416666,10.999556223551297L89.80687174479166,24.158950487772476L89.85154622395834,58.800534248351866L89.87388346354166,51.825797398884916L89.97440104166667,73.1813866297402L89.98556966145833,69.77959060668927L90.13076171875,79.25702714920025L90.16426757812499,80.43511295318585L90.25361653645834,71.016287644704L90.968408203125,48.62914069493594L91.12476888020832,42.2428606351215L91.20294921874999,35.29274050394678L91.25879231770833,25.97472651799506L91.99592122395833,17.886376221974558L92.56552083333334,48.25871769587183L93.09044596354167,44.84285497665389L93.10161458333333,40.86080773671452L93.179794921875,33.916548728942715L93.48134765625,25.89501523971543L93.87224934895833,15.452837785084915L93.983935546875,5.967195669809842L94.39717447916667,26.20096588134751L94.41951171875,44.4489874839781L94.4865234375,49.003080368041836L94.49769205729166,59.842641989389875L94.73223307291667,60.86833858489972L94.81041341145834,52.50099881490054L94.84391927083334,42.51247231165553L95.16780924479166,72.56362422307315L95.75974609375001,60.73236052195214L96.10597330729166,44.88739951451603L96.21765950520833,49.50830920537296L96.22882812499999,45.154666741688885L96.23999674479167,43.13023471832258L96.25116536458333,48.48378483454369L96.67557291666667,46.311652501423985L96.764921875,41.36838102340683L97.30101562499999,39.00400384267155L97.47971354166667,42.43158880869531L97.58023111979166,30.283824443816993L97.64724283854167,27.366157213846694L97.71425455729167,17.1654580434162L98.32852864583333,-3.363712787628305L98.909296875,-2.0766100883485197L98.93163411458333,10.171965599059927L98.95397135416665,21.121716340382754L98.98747721354167,26.32053279876695L99.14383789062501,77.87731870015443L99.36721028645833,68.49248790740948L100.42822916666667,40.62753502527856L100.53991536458334,34.41708866755152L100.685107421875,40.03204488754256L100.76328776041667,35.98669751485173L101.10951497395833,27.96750847498561L101.12068359374999,29.15262762705471L101.25470703124999,36.51771529515569L101.26587565104167,32.73025735219304L101.56742838541668,36.73574908574406L101.65677734375,32.448923428853206L101.958330078125,21.524961630503196L103.164541015625,-20.098392327626655L103.29856445312501,-8.520329157511506L103.30973307291667,3.541862805684281L103.41025065104166,36.69003232320135L103.54427408854166,56.417401472727285L103.58894856770834,46.192085584004545L103.6001171875,58.10540501276635L103.61128580729167,70.00231329599998L103.74530924479167,66.81737883885684L104.01335611979167,62.87870391209902L104.270234375,68.94262218475325L104.49360677083332,53.87250169118228L104.71697916666666,46.55195856094344L105.19722981770833,33.47462002436305L105.20839843750001,32.656407197316334L105.576962890625,31.611955006917164L105.73332356770834,31.402126789092872L106.67148763020835,22.060668309529483L107.28576171875,9.985581874847288L107.34160481770834,8.841490586598574L107.53147135416667,16.105766932169463L107.67666341145834,33.02331352233872L107.68783203125,44.42788743972761L107.97821614583333,93.27917877833028L108.00055338541667,89.73671579360942L108.01172200520833,91.72949775059998L108.06756510416668,84.06549278895041L108.123408203125,96.48404105504332L108.27976888020832,102.54795932769754L108.860537109375,86.58460362752258L109.40779947916667,74.95261812210065L109.41896809895833,72.63512992858867L109.47481119791667,70.91078742345155L109.72052083333332,79.70364475250224L110.52466145833333,77.17984501520773L111.03841796875,61.11450576782209L111.08309244791667,57.822898864745916L111.28412760416667,52.50334326426171L111.35113932291667,49.33716440200789L111.742041015625,41.2957030932107L112.18878580729167,38.87037022908513L112.19995442708333,42.61328363418564L112.52384440104167,105.88879966735819L112.57968749999999,96.88025299708028L112.64669921875,104.00034570693948L112.83656575520833,121.52510468165057L113.886416015625,103.68384504318216L114.14329427083334,86.16143051783223L114.154462890625,83.7337532043455L114.29965494791666,86.68189827601095L114.79107421875001,88.06277894973734L114.86925455729167,95.69044494628885L115.65105794270833,87.35944414138774L115.695732421875,85.5073291460671L115.96377929687499,75.52583599090556L116.33234374999999,59.33624092737816L116.51104166666666,52.90307188034041L116.62272786458333,56.81126896540307L116.92428059895833,69.31656185785911L116.99129231770833,94.86519877115865L117.04713541666666,100.06987635294577L117.32635091145833,104.11991262435892L118.0746484375,120.21455748875914L118.27568359374999,113.60086584091162L118.38736979166666,107.21458578109718L118.845283203125,105.05300347010274L118.86762044270833,101.87275791168192L119.10216145833334,93.80199098587015L119.280859375,90.64167324701924L119.6829296875,90.27125024795512L119.76111002604166,86.07703034083028L119.77227864583334,83.88145351409892L119.79461588541668,82.41968933741232L119.83929036458333,79.70833365122458L119.89513346354165,87.30317735671976L120.39772135416666,77.73196283976218L120.79979166666666,59.11469046274803L120.90030924479167,55.92155043284081L121.458740234375,38.30418570836368L121.55925781250001,35.1368346214293L121.63743815104166,41.949804464975834L122.02833984374999,103.73307847976662L122.20703776041667,118.8840824762978L122.25171223958334,113.23044284184752L122.262880859375,109.9493859608966L122.30755533854166,107.6752700805662L122.39690429687501,122.3081507682798L122.56443359375,119.03647168477355L122.68728841145833,118.28155899047829L122.95533528645834,115.0180854797361L123.08935872395833,112.16371838251729L123.45792317708333,103.5197335879006L123.51376627604166,101.87627458572365L123.89349934895833,86.57522583007794L124.31790690104167,90.42012278238911L125.09971028645833,77.97226889928163L125.345419921875,62.251563707987295L125.60229817708334,59.098279317219884L126.10488606770832,57.52515379587792L126.45111328125,73.47561502456647L126.69682291666668,100.31604353586812L126.70799153645834,98.0630276997882L126.74149739583333,106.00953880945819L127.00954427083333,109.20033439000427L127.21057942708335,103.16337728500343L127.824853515625,91.70956993103007L128.28276692708334,82.89444033304831L128.29393554687502,82.22041114171327L128.33861002604166,82.02230517069479L128.69600585937502,76.56325483322125L129.031064453125,72.75118017196635L130.103251953125,60.853099664052145L130.14792643229165,55.47727727889998L130.15909505208333,52.84094397226952L130.52765950520833,39.910133520761974L130.538828125,42.19245497385645L130.59467122395833,48.2399621009825L130.73986328125,48.36656236648543L130.91856119791666,61.74633487065615L131.34296875,89.0345532099404L131.66685872395834,102.27951987584412L132.06892903645834,99.16843557357768L132.57151692708334,91.80569235483784L132.59385416666666,89.02400318781515L132.72787760416665,83.37036355336488L133.051767578125,94.20640850067119L133.185791015625,95.75960620244324L133.50968098958333,89.751954714457L133.56552408854168,92.83725007375061L133.91175130208333,86.97729889551779L134.1574609375,81.76910463968893L134.58186848958334,77.21149508158346L134.98393880208334,69.0399168332416L135.1067936197917,69.32242298126204L135.17380533854168,63.086187680562155L135.22964843749997,65.82333230972272L135.52003255208334,66.65561183293643L135.56470703125,80.2006680170693L135.72106770833332,108.6013275782265L135.7657421875,114.85749069849628L136.04495768229168,117.22655677795387L136.10080078125,117.56415748596169L136.435859375,114.69103479385355L137.26233723958333,100.0054039955137L137.36285481770832,100.22812668482443L137.88777994791667,92.77746661504088L137.9101171875,93.38702344894389L137.99946614583334,96.181607087453L138.05530924479166,95.99756781260153L138.23400716145832,110.20141426722188L138.479716796875,106.30962832768738L138.63607747395835,101.10963964462259L139.35086914062498,82.15945545832297L139.384375,77.2712785402932L139.484892578125,73.35370365778586L139.67475911458334,74.92682917912784L139.83111979166665,85.35376771291078L139.86462565104165,99.48962513605734L139.94280598958335,108.2098045349119L140.00981770833332,111.45452245076474L140.0768294270833,119.73863426844258L141.07083658854168,120.89913670221941L141.32771484375,117.24882904688496L141.43940104166666,109.21908998489357L141.45056966145833,107.15714677174864L141.48407552083336,105.1831204096474L141.52875,104.560669104258L141.58459309895832,102.25021425882953L141.64043619791667,99.84598143895445L141.796796875,98.29512818654356L142.08718098958335,101.83055782318094L142.098349609375,102.41315348943053L142.31055338541668,99.06645202636697L142.835478515625,101.55156834920227L142.98067057291667,96.72083044052104L143.75130533854167,81.27325359980246L143.79597981770834,76.81879981358827L143.8294856770833,74.63611745834332L144.03052083333333,67.85010878245018L144.23155598958334,68.02828693389874L144.43259114583336,75.90798123677551L144.510771484375,96.032734553019L144.57778320312502,97.60117117563864L144.75648111979166,93.16664520899434L144.77881835937498,101.15652863184592L145.08037109375,113.15424823760964L145.11387695312501,121.09372599919615L145.59412760416666,111.66786734263081L145.73931966145832,104.27112960815407L145.92918619791666,97.22488705317159L145.97386067708334,95.15473826726259L146.119052734375,92.51019938786804L146.16372721354165,94.1442805926003L146.2195703125,93.97196356455466L146.30891927083331,92.14915418624858L146.53229166666665,93.84067440032939L146.83384440104166,95.22741619745871L147.124228515625,88.96304750442485L147.18007161458334,96.79936949412009L147.62681640625,90.65105104446391L147.80551432291668,85.83437983194966L147.88369466145835,81.59678761164328L148.0958984375,74.44270038604718L148.96705078124998,57.32001447677595L149.11224283854165,54.754014650980466L149.2574348958333,70.27309719721457L149.268603515625,76.16587066650372L149.3467838541667,87.6056113243101L149.63716796875002,82.93077929814636L149.670673828125,90.64870659510275L149.68184244791667,98.35960054397562L149.838203125,100.38051589330017L150.08391276041667,100.2621212005613L150.49715169270831,102.94768794377623L151.05558268229169,94.96014897028584L151.17843749999997,90.4084005355833L151.24544921875,96.58016347885109L151.49115885416668,99.96085945765157L151.64751953125,95.35401646296164L151.66985677083332,97.48160425821919L151.77037434895834,98.8073903719582L151.80388020833334,97.14048687616963L151.949072265625,95.08088811238588L151.96024088541665,97.43940416971822L152.016083984375,98.21072800954161L152.18361328125,95.90965096155782L152.25062499999999,93.22642866770406L152.70853841145833,84.48046032587668L152.85373046875,82.2790223757424L153.03242838541667,77.64639043807964L153.14411458333333,70.75253709157289L153.52384765624998,61.46734539667747L153.9929296875,100.05229298273701L154.14929036458332,109.87436358133931L154.20513346354167,113.55514907836891L154.58486653645835,115.9992375373838L154.964599609375,114.71565151214577L155.4671875,104.45868555704733L155.48952473958332,102.67690404256163L155.52303059895834,101.42614030837991L155.75757161458333,97.40306520462013L155.81341471354168,93.08458948135355L155.82458333333335,94.99414348602274L155.8692578125,92.91813357671083L156.36067708333334,100.86816136042256L156.45002604166666,98.5706009864805L156.58404947916665,97.87547175089499L156.706904296875,95.72678391138692L157.03079427083333,90.06611092885315L157.49987630208335,75.02998495101909L157.52221354166667,72.9106027285256L157.56688802083332,70.94478193918845L157.58922526041667,68.82891639073672L158.13648763020834,56.343551317850576L158.449208984375,89.93599398930847L158.66141276041665,110.15335305531798L158.95179687499999,103.84561204910257L158.97413411458334,101.51991828282654L159.21984375,108.50286070505757L159.96814127604168,91.659164269765L160.18034505208334,91.04960743586203L160.29203124999998,91.47864166895528L160.392548828125,89.54915984471619L160.43722330729165,89.39559841155986L160.50423502604167,92.04834286371846L160.85046223958332,92.00379832585632L161.02916015625001,88.60669120152771L161.15201497395833,86.53771464029928L161.71044596354167,82.34232250849387L162.39173177083333,63.953633944193335L162.78263346354166,60.864821910857984L162.79380208333333,60.142731507619054L163.006005859375,79.53953329722067L163.12886067708334,91.44464715321838L163.38573893229167,99.65139214197774L163.74313476562497,95.7748451232908L163.83248372395835,99.95265388488748L163.91066406250002,97.78052155176779L164.05585611979168,95.60956144332866L164.11169921874998,91.12931871414165L164.58078125,81.47018734614035L165.29557291666669,77.16812276840191L165.36258463541668,78.0965247154234L165.921015625,77.74134063720683L165.93218424479167,75.67822519938133L166.78099934895835,59.18150726954125L166.85917968750002,56.93083588282249L166.93736002604166,52.28999837239566L166.993203125,50.250327428181805L167.00437174479168,54.784492492675604L167.428779296875,87.46377213795961L167.57397135416667,94.21344184875467L167.59630859375,99.4028805096942L167.60747721354167,106.14082797368347L167.629814453125,105.97788874308246L167.70799479166666,103.06139373779276L167.79734375,106.12324460347472L168.14357096354166,99.44508059819518L168.24408854166668,106.34948396682717L168.45629231770835,102.2056697209674L168.769013671875,98.0700610478717L169.24926432291664,97.5144265492755L169.33861328125002,97.2764649391172L169.65133463541667,99.05004088083882L169.673671875,97.44057639439879L169.71834635416667,98.45689519246397L169.81886393229166,95.04689359664896L170.53365559895835,85.83789650599142L170.56716145833332,84.11120955149313L170.846376953125,77.70265722274762L171.27078450520833,71.99861192703229L171.4606510416667,66.23947207132957L171.59467447916666,64.12243429819723L172.052587890625,66.75290648142479L172.14193684895835,87.48604440689067L172.17544270833332,94.16772508621196L172.30946614583334,100.30549351374287L172.320634765625,99.4779028892515L172.33180338541666,98.31036710739113L172.36530924479166,94.54049253463724L172.454658203125,98.12163893381734L173.06893229166667,96.99161434173561L173.2364615885417,94.94842672348003L173.47100260416667,97.30225388209004L173.8283984375,90.55727307001729L174.062939453125,84.19560972849509L174.27514322916667,88.02878443400044L174.599033203125,87.27738841374695L174.6325390625,85.92933003107686L174.68838216145832,82.02699406941711L175.21330729166667,79.20310481389345L175.25798177083334,83.63176965713483L175.35849934895833,90.86908483505228L175.805244140625,80.13854010899841L176.274326171875,73.98904943466168L176.408349609375,71.19212134679141L176.41951822916667,69.32593965530377L176.65405924479165,66.60872284571312L177.00028645833333,82.32239468892395L177.26833333333335,103.86788431803366L177.52521158854165,111.62332280476865L177.5810546875,112.06056261062598L178.29584635416668,107.65065336227396L178.820771484375,100.49539391199727L178.99946940104167,101.84228006998678L179.1893359375,99.83308696746806L179.31219075520832,96.72669156392394L179.77010416666667,94.28260310490906L179.84828450520834,94.52642583847026L180.831123046875,87.16954374313335L181.32254231770835,70.0011410713194L181.3337109375,69.2286450068154L181.6017578125,67.42224677403749L181.78045572916668,74.6642508506773L181.88097330729167,98.69837347666403L182.07083984375,113.95136102040587L182.09317708333333,112.91042550404843L182.11551432291668,112.06290705998717L182.1378515625,114.55505673090595L182.16018880208333,113.12963151931741L182.20486328125,115.1060023307798L182.24953776041664,115.92655960718768L182.93082356770833,106.99420754114766L184.17054036458333,89.44717629750551L184.181708984375,87.7955117225645L184.22638346354165,86.46152003606142L184.66195963541665,94.72335958480815L185.56661783854165,76.46244351069113L185.6224609375,72.62575213114401L185.73414713541666,66.35200564066551L186.16972330729166,89.63121557235698L186.24790364583333,90.69207890828432L186.28140950520833,99.43921947479225L186.37075846354165,103.86319541931131L186.38192708333335,109.85443576176941L186.43777018229164,105.96030537287373L187.52112630208333,97.71253252029399L187.64398111979168,93.4057790438332L187.74449869791667,88.81300274531027L187.8450162760417,93.19008970260599L188.66032552083334,93.32958443959535L188.68266276041666,91.66150871912619L189.36394856770832,84.56720495223979L189.5538151041667,81.12320884068788L189.62082682291668,79.34142732620221L190.12341471354165,77.80932966868063L190.34678710937501,72.36317380269351L190.35795572916666,71.01863209406515L190.748857421875,71.45938857396425L190.90521809895833,77.1411616007485L190.92755533854165,87.08397134145082L191.07274739583332,90.48693958918233L191.08391601562502,96.33047962188701L191.24027669270833,109.34100135167418L191.37430013020835,108.01521523793515L191.485986328125,108.4196327527362L191.50832356770832,109.68094650904315L191.53066080729167,107.61196994781473L192.64752278645832,91.45636940002422L192.93790690104169,89.66872676213563L193.261796875,89.33933162689188L194.44567057291667,70.31998618443788L194.79189778645832,61.88348515828432L194.82540364583332,58.9212733904519L194.84774088541667,58.27303314208966L195.03760742187498,56.98710266749047L195.46201497395833,90.38730049133281L195.58486979166668,84.98803361256897L195.85291666666666,92.35429350535054L196.38901041666668,91.74239222208638L196.70173177083333,88.14366245269755L196.81341796875,85.19551738103212L196.83575520833332,84.31048774719218L196.980947265625,81.25098133087138L197.19315104166668,75.44026358922304L197.22665690104165,75.67588075002014L197.34951171875,72.63161325454693L197.37184895833332,72.28229029973329L197.383017578125,76.14945952097555L197.77391927083335,81.18064785003642L197.81859375,79.60166120529156L197.85209960937502,76.15649286905905L197.87443684895834,75.34062449137352L198.187158203125,72.01853974660219L198.4887109375,72.61168543497702L198.55572265625,70.9283707936603L198.56689127604164,69.06922245025618L198.589228515625,67.79266977310164L199.06947916666667,57.89088789621971L199.23700846354168,55.062309741973706L199.27051432291665,51.32056856155379L199.694921875,69.19230604171734L199.75076497395835,82.12897761662782L199.795439453125,85.70309066772441L199.85128255208335,89.79063812891623L199.88478841145832,86.21183617909729L199.90712565104167,83.96233701705913L200.197509765625,93.41632906595845L200.64425455729167,86.40525325139343L200.7782779947917,82.84872357050558L201.19151692708334,81.47018734614035L201.32554036458333,72.4452295303343L201.403720703125,76.89968331654846L201.6605989583333,75.53521378835023L201.79462239583333,77.757751782735L202.207861328125,69.53928454716981L202.45357096354167,66.20196088155093L202.71044921875,59.54724136988304L203.28004882812502,48.24465099970483L203.39173502604166,44.49587647120143L203.45874674479165,48.114534060160146L203.78263671874998,61.72640705108625L203.7938053385417,67.13270727793358L203.816142578125,69.3306285540261L203.883154296875,77.48579565683981L203.96133463541668,85.34907881418843L204.01717773437503,77.71320724487286L204.10652669270834,82.30715576807638L204.1623697916667,83.81815338134746L204.22938151041666,87.50831667582175L204.97767903645834,84.92238903045634L205.50260416666669,72.98796955744407L205.67013346354167,75.99941476186098L206.11687825520832,72.67264111836732L206.13921549479164,71.23197698593123L206.31791341145833,75.23395204544049L206.34025065104166,73.57525412241598L206.60829752604167,76.89616664250673L206.61946614583334,75.01591825485211L206.90985026041668,72.6468521753945L207.02153645833332,68.56985473632794L208.49579427083336,91.1527632077533L208.52930013020833,87.58451128005962L208.55163736979165,84.90011676152528L208.76384114583334,90.62291765212993L209.23292317708334,89.95709403355896L209.26642903645833,88.31832393010438L209.48980143229167,84.93411127726218L209.64616210937498,83.40670251846294L209.99238932291667,83.2871356010435L210.0147265625,80.94854736328105L210.05940104166666,81.16423670450827L210.56198893229168,77.25838406880676L210.718349609375,72.01736752192161L210.77419270833335,74.12737194697044L211.321455078125,69.9812132517495L211.53365885416667,66.91350126266461L211.75703125,63.79538361231467L211.94689778645835,61.59629011154156L212.4271484375,55.10919872919701L212.68402669270836,53.250050385792875L212.95207356770834,55.750405629475736L213.28713216145835,88.94311968485493L213.29830078125,94.0762915611265L213.32063802083331,99.20711898803688L213.39881835937499,96.0725901921588L213.71153971354167,94.91208775838197L214.23646484375,88.29605166117331L214.41516276041668,84.94114462534567L214.44866861979168,85.84258540471374L214.45983723958335,84.61761061350485L214.672041015625,81.37289269765198L214.78372721354165,78.4552254676817L215.21930338541665,85.22365077336609L215.29748372395832,88.33239062627136L215.63254231770836,86.31616417566916L215.68838541666665,86.20831950505556L216.05694986979165,81.77613798777243L216.21331054687502,76.71916071573874L216.3585026041667,73.88003253936748L216.883427734375,64.33226251602156L217.14030598958334,60.67257706324243L217.17381184895834,60.10639254252098L217.352509765625,58.54616149266543L217.49770182291667,68.61205482482892L217.55354492187502,83.68920866648337L217.58705078124999,84.6281606356301L217.74341145833333,93.08576170603415L217.821591796875,87.43329429626445L217.87743489583332,91.18324104944844L218.16781901041665,103.44705565770445L218.826767578125,95.92488988240538L218.98312825520833,94.36114215850809L219.18416341145834,88.52932437260927L219.34052408854166,94.31073649724306L219.70908854166666,90.13878885904928L219.74259440104169,94.31190872192363L219.77610026041665,91.10001309712707L219.92129231770832,90.99216842651347L220.08882161458334,92.57936064402243L220.72543294270832,85.8191409111021L221.08282877604168,77.3310619990029L221.09399739583333,76.04747597376488L221.20568359375002,74.82015673319479L221.239189453125,73.48968172073344L221.59658528645835,90.43653392791727L221.60775390625,95.3434664408364L221.641259765625,101.11081186930318L221.842294921875,105.6297380129494L221.9428125,106.13613907496112L222.3448828125,114.68751811981177L222.713447265625,110.08184734980243L222.93681966145834,103.02388254801413L223.26070963541665,96.48872995376567L223.32772135416667,96.11830695470154L223.39473307291667,95.09729925791402L223.41707031250002,94.99179903666158L223.819140625,93.10100062688171L223.8414778645833,92.23941548665343L223.91965820312498,90.26187245051045L224.120693359375,92.26989332834859L224.13186197916664,90.75537904103578L224.46692057291668,88.93608633677145L224.857822265625,83.39146359761537L225.38274739583332,69.69401820500674L225.74014322916665,63.353454907735006L225.88533528645831,69.71394602457663L225.89650390625,74.31610012054425L225.97468424479166,86.80732631683331L226.01935872395833,89.70154905319194L226.20922526041667,96.8708751996356L226.27623697916667,95.91316763559958L226.4214290364583,100.01360956827779L226.44376627604169,99.6595977147418L226.6336328125,95.61659479141214L227.15855794270834,94.65419832865376L227.63880859374999,83.46648597717265L227.78400065104165,80.24755700429262L227.82867513020835,82.5697340965269L227.92919270833335,81.23457018534323L228.19723958333336,84.4863214492796L228.30892578125,78.91239309310893L228.34243164062502,78.96162652969342L228.87852539062501,74.291483402252L228.90086263020834,73.01610294977804L229.11306640625,70.26840829849225L230.017724609375,55.41632159550968L230.24109700520833,56.27321783701562L230.3862890625,62.58916441599511L230.419794921875,68.01890913645408L230.49797526041667,75.59265279769879L230.67667317708333,77.88669649759909L230.90004557291667,85.86485767364482L231.34679036458334,86.3396086692808L231.52548828125,83.4231136639911L232.30729166666669,73.87651586532574L232.34079752604165,76.15180397033673L232.57533854166667,74.61032851537051L233.05558919270834,69.60492912928245L234.63036458333332,53.23715591430647L234.641533203125,51.76015281677229L234.85373697916665,51.87034193674706L235.01009765625,60.5459767977395L235.03243489583335,68.63198264439882L235.63554036458333,82.7526011466978L236.08228515625,78.42943652470886L236.52902994791665,75.67822519938133L236.54019856770833,74.2574888865151L236.59604166666668,73.0735419591266L236.67422200520832,72.46046845118187L236.75240234375,70.05271895726504L236.85291992187499,72.37724049886049L236.99811197916665,71.29410489400209L237.27732747395834,68.60502147674543L237.43368815104165,69.61430692672711L237.52303710937503,68.67887163162214L237.71290364583334,73.20365889867128L238.025625,68.83126084009788L238.40535807291667,62.968965212503896L238.91911458333334,53.48097864786768L239.198330078125,56.50649054845156L239.3546907552083,60.68547153472883L239.37702799479166,67.3413632710773L239.38819661458334,68.37292098999006L239.70091796875,81.32952038447043L239.75676106770834,87.39343865712463L239.8126041666667,85.52256806691469L239.86844726562498,86.17198053995747L240.10298828125002,87.4696332613625L240.85128580729167,84.19678195317566L240.90712890625002,83.72906430562318L240.91829752604167,82.7526011466978L241.10816406249998,78.89832639694195L241.208681640625,81.81716585159283L241.30919921875,80.79615815480531L241.86763020833334,75.06515169143658L241.96814778645833,73.45099830627423L242.02399088541668,71.9775118827818L243.34188802083335,60.691332658131735L243.64344075520833,56.11731195449812L243.72162109375,57.73498201370223L244.13486002604168,79.90292294820131L244.3247265625,90.55492862065614L244.46991861979166,89.75781583785991L244.693291015625,93.48900699615459L245.17354166666667,93.84536329905173L245.64262369791666,86.26693073908467L245.698466796875,86.85421530405661" style="fill: none;" fill="none"></path></g></g></g></g></g></g><g transform="translate(61, 177)" clip-path="url(#clip_1)"><clipPath id="clip_1"><rect width="268" height="22"></rect></clipPath><g><g><line x1="0" y1="0" x2="0" y2="5" style="visibility: inherit;" fill="rgb(0, 0, 0)" stroke="rgb(200, 195, 188)" stroke-width="1px"></line><line x1="22.337239583333332" y1="0" x2="22.337239583333332" y2="5" style="visibility: inherit;" fill="rgb(0, 0, 0)" stroke="rgb(200, 195, 188)" stroke-width="1px"></line><line x1="44.674479166666664" y1="0" x2="44.674479166666664" y2="5" style="visibility: inherit;" fill="rgb(0, 0, 0)" stroke="rgb(200, 195, 188)" stroke-width="1px"></line><line x1="67.01171875" y1="0" x2="67.01171875" y2="5" style="visibility: inherit;" fill="rgb(0, 0, 0)" stroke="rgb(200, 195, 188)" stroke-width="1px"></line><line x1="89.34895833333333" y1="0" x2="89.34895833333333" y2="5" style="visibility: inherit;" fill="rgb(0, 0, 0)" stroke="rgb(200, 195, 188)" stroke-width="1px"></line><line x1="111.68619791666667" y1="0" x2="111.68619791666667" y2="5" style="visibility: inherit;" fill="rgb(0, 0, 0)" stroke="rgb(200, 195, 188)" stroke-width="1px"></line><line x1="134.0234375" y1="0" x2="134.0234375" y2="5" style="visibility: inherit;" fill="rgb(0, 0, 0)" stroke="rgb(200, 195, 188)" stroke-width="1px"></line><line x1="156.36067708333334" y1="0" x2="156.36067708333334" y2="5" style="visibility: inherit;" fill="rgb(0, 0, 0)" stroke="rgb(200, 195, 188)" stroke-width="1px"></line><line x1="178.69791666666666" y1="0" x2="178.69791666666666" y2="5" style="visibility: inherit;" fill="rgb(0, 0, 0)" stroke="rgb(200, 195, 188)" stroke-width="1px"></line><line x1="201.03515625" y1="0" x2="201.03515625" y2="5" style="visibility: inherit;" fill="rgb(0, 0, 0)" stroke="rgb(200, 195, 188)" stroke-width="1px"></line><line x1="223.37239583333334" y1="0" x2="223.37239583333334" y2="5" style="visibility: inherit;" fill="rgb(0, 0, 0)" stroke="rgb(200, 195, 188)" stroke-width="1px"></line><line x1="245.70963541666666" y1="0" x2="245.70963541666666" y2="5" style="visibility: inherit;" fill="rgb(0, 0, 0)" stroke="rgb(200, 195, 188)" stroke-width="1px"></line><line x1="268.046875" y1="0" x2="268.046875" y2="5" style="visibility: inherit;" fill="rgb(0, 0, 0)" stroke="rgb(200, 195, 188)" stroke-width="1px"></line></g><g transform="translate(0, 8)"><text x="0" y="0" dx="0em" dy="0.95em" style="text-anchor: middle; visibility: hidden; font-family: Roboto, sans-serif; font-size: 12px; font-weight: 200;" fill="rgb(232, 230, 227)" stroke="none" stroke-width="1px">-2k</text><text x="22.337239583333332" y="0" dx="0em" dy="0.95em" style="text-anchor: middle; visibility: inherit; font-family: Roboto, sans-serif; font-size: 12px; font-weight: 200;" fill="rgb(232, 230, 227)" stroke="none" stroke-width="1px">0</text><text x="44.674479166666664" y="0" dx="0em" dy="0.95em" style="text-anchor: middle; visibility: hidden; font-family: Roboto, sans-serif; font-size: 12px; font-weight: 200;" fill="rgb(232, 230, 227)" stroke="none" stroke-width="1px">2k</text><text x="67.01171875" y="0" dx="0em" dy="0.95em" style="text-anchor: middle; visibility: inherit; font-family: Roboto, sans-serif; font-size: 12px; font-weight: 200;" fill="rgb(232, 230, 227)" stroke="none" stroke-width="1px">4k</text><text x="89.34895833333333" y="0" dx="0em" dy="0.95em" style="text-anchor: middle; visibility: hidden; font-family: Roboto, sans-serif; font-size: 12px; font-weight: 200;" fill="rgb(232, 230, 227)" stroke="none" stroke-width="1px">6k</text><text x="111.68619791666667" y="0" dx="0em" dy="0.95em" style="text-anchor: middle; visibility: inherit; font-family: Roboto, sans-serif; font-size: 12px; font-weight: 200;" fill="rgb(232, 230, 227)" stroke="none" stroke-width="1px">8k</text><text x="134.0234375" y="0" dx="0em" dy="0.95em" style="text-anchor: middle; visibility: hidden; font-family: Roboto, sans-serif; font-size: 12px; font-weight: 200;" fill="rgb(232, 230, 227)" stroke="none" stroke-width="1px">10k</text><text x="156.36067708333334" y="0" dx="0em" dy="0.95em" style="text-anchor: middle; visibility: inherit; font-family: Roboto, sans-serif; font-size: 12px; font-weight: 200;" fill="rgb(232, 230, 227)" stroke="none" stroke-width="1px">12k</text><text x="178.69791666666666" y="0" dx="0em" dy="0.95em" style="text-anchor: middle; visibility: hidden; font-family: Roboto, sans-serif; font-size: 12px; font-weight: 200;" fill="rgb(232, 230, 227)" stroke="none" stroke-width="1px">14k</text><text x="201.03515625" y="0" dx="0em" dy="0.95em" style="text-anchor: middle; visibility: inherit; font-family: Roboto, sans-serif; font-size: 12px; font-weight: 200;" fill="rgb(232, 230, 227)" stroke="none" stroke-width="1px">16k</text><text x="223.37239583333334" y="0" dx="0em" dy="0.95em" style="text-anchor: middle; visibility: hidden; font-family: Roboto, sans-serif; font-size: 12px; font-weight: 200;" fill="rgb(232, 230, 227)" stroke="none" stroke-width="1px">18k</text><text x="245.70963541666666" y="0" dx="0em" dy="0.95em" style="text-anchor: middle; visibility: inherit; font-family: Roboto, sans-serif; font-size: 12px; font-weight: 200;" fill="rgb(232, 230, 227)" stroke="none" stroke-width="1px">20k</text><text x="268.046875" y="0" dx="0em" dy="0.95em" style="text-anchor: middle; visibility: hidden; font-family: Roboto, sans-serif; font-size: 12px; font-weight: 200;" fill="rgb(232, 230, 227)" stroke="none" stroke-width="1px">22k</text></g><line x1="0" y1="0" x2="268.046875" y2="0" fill="rgb(0, 0, 0)" stroke="rgb(200, 195, 188)" stroke-width="1px"></line></g></g></g></g></svg>